%TF.GenerationSoftware,KiCad,Pcbnew,10.0.1*%
%TF.CreationDate,2026-04-18T08:45:55+02:00*%
%TF.ProjectId,MMS3_hat_HC-SR04-HX711,4d4d5333-5f68-4617-945f-48432d535230,R0*%
%TF.SameCoordinates,Original*%
%TF.FileFunction,Copper,L1,Top*%
%TF.FilePolarity,Positive*%
%FSLAX46Y46*%
G04 Gerber Fmt 4.6, Leading zero omitted, Abs format (unit mm)*
G04 Created by KiCad (PCBNEW 10.0.1) date 2026-04-18 08:45:55*
%MOMM*%
%LPD*%
G01*
G04 APERTURE LIST*
G04 Aperture macros list*
%AMRoundRect*
0 Rectangle with rounded corners*
0 $1 Rounding radius*
0 $2 $3 $4 $5 $6 $7 $8 $9 X,Y pos of 4 corners*
0 Add a 4 corners polygon primitive as box body*
4,1,4,$2,$3,$4,$5,$6,$7,$8,$9,$2,$3,0*
0 Add four circle primitives for the rounded corners*
1,1,$1+$1,$2,$3*
1,1,$1+$1,$4,$5*
1,1,$1+$1,$6,$7*
1,1,$1+$1,$8,$9*
0 Add four rect primitives between the rounded corners*
20,1,$1+$1,$2,$3,$4,$5,0*
20,1,$1+$1,$4,$5,$6,$7,0*
20,1,$1+$1,$6,$7,$8,$9,0*
20,1,$1+$1,$8,$9,$2,$3,0*%
G04 Aperture macros list end*
%TA.AperFunction,SMDPad,CuDef*%
%ADD10RoundRect,0.220000X-0.255000X0.220000X-0.255000X-0.220000X0.255000X-0.220000X0.255000X0.220000X0*%
%TD*%
%TA.AperFunction,SMDPad,CuDef*%
%ADD11RoundRect,0.225000X-0.225000X-0.250000X0.225000X-0.250000X0.225000X0.250000X-0.225000X0.250000X0*%
%TD*%
%TA.AperFunction,SMDPad,CuDef*%
%ADD12RoundRect,0.140000X-0.140000X-0.170000X0.140000X-0.170000X0.140000X0.170000X-0.140000X0.170000X0*%
%TD*%
%TA.AperFunction,ComponentPad*%
%ADD13RoundRect,0.250000X-0.600000X-0.725000X0.600000X-0.725000X0.600000X0.725000X-0.600000X0.725000X0*%
%TD*%
%TA.AperFunction,ComponentPad*%
%ADD14O,1.700000X1.950000*%
%TD*%
%TA.AperFunction,ComponentPad*%
%ADD15C,3.100000*%
%TD*%
%TA.AperFunction,ConnectorPad*%
%ADD16C,4.700000*%
%TD*%
%TA.AperFunction,SMDPad,CuDef*%
%ADD17RoundRect,0.140000X0.140000X0.170000X-0.140000X0.170000X-0.140000X-0.170000X0.140000X-0.170000X0*%
%TD*%
%TA.AperFunction,SMDPad,CuDef*%
%ADD18RoundRect,0.140000X-0.170000X0.140000X-0.170000X-0.140000X0.170000X-0.140000X0.170000X0.140000X0*%
%TD*%
%TA.AperFunction,SMDPad,CuDef*%
%ADD19RoundRect,0.225000X0.250000X-0.225000X0.250000X0.225000X-0.250000X0.225000X-0.250000X-0.225000X0*%
%TD*%
%TA.AperFunction,SMDPad,CuDef*%
%ADD20RoundRect,0.225000X-0.250000X0.225000X-0.250000X-0.225000X0.250000X-0.225000X0.250000X0.225000X0*%
%TD*%
%TA.AperFunction,ComponentPad*%
%ADD21R,1.700000X1.700000*%
%TD*%
%TA.AperFunction,SMDPad,CuDef*%
%ADD22RoundRect,0.250000X-1.000000X-0.300000X1.000000X-0.300000X1.000000X0.300000X-1.000000X0.300000X0*%
%TD*%
%TA.AperFunction,ComponentPad*%
%ADD23C,0.500000*%
%TD*%
%TA.AperFunction,SMDPad,CuDef*%
%ADD24RoundRect,0.250000X-0.920000X-1.550000X0.920000X-1.550000X0.920000X1.550000X-0.920000X1.550000X0*%
%TD*%
%TA.AperFunction,SMDPad,CuDef*%
%ADD25RoundRect,0.140000X0.170000X-0.140000X0.170000X0.140000X-0.170000X0.140000X-0.170000X-0.140000X0*%
%TD*%
%TA.AperFunction,SMDPad,CuDef*%
%ADD26R,1.000000X3.000000*%
%TD*%
%TA.AperFunction,ComponentPad*%
%ADD27C,1.700000*%
%TD*%
%TA.AperFunction,SMDPad,CuDef*%
%ADD28O,1.950000X0.570000*%
%TD*%
%TA.AperFunction,SMDPad,CuDef*%
%ADD29RoundRect,0.225000X0.225000X0.250000X-0.225000X0.250000X-0.225000X-0.250000X0.225000X-0.250000X0*%
%TD*%
%TA.AperFunction,SMDPad,CuDef*%
%ADD30RoundRect,0.150000X-0.150000X0.590000X-0.150000X-0.590000X0.150000X-0.590000X0.150000X0.590000X0*%
%TD*%
%TA.AperFunction,SMDPad,CuDef*%
%ADD31O,0.364000X1.742000*%
%TD*%
%TA.AperFunction,SMDPad,CuDef*%
%ADD32RoundRect,0.050000X0.375000X0.050000X-0.375000X0.050000X-0.375000X-0.050000X0.375000X-0.050000X0*%
%TD*%
%TA.AperFunction,SMDPad,CuDef*%
%ADD33RoundRect,0.050000X0.050000X0.375000X-0.050000X0.375000X-0.050000X-0.375000X0.050000X-0.375000X0*%
%TD*%
%TA.AperFunction,HeatsinkPad*%
%ADD34C,0.500000*%
%TD*%
%TA.AperFunction,HeatsinkPad*%
%ADD35RoundRect,0.250000X0.575000X0.575000X-0.575000X0.575000X-0.575000X-0.575000X0.575000X-0.575000X0*%
%TD*%
%TA.AperFunction,SMDPad,CuDef*%
%ADD36O,1.745000X0.560000*%
%TD*%
%TA.AperFunction,SMDPad,CuDef*%
%ADD37RoundRect,0.220000X0.220000X0.255000X-0.220000X0.255000X-0.220000X-0.255000X0.220000X-0.255000X0*%
%TD*%
%TA.AperFunction,ViaPad*%
%ADD38C,0.500000*%
%TD*%
%TA.AperFunction,Conductor*%
%ADD39C,0.300000*%
%TD*%
%TA.AperFunction,Conductor*%
%ADD40C,0.500000*%
%TD*%
%TA.AperFunction,Conductor*%
%ADD41C,0.200000*%
%TD*%
%TA.AperFunction,Conductor*%
%ADD42C,1.000000*%
%TD*%
G04 APERTURE END LIST*
D10*
%TO.P,D3,1*%
%TO.N,Net-(D3-Pad1)*%
X175395000Y-100775000D03*
%TO.P,D3,2*%
%TO.N,+3V3*%
X175395000Y-102355000D03*
%TD*%
D11*
%TO.P,C6,1*%
%TO.N,+3V3*%
X127920000Y-114600000D03*
%TO.P,C6,2*%
%TO.N,GND*%
X129480000Y-114600000D03*
%TD*%
D12*
%TO.P,R16,1*%
%TO.N,/HX711/INB+*%
X162900000Y-124600000D03*
%TO.P,R16,2*%
%TO.N,Net-(J9-Pin_3)*%
X163900000Y-124600000D03*
%TD*%
%TO.P,R15,1*%
%TO.N,/HX711/INB-*%
X162700000Y-126400000D03*
%TO.P,R15,2*%
%TO.N,Net-(J9-Pin_2)*%
X163700000Y-126400000D03*
%TD*%
D13*
%TO.P,J8,1,Pin_1_1*%
%TO.N,GND*%
X145250000Y-132555000D03*
D14*
%TO.P,J8,2,Pin_2_2*%
%TO.N,Net-(J8-Pin_2)*%
X147750000Y-132555000D03*
%TO.P,J8,3,Pin_3_3*%
%TO.N,Net-(J8-Pin_3)*%
X150250000Y-132555000D03*
%TO.P,J8,4,Pin_4_4*%
%TO.N,/HX711/EX+*%
X152750000Y-132555000D03*
%TD*%
D15*
%TO.P,H1,1,1_1*%
%TO.N,GND*%
X82000000Y-92000000D03*
D16*
X82000000Y-92000000D03*
%TD*%
D17*
%TO.P,R14,1*%
%TO.N,/HX711/INA-*%
X150100000Y-125820000D03*
%TO.P,R14,2*%
%TO.N,Net-(J8-Pin_2)*%
X149100000Y-125820000D03*
%TD*%
D18*
%TO.P,R24,1*%
%TO.N,Net-(U6-VFB)*%
X151400000Y-121900000D03*
%TO.P,R24,2*%
%TO.N,GND*%
X151400000Y-122900000D03*
%TD*%
%TO.P,R23,1*%
%TO.N,/HX711/EX+*%
X151700000Y-119800000D03*
%TO.P,R23,2*%
%TO.N,Net-(U6-VFB)*%
X151700000Y-120800000D03*
%TD*%
D19*
%TO.P,C16,1*%
%TO.N,+3V3*%
X159900000Y-115880000D03*
%TO.P,C16,2*%
%TO.N,GND*%
X159900000Y-114320000D03*
%TD*%
D20*
%TO.P,C12,1*%
%TO.N,/HX711/EX+*%
X149900000Y-119920000D03*
%TO.P,C12,2*%
%TO.N,GND*%
X149900000Y-121480000D03*
%TD*%
D21*
%TO.P,J4,1,Pin_1_1*%
%TO.N,/CH32V003/CH32V003.TX*%
X129700000Y-123600000D03*
%TD*%
D20*
%TO.P,C4,1*%
%TO.N,+3V3*%
X107300000Y-108220000D03*
%TO.P,C4,2*%
%TO.N,GND*%
X107300000Y-109780000D03*
%TD*%
D22*
%TO.P,U3,1,GND_1*%
%TO.N,GND*%
X102970000Y-110300000D03*
%TO.P,U3,2,VOUT_2*%
%TO.N,+3V3*%
X102970000Y-108000000D03*
%TO.P,U3,3,VIN_3*%
%TO.N,+5V*%
X102970000Y-105700000D03*
D23*
%TO.P,U3,4,VOUT_4*%
%TO.N,+3V3*%
X97000000Y-107000000D03*
X97000000Y-108000000D03*
D24*
X97000000Y-108000000D03*
D23*
X97000000Y-109000000D03*
%TD*%
D17*
%TO.P,R8,1*%
%TO.N,GND*%
X109300000Y-126837500D03*
%TO.P,R8,2*%
%TO.N,/CH32V003/PC4*%
X108300000Y-126837500D03*
%TD*%
D25*
%TO.P,R27,1*%
%TO.N,/Bus_switch/SEL1*%
X173700000Y-101700000D03*
%TO.P,R27,2*%
%TO.N,Net-(D3-Pad1)*%
X173700000Y-100700000D03*
%TD*%
D26*
%TO.P,J2,1,Pin_1_1*%
%TO.N,GND*%
X108950000Y-93038272D03*
%TO.P,J2,2,Pin_2_2*%
%TO.N,/Interboard_connector/SEL2*%
X108950000Y-98078272D03*
%TO.P,J2,3,Pin_3_3*%
%TO.N,+5V*%
X111490000Y-93038272D03*
%TO.P,J2,4,Pin_4_4*%
%TO.N,/Interboard_connector/SEL3*%
X111490000Y-98078272D03*
%TO.P,J2,5,Pin_5_5*%
%TO.N,+5V*%
X114030000Y-93038272D03*
%TO.P,J2,6,Pin_6_6*%
%TO.N,/Interboard_connector/SEL4*%
X114030000Y-98078272D03*
%TO.P,J2,7,Pin_7_7*%
%TO.N,GND*%
X116570000Y-93038272D03*
%TO.P,J2,8,Pin_8_8*%
%TO.N,/Interboard_connector/SEL5*%
X116570000Y-98078272D03*
%TO.P,J2,9,Pin_9_9*%
%TO.N,BRD_VIN*%
X119110000Y-93038272D03*
%TO.P,J2,10,Pin_10_10*%
%TO.N,/Interboard_connector/SEL6*%
X119110000Y-98078272D03*
%TO.P,J2,11,Pin_11_11*%
%TO.N,BRD_VIN*%
X121650000Y-93038272D03*
%TO.P,J2,12,Pin_12_12*%
%TO.N,/Interboard_connector/SEL7*%
X121650000Y-98078272D03*
%TO.P,J2,13,Pin_13_13*%
%TO.N,BRD_VIN*%
X124190000Y-93038272D03*
%TO.P,J2,14,Pin_14_14*%
%TO.N,/Interboard_connector/SEL8*%
X124190000Y-98078272D03*
%TO.P,J2,15,Pin_15_15*%
%TO.N,BRD_VIN*%
X126730000Y-93038272D03*
%TO.P,J2,16,Pin_16_16*%
%TO.N,unconnected-(J2-Pin_16-Pad16)*%
X126730000Y-98078272D03*
%TO.P,J2,17,Pin_17_17*%
%TO.N,GND*%
X129270000Y-93038272D03*
%TO.P,J2,18,Pin_18_18*%
%TO.N,/Bus_switch/Chainbus_In.SDA*%
X129270000Y-98078272D03*
%TO.P,J2,19,Pin_19_19*%
%TO.N,GND*%
X131810000Y-93038272D03*
%TO.P,J2,20,Pin_20_20*%
%TO.N,/Bus_switch/Chainbus_In.SCL*%
X131810000Y-98078272D03*
%TO.P,J2,21,Pin_21_21*%
%TO.N,GND*%
X134350000Y-93038272D03*
%TO.P,J2,22,Pin_22_22*%
%TO.N,/Bus_switch/Chainbus_In.CS*%
X134350000Y-98078272D03*
%TO.P,J2,23,Pin_23_23*%
%TO.N,GND*%
X136890000Y-93038272D03*
%TO.P,J2,24,Pin_24_24*%
%TO.N,/Bus_switch/Chainbus_In.SCK*%
X136890000Y-98078272D03*
%TO.P,J2,25,Pin_25_25*%
%TO.N,unconnected-(J2-Pin_25-Pad25)*%
X139430000Y-93038272D03*
%TO.P,J2,26,Pin_26_26*%
%TO.N,/Bus_switch/Chainbus_In.MOSI*%
X139430000Y-98078272D03*
%TO.P,J2,27,Pin_27_27*%
%TO.N,unconnected-(J2-Pin_27-Pad27)*%
X141970000Y-93038272D03*
%TO.P,J2,28,Pin_28_28*%
%TO.N,/Bus_switch/Chainbus_In.MISO*%
X141970000Y-98078272D03*
%TO.P,J2,29,Pin_29_29*%
%TO.N,+12V stby*%
X144510000Y-93038272D03*
%TO.P,J2,30,Pin_30_30*%
%TO.N,/Bus_switch/Chainbus_In.TX*%
X144510000Y-98078272D03*
%TO.P,J2,31,Pin_31_31*%
%TO.N,GND*%
X147050000Y-93038272D03*
%TO.P,J2,32,Pin_32_32*%
%TO.N,/Bus_switch/Chainbus_In.RX*%
X147050000Y-98078272D03*
%TD*%
D21*
%TO.P,J3,1,Pin_1_1*%
%TO.N,/Bus_switch/Chainbus.SDA*%
X151170000Y-100000000D03*
D27*
%TO.P,J3,2,Pin_2_2*%
%TO.N,/Bus_switch/Chainbus.SCL*%
X153710000Y-100000000D03*
%TO.P,J3,3,Pin_3_3*%
%TO.N,GND*%
X156250000Y-100000000D03*
%TO.P,J3,4,Pin_4_4*%
%TO.N,+3V3*%
X158790000Y-100000000D03*
%TD*%
D17*
%TO.P,R20,1*%
%TO.N,GND*%
X137125000Y-126787500D03*
%TO.P,R20,2*%
%TO.N,/CH32V003/PD0*%
X136125000Y-126787500D03*
%TD*%
D19*
%TO.P,C1,1*%
%TO.N,+3V3*%
X147900000Y-108380000D03*
%TO.P,C1,2*%
%TO.N,GND*%
X147900000Y-106820000D03*
%TD*%
D28*
%TO.P,U2,1,A0_1*%
%TO.N,GND*%
X168710000Y-102660000D03*
%TO.P,U2,2,A1_2*%
X168710000Y-101390000D03*
%TO.P,U2,3,A2_3*%
X168710000Y-100110000D03*
%TO.P,U2,4,VSS_4*%
X168710000Y-98840000D03*
%TO.P,U2,5,SDA_5*%
%TO.N,/Bus_switch/Chainbus.SDA*%
X163290000Y-98840000D03*
%TO.P,U2,6,SCL_6*%
%TO.N,/Bus_switch/Chainbus.SCL*%
X163290000Y-100110000D03*
%TO.P,U2,7,#WC_7*%
%TO.N,unconnected-(U2-#WC-Pad7)*%
X163290000Y-101390000D03*
%TO.P,U2,8,VCC_8*%
%TO.N,+3V3*%
X163290000Y-102660000D03*
%TD*%
D25*
%TO.P,R11,1*%
%TO.N,+3V3*%
X129325000Y-119500000D03*
%TO.P,R11,2*%
%TO.N,/CH32V003/PD7*%
X129325000Y-118500000D03*
%TD*%
D29*
%TO.P,C14,1*%
%TO.N,+5V*%
X152180000Y-115500000D03*
%TO.P,C14,2*%
%TO.N,GND*%
X150620000Y-115500000D03*
%TD*%
D13*
%TO.P,J11,1,Pin_1_1*%
%TO.N,+5V*%
X117425000Y-131912500D03*
D14*
%TO.P,J11,2,Pin_2_2*%
%TO.N,/CH32V003/CH32V003.MISO*%
X119925000Y-131912500D03*
%TO.P,J11,3,Pin_3_3*%
%TO.N,/HC-SR04 #3/Echo_5V*%
X122425000Y-131912500D03*
%TO.P,J11,4,Pin_4_4*%
%TO.N,GND*%
X124925000Y-131912500D03*
%TD*%
D13*
%TO.P,J10,1,Pin_1_1*%
%TO.N,+5V*%
X131075000Y-132242500D03*
D14*
%TO.P,J10,2,Pin_2_2*%
%TO.N,/CH32V003/PD2*%
X133575000Y-132242500D03*
%TO.P,J10,3,Pin_3_3*%
%TO.N,/HC-SR04 #4/Echo_5V*%
X136075000Y-132242500D03*
%TO.P,J10,4,Pin_4_4*%
%TO.N,GND*%
X138575000Y-132242500D03*
%TD*%
D13*
%TO.P,J9,1,Pin_1_1*%
%TO.N,GND*%
X159250000Y-132555000D03*
D14*
%TO.P,J9,2,Pin_2_2*%
%TO.N,Net-(J9-Pin_2)*%
X161750000Y-132555000D03*
%TO.P,J9,3,Pin_3_3*%
%TO.N,Net-(J9-Pin_3)*%
X164250000Y-132555000D03*
%TO.P,J9,4,Pin_4_4*%
%TO.N,/HX711/EX+*%
X166750000Y-132555000D03*
%TD*%
D29*
%TO.P,C13,1*%
%TO.N,Net-(U6-VBG)*%
X151480000Y-124400000D03*
%TO.P,C13,2*%
%TO.N,GND*%
X149920000Y-124400000D03*
%TD*%
D30*
%TO.P,Q3,1,B_1*%
%TO.N,Net-(Q3-B)*%
X146150000Y-117320000D03*
%TO.P,Q3,2,E_2*%
%TO.N,+5V*%
X144250000Y-117320000D03*
%TO.P,Q3,3,C_3*%
%TO.N,/HX711/EX+*%
X145200000Y-119200000D03*
%TD*%
D20*
%TO.P,C5,1*%
%TO.N,+3V3*%
X105800000Y-108220000D03*
%TO.P,C5,2*%
%TO.N,GND*%
X105800000Y-109780000D03*
%TD*%
%TO.P,C2,1*%
%TO.N,+3V3*%
X161450000Y-102670000D03*
%TO.P,C2,2*%
%TO.N,GND*%
X161450000Y-104230000D03*
%TD*%
D12*
%TO.P,R1,1*%
%TO.N,/Bus_switch/SEL1*%
X153100000Y-103000000D03*
%TO.P,R1,2*%
%TO.N,+3V3*%
X154100000Y-103000000D03*
%TD*%
D21*
%TO.P,J7,1,Pin_1_1*%
%TO.N,GND*%
X136180000Y-107525000D03*
D27*
%TO.P,J7,2,Pin_2_2*%
%TO.N,/CH32V003/SWIO*%
X133640000Y-107525000D03*
%TO.P,J7,3,Pin_3_3*%
%TO.N,+3V3*%
X131100000Y-107525000D03*
%TD*%
D13*
%TO.P,J5,1,Pin_1_1*%
%TO.N,+5V*%
X89250000Y-132455000D03*
D14*
%TO.P,J5,2,Pin_2_2*%
%TO.N,/CH32V003/PC3*%
X91750000Y-132455000D03*
%TO.P,J5,3,Pin_3_3*%
%TO.N,/HC-SR04 #1/Echo_5V*%
X94250000Y-132455000D03*
%TO.P,J5,4,Pin_4_4*%
%TO.N,GND*%
X96750000Y-132455000D03*
%TD*%
D18*
%TO.P,R5,1*%
%TO.N,/CH32V003/PC0*%
X94300000Y-128000000D03*
%TO.P,R5,2*%
%TO.N,/HC-SR04 #1/Echo_5V*%
X94300000Y-129000000D03*
%TD*%
D20*
%TO.P,C11,1*%
%TO.N,/HX711/EX+*%
X148200000Y-119920000D03*
%TO.P,C11,2*%
%TO.N,GND*%
X148200000Y-121480000D03*
%TD*%
D18*
%TO.P,R12,1*%
%TO.N,/CH32V003/CH32V003.RX*%
X128100000Y-120000000D03*
%TO.P,R12,2*%
%TO.N,Net-(D4-Pad2)*%
X128100000Y-121000000D03*
%TD*%
D31*
%TO.P,U1,1,NC_1*%
%TO.N,unconnected-(U1-NC-Pad1)*%
X146860000Y-102700000D03*
%TO.P,U1,2,A1_2*%
%TO.N,/Bus_switch/Chainbus_In.RX*%
X146210000Y-102700000D03*
%TO.P,U1,3,A2_3*%
%TO.N,/Bus_switch/Chainbus_In.TX*%
X145560000Y-102700000D03*
%TO.P,U1,4,A3_4*%
%TO.N,/Bus_switch/Chainbus_In.MISO*%
X144910000Y-102700000D03*
%TO.P,U1,5,A4_5*%
%TO.N,/Bus_switch/Chainbus_In.MOSI*%
X144250000Y-102700000D03*
%TO.P,U1,6,A5_6*%
%TO.N,/Bus_switch/Chainbus_In.SCK*%
X143600000Y-102700000D03*
%TO.P,U1,7,A6_7*%
%TO.N,/Bus_switch/Chainbus_In.CS*%
X142950000Y-102700000D03*
%TO.P,U1,8,A7_8*%
%TO.N,/Bus_switch/Chainbus_In.SCL*%
X142300000Y-102700000D03*
%TO.P,U1,9,A8_9*%
%TO.N,/Bus_switch/Chainbus_In.SDA*%
X141650000Y-102700000D03*
%TO.P,U1,10,GND_10*%
%TO.N,GND*%
X141000000Y-102700000D03*
%TO.P,U1,11,B8_11*%
%TO.N,/Bus_switch/Chainbus.SDA*%
X141000000Y-108440000D03*
%TO.P,U1,12,B7_12*%
%TO.N,/Bus_switch/Chainbus.SCL*%
X141650000Y-108440000D03*
%TO.P,U1,13,B6_13*%
%TO.N,/Bus_switch/Chainbus.CS*%
X142300000Y-108440000D03*
%TO.P,U1,14,B5_14*%
%TO.N,/Bus_switch/Chainbus.SCK*%
X142950000Y-108440000D03*
%TO.P,U1,15,B4_15*%
%TO.N,/Bus_switch/Chainbus.MOSI*%
X143600000Y-108440000D03*
%TO.P,U1,16,B3_16*%
%TO.N,/Bus_switch/Chainbus.MISO*%
X144250000Y-108440000D03*
%TO.P,U1,17,B2_17*%
%TO.N,/Bus_switch/Chainbus.TX*%
X144910000Y-108440000D03*
%TO.P,U1,18,B1_18*%
%TO.N,/Bus_switch/Chainbus.RX*%
X145560000Y-108440000D03*
%TO.P,U1,19,~{OE}_19*%
%TO.N,/Bus_switch/SEL1*%
X146210000Y-108440000D03*
%TO.P,U1,20,VCC_20*%
%TO.N,+3V3*%
X146860000Y-108440000D03*
%TD*%
D19*
%TO.P,C9,1*%
%TO.N,/HX711/INA+*%
X151600000Y-127380000D03*
%TO.P,C9,2*%
%TO.N,/HX711/INA-*%
X151600000Y-125820000D03*
%TD*%
D17*
%TO.P,R13,1*%
%TO.N,/HX711/INA+*%
X150100000Y-127420000D03*
%TO.P,R13,2*%
%TO.N,Net-(J8-Pin_3)*%
X149100000Y-127420000D03*
%TD*%
D18*
%TO.P,R7,1*%
%TO.N,/CH32V003/PC4*%
X108300000Y-127837500D03*
%TO.P,R7,2*%
%TO.N,/HC-SR04 #2/Echo_5V*%
X108300000Y-128837500D03*
%TD*%
D17*
%TO.P,R9,1*%
%TO.N,+3V3*%
X157200000Y-97500000D03*
%TO.P,R9,2*%
%TO.N,/Bus_switch/Chainbus.SCL*%
X156200000Y-97500000D03*
%TD*%
D13*
%TO.P,J6,1,Pin_1_1*%
%TO.N,+5V*%
X103250000Y-132292500D03*
D14*
%TO.P,J6,2,Pin_2_2*%
%TO.N,/CH32V003/CH32V003.SCK*%
X105750000Y-132292500D03*
%TO.P,J6,3,Pin_3_3*%
%TO.N,/HC-SR04 #2/Echo_5V*%
X108250000Y-132292500D03*
%TO.P,J6,4,Pin_4_4*%
%TO.N,GND*%
X110750000Y-132292500D03*
%TD*%
D18*
%TO.P,R19,1*%
%TO.N,/CH32V003/PD0*%
X136125000Y-127787500D03*
%TO.P,R19,2*%
%TO.N,/HC-SR04 #4/Echo_5V*%
X136125000Y-128787500D03*
%TD*%
D32*
%TO.P,U5,1,PD7_1*%
%TO.N,/CH32V003/PD7*%
X128200000Y-118200000D03*
%TO.P,U5,2,PA1_2*%
%TO.N,/CH32V003/OSCI*%
X128200000Y-117800000D03*
%TO.P,U5,3,PA2_3*%
%TO.N,/CH32V003/OSCO*%
X128200000Y-117400000D03*
%TO.P,U5,4,VSS_4*%
%TO.N,GND*%
X128200000Y-117000000D03*
%TO.P,U5,5,PD0_5*%
%TO.N,/CH32V003/PD0*%
X128200000Y-116600000D03*
D33*
%TO.P,U5,6,VDD_6*%
%TO.N,+3V3*%
X127550000Y-115950000D03*
%TO.P,U5,7,PC0_7*%
%TO.N,/CH32V003/PC0*%
X127150000Y-115950000D03*
%TO.P,U5,8,PC1_8*%
%TO.N,/Bus_switch/Chainbus.SCL*%
X126750000Y-115950000D03*
%TO.P,U5,9,PC2_9*%
%TO.N,/Bus_switch/Chainbus.SDA*%
X126350000Y-115950000D03*
%TO.P,U5,10,PC3_10*%
%TO.N,/CH32V003/PC3*%
X125950000Y-115950000D03*
D32*
%TO.P,U5,11,PC4_11*%
%TO.N,/CH32V003/PC4*%
X125300000Y-116600000D03*
%TO.P,U5,12,PC5_12*%
%TO.N,/CH32V003/CH32V003.SCK*%
X125300000Y-117000000D03*
%TO.P,U5,13,PC6_13*%
%TO.N,/CH32V003/CH32V003.MOSI*%
X125300000Y-117400000D03*
%TO.P,U5,14,PC7_14*%
%TO.N,/CH32V003/CH32V003.MISO*%
X125300000Y-117800000D03*
%TO.P,U5,15,PD1_15*%
%TO.N,/CH32V003/SWIO*%
X125300000Y-118200000D03*
D33*
%TO.P,U5,16,PD2_16*%
%TO.N,/CH32V003/PD2*%
X125950000Y-118850000D03*
%TO.P,U5,17,PD3_17*%
%TO.N,/CH32V003/PD3*%
X126350000Y-118850000D03*
%TO.P,U5,18,PD4_18*%
%TO.N,/CH32V003/PD4*%
X126750000Y-118850000D03*
%TO.P,U5,19,PD5_19*%
%TO.N,/CH32V003/CH32V003.TX*%
X127150000Y-118850000D03*
%TO.P,U5,20,PD6_20*%
%TO.N,/CH32V003/CH32V003.RX*%
X127550000Y-118850000D03*
D34*
%TO.P,U5,21,VSS_21*%
%TO.N,GND*%
X126750000Y-117400000D03*
D35*
X126750000Y-117400000D03*
%TD*%
D18*
%TO.P,R21,1*%
%TO.N,/CH32V003/CH32V003.MOSI*%
X122475000Y-127457500D03*
%TO.P,R21,2*%
%TO.N,/HC-SR04 #3/Echo_5V*%
X122475000Y-128457500D03*
%TD*%
D17*
%TO.P,R22,1*%
%TO.N,GND*%
X123475000Y-126457500D03*
%TO.P,R22,2*%
%TO.N,/CH32V003/CH32V003.MOSI*%
X122475000Y-126457500D03*
%TD*%
D25*
%TO.P,R25,1*%
%TO.N,+3V3*%
X157200000Y-96600000D03*
%TO.P,R25,2*%
%TO.N,/Bus_switch/Chainbus.SDA*%
X157200000Y-95600000D03*
%TD*%
D36*
%TO.P,U6,1,VSUP_1*%
%TO.N,+5V*%
X154030000Y-117112500D03*
%TO.P,U6,2,BASE_2*%
%TO.N,Net-(Q3-B)*%
X154030000Y-118392500D03*
%TO.P,U6,3,AVDD_3*%
%TO.N,/HX711/EX+*%
X154030000Y-119662500D03*
%TO.P,U6,4,VFB_4*%
%TO.N,Net-(U6-VFB)*%
X154030000Y-120932500D03*
%TO.P,U6,5,AGND_5*%
%TO.N,GND*%
X154030000Y-122192500D03*
%TO.P,U6,6,VBG_6*%
%TO.N,Net-(U6-VBG)*%
X154030000Y-123462500D03*
%TO.P,U6,7,INNA_7*%
%TO.N,/HX711/INA-*%
X154030000Y-124732500D03*
%TO.P,U6,8,INPA_8*%
%TO.N,/HX711/INA+*%
X154030000Y-126012500D03*
%TO.P,U6,9,INNB_9*%
%TO.N,/HX711/INB-*%
X159770000Y-126012500D03*
%TO.P,U6,10,INPB_10*%
%TO.N,/HX711/INB+*%
X159770000Y-124732500D03*
%TO.P,U6,11,PD_SCK_11*%
%TO.N,/CH32V003/PD4*%
X159770000Y-123462500D03*
%TO.P,U6,12,DOUT_12*%
%TO.N,/CH32V003/CH32V003.RX*%
X159770000Y-122192500D03*
%TO.P,U6,13,XO_13*%
%TO.N,GND*%
X159770000Y-120932500D03*
%TO.P,U6,14,XI_14*%
%TO.N,unconnected-(U6-XI-Pad14)*%
X159770000Y-119662500D03*
%TO.P,U6,15,RATE_15*%
%TO.N,/CH32V003/PD3*%
X159770000Y-118392500D03*
%TO.P,U6,16,DVDD_16*%
%TO.N,+3V3*%
X159770000Y-117112500D03*
%TD*%
D11*
%TO.P,C3,1*%
%TO.N,+5V*%
X104320000Y-104400000D03*
%TO.P,C3,2*%
%TO.N,GND*%
X105880000Y-104400000D03*
%TD*%
D29*
%TO.P,C15,1*%
%TO.N,+5V*%
X152180000Y-117100000D03*
%TO.P,C15,2*%
%TO.N,GND*%
X150620000Y-117100000D03*
%TD*%
D19*
%TO.P,C10,1*%
%TO.N,/HX711/INB-*%
X161500000Y-126280000D03*
%TO.P,C10,2*%
%TO.N,/HX711/INB+*%
X161500000Y-124720000D03*
%TD*%
D17*
%TO.P,R6,1*%
%TO.N,GND*%
X95300000Y-127000000D03*
%TO.P,R6,2*%
%TO.N,/CH32V003/PC0*%
X94300000Y-127000000D03*
%TD*%
D37*
%TO.P,D4,1*%
%TO.N,GND*%
X130900000Y-120900000D03*
%TO.P,D4,2*%
%TO.N,Net-(D4-Pad2)*%
X129320000Y-120900000D03*
%TD*%
D38*
%TO.N,GND*%
X109600000Y-126000000D03*
X135644462Y-94153933D03*
X115694462Y-93903933D03*
X167100000Y-98800000D03*
X123800000Y-125500000D03*
X133094462Y-94203933D03*
X102300000Y-111500000D03*
X115694462Y-92853933D03*
X110144462Y-92053933D03*
X130544462Y-93053933D03*
X148200000Y-122600000D03*
X110144462Y-93053933D03*
X107000000Y-104400000D03*
X133094462Y-93153933D03*
X149900000Y-122600000D03*
X137400000Y-125900000D03*
X152500000Y-122300000D03*
X147900000Y-105700000D03*
X129200000Y-117000000D03*
X130544462Y-94103933D03*
X110144462Y-94103933D03*
X130900000Y-119800000D03*
X130400000Y-114600000D03*
X148194462Y-94103933D03*
X115694462Y-91853933D03*
X148194462Y-92053933D03*
X140200000Y-102700000D03*
X103100000Y-111600000D03*
X149300000Y-116000000D03*
X167000000Y-100100000D03*
X103900000Y-111500000D03*
X130544462Y-92053933D03*
X167000000Y-101400000D03*
X167000000Y-102600000D03*
X95600000Y-126100000D03*
X162600000Y-104200000D03*
X150500000Y-123300000D03*
X135644462Y-93103933D03*
X161700000Y-120900000D03*
X148800000Y-124400000D03*
X135644462Y-92103933D03*
X149300000Y-117100000D03*
X148194462Y-93053933D03*
X161200000Y-114300000D03*
X133094462Y-92153933D03*
%TO.N,+3V3*%
X150400000Y-110800000D03*
X154700000Y-107100000D03*
X138700000Y-109200000D03*
%TO.N,+5V*%
X112794462Y-92103933D03*
X112794462Y-94403933D03*
X112794462Y-93703933D03*
X112794462Y-92953933D03*
%TO.N,/Bus_switch/Chainbus_In.RX*%
X148300000Y-98000000D03*
%TO.N,/Bus_switch/Chainbus_In.MOSI*%
X140600000Y-98000000D03*
%TO.N,/Bus_switch/Chainbus_In.SDA*%
X130500000Y-98000000D03*
%TO.N,/Bus_switch/SEL1*%
X109200000Y-101000000D03*
%TO.N,/Interboard_connector/SEL2*%
X110294462Y-98103933D03*
%TO.N,/Bus_switch/Chainbus_In.TX*%
X145700000Y-98000000D03*
%TO.N,/Interboard_connector/SEL8*%
X125607734Y-98167205D03*
%TO.N,/Interboard_connector/SEL5*%
X117794462Y-98103933D03*
%TO.N,/Interboard_connector/SEL7*%
X123107734Y-98167205D03*
%TO.N,/Interboard_connector/SEL4*%
X115294462Y-98103933D03*
%TO.N,/Bus_switch/Chainbus_In.SCK*%
X138000000Y-98000000D03*
%TO.N,/Bus_switch/Chainbus_In.MISO*%
X143100000Y-98000000D03*
%TO.N,+12V stby*%
X143444462Y-93153933D03*
%TO.N,/Bus_switch/Chainbus_In.SCL*%
X133100000Y-98100000D03*
%TO.N,/Bus_switch/Chainbus_In.CS*%
X135600000Y-98000000D03*
%TO.N,/Interboard_connector/SEL3*%
X112794462Y-98103933D03*
%TO.N,/Interboard_connector/SEL6*%
X120294462Y-98103933D03*
%TO.N,BRD_VIN*%
X120394462Y-94003933D03*
X120394462Y-93003933D03*
X125494462Y-94053933D03*
X122944462Y-92053933D03*
X125494462Y-92053933D03*
X122944462Y-93053933D03*
X125494462Y-93053933D03*
X120394462Y-92003933D03*
X122944462Y-94053933D03*
%TO.N,/Bus_switch/Chainbus.SCL*%
X127200000Y-111000000D03*
X142600000Y-105100000D03*
X161700000Y-100100000D03*
X126600000Y-114500000D03*
%TO.N,/Bus_switch/Chainbus.SDA*%
X142000000Y-104600000D03*
X124900000Y-113200000D03*
X126500000Y-110500000D03*
%TO.N,/CH32V003/PC0*%
X126000000Y-113700000D03*
X118400000Y-113700000D03*
%TO.N,/CH32V003/PC3*%
X112300000Y-119700000D03*
X115500000Y-119800000D03*
X101500000Y-121700000D03*
%TO.N,/CH32V003/CH32V003.SCK*%
X120600000Y-118400000D03*
X114803611Y-118700000D03*
%TO.N,/CH32V003/SWIO*%
X125100000Y-119200000D03*
%TO.N,/CH32V003/PD0*%
X135000000Y-123300000D03*
X129300000Y-116000000D03*
%TO.N,/CH32V003/CH32V003.MOSI*%
X122100000Y-121800000D03*
X122200000Y-119600000D03*
%TO.N,/CH32V003/PD3*%
X126250000Y-120700000D03*
X131100000Y-118800000D03*
%TO.N,/CH32V003/PD4*%
X126996446Y-121603554D03*
X132500000Y-121603554D03*
%TD*%
%TO.N,+3V3*%
D39*
X171150000Y-110050000D02*
X156350000Y-110050000D01*
X175395000Y-105805000D02*
X171150000Y-110050000D01*
X175395000Y-102355000D02*
X175395000Y-105805000D01*
D40*
X156350000Y-110050000D02*
X154000000Y-107700000D01*
%TO.N,GND*%
X103490000Y-109780000D02*
X102970000Y-110300000D01*
X161180000Y-114320000D02*
X161200000Y-114300000D01*
D41*
X168710000Y-98840000D02*
X167140000Y-98840000D01*
X159770000Y-120932500D02*
X161667500Y-120932500D01*
X102970000Y-110300000D02*
X102970000Y-111470000D01*
X109300000Y-126237500D02*
X109600000Y-125937500D01*
X102970000Y-110570000D02*
X103900000Y-111500000D01*
X137425000Y-125887500D02*
X137412500Y-125887500D01*
X147900000Y-106820000D02*
X147900000Y-105700000D01*
X149900000Y-121480000D02*
X149900000Y-122600000D01*
X168710000Y-100110000D02*
X167010000Y-100110000D01*
X151400000Y-122900000D02*
X151000000Y-123300000D01*
X168710000Y-101390000D02*
X167010000Y-101390000D01*
D40*
X105800000Y-109780000D02*
X103490000Y-109780000D01*
D41*
X128200000Y-117000000D02*
X129200000Y-117000000D01*
X161667500Y-120932500D02*
X161700000Y-120900000D01*
X137125000Y-126187500D02*
X137425000Y-125887500D01*
X151000000Y-123300000D02*
X150500000Y-123300000D01*
D40*
X150620000Y-117100000D02*
X149300000Y-117100000D01*
D41*
X102970000Y-110300000D02*
X102970000Y-110570000D01*
X129480000Y-114600000D02*
X130400000Y-114600000D01*
X123775000Y-125525000D02*
X123800000Y-125500000D01*
X123775000Y-125557500D02*
X123775000Y-125525000D01*
X95300000Y-126400000D02*
X95600000Y-126100000D01*
X109300000Y-126837500D02*
X109300000Y-126237500D01*
X102970000Y-111470000D02*
X103100000Y-111600000D01*
X130900000Y-120900000D02*
X130900000Y-119800000D01*
X167060000Y-102660000D02*
X167000000Y-102600000D01*
X95300000Y-127000000D02*
X95300000Y-126400000D01*
X167140000Y-98840000D02*
X167100000Y-98800000D01*
D40*
X105880000Y-104400000D02*
X107000000Y-104400000D01*
D41*
X102970000Y-110830000D02*
X102300000Y-111500000D01*
X109600000Y-125937500D02*
X109600000Y-126000000D01*
X137412500Y-125887500D02*
X137400000Y-125900000D01*
X127150000Y-117000000D02*
X126750000Y-117400000D01*
X167010000Y-101390000D02*
X167000000Y-101400000D01*
X123475000Y-126457500D02*
X123475000Y-125857500D01*
D40*
X159900000Y-114320000D02*
X161180000Y-114320000D01*
X107300000Y-109780000D02*
X105800000Y-109780000D01*
X150620000Y-115500000D02*
X149800000Y-115500000D01*
D41*
X154200000Y-122330000D02*
X152530000Y-122330000D01*
X161450000Y-104230000D02*
X162570000Y-104230000D01*
X123475000Y-125857500D02*
X123775000Y-125557500D01*
X141000000Y-102700000D02*
X140200000Y-102700000D01*
X152530000Y-122330000D02*
X152500000Y-122300000D01*
X137125000Y-126787500D02*
X137125000Y-126187500D01*
X168710000Y-102660000D02*
X167060000Y-102660000D01*
X102970000Y-110300000D02*
X102970000Y-110830000D01*
X149920000Y-124400000D02*
X148800000Y-124400000D01*
X128200000Y-117000000D02*
X127150000Y-117000000D01*
D40*
X149800000Y-115500000D02*
X149300000Y-116000000D01*
D41*
X148200000Y-121480000D02*
X148200000Y-122600000D01*
X167010000Y-100110000D02*
X167000000Y-100100000D01*
X162570000Y-104230000D02*
X162600000Y-104200000D01*
%TO.N,+3V3*%
D40*
X150400000Y-110800000D02*
X150200000Y-110600000D01*
D39*
X127920000Y-112620000D02*
X126965913Y-111665913D01*
X126965913Y-111665913D02*
X113334087Y-111665913D01*
D40*
X159900000Y-116550000D02*
X159200000Y-117250000D01*
D41*
X158790000Y-100000000D02*
X155790000Y-103000000D01*
X163290000Y-102660000D02*
X161460000Y-102660000D01*
D40*
X139000000Y-108900000D02*
X138700000Y-109200000D01*
X154000000Y-107700000D02*
X154600000Y-107100000D01*
X158600000Y-114580000D02*
X158600000Y-112300000D01*
X159900000Y-115880000D02*
X158600000Y-114580000D01*
D39*
X147900000Y-108380000D02*
X149780000Y-108380000D01*
X132500000Y-116325000D02*
X132500000Y-113800000D01*
D40*
X114108173Y-104000000D02*
X109888173Y-108220000D01*
D39*
X127550000Y-114970000D02*
X127920000Y-114600000D01*
D40*
X154000000Y-107700000D02*
X153403933Y-107103933D01*
X150200000Y-110600000D02*
X150200000Y-108800000D01*
X159900000Y-115880000D02*
X159900000Y-116550000D01*
D41*
X161450000Y-102670000D02*
X161450000Y-102660000D01*
D39*
X146920000Y-108380000D02*
X146860000Y-108440000D01*
X157200000Y-97500000D02*
X157200000Y-96500000D01*
X157200000Y-98410000D02*
X158790000Y-100000000D01*
X129325000Y-119500000D02*
X132500000Y-116325000D01*
D40*
X139000000Y-106000000D02*
X139000000Y-108900000D01*
X150200000Y-108800000D02*
X150200000Y-107209471D01*
X150200000Y-107209471D02*
X150094462Y-107103933D01*
X137800000Y-104800000D02*
X139000000Y-106000000D01*
X154600000Y-107100000D02*
X154700000Y-107100000D01*
X105800000Y-108220000D02*
X107300000Y-108220000D01*
D39*
X147900000Y-108380000D02*
X146920000Y-108380000D01*
X127920000Y-114600000D02*
X127920000Y-112620000D01*
X149780000Y-108380000D02*
X150200000Y-108800000D01*
D41*
X161460000Y-102660000D02*
X161450000Y-102670000D01*
X161450000Y-102660000D02*
X158790000Y-100000000D01*
D39*
X157200000Y-97500000D02*
X157200000Y-98410000D01*
D41*
X155790000Y-103000000D02*
X154000000Y-103000000D01*
D40*
X158600000Y-112300000D02*
X156350000Y-110050000D01*
X97000000Y-108000000D02*
X102970000Y-108000000D01*
X109888173Y-108220000D02*
X107300000Y-108220000D01*
X113334087Y-111665913D02*
X109888173Y-108220000D01*
X131100000Y-107525000D02*
X133825000Y-104800000D01*
D39*
X130365913Y-111665913D02*
X126965913Y-111665913D01*
D40*
X105580000Y-108000000D02*
X105800000Y-108220000D01*
X131100000Y-107525000D02*
X127575000Y-104000000D01*
X127575000Y-104000000D02*
X114108173Y-104000000D01*
X102970000Y-108000000D02*
X105580000Y-108000000D01*
D39*
X132500000Y-113800000D02*
X130365913Y-111665913D01*
D40*
X153403933Y-107103933D02*
X150094462Y-107103933D01*
X133825000Y-104800000D02*
X137800000Y-104800000D01*
D39*
X127550000Y-115950000D02*
X127550000Y-114970000D01*
%TO.N,+5V*%
D40*
X141600000Y-117200000D02*
X144000000Y-117200000D01*
X127617500Y-135700000D02*
X131075000Y-132242500D01*
X117425000Y-135625000D02*
X117500000Y-135700000D01*
X110051728Y-90600000D02*
X106200000Y-90600000D01*
X104685000Y-103985000D02*
X95215000Y-103985000D01*
X92495000Y-135700000D02*
X103200000Y-135700000D01*
X152180000Y-117100000D02*
X154050000Y-117100000D01*
X103200000Y-135700000D02*
X117500000Y-135700000D01*
X151280000Y-114600000D02*
X144200000Y-114600000D01*
X154050000Y-117100000D02*
X154200000Y-117250000D01*
X117425000Y-131912500D02*
X117425000Y-135625000D01*
X111490000Y-92038272D02*
X110051728Y-90600000D01*
X127617500Y-135700000D02*
X138400000Y-135700000D01*
X152180000Y-115500000D02*
X151280000Y-114600000D01*
X103250000Y-132292500D02*
X103250000Y-135650000D01*
X138400000Y-135700000D02*
X141400000Y-132700000D01*
X117500000Y-135700000D02*
X127617500Y-135700000D01*
X95215000Y-103985000D02*
X89250000Y-109950000D01*
X141400000Y-132700000D02*
X141400000Y-117400000D01*
X152180000Y-115500000D02*
X152180000Y-117100000D01*
X141400000Y-117400000D02*
X141600000Y-117200000D01*
X144200000Y-114600000D02*
X141600000Y-117200000D01*
X89250000Y-109950000D02*
X89250000Y-132455000D01*
X103250000Y-135650000D02*
X103200000Y-135700000D01*
X111490000Y-93038272D02*
X111490000Y-92038272D01*
X144000000Y-117200000D02*
X144300000Y-117500000D01*
X106200000Y-102470000D02*
X106200000Y-90600000D01*
X102970000Y-105700000D02*
X104685000Y-103985000D01*
X89250000Y-132455000D02*
X92495000Y-135700000D01*
X104685000Y-103985000D02*
X106200000Y-102470000D01*
%TO.N,/HX711/INA+*%
D41*
X152840000Y-126140000D02*
X151600000Y-127380000D01*
X150140000Y-127380000D02*
X150100000Y-127420000D01*
X151600000Y-127380000D02*
X150140000Y-127380000D01*
X154200000Y-126140000D02*
X152840000Y-126140000D01*
%TO.N,/HX711/INA-*%
X151600000Y-125820000D02*
X152550000Y-124870000D01*
X151600000Y-125820000D02*
X150100000Y-125820000D01*
X152550000Y-124870000D02*
X154200000Y-124870000D01*
%TO.N,Net-(U6-VBG)*%
X154030000Y-123462500D02*
X152417500Y-123462500D01*
X152417500Y-123462500D02*
X151480000Y-124400000D01*
%TO.N,/HX711/INB-*%
D40*
X159340000Y-126280000D02*
X159200000Y-126140000D01*
X162700000Y-126400000D02*
X161620000Y-126400000D01*
X161500000Y-126280000D02*
X159340000Y-126280000D01*
X161620000Y-126400000D02*
X161500000Y-126280000D01*
%TO.N,/Bus_switch/Chainbus_In.RX*%
D41*
X147128272Y-98000000D02*
X147050000Y-98078272D01*
X148300000Y-98000000D02*
X147128272Y-98000000D01*
X146210000Y-98918272D02*
X147050000Y-98078272D01*
X146210000Y-102700000D02*
X146210000Y-98918272D01*
%TO.N,/Bus_switch/Chainbus_In.MOSI*%
X141181000Y-99829272D02*
X139430000Y-98078272D01*
X144250000Y-101993000D02*
X142086272Y-99829272D01*
X142086272Y-99829272D02*
X141181000Y-99829272D01*
X139508272Y-98000000D02*
X139430000Y-98078272D01*
X144250000Y-102700000D02*
X144250000Y-101993000D01*
X140600000Y-98000000D02*
X139508272Y-98000000D01*
%TO.N,/Bus_switch/Chainbus_In.SDA*%
X129348272Y-98000000D02*
X129270000Y-98078272D01*
X141650000Y-101993000D02*
X141650000Y-102700000D01*
X130500000Y-98000000D02*
X129348272Y-98000000D01*
X129270000Y-98078272D02*
X132769728Y-101578000D01*
X141235000Y-101578000D02*
X141650000Y-101993000D01*
X132769728Y-101578000D02*
X141235000Y-101578000D01*
%TO.N,/Bus_switch/SEL1*%
X146210000Y-108440000D02*
X146210000Y-107733000D01*
X128105520Y-103822000D02*
X125283520Y-101000000D01*
X125283520Y-101000000D02*
X109200000Y-101000000D01*
X151488500Y-104611500D02*
X143088500Y-104611500D01*
X157000000Y-107000000D02*
X153000000Y-103000000D01*
X146210000Y-107733000D02*
X143088500Y-104611500D01*
X173600000Y-101600000D02*
X168200000Y-107000000D01*
X168200000Y-107000000D02*
X157000000Y-107000000D01*
X153100000Y-103000000D02*
X151488500Y-104611500D01*
X142299000Y-103822000D02*
X128105520Y-103822000D01*
X153100000Y-103000000D02*
X153000000Y-103000000D01*
X143088500Y-104611500D02*
X142299000Y-103822000D01*
%TO.N,/Interboard_connector/SEL2*%
X109072734Y-98103933D02*
X108994462Y-98182205D01*
X110294462Y-98103933D02*
X109072734Y-98103933D01*
%TO.N,/Bus_switch/Chainbus_In.TX*%
X145700000Y-98000000D02*
X144588272Y-98000000D01*
X145560000Y-99128272D02*
X145560000Y-102700000D01*
X144588272Y-98000000D02*
X144510000Y-98078272D01*
X144510000Y-98078272D02*
X145560000Y-99128272D01*
%TO.N,/Interboard_connector/SEL8*%
X124249462Y-98167205D02*
X124234462Y-98182205D01*
X125607734Y-98167205D02*
X124249462Y-98167205D01*
%TO.N,/Interboard_connector/SEL5*%
X116692734Y-98103933D02*
X116614462Y-98182205D01*
X117794462Y-98103933D02*
X116692734Y-98103933D01*
%TO.N,/Interboard_connector/SEL7*%
X123107734Y-98167205D02*
X121709462Y-98167205D01*
X121709462Y-98167205D02*
X121694462Y-98182205D01*
%TO.N,/Interboard_connector/SEL4*%
X114152734Y-98103933D02*
X114074462Y-98182205D01*
X115294462Y-98103933D02*
X114152734Y-98103933D01*
%TO.N,/Bus_switch/Chainbus_In.SCK*%
X143600000Y-102700000D02*
X143600000Y-101993000D01*
X143600000Y-101993000D02*
X141787272Y-100180272D01*
X141787272Y-100180272D02*
X138992000Y-100180272D01*
X138000000Y-98000000D02*
X136968272Y-98000000D01*
X136968272Y-98000000D02*
X136890000Y-98078272D01*
X138992000Y-100180272D02*
X136890000Y-98078272D01*
%TO.N,/Bus_switch/Chainbus_In.MISO*%
X144910000Y-102700000D02*
X144910000Y-101018272D01*
X142048272Y-98000000D02*
X141970000Y-98078272D01*
X144910000Y-101018272D02*
X141970000Y-98078272D01*
X143100000Y-98000000D02*
X142048272Y-98000000D01*
%TO.N,+12V stby*%
D39*
X143444462Y-93153933D02*
X144542734Y-93153933D01*
X144542734Y-93153933D02*
X144554462Y-93142205D01*
%TO.N,/Bus_switch/Chainbus_In.SCL*%
D41*
X142300000Y-102700000D02*
X142300000Y-101993000D01*
X131831728Y-98100000D02*
X131810000Y-98078272D01*
X141189272Y-100882272D02*
X134614000Y-100882272D01*
X134614000Y-100882272D02*
X131810000Y-98078272D01*
X133100000Y-98100000D02*
X131831728Y-98100000D01*
X142300000Y-101993000D02*
X141189272Y-100882272D01*
%TO.N,/Bus_switch/Chainbus_In.CS*%
X136803000Y-100531272D02*
X134350000Y-98078272D01*
X142950000Y-102048646D02*
X141432626Y-100531272D01*
X142950000Y-102700000D02*
X142950000Y-102048646D01*
X141432626Y-100531272D02*
X136803000Y-100531272D01*
X134428272Y-98000000D02*
X134350000Y-98078272D01*
X135600000Y-98000000D02*
X134428272Y-98000000D01*
%TO.N,/Interboard_connector/SEL3*%
X112794462Y-98103933D02*
X111612734Y-98103933D01*
X111612734Y-98103933D02*
X111534462Y-98182205D01*
%TO.N,/Interboard_connector/SEL6*%
X120294462Y-98103933D02*
X119232734Y-98103933D01*
X119232734Y-98103933D02*
X119154462Y-98182205D01*
%TO.N,BRD_VIN*%
D42*
X119154462Y-93142205D02*
X119154462Y-92213933D01*
%TO.N,/Bus_switch/Chainbus.SCL*%
D39*
X156200000Y-97510000D02*
X153710000Y-100000000D01*
D41*
X141650000Y-109147000D02*
X139797000Y-111000000D01*
X163290000Y-100110000D02*
X161710000Y-100110000D01*
X126750000Y-114650000D02*
X126600000Y-114500000D01*
X139797000Y-111000000D02*
X127200000Y-111000000D01*
X141650000Y-108440000D02*
X141650000Y-106050000D01*
D39*
X156200000Y-97500000D02*
X156200000Y-97510000D01*
D41*
X141650000Y-106050000D02*
X142600000Y-105100000D01*
X126750000Y-115950000D02*
X126750000Y-114650000D01*
X141650000Y-108440000D02*
X141650000Y-109147000D01*
X161710000Y-100110000D02*
X161700000Y-100100000D01*
%TO.N,/Bus_switch/Chainbus.SDA*%
X141000000Y-105600000D02*
X142000000Y-104600000D01*
X125500000Y-114400000D02*
X126350000Y-115250000D01*
D39*
X154670000Y-96500000D02*
X151170000Y-100000000D01*
D41*
X124900000Y-113200000D02*
X125500000Y-113800000D01*
D39*
X156200000Y-96500000D02*
X154670000Y-96500000D01*
D41*
X141000000Y-108440000D02*
X138940000Y-110500000D01*
X126350000Y-115250000D02*
X126350000Y-115950000D01*
X125500000Y-113800000D02*
X125500000Y-114400000D01*
X163290000Y-98840000D02*
X160389000Y-95939000D01*
X156761000Y-95939000D02*
X156200000Y-96500000D01*
X138940000Y-110500000D02*
X126500000Y-110500000D01*
X160389000Y-95939000D02*
X156761000Y-95939000D01*
X141000000Y-108440000D02*
X141000000Y-105600000D01*
%TO.N,/HX711/INB+*%
D40*
X161350000Y-124870000D02*
X161500000Y-124720000D01*
X159200000Y-124870000D02*
X161350000Y-124870000D01*
X162900000Y-124600000D02*
X161620000Y-124600000D01*
X161620000Y-124600000D02*
X161500000Y-124720000D01*
%TO.N,/HX711/EX+*%
X155495000Y-135300000D02*
X164005000Y-135300000D01*
D41*
X149900000Y-119920000D02*
X154070000Y-119920000D01*
X154200000Y-119790000D02*
X154893611Y-119790000D01*
X154070000Y-119920000D02*
X154200000Y-119790000D01*
X155600000Y-120496389D02*
X155600000Y-120600000D01*
X145250000Y-119375000D02*
X145795000Y-119920000D01*
D40*
X156500000Y-126900000D02*
X156500000Y-122600000D01*
D41*
X156100000Y-121700000D02*
X156100000Y-122200000D01*
D40*
X152750000Y-132555000D02*
X155495000Y-135300000D01*
D41*
X148200000Y-119920000D02*
X149900000Y-119920000D01*
X154893611Y-119790000D02*
X155600000Y-120496389D01*
D40*
X152750000Y-132555000D02*
X152750000Y-130650000D01*
X152750000Y-130650000D02*
X156500000Y-126900000D01*
D41*
X155700000Y-120700000D02*
X155700000Y-121300000D01*
D40*
X156500000Y-122600000D02*
X156100000Y-122200000D01*
D41*
X155600000Y-120600000D02*
X155700000Y-120700000D01*
X155700000Y-121300000D02*
X156100000Y-121700000D01*
X145795000Y-119920000D02*
X148200000Y-119920000D01*
D40*
X164005000Y-135300000D02*
X166750000Y-132555000D01*
%TO.N,Net-(D3-Pad1)*%
D41*
X173612500Y-100612500D02*
X173600000Y-100600000D01*
X175350000Y-100612500D02*
X173612500Y-100612500D01*
%TO.N,Net-(D4-Pad2)*%
X128200000Y-120900000D02*
X128100000Y-121000000D01*
X129320000Y-120900000D02*
X128200000Y-120900000D01*
%TO.N,/CH32V003/CH32V003.TX*%
X127150000Y-121050000D02*
X127150000Y-118850000D01*
X129700000Y-123600000D02*
X127150000Y-121050000D01*
%TO.N,/CH32V003/PC0*%
X118400000Y-113700000D02*
X107225000Y-113700000D01*
X94300000Y-127000000D02*
X94300000Y-128000000D01*
X127150000Y-113850000D02*
X127150000Y-115950000D01*
X126000000Y-113700000D02*
X127000000Y-113700000D01*
X94300000Y-126625000D02*
X94300000Y-127000000D01*
X107225000Y-113700000D02*
X94300000Y-126625000D01*
X127000000Y-113700000D02*
X127150000Y-113850000D01*
%TO.N,/CH32V003/PC3*%
X125950000Y-115950000D02*
X119350000Y-115950000D01*
X119350000Y-115950000D02*
X115500000Y-119800000D01*
X103500000Y-119700000D02*
X112300000Y-119700000D01*
X101500000Y-121700000D02*
X103500000Y-119700000D01*
%TO.N,/CH32V003/PC4*%
X112800000Y-124800000D02*
X109200000Y-124800000D01*
X125300000Y-116600000D02*
X121000000Y-116600000D01*
X108300000Y-125700000D02*
X108300000Y-126837500D01*
X109200000Y-124800000D02*
X108300000Y-125700000D01*
X108300000Y-126837500D02*
X108300000Y-127837500D01*
X121000000Y-116600000D02*
X112800000Y-124800000D01*
%TO.N,/CH32V003/CH32V003.SCK*%
X105750000Y-132292500D02*
X105750000Y-127753611D01*
X125300000Y-117000000D02*
X122000000Y-117000000D01*
X105750000Y-127753611D02*
X114803611Y-118700000D01*
X122000000Y-117000000D02*
X120600000Y-118400000D01*
%TO.N,/CH32V003/SWIO*%
X125300000Y-119000000D02*
X125100000Y-119200000D01*
X125300000Y-118200000D02*
X125300000Y-119000000D01*
%TO.N,Net-(J8-Pin_2)*%
D40*
X147750000Y-127170000D02*
X149100000Y-125820000D01*
X147750000Y-132555000D02*
X147750000Y-127170000D01*
%TO.N,Net-(J8-Pin_3)*%
X149100000Y-127420000D02*
X149100000Y-131405000D01*
X149100000Y-131405000D02*
X150250000Y-132555000D01*
%TO.N,Net-(J9-Pin_3)*%
X164581000Y-125181000D02*
X163900000Y-124500000D01*
X164250000Y-132555000D02*
X164581000Y-132224000D01*
X164581000Y-132224000D02*
X164581000Y-125181000D01*
%TO.N,Net-(J9-Pin_2)*%
X163581000Y-126669000D02*
X163900000Y-126350000D01*
X161750000Y-132555000D02*
X161750000Y-129450000D01*
X163581000Y-127619000D02*
X163581000Y-126669000D01*
X161750000Y-129450000D02*
X163581000Y-127619000D01*
%TO.N,/CH32V003/PD2*%
D41*
X125950000Y-120050000D02*
X125400000Y-120600000D01*
X125950000Y-118850000D02*
X125950000Y-120050000D01*
X125400000Y-120600000D02*
X125400000Y-124067500D01*
X125400000Y-124067500D02*
X133575000Y-132242500D01*
%TO.N,/CH32V003/PD0*%
X135000000Y-123300000D02*
X135000000Y-125662500D01*
X128200000Y-116600000D02*
X128700000Y-116600000D01*
X136125000Y-126787500D02*
X136125000Y-127787500D01*
X128700000Y-116600000D02*
X129300000Y-116000000D01*
X135000000Y-125662500D02*
X136125000Y-126787500D01*
%TO.N,/CH32V003/CH32V003.MOSI*%
X124400000Y-117400000D02*
X122200000Y-119600000D01*
X122475000Y-122175000D02*
X122475000Y-126457500D01*
X122475000Y-126457500D02*
X122475000Y-127457500D01*
X122100000Y-121800000D02*
X122475000Y-122175000D01*
X125300000Y-117400000D02*
X124400000Y-117400000D01*
%TO.N,/CH32V003/CH32V003.MISO*%
X119925000Y-122724350D02*
X119925000Y-131912500D01*
X125300000Y-117800000D02*
X124849350Y-117800000D01*
X124849350Y-117800000D02*
X119925000Y-122724350D01*
%TO.N,Net-(Q3-B)*%
X147220000Y-118520000D02*
X146200000Y-117500000D01*
X154200000Y-118520000D02*
X147220000Y-118520000D01*
%TO.N,/CH32V003/PD7*%
X129325000Y-118500000D02*
X128500000Y-118500000D01*
X128500000Y-118500000D02*
X128200000Y-118200000D01*
%TO.N,/CH32V003/CH32V003.RX*%
X129870000Y-120030000D02*
X128130000Y-120030000D01*
X159200000Y-122330000D02*
X158730000Y-122330000D01*
X131307107Y-119300000D02*
X130600000Y-119300000D01*
X128100000Y-120000000D02*
X127550000Y-119450000D01*
X156800000Y-120400000D02*
X156800000Y-114400000D01*
X128130000Y-120030000D02*
X128100000Y-120000000D01*
X130600000Y-119300000D02*
X129870000Y-120030000D01*
X158730000Y-122330000D02*
X156800000Y-120400000D01*
X137800000Y-112600000D02*
X137800000Y-112807107D01*
X137800000Y-112807107D02*
X131307107Y-119300000D01*
X156800000Y-114400000D02*
X155000000Y-112600000D01*
X155000000Y-112600000D02*
X137800000Y-112600000D01*
X127550000Y-119450000D02*
X127550000Y-118850000D01*
%TO.N,Net-(U6-VFB)*%
X151400000Y-121100000D02*
X151700000Y-120800000D01*
X154040000Y-120900000D02*
X154200000Y-121060000D01*
X151700000Y-120900000D02*
X154040000Y-120900000D01*
X151400000Y-121900000D02*
X151400000Y-121100000D01*
%TO.N,/CH32V003/PD3*%
X158200001Y-118520000D02*
X159200000Y-118520000D01*
X155700000Y-111900000D02*
X136400000Y-111900000D01*
X136150000Y-113750000D02*
X131100000Y-118800000D01*
X157500000Y-113700000D02*
X157500000Y-117819999D01*
X136150000Y-112150000D02*
X136150000Y-113750000D01*
X126350000Y-120600000D02*
X126250000Y-120700000D01*
X136400000Y-111900000D02*
X136150000Y-112150000D01*
X155950000Y-112150000D02*
X157500000Y-113700000D01*
X155950000Y-112150000D02*
X155700000Y-111900000D01*
X157500000Y-117819999D02*
X158200001Y-118520000D01*
X126350000Y-118850000D02*
X126350000Y-120600000D01*
%TO.N,/CH32V003/PD4*%
X132500000Y-121603554D02*
X133096446Y-122200000D01*
X144100000Y-113100000D02*
X153300000Y-113100000D01*
X153300000Y-113100000D02*
X156000000Y-115800000D01*
X157100000Y-121500000D02*
X157100000Y-122100000D01*
X126750000Y-121357108D02*
X126996446Y-121603554D01*
X156000000Y-115800000D02*
X156000000Y-120400000D01*
X156000000Y-120400000D02*
X157100000Y-121500000D01*
X135000000Y-122200000D02*
X144100000Y-113100000D01*
X133096446Y-122200000D02*
X135000000Y-122200000D01*
X158600000Y-123600000D02*
X159200000Y-123600000D01*
X126750000Y-118850000D02*
X126750000Y-121357108D01*
X157100000Y-122100000D02*
X158600000Y-123600000D01*
%TO.N,/HC-SR04 #1/Echo_5V*%
X94300000Y-129000000D02*
X94300000Y-132405000D01*
X94300000Y-132405000D02*
X94250000Y-132455000D01*
%TO.N,/HC-SR04 #2/Echo_5V*%
X108300000Y-132242500D02*
X108250000Y-132292500D01*
X108300000Y-128837500D02*
X108300000Y-132242500D01*
%TO.N,/HC-SR04 #4/Echo_5V*%
X136125000Y-128787500D02*
X136125000Y-132192500D01*
X136125000Y-132192500D02*
X136075000Y-132242500D01*
%TO.N,/HC-SR04 #3/Echo_5V*%
X122475000Y-128457500D02*
X122475000Y-131862500D01*
X122475000Y-131862500D02*
X122425000Y-131912500D01*
%TD*%
%TA.AperFunction,Conductor*%
%TO.N,GND*%
G36*
X117237568Y-91408956D02*
G01*
X117252566Y-91413360D01*
X117267556Y-91422990D01*
X117284637Y-91428000D01*
X117311317Y-91451105D01*
X117312504Y-91452474D01*
X117339980Y-91507335D01*
X117341625Y-91514893D01*
X117344462Y-91541264D01*
X117344462Y-94412103D01*
X117339437Y-94447047D01*
X117335032Y-94462045D01*
X117325401Y-94477034D01*
X117320394Y-94494108D01*
X117297289Y-94520788D01*
X117295920Y-94521975D01*
X117241059Y-94549451D01*
X117233501Y-94551096D01*
X117207130Y-94553933D01*
X115436292Y-94553933D01*
X115401351Y-94548908D01*
X115386352Y-94544503D01*
X115371364Y-94534873D01*
X115354286Y-94529865D01*
X115327606Y-94506760D01*
X115326419Y-94505391D01*
X115298939Y-94450516D01*
X115297294Y-94442954D01*
X115294462Y-94416601D01*
X115294462Y-91545762D01*
X115299485Y-91510826D01*
X115303889Y-91495828D01*
X115313519Y-91480837D01*
X115318529Y-91463757D01*
X115341634Y-91437077D01*
X115343003Y-91435890D01*
X115397882Y-91408410D01*
X115405441Y-91406766D01*
X115431794Y-91403933D01*
X117202632Y-91403933D01*
X117237568Y-91408956D01*
G37*
%TD.AperFunction*%
%TD*%
%TA.AperFunction,Conductor*%
%TO.N,BRD_VIN*%
G36*
X127385417Y-91573618D02*
G01*
X127431172Y-91626422D01*
X127442361Y-91679999D01*
X127396494Y-94431999D01*
X127375695Y-94498702D01*
X127322136Y-94543570D01*
X127272511Y-94553933D01*
X118766413Y-94553933D01*
X118699374Y-94534248D01*
X118653619Y-94481444D01*
X118642430Y-94431999D01*
X118596563Y-91679999D01*
X118615128Y-91612641D01*
X118667162Y-91566013D01*
X118720546Y-91553933D01*
X127318378Y-91553933D01*
X127385417Y-91573618D01*
G37*
%TD.AperFunction*%
%TD*%
%TA.AperFunction,Conductor*%
%TO.N,+5V*%
G36*
X114487501Y-91573618D02*
G01*
X114533256Y-91626422D01*
X114544462Y-91677933D01*
X114544462Y-94579933D01*
X114524777Y-94646972D01*
X114471973Y-94692727D01*
X114420462Y-94703933D01*
X111168462Y-94703933D01*
X111101423Y-94684248D01*
X111055668Y-94631444D01*
X111044462Y-94579933D01*
X111044462Y-91677933D01*
X111064147Y-91610894D01*
X111116951Y-91565139D01*
X111168462Y-91553933D01*
X114420462Y-91553933D01*
X114487501Y-91573618D01*
G37*
%TD.AperFunction*%
%TD*%
%TA.AperFunction,Conductor*%
%TO.N,GND*%
G36*
X137387501Y-91573618D02*
G01*
X137433256Y-91626422D01*
X137444462Y-91677933D01*
X137444462Y-94579933D01*
X137424777Y-94646972D01*
X137371973Y-94692727D01*
X137320462Y-94703933D01*
X128868462Y-94703933D01*
X128801423Y-94684248D01*
X128755668Y-94631444D01*
X128744462Y-94579933D01*
X128744462Y-91677933D01*
X128764147Y-91610894D01*
X128816951Y-91565139D01*
X128868462Y-91553933D01*
X137320462Y-91553933D01*
X137387501Y-91573618D01*
G37*
%TD.AperFunction*%
%TD*%
%TA.AperFunction,Conductor*%
%TO.N,GND*%
G36*
X110287568Y-91558956D02*
G01*
X110302566Y-91563360D01*
X110317556Y-91572990D01*
X110334637Y-91578000D01*
X110361317Y-91601105D01*
X110362504Y-91602474D01*
X110389980Y-91657335D01*
X110391625Y-91664893D01*
X110394462Y-91691264D01*
X110394462Y-94562103D01*
X110389437Y-94597047D01*
X110385032Y-94612045D01*
X110375401Y-94627034D01*
X110370394Y-94644108D01*
X110347289Y-94670788D01*
X110345920Y-94671975D01*
X110291059Y-94699451D01*
X110283501Y-94701096D01*
X110257130Y-94703933D01*
X108486292Y-94703933D01*
X108451351Y-94698908D01*
X108436352Y-94694503D01*
X108421364Y-94684873D01*
X108404286Y-94679865D01*
X108377606Y-94656760D01*
X108376419Y-94655391D01*
X108348939Y-94600516D01*
X108347294Y-94592954D01*
X108344462Y-94566601D01*
X108344462Y-91695762D01*
X108349485Y-91660826D01*
X108353889Y-91645828D01*
X108363519Y-91630837D01*
X108368529Y-91613757D01*
X108391634Y-91587077D01*
X108393003Y-91585890D01*
X108447882Y-91558410D01*
X108455441Y-91556766D01*
X108481794Y-91553933D01*
X110252632Y-91553933D01*
X110287568Y-91558956D01*
G37*
%TD.AperFunction*%
%TD*%
%TA.AperFunction,Conductor*%
%TO.N,GND*%
G36*
X148387501Y-91573618D02*
G01*
X148433256Y-91626422D01*
X148444462Y-91677933D01*
X148444462Y-94579933D01*
X148424777Y-94646972D01*
X148371973Y-94692727D01*
X148320462Y-94703933D01*
X146518462Y-94703933D01*
X146451423Y-94684248D01*
X146405668Y-94631444D01*
X146394462Y-94579933D01*
X146394462Y-91677933D01*
X146414147Y-91610894D01*
X146466951Y-91565139D01*
X146518462Y-91553933D01*
X148320462Y-91553933D01*
X148387501Y-91573618D01*
G37*
%TD.AperFunction*%
%TD*%
M02*
