%TF.GenerationSoftware,KiCad,Pcbnew,9.0.2*%
%TF.CreationDate,2026-04-08T17:29:54+02:00*%
%TF.ProjectId,MMS3_hat_HC-SR04-HX711,4d4d5333-5f68-4617-945f-48432d535230,R0*%
%TF.SameCoordinates,Original*%
%TF.FileFunction,Copper,L1,Top*%
%TF.FilePolarity,Positive*%
%FSLAX46Y46*%
G04 Gerber Fmt 4.6, Leading zero omitted, Abs format (unit mm)*
G04 Created by KiCad (PCBNEW 9.0.2) date 2026-04-08 17:29:54*
%MOMM*%
%LPD*%
G01*
G04 APERTURE LIST*
G04 Aperture macros list*
%AMRoundRect*
0 Rectangle with rounded corners*
0 $1 Rounding radius*
0 $2 $3 $4 $5 $6 $7 $8 $9 X,Y pos of 4 corners*
0 Add a 4 corners polygon primitive as box body*
4,1,4,$2,$3,$4,$5,$6,$7,$8,$9,$2,$3,0*
0 Add four circle primitives for the rounded corners*
1,1,$1+$1,$2,$3*
1,1,$1+$1,$4,$5*
1,1,$1+$1,$6,$7*
1,1,$1+$1,$8,$9*
0 Add four rect primitives between the rounded corners*
20,1,$1+$1,$2,$3,$4,$5,0*
20,1,$1+$1,$4,$5,$6,$7,0*
20,1,$1+$1,$6,$7,$8,$9,0*
20,1,$1+$1,$8,$9,$2,$3,0*%
G04 Aperture macros list end*
%TA.AperFunction,SMDPad,CuDef*%
%ADD10RoundRect,0.225000X0.225000X0.250000X-0.225000X0.250000X-0.225000X-0.250000X0.225000X-0.250000X0*%
%TD*%
%TA.AperFunction,SMDPad,CuDef*%
%ADD11RoundRect,0.140000X-0.140000X-0.170000X0.140000X-0.170000X0.140000X0.170000X-0.140000X0.170000X0*%
%TD*%
%TA.AperFunction,SMDPad,CuDef*%
%ADD12RoundRect,0.150000X-0.850000X-0.150000X0.850000X-0.150000X0.850000X0.150000X-0.850000X0.150000X0*%
%TD*%
%TA.AperFunction,ComponentPad*%
%ADD13RoundRect,0.250000X-0.600000X-0.725000X0.600000X-0.725000X0.600000X0.725000X-0.600000X0.725000X0*%
%TD*%
%TA.AperFunction,ComponentPad*%
%ADD14O,1.700000X1.950000*%
%TD*%
%TA.AperFunction,ComponentPad*%
%ADD15C,3.100000*%
%TD*%
%TA.AperFunction,ConnectorPad*%
%ADD16C,4.700000*%
%TD*%
%TA.AperFunction,SMDPad,CuDef*%
%ADD17RoundRect,0.140000X0.140000X0.170000X-0.140000X0.170000X-0.140000X-0.170000X0.140000X-0.170000X0*%
%TD*%
%TA.AperFunction,SMDPad,CuDef*%
%ADD18RoundRect,0.225000X0.250000X-0.225000X0.250000X0.225000X-0.250000X0.225000X-0.250000X-0.225000X0*%
%TD*%
%TA.AperFunction,SMDPad,CuDef*%
%ADD19RoundRect,0.225000X-0.250000X0.225000X-0.250000X-0.225000X0.250000X-0.225000X0.250000X0.225000X0*%
%TD*%
%TA.AperFunction,ComponentPad*%
%ADD20R,1.700000X1.700000*%
%TD*%
%TA.AperFunction,SMDPad,CuDef*%
%ADD21RoundRect,0.250000X-1.000000X-0.300000X1.000000X-0.300000X1.000000X0.300000X-1.000000X0.300000X0*%
%TD*%
%TA.AperFunction,ComponentPad*%
%ADD22C,0.500000*%
%TD*%
%TA.AperFunction,SMDPad,CuDef*%
%ADD23RoundRect,0.250000X-0.920000X-1.550000X0.920000X-1.550000X0.920000X1.550000X-0.920000X1.550000X0*%
%TD*%
%TA.AperFunction,SMDPad,CuDef*%
%ADD24RoundRect,0.140000X0.170000X-0.140000X0.170000X0.140000X-0.170000X0.140000X-0.170000X-0.140000X0*%
%TD*%
%TA.AperFunction,SMDPad,CuDef*%
%ADD25R,1.000000X3.000000*%
%TD*%
%TA.AperFunction,ComponentPad*%
%ADD26C,1.700000*%
%TD*%
%TA.AperFunction,SMDPad,CuDef*%
%ADD27RoundRect,0.150000X-0.150000X0.587500X-0.150000X-0.587500X0.150000X-0.587500X0.150000X0.587500X0*%
%TD*%
%TA.AperFunction,SMDPad,CuDef*%
%ADD28O,1.950000X0.570000*%
%TD*%
%TA.AperFunction,SMDPad,CuDef*%
%ADD29RoundRect,0.218750X0.256250X-0.218750X0.256250X0.218750X-0.256250X0.218750X-0.256250X-0.218750X0*%
%TD*%
%TA.AperFunction,SMDPad,CuDef*%
%ADD30RoundRect,0.140000X-0.170000X0.140000X-0.170000X-0.140000X0.170000X-0.140000X0.170000X0.140000X0*%
%TD*%
%TA.AperFunction,SMDPad,CuDef*%
%ADD31O,0.364000X1.742000*%
%TD*%
%TA.AperFunction,SMDPad,CuDef*%
%ADD32RoundRect,0.218750X-0.256250X0.218750X-0.256250X-0.218750X0.256250X-0.218750X0.256250X0.218750X0*%
%TD*%
%TA.AperFunction,SMDPad,CuDef*%
%ADD33RoundRect,0.225000X-0.225000X-0.250000X0.225000X-0.250000X0.225000X0.250000X-0.225000X0.250000X0*%
%TD*%
%TA.AperFunction,SMDPad,CuDef*%
%ADD34RoundRect,0.100000X-0.637500X-0.100000X0.637500X-0.100000X0.637500X0.100000X-0.637500X0.100000X0*%
%TD*%
%TA.AperFunction,ViaPad*%
%ADD35C,0.500000*%
%TD*%
%TA.AperFunction,Conductor*%
%ADD36C,0.500000*%
%TD*%
%TA.AperFunction,Conductor*%
%ADD37C,0.200000*%
%TD*%
%TA.AperFunction,Conductor*%
%ADD38C,0.300000*%
%TD*%
%TA.AperFunction,Conductor*%
%ADD39C,1.000000*%
%TD*%
G04 APERTURE END LIST*
D10*
%TO.P,C6,1*%
%TO.N,+3V3*%
X120480000Y-116075000D03*
%TO.P,C6,2*%
%TO.N,GND*%
X118920000Y-116075000D03*
%TD*%
D11*
%TO.P,R16,1*%
%TO.N,/HX711/INB+*%
X162900000Y-124600000D03*
%TO.P,R16,2*%
%TO.N,Net-(J9-Pin_3)*%
X163900000Y-124600000D03*
%TD*%
D12*
%TO.P,U5,1,VSUP*%
%TO.N,+5V*%
X154200000Y-117250000D03*
%TO.P,U5,2,BASE*%
%TO.N,Net-(Q1-B)*%
X154200000Y-118520000D03*
%TO.P,U5,3,AVDD*%
%TO.N,/HX711/EX+*%
X154200000Y-119790000D03*
%TO.P,U5,4,VFB*%
%TO.N,Net-(U5-VFB)*%
X154200000Y-121060000D03*
%TO.P,U5,5,AGND*%
%TO.N,GND*%
X154200000Y-122330000D03*
%TO.P,U5,6,VBG*%
%TO.N,Net-(U5-VBG)*%
X154200000Y-123600000D03*
%TO.P,U5,7,INA-*%
%TO.N,/HX711/INA-*%
X154200000Y-124870000D03*
%TO.P,U5,8,INA+*%
%TO.N,/HX711/INA+*%
X154200000Y-126140000D03*
%TO.P,U5,9,INB-*%
%TO.N,/HX711/INB-*%
X159200000Y-126140000D03*
%TO.P,U5,10,INB+*%
%TO.N,/HX711/INB+*%
X159200000Y-124870000D03*
%TO.P,U5,11,PD_SCK*%
%TO.N,/CH32V003/PD4*%
X159200000Y-123600000D03*
%TO.P,U5,12,DOUT*%
%TO.N,/CH32V003/CH32V003.RX*%
X159200000Y-122330000D03*
%TO.P,U5,13,XO*%
%TO.N,unconnected-(U5-XO-Pad13)*%
X159200000Y-121060000D03*
%TO.P,U5,14,XI*%
%TO.N,GND*%
X159200000Y-119790000D03*
%TO.P,U5,15,RATE*%
%TO.N,/CH32V003/PD3*%
X159200000Y-118520000D03*
%TO.P,U5,16,DVDD*%
%TO.N,+3V3*%
X159200000Y-117250000D03*
%TD*%
D11*
%TO.P,R15,1*%
%TO.N,/HX711/INB-*%
X162700000Y-126400000D03*
%TO.P,R15,2*%
%TO.N,Net-(J9-Pin_2)*%
X163700000Y-126400000D03*
%TD*%
D13*
%TO.P,J8,1,Pin_1*%
%TO.N,GND*%
X145250000Y-132555000D03*
D14*
%TO.P,J8,2,Pin_2*%
%TO.N,Net-(J8-Pin_2)*%
X147750000Y-132555000D03*
%TO.P,J8,3,Pin_3*%
%TO.N,Net-(J8-Pin_3)*%
X150250000Y-132555000D03*
%TO.P,J8,4,Pin_4*%
%TO.N,/HX711/EX+*%
X152750000Y-132555000D03*
%TD*%
D15*
%TO.P,H1,1,1*%
%TO.N,GND*%
X82000000Y-92000000D03*
D16*
X82000000Y-92000000D03*
%TD*%
D17*
%TO.P,R14,1*%
%TO.N,/HX711/INA-*%
X150100000Y-125820000D03*
%TO.P,R14,2*%
%TO.N,Net-(J8-Pin_2)*%
X149100000Y-125820000D03*
%TD*%
D18*
%TO.P,C16,1*%
%TO.N,+3V3*%
X159900000Y-115880000D03*
%TO.P,C16,2*%
%TO.N,GND*%
X159900000Y-114320000D03*
%TD*%
D19*
%TO.P,C12,1*%
%TO.N,/HX711/EX+*%
X149900000Y-119920000D03*
%TO.P,C12,2*%
%TO.N,GND*%
X149900000Y-121480000D03*
%TD*%
D20*
%TO.P,J4,1,Pin_1*%
%TO.N,/CH32V003/CH32V003.TX*%
X123800000Y-108125000D03*
%TD*%
D19*
%TO.P,C4,1*%
%TO.N,+3V3*%
X107300000Y-108220000D03*
%TO.P,C4,2*%
%TO.N,GND*%
X107300000Y-109780000D03*
%TD*%
D21*
%TO.P,U3,1,GND*%
%TO.N,GND*%
X102970000Y-110300000D03*
%TO.P,U3,2,VOUT*%
%TO.N,+3V3*%
X102970000Y-108000000D03*
%TO.P,U3,3,VIN*%
%TO.N,+5V*%
X102970000Y-105700000D03*
D22*
%TO.P,U3,4,VOUT*%
%TO.N,+3V3*%
X97000000Y-107000000D03*
X97000000Y-108000000D03*
D23*
X97000000Y-108000000D03*
D22*
X97000000Y-109000000D03*
%TD*%
D17*
%TO.P,R8,1*%
%TO.N,GND*%
X109300000Y-126837500D03*
%TO.P,R8,2*%
%TO.N,/CH32V003/PC4*%
X108300000Y-126837500D03*
%TD*%
D24*
%TO.P,R27,1*%
%TO.N,/Bus_switch/SEL1*%
X173700000Y-101700000D03*
%TO.P,R27,2*%
%TO.N,Net-(D1-A)*%
X173700000Y-100700000D03*
%TD*%
D25*
%TO.P,J2,1,Pin_1*%
%TO.N,GND*%
X108950000Y-93038272D03*
%TO.P,J2,2,Pin_2*%
%TO.N,/Interboard_connector/SEL2*%
X108950000Y-98078272D03*
%TO.P,J2,3,Pin_3*%
%TO.N,+5V*%
X111490000Y-93038272D03*
%TO.P,J2,4,Pin_4*%
%TO.N,/Interboard_connector/SEL3*%
X111490000Y-98078272D03*
%TO.P,J2,5,Pin_5*%
%TO.N,+5V*%
X114030000Y-93038272D03*
%TO.P,J2,6,Pin_6*%
%TO.N,/Interboard_connector/SEL4*%
X114030000Y-98078272D03*
%TO.P,J2,7,Pin_7*%
%TO.N,GND*%
X116570000Y-93038272D03*
%TO.P,J2,8,Pin_8*%
%TO.N,/Interboard_connector/SEL5*%
X116570000Y-98078272D03*
%TO.P,J2,9,Pin_9*%
%TO.N,BRD_VIN*%
X119110000Y-93038272D03*
%TO.P,J2,10,Pin_10*%
%TO.N,/Interboard_connector/SEL6*%
X119110000Y-98078272D03*
%TO.P,J2,11,Pin_11*%
%TO.N,BRD_VIN*%
X121650000Y-93038272D03*
%TO.P,J2,12,Pin_12*%
%TO.N,/Interboard_connector/SEL7*%
X121650000Y-98078272D03*
%TO.P,J2,13,Pin_13*%
%TO.N,BRD_VIN*%
X124190000Y-93038272D03*
%TO.P,J2,14,Pin_14*%
%TO.N,/Interboard_connector/SEL8*%
X124190000Y-98078272D03*
%TO.P,J2,15,Pin_15*%
%TO.N,BRD_VIN*%
X126730000Y-93038272D03*
%TO.P,J2,16,Pin_16*%
%TO.N,unconnected-(J2-Pin_16-Pad16)*%
X126730000Y-98078272D03*
%TO.P,J2,17,Pin_17*%
%TO.N,GND*%
X129270000Y-93038272D03*
%TO.P,J2,18,Pin_18*%
%TO.N,/Bus_switch/Chainbus_In.SDA*%
X129270000Y-98078272D03*
%TO.P,J2,19,Pin_19*%
%TO.N,GND*%
X131810000Y-93038272D03*
%TO.P,J2,20,Pin_20*%
%TO.N,/Bus_switch/Chainbus_In.SCL*%
X131810000Y-98078272D03*
%TO.P,J2,21,Pin_21*%
%TO.N,GND*%
X134350000Y-93038272D03*
%TO.P,J2,22,Pin_22*%
%TO.N,/Bus_switch/Chainbus_In.CS*%
X134350000Y-98078272D03*
%TO.P,J2,23,Pin_23*%
%TO.N,GND*%
X136890000Y-93038272D03*
%TO.P,J2,24,Pin_24*%
%TO.N,/Bus_switch/Chainbus_In.SCK*%
X136890000Y-98078272D03*
%TO.P,J2,25,Pin_25*%
%TO.N,unconnected-(J2-Pin_25-Pad25)*%
X139430000Y-93038272D03*
%TO.P,J2,26,Pin_26*%
%TO.N,/Bus_switch/Chainbus_In.MOSI*%
X139430000Y-98078272D03*
%TO.P,J2,27,Pin_27*%
%TO.N,unconnected-(J2-Pin_27-Pad27)*%
X141970000Y-93038272D03*
%TO.P,J2,28,Pin_28*%
%TO.N,/Bus_switch/Chainbus_In.MISO*%
X141970000Y-98078272D03*
%TO.P,J2,29,Pin_29*%
%TO.N,+12V stby*%
X144510000Y-93038272D03*
%TO.P,J2,30,Pin_30*%
%TO.N,/Bus_switch/Chainbus_In.TX*%
X144510000Y-98078272D03*
%TO.P,J2,31,Pin_31*%
%TO.N,GND*%
X147050000Y-93038272D03*
%TO.P,J2,32,Pin_32*%
%TO.N,/Bus_switch/Chainbus_In.RX*%
X147050000Y-98078272D03*
%TD*%
D20*
%TO.P,J3,1,Pin_1*%
%TO.N,/Bus_switch/Chainbus.SDA*%
X151170000Y-100000000D03*
D26*
%TO.P,J3,2,Pin_2*%
%TO.N,/Bus_switch/Chainbus.SCL*%
X153710000Y-100000000D03*
%TO.P,J3,3,Pin_3*%
%TO.N,GND*%
X156250000Y-100000000D03*
%TO.P,J3,4,Pin_4*%
%TO.N,+3V3*%
X158790000Y-100000000D03*
%TD*%
D27*
%TO.P,Q1,1,B*%
%TO.N,Net-(Q1-B)*%
X146200000Y-117500000D03*
%TO.P,Q1,2,E*%
%TO.N,+5V*%
X144300000Y-117500000D03*
%TO.P,Q1,3,C*%
%TO.N,/HX711/EX+*%
X145250000Y-119375000D03*
%TD*%
D17*
%TO.P,R20,1*%
%TO.N,GND*%
X137125000Y-126787500D03*
%TO.P,R20,2*%
%TO.N,/CH32V003/PD0*%
X136125000Y-126787500D03*
%TD*%
D18*
%TO.P,C1,1*%
%TO.N,+3V3*%
X147900000Y-108380000D03*
%TO.P,C1,2*%
%TO.N,GND*%
X147900000Y-106820000D03*
%TD*%
D28*
%TO.P,U2,1,A0*%
%TO.N,GND*%
X168710000Y-102660000D03*
%TO.P,U2,2,A1*%
X168710000Y-101390000D03*
%TO.P,U2,3,A2*%
X168710000Y-100110000D03*
%TO.P,U2,4,VSS*%
X168710000Y-98840000D03*
%TO.P,U2,5,SDA*%
%TO.N,/Bus_switch/Chainbus.SDA*%
X163290000Y-98840000D03*
%TO.P,U2,6,SCL*%
%TO.N,/Bus_switch/Chainbus.SCL*%
X163290000Y-100110000D03*
%TO.P,U2,7,#WC*%
%TO.N,unconnected-(U2-#WC-Pad7)*%
X163290000Y-101390000D03*
%TO.P,U2,8,VCC*%
%TO.N,+3V3*%
X163290000Y-102660000D03*
%TD*%
D11*
%TO.P,R11,1*%
%TO.N,+3V3*%
X119800000Y-112875000D03*
%TO.P,R11,2*%
%TO.N,/CH32V003/PD7*%
X120800000Y-112875000D03*
%TD*%
D10*
%TO.P,C14,1*%
%TO.N,+5V*%
X152180000Y-115500000D03*
%TO.P,C14,2*%
%TO.N,GND*%
X150620000Y-115500000D03*
%TD*%
D13*
%TO.P,J11,1,Pin_1*%
%TO.N,+5V*%
X117425000Y-131912500D03*
D14*
%TO.P,J11,2,Pin_2*%
%TO.N,/CH32V003/CH32V003.MISO*%
X119925000Y-131912500D03*
%TO.P,J11,3,Pin_3*%
%TO.N,/HC-SR04 #3/Echo_5V*%
X122425000Y-131912500D03*
%TO.P,J11,4,Pin_4*%
%TO.N,GND*%
X124925000Y-131912500D03*
%TD*%
D13*
%TO.P,J10,1,Pin_1*%
%TO.N,+5V*%
X131075000Y-132242500D03*
D14*
%TO.P,J10,2,Pin_2*%
%TO.N,/CH32V003/PD2*%
X133575000Y-132242500D03*
%TO.P,J10,3,Pin_3*%
%TO.N,/HC-SR04 #4/Echo_5V*%
X136075000Y-132242500D03*
%TO.P,J10,4,Pin_4*%
%TO.N,GND*%
X138575000Y-132242500D03*
%TD*%
D13*
%TO.P,J9,1,Pin_1*%
%TO.N,GND*%
X159250000Y-132555000D03*
D14*
%TO.P,J9,2,Pin_2*%
%TO.N,Net-(J9-Pin_2)*%
X161750000Y-132555000D03*
%TO.P,J9,3,Pin_3*%
%TO.N,Net-(J9-Pin_3)*%
X164250000Y-132555000D03*
%TO.P,J9,4,Pin_4*%
%TO.N,/HX711/EX+*%
X166750000Y-132555000D03*
%TD*%
D19*
%TO.P,C5,1*%
%TO.N,+3V3*%
X105800000Y-108220000D03*
%TO.P,C5,2*%
%TO.N,GND*%
X105800000Y-109780000D03*
%TD*%
%TO.P,C2,1*%
%TO.N,+3V3*%
X161450000Y-102670000D03*
%TO.P,C2,2*%
%TO.N,GND*%
X161450000Y-104230000D03*
%TD*%
D11*
%TO.P,R1,1*%
%TO.N,/Bus_switch/SEL1*%
X153100000Y-103000000D03*
%TO.P,R1,2*%
%TO.N,+3V3*%
X154100000Y-103000000D03*
%TD*%
D20*
%TO.P,J7,1,Pin_1*%
%TO.N,GND*%
X136180000Y-107525000D03*
D26*
%TO.P,J7,2,Pin_2*%
%TO.N,/CH32V003/SWIO*%
X133640000Y-107525000D03*
%TO.P,J7,3,Pin_3*%
%TO.N,+3V3*%
X131100000Y-107525000D03*
%TD*%
D29*
%TO.P,D1,1,K*%
%TO.N,GND*%
X175350000Y-102187500D03*
%TO.P,D1,2,A*%
%TO.N,Net-(D1-A)*%
X175350000Y-100612500D03*
%TD*%
D30*
%TO.P,R17,1*%
%TO.N,/HX711/EX+*%
X151700000Y-119900000D03*
%TO.P,R17,2*%
%TO.N,Net-(U5-VFB)*%
X151700000Y-120900000D03*
%TD*%
D13*
%TO.P,J5,1,Pin_1*%
%TO.N,+5V*%
X89250000Y-132455000D03*
D14*
%TO.P,J5,2,Pin_2*%
%TO.N,/CH32V003/PC3*%
X91750000Y-132455000D03*
%TO.P,J5,3,Pin_3*%
%TO.N,/HC-SR04 #1/Echo_5V*%
X94250000Y-132455000D03*
%TO.P,J5,4,Pin_4*%
%TO.N,GND*%
X96750000Y-132455000D03*
%TD*%
D30*
%TO.P,R5,1*%
%TO.N,/CH32V003/PC0*%
X94300000Y-128000000D03*
%TO.P,R5,2*%
%TO.N,/HC-SR04 #1/Echo_5V*%
X94300000Y-129000000D03*
%TD*%
D19*
%TO.P,C11,1*%
%TO.N,/HX711/EX+*%
X148200000Y-119920000D03*
%TO.P,C11,2*%
%TO.N,GND*%
X148200000Y-121480000D03*
%TD*%
D17*
%TO.P,R12,1*%
%TO.N,/CH32V003/CH32V003.RX*%
X120500000Y-111925000D03*
%TO.P,R12,2*%
%TO.N,Net-(D2-A)*%
X119500000Y-111925000D03*
%TD*%
D31*
%TO.P,U1,1,NC*%
%TO.N,unconnected-(U1-NC-Pad1)*%
X146860000Y-102700000D03*
%TO.P,U1,2,A1*%
%TO.N,/Bus_switch/Chainbus_In.RX*%
X146210000Y-102700000D03*
%TO.P,U1,3,A2*%
%TO.N,/Bus_switch/Chainbus_In.TX*%
X145560000Y-102700000D03*
%TO.P,U1,4,A3*%
%TO.N,/Bus_switch/Chainbus_In.MISO*%
X144910000Y-102700000D03*
%TO.P,U1,5,A4*%
%TO.N,/Bus_switch/Chainbus_In.MOSI*%
X144250000Y-102700000D03*
%TO.P,U1,6,A5*%
%TO.N,/Bus_switch/Chainbus_In.SCK*%
X143600000Y-102700000D03*
%TO.P,U1,7,A6*%
%TO.N,/Bus_switch/Chainbus_In.CS*%
X142950000Y-102700000D03*
%TO.P,U1,8,A7*%
%TO.N,/Bus_switch/Chainbus_In.SCL*%
X142300000Y-102700000D03*
%TO.P,U1,9,A8*%
%TO.N,/Bus_switch/Chainbus_In.SDA*%
X141650000Y-102700000D03*
%TO.P,U1,10,GND*%
%TO.N,GND*%
X141000000Y-102700000D03*
%TO.P,U1,11,B8*%
%TO.N,/Bus_switch/Chainbus.SDA*%
X141000000Y-108440000D03*
%TO.P,U1,12,B7*%
%TO.N,/Bus_switch/Chainbus.SCL*%
X141650000Y-108440000D03*
%TO.P,U1,13,B6*%
%TO.N,/Bus_switch/Chainbus.CS*%
X142300000Y-108440000D03*
%TO.P,U1,14,B5*%
%TO.N,/Bus_switch/Chainbus.SCK*%
X142950000Y-108440000D03*
%TO.P,U1,15,B4*%
%TO.N,/Bus_switch/Chainbus.MOSI*%
X143600000Y-108440000D03*
%TO.P,U1,16,B3*%
%TO.N,/Bus_switch/Chainbus.MISO*%
X144250000Y-108440000D03*
%TO.P,U1,17,B2*%
%TO.N,/Bus_switch/Chainbus.TX*%
X144910000Y-108440000D03*
%TO.P,U1,18,B1*%
%TO.N,/Bus_switch/Chainbus.RX*%
X145560000Y-108440000D03*
%TO.P,U1,19,~{OE}*%
%TO.N,/Bus_switch/SEL1*%
X146210000Y-108440000D03*
%TO.P,U1,20,VCC*%
%TO.N,+3V3*%
X146860000Y-108440000D03*
%TD*%
D18*
%TO.P,C9,1*%
%TO.N,/HX711/INA+*%
X151600000Y-127380000D03*
%TO.P,C9,2*%
%TO.N,/HX711/INA-*%
X151600000Y-125820000D03*
%TD*%
D10*
%TO.P,C13,1*%
%TO.N,Net-(U5-VBG)*%
X151560000Y-124100000D03*
%TO.P,C13,2*%
%TO.N,GND*%
X150000000Y-124100000D03*
%TD*%
D30*
%TO.P,R18,1*%
%TO.N,Net-(U5-VFB)*%
X151700000Y-121900000D03*
%TO.P,R18,2*%
%TO.N,GND*%
X151700000Y-122900000D03*
%TD*%
D17*
%TO.P,R13,1*%
%TO.N,/HX711/INA+*%
X150100000Y-127420000D03*
%TO.P,R13,2*%
%TO.N,Net-(J8-Pin_3)*%
X149100000Y-127420000D03*
%TD*%
D30*
%TO.P,R7,1*%
%TO.N,/CH32V003/PC4*%
X108300000Y-127837500D03*
%TO.P,R7,2*%
%TO.N,/HC-SR04 #2/Echo_5V*%
X108300000Y-128837500D03*
%TD*%
D17*
%TO.P,R9,1*%
%TO.N,+3V3*%
X157200000Y-97500000D03*
%TO.P,R9,2*%
%TO.N,/Bus_switch/Chainbus.SCL*%
X156200000Y-97500000D03*
%TD*%
D13*
%TO.P,J6,1,Pin_1*%
%TO.N,+5V*%
X103250000Y-132292500D03*
D14*
%TO.P,J6,2,Pin_2*%
%TO.N,/CH32V003/CH32V003.SCK*%
X105750000Y-132292500D03*
%TO.P,J6,3,Pin_3*%
%TO.N,/HC-SR04 #2/Echo_5V*%
X108250000Y-132292500D03*
%TO.P,J6,4,Pin_4*%
%TO.N,GND*%
X110750000Y-132292500D03*
%TD*%
D30*
%TO.P,R19,1*%
%TO.N,/CH32V003/PD0*%
X136125000Y-127787500D03*
%TO.P,R19,2*%
%TO.N,/HC-SR04 #4/Echo_5V*%
X136125000Y-128787500D03*
%TD*%
%TO.P,R21,1*%
%TO.N,/CH32V003/CH32V003.MOSI*%
X122475000Y-127457500D03*
%TO.P,R21,2*%
%TO.N,/HC-SR04 #3/Echo_5V*%
X122475000Y-128457500D03*
%TD*%
D17*
%TO.P,R22,1*%
%TO.N,GND*%
X123475000Y-126457500D03*
%TO.P,R22,2*%
%TO.N,/CH32V003/CH32V003.MOSI*%
X122475000Y-126457500D03*
%TD*%
D32*
%TO.P,D2,1,K*%
%TO.N,GND*%
X119400000Y-108912500D03*
%TO.P,D2,2,A*%
%TO.N,Net-(D2-A)*%
X119400000Y-110487500D03*
%TD*%
D24*
%TO.P,R25,1*%
%TO.N,+3V3*%
X157200000Y-96600000D03*
%TO.P,R25,2*%
%TO.N,/Bus_switch/Chainbus.SDA*%
X157200000Y-95600000D03*
%TD*%
D33*
%TO.P,C3,1*%
%TO.N,+5V*%
X104320000Y-104400000D03*
%TO.P,C3,2*%
%TO.N,GND*%
X105880000Y-104400000D03*
%TD*%
D10*
%TO.P,C15,1*%
%TO.N,+5V*%
X152180000Y-117100000D03*
%TO.P,C15,2*%
%TO.N,GND*%
X150620000Y-117100000D03*
%TD*%
D18*
%TO.P,C10,1*%
%TO.N,/HX711/INB-*%
X161500000Y-126280000D03*
%TO.P,C10,2*%
%TO.N,/HX711/INB+*%
X161500000Y-124720000D03*
%TD*%
D17*
%TO.P,R6,1*%
%TO.N,GND*%
X95300000Y-127000000D03*
%TO.P,R6,2*%
%TO.N,/CH32V003/PC0*%
X94300000Y-127000000D03*
%TD*%
D34*
%TO.P,U4,1,PD4*%
%TO.N,/CH32V003/PD4*%
X122475000Y-110875000D03*
%TO.P,U4,2,PD5*%
%TO.N,/CH32V003/CH32V003.TX*%
X122475000Y-111525000D03*
%TO.P,U4,3,PD6*%
%TO.N,/CH32V003/CH32V003.RX*%
X122475000Y-112175000D03*
%TO.P,U4,4,PD7*%
%TO.N,/CH32V003/PD7*%
X122475000Y-112825000D03*
%TO.P,U4,5,PA1*%
%TO.N,/CH32V003/OSCI*%
X122475000Y-113475000D03*
%TO.P,U4,6,PA2*%
%TO.N,/CH32V003/OSCO*%
X122475000Y-114125000D03*
%TO.P,U4,7,VSS*%
%TO.N,GND*%
X122475000Y-114775000D03*
%TO.P,U4,8,PD0*%
%TO.N,/CH32V003/PD0*%
X122475000Y-115425000D03*
%TO.P,U4,9,VDD*%
%TO.N,+3V3*%
X122475000Y-116075000D03*
%TO.P,U4,10,PC0*%
%TO.N,/CH32V003/PC0*%
X122475000Y-116725000D03*
%TO.P,U4,11,PC1*%
%TO.N,/Bus_switch/Chainbus.SCL*%
X128200000Y-116725000D03*
%TO.P,U4,12,PC2*%
%TO.N,/Bus_switch/Chainbus.SDA*%
X128200000Y-116075000D03*
%TO.P,U4,13,PC3*%
%TO.N,/CH32V003/PC3*%
X128200000Y-115425000D03*
%TO.P,U4,14,PC4*%
%TO.N,/CH32V003/PC4*%
X128200000Y-114775000D03*
%TO.P,U4,15,PC5*%
%TO.N,/CH32V003/CH32V003.SCK*%
X128200000Y-114125000D03*
%TO.P,U4,16,PC6*%
%TO.N,/CH32V003/CH32V003.MOSI*%
X128200000Y-113475000D03*
%TO.P,U4,17,PC7*%
%TO.N,/CH32V003/CH32V003.MISO*%
X128200000Y-112825000D03*
%TO.P,U4,18,PD1*%
%TO.N,/CH32V003/SWIO*%
X128200000Y-112175000D03*
%TO.P,U4,19,PD2*%
%TO.N,/CH32V003/PD2*%
X128200000Y-111525000D03*
%TO.P,U4,20,PD3*%
%TO.N,/CH32V003/PD3*%
X128200000Y-110875000D03*
%TD*%
D35*
%TO.N,GND*%
X109600000Y-126000000D03*
X135644462Y-94153933D03*
X150800000Y-122900000D03*
X115694462Y-93903933D03*
X167100000Y-98800000D03*
X123800000Y-125500000D03*
X133094462Y-94203933D03*
X102300000Y-111500000D03*
X115694462Y-92853933D03*
X110144462Y-92053933D03*
X130544462Y-93053933D03*
X148200000Y-122600000D03*
X110144462Y-93053933D03*
X118100000Y-108450000D03*
X107000000Y-104400000D03*
X133094462Y-93153933D03*
X149900000Y-122600000D03*
X137400000Y-125900000D03*
X152500000Y-122300000D03*
X147900000Y-105700000D03*
X130544462Y-94103933D03*
X110144462Y-94103933D03*
X148194462Y-94103933D03*
X117700000Y-116100000D03*
X115694462Y-91853933D03*
X120750000Y-114975000D03*
X148194462Y-92053933D03*
X140200000Y-102700000D03*
X148700000Y-124100000D03*
X103100000Y-111600000D03*
X149300000Y-116000000D03*
X167000000Y-100100000D03*
X103900000Y-111500000D03*
X175400000Y-103500000D03*
X157800000Y-119800000D03*
X130544462Y-92053933D03*
X167000000Y-101400000D03*
X167000000Y-102600000D03*
X95600000Y-126100000D03*
X162600000Y-104200000D03*
X135644462Y-93103933D03*
X135644462Y-92103933D03*
X149300000Y-117100000D03*
X148194462Y-93053933D03*
X161200000Y-114300000D03*
X133094462Y-92153933D03*
%TO.N,+3V3*%
X150400000Y-110800000D03*
X154700000Y-107100000D03*
X138700000Y-109200000D03*
%TO.N,+5V*%
X112794462Y-92103933D03*
X112794462Y-94403933D03*
X112794462Y-93703933D03*
X112794462Y-92953933D03*
%TO.N,/Bus_switch/Chainbus_In.RX*%
X148300000Y-98000000D03*
%TO.N,/Bus_switch/Chainbus_In.MOSI*%
X140600000Y-98000000D03*
%TO.N,/Bus_switch/Chainbus_In.SDA*%
X130500000Y-98000000D03*
%TO.N,/Bus_switch/SEL1*%
X109200000Y-101000000D03*
%TO.N,/Interboard_connector/SEL2*%
X110294462Y-98103933D03*
%TO.N,/Bus_switch/Chainbus_In.TX*%
X145700000Y-98000000D03*
%TO.N,/Interboard_connector/SEL8*%
X125607734Y-98167205D03*
%TO.N,/Interboard_connector/SEL5*%
X117794462Y-98103933D03*
%TO.N,/Interboard_connector/SEL7*%
X123107734Y-98167205D03*
%TO.N,/Interboard_connector/SEL4*%
X115294462Y-98103933D03*
%TO.N,/Bus_switch/Chainbus_In.SCK*%
X138000000Y-98000000D03*
%TO.N,/Bus_switch/Chainbus_In.MISO*%
X143100000Y-98000000D03*
%TO.N,+12V stby*%
X143444462Y-93153933D03*
%TO.N,/Bus_switch/Chainbus_In.SCL*%
X133100000Y-98100000D03*
%TO.N,/Bus_switch/Chainbus_In.CS*%
X135600000Y-98000000D03*
%TO.N,/Interboard_connector/SEL3*%
X112794462Y-98103933D03*
%TO.N,/Interboard_connector/SEL6*%
X120294462Y-98103933D03*
%TO.N,BRD_VIN*%
X120394462Y-94003933D03*
X120394462Y-93003933D03*
X125494462Y-94053933D03*
X122944462Y-92053933D03*
X125494462Y-92053933D03*
X122944462Y-93053933D03*
X125494462Y-93053933D03*
X120394462Y-92003933D03*
X122944462Y-94053933D03*
%TO.N,/Bus_switch/Chainbus.SCL*%
X137700000Y-116800000D03*
X142600000Y-105100000D03*
X161700000Y-100100000D03*
X141800000Y-111450000D03*
%TO.N,/Bus_switch/Chainbus.SDA*%
X141000000Y-111450000D03*
X139300000Y-114300000D03*
X142000000Y-104600000D03*
%TO.N,/CH32V003/PC3*%
X112300000Y-119700000D03*
X115500000Y-119800000D03*
X120000000Y-120500000D03*
X101500000Y-121700000D03*
X126800000Y-115500000D03*
%TO.N,/CH32V003/PD2*%
X126800000Y-111500000D03*
%TO.N,/CH32V003/PD0*%
X123700000Y-115400000D03*
X123900000Y-119700000D03*
%TO.N,/CH32V003/CH32V003.MOSI*%
X125200000Y-117700000D03*
X126900000Y-113500000D03*
%TO.N,/CH32V003/CH32V003.MISO*%
X121900000Y-120800000D03*
X125803554Y-114503554D03*
%TO.N,/CH32V003/CH32V003.RX*%
X129596446Y-113103554D03*
X124000000Y-112200000D03*
%TO.N,/CH32V003/PD3*%
X133400000Y-112100000D03*
X129800000Y-110900000D03*
%TO.N,/CH32V003/PD4*%
X123600000Y-110800000D03*
X130900000Y-113700000D03*
%TD*%
D36*
%TO.N,GND*%
X103490000Y-109780000D02*
X102970000Y-110300000D01*
X161180000Y-114320000D02*
X161200000Y-114300000D01*
D37*
X168710000Y-98840000D02*
X167140000Y-98840000D01*
X102970000Y-110300000D02*
X102970000Y-111470000D01*
X118562500Y-108912500D02*
X118100000Y-108450000D01*
X119400000Y-108912500D02*
X118562500Y-108912500D01*
X109300000Y-126237500D02*
X109600000Y-125937500D01*
X102970000Y-110570000D02*
X103900000Y-111500000D01*
X137425000Y-125887500D02*
X137412500Y-125887500D01*
D36*
X118920000Y-116075000D02*
X117725000Y-116075000D01*
D37*
X151700000Y-122900000D02*
X150800000Y-122900000D01*
X147900000Y-106820000D02*
X147900000Y-105700000D01*
X149900000Y-121480000D02*
X149900000Y-122600000D01*
X168710000Y-100110000D02*
X167010000Y-100110000D01*
X168710000Y-101390000D02*
X167010000Y-101390000D01*
D36*
X105800000Y-109780000D02*
X103490000Y-109780000D01*
D37*
X137125000Y-126187500D02*
X137425000Y-125887500D01*
D36*
X150620000Y-117100000D02*
X149300000Y-117100000D01*
D37*
X102970000Y-110300000D02*
X102970000Y-110570000D01*
X123775000Y-125525000D02*
X123800000Y-125500000D01*
X123775000Y-125557500D02*
X123775000Y-125525000D01*
X95300000Y-126400000D02*
X95600000Y-126100000D01*
D36*
X175350000Y-103450000D02*
X175400000Y-103500000D01*
D37*
X109300000Y-126837500D02*
X109300000Y-126237500D01*
X102970000Y-111470000D02*
X103100000Y-111600000D01*
X167060000Y-102660000D02*
X167000000Y-102600000D01*
X95300000Y-127000000D02*
X95300000Y-126400000D01*
D36*
X175350000Y-102187500D02*
X175350000Y-103450000D01*
D37*
X167140000Y-98840000D02*
X167100000Y-98800000D01*
D36*
X105880000Y-104400000D02*
X107000000Y-104400000D01*
D37*
X102970000Y-110830000D02*
X102300000Y-111500000D01*
X109600000Y-125937500D02*
X109600000Y-126000000D01*
X137412500Y-125887500D02*
X137400000Y-125900000D01*
X167010000Y-101390000D02*
X167000000Y-101400000D01*
X159200000Y-119790000D02*
X157810000Y-119790000D01*
X122475000Y-114775000D02*
X120950000Y-114775000D01*
X123475000Y-126457500D02*
X123475000Y-125857500D01*
D36*
X159900000Y-114320000D02*
X161180000Y-114320000D01*
X107300000Y-109780000D02*
X105800000Y-109780000D01*
X150000000Y-124100000D02*
X148700000Y-124100000D01*
D37*
X157810000Y-119790000D02*
X157800000Y-119800000D01*
D36*
X150620000Y-115500000D02*
X149800000Y-115500000D01*
D37*
X154200000Y-122330000D02*
X152530000Y-122330000D01*
X161450000Y-104230000D02*
X162570000Y-104230000D01*
X123475000Y-125857500D02*
X123775000Y-125557500D01*
X141000000Y-102700000D02*
X140200000Y-102700000D01*
X152530000Y-122330000D02*
X152500000Y-122300000D01*
X137125000Y-126787500D02*
X137125000Y-126187500D01*
X120950000Y-114775000D02*
X120750000Y-114975000D01*
X168710000Y-102660000D02*
X167060000Y-102660000D01*
X102970000Y-110300000D02*
X102970000Y-110830000D01*
D36*
X149800000Y-115500000D02*
X149300000Y-116000000D01*
D37*
X148200000Y-121480000D02*
X148200000Y-122600000D01*
X167010000Y-100110000D02*
X167000000Y-100100000D01*
D36*
X117725000Y-116075000D02*
X117700000Y-116100000D01*
D37*
X162570000Y-104230000D02*
X162600000Y-104200000D01*
D36*
%TO.N,+3V3*%
X150400000Y-110800000D02*
X150200000Y-110600000D01*
X159900000Y-116550000D02*
X159200000Y-117250000D01*
D37*
X158790000Y-100000000D02*
X155790000Y-103000000D01*
X163290000Y-102660000D02*
X161460000Y-102660000D01*
D36*
X139000000Y-108900000D02*
X138700000Y-109200000D01*
X154000000Y-107700000D02*
X154600000Y-107100000D01*
X158600000Y-114580000D02*
X158600000Y-112300000D01*
X159900000Y-115880000D02*
X158600000Y-114580000D01*
D38*
X147900000Y-108380000D02*
X149780000Y-108380000D01*
D36*
X114108173Y-104000000D02*
X109888173Y-108220000D01*
X154000000Y-107700000D02*
X153403933Y-107103933D01*
X150200000Y-110600000D02*
X150200000Y-108800000D01*
X159900000Y-115880000D02*
X159900000Y-116550000D01*
D37*
X161450000Y-102670000D02*
X161450000Y-102660000D01*
D38*
X146920000Y-108380000D02*
X146860000Y-108440000D01*
X157200000Y-97500000D02*
X157200000Y-96500000D01*
X157200000Y-98410000D02*
X158790000Y-100000000D01*
D36*
X139000000Y-106000000D02*
X139000000Y-108900000D01*
X118505000Y-114100000D02*
X115768173Y-114100000D01*
X150200000Y-108800000D02*
X150200000Y-107209471D01*
X150200000Y-107209471D02*
X150094462Y-107103933D01*
X137800000Y-104800000D02*
X139000000Y-106000000D01*
X154600000Y-107100000D02*
X154700000Y-107100000D01*
X105800000Y-108220000D02*
X107300000Y-108220000D01*
D38*
X147900000Y-108380000D02*
X146920000Y-108380000D01*
X149780000Y-108380000D02*
X150200000Y-108800000D01*
D37*
X161460000Y-102660000D02*
X161450000Y-102670000D01*
X161450000Y-102660000D02*
X158790000Y-100000000D01*
D36*
X119730000Y-112875000D02*
X118505000Y-114100000D01*
D38*
X157200000Y-97500000D02*
X157200000Y-98410000D01*
D37*
X155790000Y-103000000D02*
X154000000Y-103000000D01*
D36*
X158600000Y-112300000D02*
X154000000Y-107700000D01*
X97000000Y-108000000D02*
X102970000Y-108000000D01*
X109888173Y-108220000D02*
X107300000Y-108220000D01*
X115768173Y-114100000D02*
X109888173Y-108220000D01*
X131100000Y-107525000D02*
X133825000Y-104800000D01*
X122475000Y-116075000D02*
X120480000Y-116075000D01*
X105580000Y-108000000D02*
X105800000Y-108220000D01*
X131100000Y-107525000D02*
X127575000Y-104000000D01*
X127575000Y-104000000D02*
X114108173Y-104000000D01*
X102970000Y-108000000D02*
X105580000Y-108000000D01*
X119800000Y-112875000D02*
X119730000Y-112875000D01*
X153403933Y-107103933D02*
X150094462Y-107103933D01*
X133825000Y-104800000D02*
X137800000Y-104800000D01*
X120480000Y-116075000D02*
X118505000Y-114100000D01*
%TO.N,+5V*%
X141600000Y-117200000D02*
X144000000Y-117200000D01*
X127617500Y-135700000D02*
X131075000Y-132242500D01*
X117425000Y-135625000D02*
X117500000Y-135700000D01*
X110051728Y-90600000D02*
X106200000Y-90600000D01*
X104685000Y-103985000D02*
X95215000Y-103985000D01*
X92495000Y-135700000D02*
X103200000Y-135700000D01*
X152180000Y-117100000D02*
X154050000Y-117100000D01*
X103200000Y-135700000D02*
X117500000Y-135700000D01*
X151280000Y-114600000D02*
X144200000Y-114600000D01*
X154050000Y-117100000D02*
X154200000Y-117250000D01*
X117425000Y-131912500D02*
X117425000Y-135625000D01*
X111490000Y-92038272D02*
X110051728Y-90600000D01*
X127617500Y-135700000D02*
X138400000Y-135700000D01*
X152180000Y-115500000D02*
X151280000Y-114600000D01*
X103250000Y-132292500D02*
X103250000Y-135650000D01*
X138400000Y-135700000D02*
X141400000Y-132700000D01*
X117500000Y-135700000D02*
X127617500Y-135700000D01*
X95215000Y-103985000D02*
X89250000Y-109950000D01*
X141400000Y-132700000D02*
X141400000Y-117400000D01*
X152180000Y-115500000D02*
X152180000Y-117100000D01*
X141400000Y-117400000D02*
X141600000Y-117200000D01*
X144200000Y-114600000D02*
X141600000Y-117200000D01*
X89250000Y-109950000D02*
X89250000Y-132455000D01*
X103250000Y-135650000D02*
X103200000Y-135700000D01*
X111490000Y-93038272D02*
X111490000Y-92038272D01*
X144000000Y-117200000D02*
X144300000Y-117500000D01*
X106200000Y-102470000D02*
X106200000Y-90600000D01*
X102970000Y-105700000D02*
X104685000Y-103985000D01*
X89250000Y-132455000D02*
X92495000Y-135700000D01*
X104685000Y-103985000D02*
X106200000Y-102470000D01*
D37*
%TO.N,/HX711/INA+*%
X152840000Y-126140000D02*
X151600000Y-127380000D01*
X150140000Y-127380000D02*
X150100000Y-127420000D01*
X151600000Y-127380000D02*
X150140000Y-127380000D01*
X154200000Y-126140000D02*
X152840000Y-126140000D01*
%TO.N,/HX711/INA-*%
X151600000Y-125820000D02*
X152550000Y-124870000D01*
X151600000Y-125820000D02*
X150100000Y-125820000D01*
X152550000Y-124870000D02*
X154200000Y-124870000D01*
%TO.N,Net-(D1-A)*%
X173612500Y-100612500D02*
X173600000Y-100600000D01*
X175350000Y-100612500D02*
X173612500Y-100612500D01*
D36*
%TO.N,/HX711/INB-*%
X159340000Y-126280000D02*
X159200000Y-126140000D01*
X162700000Y-126400000D02*
X161620000Y-126400000D01*
X161500000Y-126280000D02*
X159340000Y-126280000D01*
X161620000Y-126400000D02*
X161500000Y-126280000D01*
D37*
%TO.N,/Bus_switch/Chainbus_In.RX*%
X147128272Y-98000000D02*
X147050000Y-98078272D01*
X148300000Y-98000000D02*
X147128272Y-98000000D01*
X146210000Y-98918272D02*
X147050000Y-98078272D01*
X146210000Y-102700000D02*
X146210000Y-98918272D01*
%TO.N,/Bus_switch/Chainbus_In.MOSI*%
X141181000Y-99829272D02*
X139430000Y-98078272D01*
X144250000Y-101993000D02*
X142086272Y-99829272D01*
X142086272Y-99829272D02*
X141181000Y-99829272D01*
X139508272Y-98000000D02*
X139430000Y-98078272D01*
X144250000Y-102700000D02*
X144250000Y-101993000D01*
X140600000Y-98000000D02*
X139508272Y-98000000D01*
%TO.N,/Bus_switch/Chainbus_In.SDA*%
X129348272Y-98000000D02*
X129270000Y-98078272D01*
X141650000Y-101993000D02*
X141650000Y-102700000D01*
X130500000Y-98000000D02*
X129348272Y-98000000D01*
X129270000Y-98078272D02*
X132769728Y-101578000D01*
X141235000Y-101578000D02*
X141650000Y-101993000D01*
X132769728Y-101578000D02*
X141235000Y-101578000D01*
%TO.N,/Bus_switch/SEL1*%
X146210000Y-108440000D02*
X146210000Y-107733000D01*
X128105520Y-103822000D02*
X125283520Y-101000000D01*
X125283520Y-101000000D02*
X109200000Y-101000000D01*
X151488500Y-104611500D02*
X143088500Y-104611500D01*
X157000000Y-107000000D02*
X153000000Y-103000000D01*
X146210000Y-107733000D02*
X143088500Y-104611500D01*
X173600000Y-101600000D02*
X168200000Y-107000000D01*
X168200000Y-107000000D02*
X157000000Y-107000000D01*
X153100000Y-103000000D02*
X151488500Y-104611500D01*
X142299000Y-103822000D02*
X128105520Y-103822000D01*
X153100000Y-103000000D02*
X153000000Y-103000000D01*
X143088500Y-104611500D02*
X142299000Y-103822000D01*
%TO.N,/Interboard_connector/SEL2*%
X109072734Y-98103933D02*
X108994462Y-98182205D01*
X110294462Y-98103933D02*
X109072734Y-98103933D01*
%TO.N,/Bus_switch/Chainbus_In.TX*%
X145700000Y-98000000D02*
X144588272Y-98000000D01*
X145560000Y-99128272D02*
X145560000Y-102700000D01*
X144588272Y-98000000D02*
X144510000Y-98078272D01*
X144510000Y-98078272D02*
X145560000Y-99128272D01*
%TO.N,/Interboard_connector/SEL8*%
X124249462Y-98167205D02*
X124234462Y-98182205D01*
X125607734Y-98167205D02*
X124249462Y-98167205D01*
%TO.N,/Interboard_connector/SEL5*%
X116692734Y-98103933D02*
X116614462Y-98182205D01*
X117794462Y-98103933D02*
X116692734Y-98103933D01*
%TO.N,/Interboard_connector/SEL7*%
X123107734Y-98167205D02*
X121709462Y-98167205D01*
X121709462Y-98167205D02*
X121694462Y-98182205D01*
%TO.N,/Interboard_connector/SEL4*%
X114152734Y-98103933D02*
X114074462Y-98182205D01*
X115294462Y-98103933D02*
X114152734Y-98103933D01*
%TO.N,/Bus_switch/Chainbus_In.SCK*%
X143600000Y-102700000D02*
X143600000Y-101993000D01*
X143600000Y-101993000D02*
X141787272Y-100180272D01*
X141787272Y-100180272D02*
X138992000Y-100180272D01*
X138000000Y-98000000D02*
X136968272Y-98000000D01*
X136968272Y-98000000D02*
X136890000Y-98078272D01*
X138992000Y-100180272D02*
X136890000Y-98078272D01*
%TO.N,/Bus_switch/Chainbus_In.MISO*%
X144910000Y-102700000D02*
X144910000Y-101018272D01*
X142048272Y-98000000D02*
X141970000Y-98078272D01*
X144910000Y-101018272D02*
X141970000Y-98078272D01*
X143100000Y-98000000D02*
X142048272Y-98000000D01*
D38*
%TO.N,+12V stby*%
X143444462Y-93153933D02*
X144542734Y-93153933D01*
X144542734Y-93153933D02*
X144554462Y-93142205D01*
D37*
%TO.N,/Bus_switch/Chainbus_In.SCL*%
X142300000Y-102700000D02*
X142300000Y-101993000D01*
X131831728Y-98100000D02*
X131810000Y-98078272D01*
X141189272Y-100882272D02*
X134614000Y-100882272D01*
X134614000Y-100882272D02*
X131810000Y-98078272D01*
X133100000Y-98100000D02*
X131831728Y-98100000D01*
X142300000Y-101993000D02*
X141189272Y-100882272D01*
%TO.N,/Bus_switch/Chainbus_In.CS*%
X136803000Y-100531272D02*
X134350000Y-98078272D01*
X142950000Y-102048646D02*
X141432626Y-100531272D01*
X142950000Y-102700000D02*
X142950000Y-102048646D01*
X141432626Y-100531272D02*
X136803000Y-100531272D01*
X134428272Y-98000000D02*
X134350000Y-98078272D01*
X135600000Y-98000000D02*
X134428272Y-98000000D01*
%TO.N,/Interboard_connector/SEL3*%
X112794462Y-98103933D02*
X111612734Y-98103933D01*
X111612734Y-98103933D02*
X111534462Y-98182205D01*
%TO.N,/Interboard_connector/SEL6*%
X120294462Y-98103933D02*
X119232734Y-98103933D01*
X119232734Y-98103933D02*
X119154462Y-98182205D01*
D39*
%TO.N,BRD_VIN*%
X119154462Y-93142205D02*
X119154462Y-92213933D01*
D38*
%TO.N,/Bus_switch/Chainbus.SCL*%
X156200000Y-97510000D02*
X153710000Y-100000000D01*
D37*
X163290000Y-100110000D02*
X161710000Y-100110000D01*
X137700000Y-116800000D02*
X137625000Y-116725000D01*
X141650000Y-108440000D02*
X141650000Y-106050000D01*
D38*
X156200000Y-97500000D02*
X156200000Y-97510000D01*
D37*
X141650000Y-106050000D02*
X142600000Y-105100000D01*
X141650000Y-108440000D02*
X141650000Y-111300000D01*
X141650000Y-111300000D02*
X141800000Y-111450000D01*
X137625000Y-116725000D02*
X128200000Y-116725000D01*
X161710000Y-100110000D02*
X161700000Y-100100000D01*
%TO.N,/Bus_switch/Chainbus.SDA*%
X141000000Y-105600000D02*
X142000000Y-104600000D01*
X137525000Y-116075000D02*
X139300000Y-114300000D01*
D38*
X154670000Y-96500000D02*
X151170000Y-100000000D01*
X156200000Y-96500000D02*
X154670000Y-96500000D01*
D37*
X128200000Y-116075000D02*
X137525000Y-116075000D01*
X163290000Y-98840000D02*
X160389000Y-95939000D01*
X156761000Y-95939000D02*
X156200000Y-96500000D01*
X141000000Y-111450000D02*
X141000000Y-108440000D01*
X160389000Y-95939000D02*
X156761000Y-95939000D01*
X141000000Y-108440000D02*
X141000000Y-105600000D01*
D36*
%TO.N,/HX711/INB+*%
X161350000Y-124870000D02*
X161500000Y-124720000D01*
X159200000Y-124870000D02*
X161350000Y-124870000D01*
X162900000Y-124600000D02*
X161620000Y-124600000D01*
X161620000Y-124600000D02*
X161500000Y-124720000D01*
%TO.N,/HX711/EX+*%
X155495000Y-135300000D02*
X164005000Y-135300000D01*
D37*
X149900000Y-119920000D02*
X154070000Y-119920000D01*
X154200000Y-119790000D02*
X154893611Y-119790000D01*
X154070000Y-119920000D02*
X154200000Y-119790000D01*
X155600000Y-120496389D02*
X155600000Y-120600000D01*
X145250000Y-119375000D02*
X145795000Y-119920000D01*
D36*
X156500000Y-126900000D02*
X156500000Y-122600000D01*
D37*
X156100000Y-121700000D02*
X156100000Y-122200000D01*
D36*
X152750000Y-132555000D02*
X155495000Y-135300000D01*
D37*
X148200000Y-119920000D02*
X149900000Y-119920000D01*
X154893611Y-119790000D02*
X155600000Y-120496389D01*
D36*
X152750000Y-132555000D02*
X152750000Y-130650000D01*
X152750000Y-130650000D02*
X156500000Y-126900000D01*
D37*
X155700000Y-120700000D02*
X155700000Y-121300000D01*
D36*
X156500000Y-122600000D02*
X156100000Y-122200000D01*
D37*
X155600000Y-120600000D02*
X155700000Y-120700000D01*
X155700000Y-121300000D02*
X156100000Y-121700000D01*
X145795000Y-119920000D02*
X148200000Y-119920000D01*
D36*
X164005000Y-135300000D02*
X166750000Y-132555000D01*
D37*
%TO.N,Net-(U5-VBG)*%
X154000000Y-123800000D02*
X151860000Y-123800000D01*
X154200000Y-123600000D02*
X154000000Y-123800000D01*
X151860000Y-123800000D02*
X151560000Y-124100000D01*
%TO.N,Net-(D2-A)*%
X119400000Y-110487500D02*
X119400000Y-111825000D01*
X119287500Y-111712500D02*
X119500000Y-111925000D01*
X119400000Y-111825000D02*
X119500000Y-111925000D01*
%TO.N,/CH32V003/CH32V003.TX*%
X124400000Y-108725000D02*
X123800000Y-108125000D01*
X124075000Y-111525000D02*
X124400000Y-111200000D01*
X124400000Y-111200000D02*
X124400000Y-108725000D01*
X122475000Y-111525000D02*
X124075000Y-111525000D01*
%TO.N,/CH32V003/PC0*%
X103625000Y-117300000D02*
X121900000Y-117300000D01*
X94300000Y-127000000D02*
X94300000Y-128000000D01*
X94300000Y-126625000D02*
X103625000Y-117300000D01*
X121900000Y-117300000D02*
X122475000Y-116725000D01*
X94300000Y-127000000D02*
X94300000Y-126625000D01*
%TO.N,/CH32V003/PC3*%
X103500000Y-119700000D02*
X112300000Y-119700000D01*
X128125000Y-115500000D02*
X128200000Y-115425000D01*
X126800000Y-115500000D02*
X128125000Y-115500000D01*
X119300000Y-119800000D02*
X120000000Y-120500000D01*
X115500000Y-119800000D02*
X119300000Y-119800000D01*
X101500000Y-121700000D02*
X103500000Y-119700000D01*
%TO.N,/CH32V003/PC4*%
X117000000Y-124800000D02*
X109200000Y-124800000D01*
X127025000Y-114775000D02*
X126801000Y-114999000D01*
X126299000Y-115292479D02*
X126299000Y-115501000D01*
X108300000Y-125700000D02*
X108300000Y-126837500D01*
X126592479Y-114999000D02*
X126299000Y-115292479D01*
X109200000Y-124800000D02*
X108300000Y-125700000D01*
X108300000Y-126837500D02*
X108300000Y-127837500D01*
X126299000Y-115501000D02*
X117000000Y-124800000D01*
X128200000Y-114775000D02*
X127025000Y-114775000D01*
X126801000Y-114999000D02*
X126592479Y-114999000D01*
%TO.N,/CH32V003/CH32V003.SCK*%
X105750000Y-132292500D02*
X105750000Y-127753611D01*
X126903554Y-114203554D02*
X126982108Y-114125000D01*
X126982108Y-114125000D02*
X128200000Y-114125000D01*
X126891537Y-114203554D02*
X126903554Y-114203554D01*
X105750000Y-127753611D02*
X114803611Y-118700000D01*
X114803611Y-118700000D02*
X122395090Y-118700000D01*
X122395090Y-118700000D02*
X126891537Y-114203554D01*
%TO.N,/CH32V003/SWIO*%
X133640000Y-107525000D02*
X133640000Y-111035000D01*
X133640000Y-111035000D02*
X132500000Y-112175000D01*
X132500000Y-112175000D02*
X128200000Y-112175000D01*
D36*
%TO.N,Net-(J8-Pin_2)*%
X147750000Y-127170000D02*
X149100000Y-125820000D01*
X147750000Y-132555000D02*
X147750000Y-127170000D01*
%TO.N,Net-(J8-Pin_3)*%
X149100000Y-127420000D02*
X149100000Y-131405000D01*
X149100000Y-131405000D02*
X150250000Y-132555000D01*
%TO.N,Net-(J9-Pin_3)*%
X164581000Y-125181000D02*
X163900000Y-124500000D01*
X164250000Y-132555000D02*
X164581000Y-132224000D01*
X164581000Y-132224000D02*
X164581000Y-125181000D01*
%TO.N,Net-(J9-Pin_2)*%
X163581000Y-126669000D02*
X163900000Y-126350000D01*
X161750000Y-132555000D02*
X161750000Y-129450000D01*
X163581000Y-127619000D02*
X163581000Y-126669000D01*
X161750000Y-129450000D02*
X163581000Y-127619000D01*
D37*
%TO.N,/CH32V003/PD2*%
X126800000Y-111500000D02*
X128175000Y-111500000D01*
X128175000Y-111500000D02*
X128200000Y-111525000D01*
%TO.N,/CH32V003/PD0*%
X122500000Y-115400000D02*
X122475000Y-115425000D01*
X123700000Y-115400000D02*
X122500000Y-115400000D01*
X136125000Y-126787500D02*
X136125000Y-127787500D01*
X136125000Y-126787500D02*
X130987500Y-126787500D01*
X130987500Y-126787500D02*
X123900000Y-119700000D01*
%TO.N,/CH32V003/CH32V003.MOSI*%
X124500000Y-118400000D02*
X125200000Y-117700000D01*
X122475000Y-126457500D02*
X122475000Y-127457500D01*
X124200000Y-118400000D02*
X124500000Y-118400000D01*
X126900000Y-113500000D02*
X128175000Y-113500000D01*
X122475000Y-120125000D02*
X124200000Y-118400000D01*
X122475000Y-126457500D02*
X122475000Y-120125000D01*
X128175000Y-113500000D02*
X128200000Y-113475000D01*
%TO.N,/CH32V003/CH32V003.MISO*%
X119925000Y-123175000D02*
X119925000Y-131912500D01*
X120050000Y-122850000D02*
X120050000Y-123050000D01*
X125803554Y-113887925D02*
X126866479Y-112825000D01*
X121800000Y-120900000D02*
X121900000Y-120800000D01*
X125803554Y-114503554D02*
X125803554Y-113887925D01*
X120050000Y-122850000D02*
X121800000Y-121100000D01*
X119925000Y-122975000D02*
X120050000Y-122850000D01*
X121800000Y-121100000D02*
X121800000Y-120900000D01*
X120050000Y-123050000D02*
X119925000Y-123175000D01*
X126866479Y-112825000D02*
X128200000Y-112825000D01*
%TO.N,Net-(Q1-B)*%
X147220000Y-118520000D02*
X146200000Y-117500000D01*
X154200000Y-118520000D02*
X147220000Y-118520000D01*
%TO.N,/CH32V003/PD7*%
X120800000Y-112875000D02*
X122425000Y-112875000D01*
X122425000Y-112875000D02*
X122475000Y-112825000D01*
%TO.N,/CH32V003/CH32V003.RX*%
X131900000Y-113200000D02*
X131600000Y-112900000D01*
X131600000Y-112900000D02*
X129800000Y-112900000D01*
X124000000Y-112200000D02*
X122500000Y-112200000D01*
X122500000Y-112200000D02*
X122475000Y-112175000D01*
X120500000Y-111925000D02*
X120750000Y-112175000D01*
X156800000Y-114400000D02*
X155600000Y-113200000D01*
X158730000Y-122330000D02*
X156800000Y-120400000D01*
X129800000Y-112900000D02*
X129596446Y-113103554D01*
X159200000Y-122330000D02*
X158730000Y-122330000D01*
X156800000Y-120400000D02*
X156800000Y-114400000D01*
X120750000Y-112175000D02*
X122475000Y-112175000D01*
X155600000Y-113200000D02*
X131900000Y-113200000D01*
%TO.N,Net-(U5-VFB)*%
X151700000Y-121900000D02*
X151700000Y-120900000D01*
X154040000Y-120900000D02*
X154200000Y-121060000D01*
X151700000Y-120900000D02*
X154040000Y-120900000D01*
%TO.N,/CH32V003/PD3*%
X158200001Y-118520000D02*
X159200000Y-118520000D01*
X157500000Y-113700000D02*
X157500000Y-117819999D01*
X128225000Y-110900000D02*
X128200000Y-110875000D01*
X155900000Y-112100000D02*
X157500000Y-113700000D01*
X133400000Y-112100000D02*
X155900000Y-112100000D01*
X157500000Y-117819999D02*
X158200001Y-118520000D01*
X129800000Y-110900000D02*
X128225000Y-110900000D01*
%TO.N,/CH32V003/PD4*%
X158600000Y-123600000D02*
X157100000Y-122100000D01*
X153900000Y-113700000D02*
X130900000Y-113700000D01*
X157100000Y-121500000D02*
X156000000Y-120400000D01*
X122475000Y-110875000D02*
X123525000Y-110875000D01*
X156000000Y-120400000D02*
X156000000Y-115800000D01*
X159200000Y-123600000D02*
X158600000Y-123600000D01*
X156000000Y-115800000D02*
X153900000Y-113700000D01*
X157100000Y-122100000D02*
X157100000Y-121500000D01*
X123525000Y-110875000D02*
X123600000Y-110800000D01*
%TO.N,/HC-SR04 #1/Echo_5V*%
X94300000Y-129000000D02*
X94300000Y-132405000D01*
X94300000Y-132405000D02*
X94250000Y-132455000D01*
%TO.N,/HC-SR04 #2/Echo_5V*%
X108300000Y-132242500D02*
X108250000Y-132292500D01*
X108300000Y-128837500D02*
X108300000Y-132242500D01*
%TO.N,/HC-SR04 #4/Echo_5V*%
X136125000Y-128787500D02*
X136125000Y-132192500D01*
X136125000Y-132192500D02*
X136075000Y-132242500D01*
%TO.N,/HC-SR04 #3/Echo_5V*%
X122475000Y-128457500D02*
X122475000Y-131862500D01*
X122475000Y-131862500D02*
X122425000Y-131912500D01*
%TD*%
%TA.AperFunction,Conductor*%
%TO.N,GND*%
G36*
X117287501Y-91423618D02*
G01*
X117333256Y-91476422D01*
X117344462Y-91527933D01*
X117344462Y-94429933D01*
X117324777Y-94496972D01*
X117271973Y-94542727D01*
X117220462Y-94553933D01*
X115418462Y-94553933D01*
X115351423Y-94534248D01*
X115305668Y-94481444D01*
X115294462Y-94429933D01*
X115294462Y-91527933D01*
X115314147Y-91460894D01*
X115366951Y-91415139D01*
X115418462Y-91403933D01*
X117220462Y-91403933D01*
X117287501Y-91423618D01*
G37*
%TD.AperFunction*%
%TD*%
%TA.AperFunction,Conductor*%
%TO.N,BRD_VIN*%
G36*
X127385417Y-91573618D02*
G01*
X127431172Y-91626422D01*
X127442361Y-91679999D01*
X127396494Y-94431999D01*
X127375695Y-94498702D01*
X127322136Y-94543570D01*
X127272511Y-94553933D01*
X118766413Y-94553933D01*
X118699374Y-94534248D01*
X118653619Y-94481444D01*
X118642430Y-94431999D01*
X118596563Y-91679999D01*
X118615128Y-91612641D01*
X118667162Y-91566013D01*
X118720546Y-91553933D01*
X127318378Y-91553933D01*
X127385417Y-91573618D01*
G37*
%TD.AperFunction*%
%TD*%
%TA.AperFunction,Conductor*%
%TO.N,+5V*%
G36*
X114487501Y-91573618D02*
G01*
X114533256Y-91626422D01*
X114544462Y-91677933D01*
X114544462Y-94579933D01*
X114524777Y-94646972D01*
X114471973Y-94692727D01*
X114420462Y-94703933D01*
X111168462Y-94703933D01*
X111101423Y-94684248D01*
X111055668Y-94631444D01*
X111044462Y-94579933D01*
X111044462Y-91677933D01*
X111064147Y-91610894D01*
X111116951Y-91565139D01*
X111168462Y-91553933D01*
X114420462Y-91553933D01*
X114487501Y-91573618D01*
G37*
%TD.AperFunction*%
%TD*%
%TA.AperFunction,Conductor*%
%TO.N,GND*%
G36*
X137387501Y-91573618D02*
G01*
X137433256Y-91626422D01*
X137444462Y-91677933D01*
X137444462Y-94579933D01*
X137424777Y-94646972D01*
X137371973Y-94692727D01*
X137320462Y-94703933D01*
X128868462Y-94703933D01*
X128801423Y-94684248D01*
X128755668Y-94631444D01*
X128744462Y-94579933D01*
X128744462Y-91677933D01*
X128764147Y-91610894D01*
X128816951Y-91565139D01*
X128868462Y-91553933D01*
X137320462Y-91553933D01*
X137387501Y-91573618D01*
G37*
%TD.AperFunction*%
%TD*%
%TA.AperFunction,Conductor*%
%TO.N,GND*%
G36*
X110337501Y-91573618D02*
G01*
X110383256Y-91626422D01*
X110394462Y-91677933D01*
X110394462Y-94579933D01*
X110374777Y-94646972D01*
X110321973Y-94692727D01*
X110270462Y-94703933D01*
X108468462Y-94703933D01*
X108401423Y-94684248D01*
X108355668Y-94631444D01*
X108344462Y-94579933D01*
X108344462Y-91677933D01*
X108364147Y-91610894D01*
X108416951Y-91565139D01*
X108468462Y-91553933D01*
X110270462Y-91553933D01*
X110337501Y-91573618D01*
G37*
%TD.AperFunction*%
%TD*%
%TA.AperFunction,Conductor*%
%TO.N,GND*%
G36*
X148387501Y-91573618D02*
G01*
X148433256Y-91626422D01*
X148444462Y-91677933D01*
X148444462Y-94579933D01*
X148424777Y-94646972D01*
X148371973Y-94692727D01*
X148320462Y-94703933D01*
X146518462Y-94703933D01*
X146451423Y-94684248D01*
X146405668Y-94631444D01*
X146394462Y-94579933D01*
X146394462Y-91677933D01*
X146414147Y-91610894D01*
X146466951Y-91565139D01*
X146518462Y-91553933D01*
X148320462Y-91553933D01*
X148387501Y-91573618D01*
G37*
%TD.AperFunction*%
%TD*%
M02*
