M48
; DRILL file {KiCad 9.0.2} date 2026-04-08T17:29:54+0200
; FORMAT={-:-/ absolute / inch / decimal}
; #@! TF.CreationDate,2026-04-08T17:29:54+02:00
; #@! TF.GenerationSoftware,Kicad,Pcbnew,9.0.2
; #@! TF.FileFunction,Plated,1,2,PTH
FMAT,2
INCH
; #@! TA.AperFunction,Plated,PTH,ViaDrill
T1C0.0118
; #@! TA.AperFunction,Plated,PTH,ComponentDrill
T2C0.0118
; #@! TA.AperFunction,Plated,PTH,ComponentDrill
T3C0.0374
; #@! TA.AperFunction,Plated,PTH,ComponentDrill
T4C0.0394
; #@! TA.AperFunction,Plated,PTH,ComponentDrill
T5C0.1063
%
G90
G05
T1
X3.7638Y-4.9646
X3.9961Y-4.7913
X4.0276Y-4.3898
X4.0591Y-4.3937
X4.0906Y-4.3898
X4.2126Y-4.1102
X4.2992Y-3.9764
X4.315Y-4.9606
X4.3364Y-3.6242
X4.3364Y-3.6635
X4.3364Y-3.7049
X4.3423Y-3.8624
X4.4213Y-4.7126
X4.4407Y-3.6261
X4.4407Y-3.6596
X4.4407Y-3.6891
X4.4407Y-3.7167
X4.4407Y-3.8624
X4.5392Y-3.8624
X4.5472Y-4.7165
X4.5549Y-3.6163
X4.5549Y-3.6557
X4.5549Y-3.697
X4.6339Y-4.5709
X4.6376Y-3.8624
X4.6496Y-4.2697
X4.7244Y-4.7441
X4.736Y-3.8624
X4.7399Y-3.6222
X4.7399Y-3.6616
X4.7399Y-3.7009
X4.7539Y-4.5266
X4.7992Y-4.7559
X4.8403Y-3.6242
X4.8403Y-3.6635
X4.8403Y-3.7029
X4.8468Y-3.8649
X4.8661Y-4.3622
X4.8701Y-4.5433
X4.874Y-4.9409
X4.878Y-4.7126
X4.8819Y-4.4173
X4.9291Y-4.6339
X4.9407Y-3.6242
X4.9407Y-3.6635
X4.9407Y-3.7029
X4.9452Y-3.8649
X4.9529Y-4.508
X4.9921Y-4.3898
X4.9921Y-4.5472
X4.9961Y-4.4685
X5.1022Y-4.4529
X5.1102Y-4.3661
X5.1378Y-3.8583
X5.1395Y-3.6242
X5.1395Y-3.6635
X5.1395Y-3.7049
X5.1535Y-4.4764
X5.2399Y-3.6281
X5.2399Y-3.6675
X5.2399Y-3.7088
X5.2402Y-3.8622
X5.252Y-4.4134
X5.3386Y-3.8583
X5.3403Y-3.6261
X5.3403Y-3.6655
X5.3403Y-3.7068
X5.4094Y-4.9567
X5.4213Y-4.5984
X5.4331Y-3.8583
X5.4606Y-4.2992
X5.4843Y-4.5
X5.5197Y-4.0433
X5.5354Y-3.8583
X5.5512Y-4.3878
X5.5827Y-4.3878
X5.5906Y-4.1181
X5.6142Y-4.1378
X5.6339Y-3.8583
X5.6474Y-3.6675
X5.7362Y-3.8583
X5.8228Y-4.1614
X5.8344Y-3.6242
X5.8344Y-3.6635
X5.8344Y-3.7049
X5.8346Y-4.8268
X5.8386Y-3.8583
X5.8543Y-4.8858
X5.878Y-4.5669
X5.878Y-4.6102
X5.9016Y-4.8268
X5.9213Y-4.3622
X5.937Y-4.8386
X6.0039Y-4.815
X6.0906Y-4.2165
X6.2126Y-4.7165
X6.3465Y-4.5
X6.3661Y-3.9409
X6.4016Y-4.1024
X6.5748Y-3.9409
X6.5748Y-3.9921
X6.5748Y-4.0394
X6.5787Y-3.8898
X6.9055Y-4.0748
T2
X3.8189Y-4.2126
X3.8189Y-4.252
X3.8189Y-4.2913
T3
X3.5138Y-5.2148
X3.6122Y-5.2148
X3.7106Y-5.2148
X3.8091Y-5.2148
X4.065Y-5.2084
X4.1634Y-5.2084
X4.2618Y-5.2084
X4.3602Y-5.2084
X4.623Y-5.1934
X4.7215Y-5.1934
X4.8199Y-5.1934
X4.9183Y-5.1934
X5.1604Y-5.2064
X5.2589Y-5.2064
X5.3573Y-5.2064
X5.4557Y-5.2064
X5.7185Y-5.2187
X5.8169Y-5.2187
X5.9154Y-5.2187
X6.0138Y-5.2187
X6.2697Y-5.2187
X6.3681Y-5.2187
X6.4665Y-5.2187
X6.565Y-5.2187
T4
X4.874Y-4.2569
X5.1614Y-4.2333
X5.2614Y-4.2333
X5.3614Y-4.2333
X5.9516Y-3.937
X6.0516Y-3.937
X6.1516Y-3.937
X6.2516Y-3.937
T5
X3.2283Y-3.622
M30
