%TF.GenerationSoftware,KiCad,Pcbnew,9.0.2*%
%TF.CreationDate,2026-03-01T14:38:06+01:00*%
%TF.ProjectId,MMS3_hat_HC-SR04-HX711,4d4d5333-5f68-4617-945f-48432d535230,R0*%
%TF.SameCoordinates,Original*%
%TF.FileFunction,Copper,L2,Bot*%
%TF.FilePolarity,Positive*%
%FSLAX46Y46*%
G04 Gerber Fmt 4.6, Leading zero omitted, Abs format (unit mm)*
G04 Created by KiCad (PCBNEW 9.0.2) date 2026-03-01 14:38:06*
%MOMM*%
%LPD*%
G01*
G04 APERTURE LIST*
G04 Aperture macros list*
%AMRoundRect*
0 Rectangle with rounded corners*
0 $1 Rounding radius*
0 $2 $3 $4 $5 $6 $7 $8 $9 X,Y pos of 4 corners*
0 Add a 4 corners polygon primitive as box body*
4,1,4,$2,$3,$4,$5,$6,$7,$8,$9,$2,$3,0*
0 Add four circle primitives for the rounded corners*
1,1,$1+$1,$2,$3*
1,1,$1+$1,$4,$5*
1,1,$1+$1,$6,$7*
1,1,$1+$1,$8,$9*
0 Add four rect primitives between the rounded corners*
20,1,$1+$1,$2,$3,$4,$5,0*
20,1,$1+$1,$4,$5,$6,$7,0*
20,1,$1+$1,$6,$7,$8,$9,0*
20,1,$1+$1,$8,$9,$2,$3,0*%
G04 Aperture macros list end*
%TA.AperFunction,ComponentPad*%
%ADD10RoundRect,0.250000X-0.600000X-0.725000X0.600000X-0.725000X0.600000X0.725000X-0.600000X0.725000X0*%
%TD*%
%TA.AperFunction,ComponentPad*%
%ADD11O,1.700000X1.950000*%
%TD*%
%TA.AperFunction,ComponentPad*%
%ADD12C,3.100000*%
%TD*%
%TA.AperFunction,ComponentPad*%
%ADD13R,1.700000X1.700000*%
%TD*%
%TA.AperFunction,ComponentPad*%
%ADD14C,0.500000*%
%TD*%
%TA.AperFunction,SMDPad,CuDef*%
%ADD15RoundRect,0.250000X-0.920000X-1.550000X0.920000X-1.550000X0.920000X1.550000X-0.920000X1.550000X0*%
%TD*%
%TA.AperFunction,ComponentPad*%
%ADD16C,1.700000*%
%TD*%
%TA.AperFunction,SMDPad,CuDef*%
%ADD17R,1.000000X3.150000*%
%TD*%
%TA.AperFunction,ViaPad*%
%ADD18C,0.500000*%
%TD*%
%TA.AperFunction,Conductor*%
%ADD19C,0.500000*%
%TD*%
%TA.AperFunction,Conductor*%
%ADD20C,0.200000*%
%TD*%
%TA.AperFunction,Conductor*%
%ADD21C,0.300000*%
%TD*%
G04 APERTURE END LIST*
D10*
%TO.P,J8,1,Pin_1*%
%TO.N,GND*%
X145250000Y-132555000D03*
D11*
%TO.P,J8,2,Pin_2*%
%TO.N,Net-(J8-Pin_2)*%
X147750000Y-132555000D03*
%TO.P,J8,3,Pin_3*%
%TO.N,Net-(J8-Pin_3)*%
X150250000Y-132555000D03*
%TO.P,J8,4,Pin_4*%
%TO.N,/HX711/EX+*%
X152750000Y-132555000D03*
%TD*%
D12*
%TO.P,H1,1,1*%
%TO.N,GND*%
X82000000Y-92000000D03*
%TD*%
D13*
%TO.P,J4,1,Pin_1*%
%TO.N,/CH32V003/CH32V003.TX*%
X123800000Y-108125000D03*
%TD*%
D14*
%TO.P,U3,4,VOUT*%
%TO.N,+3V3*%
X97000000Y-107000000D03*
X97000000Y-108000000D03*
D15*
X97000000Y-108000000D03*
D14*
X97000000Y-109000000D03*
%TD*%
D13*
%TO.P,J3,1,Pin_1*%
%TO.N,/Bus_switch/Chainbus.SDA*%
X151170000Y-100000000D03*
D16*
%TO.P,J3,2,Pin_2*%
%TO.N,/Bus_switch/Chainbus.SCL*%
X153710000Y-100000000D03*
%TO.P,J3,3,Pin_3*%
%TO.N,GND*%
X156250000Y-100000000D03*
%TO.P,J3,4,Pin_4*%
%TO.N,+3V3*%
X158790000Y-100000000D03*
%TD*%
D10*
%TO.P,J11,1,Pin_1*%
%TO.N,+5V*%
X117425000Y-131912500D03*
D11*
%TO.P,J11,2,Pin_2*%
%TO.N,/CH32V003/CH32V003.MISO*%
X119925000Y-131912500D03*
%TO.P,J11,3,Pin_3*%
%TO.N,/HC-SR04 #3/Echo_5V*%
X122425000Y-131912500D03*
%TO.P,J11,4,Pin_4*%
%TO.N,GND*%
X124925000Y-131912500D03*
%TD*%
D10*
%TO.P,J10,1,Pin_1*%
%TO.N,+5V*%
X131075000Y-132242500D03*
D11*
%TO.P,J10,2,Pin_2*%
%TO.N,/CH32V003/PD2*%
X133575000Y-132242500D03*
%TO.P,J10,3,Pin_3*%
%TO.N,/HC-SR04 #4/Echo_5V*%
X136075000Y-132242500D03*
%TO.P,J10,4,Pin_4*%
%TO.N,GND*%
X138575000Y-132242500D03*
%TD*%
D10*
%TO.P,J9,1,Pin_1*%
%TO.N,GND*%
X159250000Y-132555000D03*
D11*
%TO.P,J9,2,Pin_2*%
%TO.N,Net-(J9-Pin_2)*%
X161750000Y-132555000D03*
%TO.P,J9,3,Pin_3*%
%TO.N,Net-(J9-Pin_3)*%
X164250000Y-132555000D03*
%TO.P,J9,4,Pin_4*%
%TO.N,/HX711/EX+*%
X166750000Y-132555000D03*
%TD*%
D13*
%TO.P,J7,1,Pin_1*%
%TO.N,GND*%
X136180000Y-107525000D03*
D16*
%TO.P,J7,2,Pin_2*%
%TO.N,/CH32V003/SWIO*%
X133640000Y-107525000D03*
%TO.P,J7,3,Pin_3*%
%TO.N,+3V3*%
X131100000Y-107525000D03*
%TD*%
D10*
%TO.P,J5,1,Pin_1*%
%TO.N,+5V*%
X89250000Y-132455000D03*
D11*
%TO.P,J5,2,Pin_2*%
%TO.N,/CH32V003/PC3*%
X91750000Y-132455000D03*
%TO.P,J5,3,Pin_3*%
%TO.N,/HC-SR04 #1/Echo_5V*%
X94250000Y-132455000D03*
%TO.P,J5,4,Pin_4*%
%TO.N,GND*%
X96750000Y-132455000D03*
%TD*%
D10*
%TO.P,J6,1,Pin_1*%
%TO.N,+5V*%
X103250000Y-132292500D03*
D11*
%TO.P,J6,2,Pin_2*%
%TO.N,/CH32V003/CH32V003.SCK*%
X105750000Y-132292500D03*
%TO.P,J6,3,Pin_3*%
%TO.N,/HC-SR04 #2/Echo_5V*%
X108250000Y-132292500D03*
%TO.P,J6,4,Pin_4*%
%TO.N,GND*%
X110750000Y-132292500D03*
%TD*%
D17*
%TO.P,J1,1,Pin_1*%
%TO.N,GND*%
X108940000Y-93013272D03*
%TO.P,J1,2,Pin_2*%
%TO.N,/Bus_switch/SEL1*%
X108940000Y-98063272D03*
%TO.P,J1,3,Pin_3*%
%TO.N,+5V*%
X111480000Y-93013272D03*
%TO.P,J1,4,Pin_4*%
%TO.N,/Interboard_connector/SEL2*%
X111480000Y-98063272D03*
%TO.P,J1,5,Pin_5*%
%TO.N,+5V*%
X114020000Y-93013272D03*
%TO.P,J1,6,Pin_6*%
%TO.N,/Interboard_connector/SEL3*%
X114020000Y-98063272D03*
%TO.P,J1,7,Pin_7*%
%TO.N,GND*%
X116560000Y-93013272D03*
%TO.P,J1,8,Pin_8*%
%TO.N,/Interboard_connector/SEL4*%
X116560000Y-98063272D03*
%TO.P,J1,9,Pin_9*%
%TO.N,BRD_VIN*%
X119100000Y-93013272D03*
%TO.P,J1,10,Pin_10*%
%TO.N,/Interboard_connector/SEL5*%
X119100000Y-98063272D03*
%TO.P,J1,11,Pin_11*%
%TO.N,BRD_VIN*%
X121640000Y-93013272D03*
%TO.P,J1,12,Pin_12*%
%TO.N,/Interboard_connector/SEL6*%
X121640000Y-98063272D03*
%TO.P,J1,13,Pin_13*%
%TO.N,BRD_VIN*%
X124180000Y-93013272D03*
%TO.P,J1,14,Pin_14*%
%TO.N,/Interboard_connector/SEL7*%
X124180000Y-98063272D03*
%TO.P,J1,15,Pin_15*%
%TO.N,BRD_VIN*%
X126720000Y-93013272D03*
%TO.P,J1,16,Pin_16*%
%TO.N,/Interboard_connector/SEL8*%
X126720000Y-98063272D03*
%TO.P,J1,17,Pin_17*%
%TO.N,GND*%
X129260000Y-93013272D03*
%TO.P,J1,18,Pin_18*%
%TO.N,/Bus_switch/Chainbus_In.SDA*%
X129260000Y-98063272D03*
%TO.P,J1,19,Pin_19*%
%TO.N,GND*%
X131800000Y-93013272D03*
%TO.P,J1,20,Pin_20*%
%TO.N,/Bus_switch/Chainbus_In.SCL*%
X131800000Y-98063272D03*
%TO.P,J1,21,Pin_21*%
%TO.N,GND*%
X134340000Y-93013272D03*
%TO.P,J1,22,Pin_22*%
%TO.N,/Bus_switch/Chainbus_In.CS*%
X134340000Y-98063272D03*
%TO.P,J1,23,Pin_23*%
%TO.N,GND*%
X136880000Y-93013272D03*
%TO.P,J1,24,Pin_24*%
%TO.N,/Bus_switch/Chainbus_In.SCK*%
X136880000Y-98063272D03*
%TO.P,J1,25,Pin_25*%
%TO.N,unconnected-(J1-Pin_25-Pad25)*%
X139420000Y-93013272D03*
%TO.P,J1,26,Pin_26*%
%TO.N,/Bus_switch/Chainbus_In.MOSI*%
X139420000Y-98063272D03*
%TO.P,J1,27,Pin_27*%
%TO.N,unconnected-(J1-Pin_27-Pad27)*%
X141960000Y-93013272D03*
%TO.P,J1,28,Pin_28*%
%TO.N,/Bus_switch/Chainbus_In.MISO*%
X141960000Y-98063272D03*
%TO.P,J1,29,Pin_29*%
%TO.N,+12V stby*%
X144500000Y-93013272D03*
%TO.P,J1,30,Pin_30*%
%TO.N,/Bus_switch/Chainbus_In.TX*%
X144500000Y-98063272D03*
%TO.P,J1,31,Pin_31*%
%TO.N,GND*%
X147040000Y-93013272D03*
%TO.P,J1,32,Pin_32*%
%TO.N,/Bus_switch/Chainbus_In.RX*%
X147040000Y-98063272D03*
%TD*%
D18*
%TO.N,GND*%
X109600000Y-126000000D03*
X135644462Y-94153933D03*
X150800000Y-122900000D03*
X115694462Y-93903933D03*
X167100000Y-98800000D03*
X123800000Y-125500000D03*
X133094462Y-94203933D03*
X102300000Y-111500000D03*
X115694462Y-92853933D03*
X110144462Y-92053933D03*
X130544462Y-93053933D03*
X148200000Y-122600000D03*
X110144462Y-93053933D03*
X118100000Y-108450000D03*
X107000000Y-104400000D03*
X133094462Y-93153933D03*
X149900000Y-122600000D03*
X137400000Y-125900000D03*
X152500000Y-122300000D03*
X130544462Y-94103933D03*
X110144462Y-94103933D03*
X148194462Y-94103933D03*
X117700000Y-116100000D03*
X115694462Y-91853933D03*
X120750000Y-114975000D03*
X139744462Y-101353933D03*
X148194462Y-92053933D03*
X148700000Y-124100000D03*
X103100000Y-111600000D03*
X149300000Y-116000000D03*
X167000000Y-100100000D03*
X103900000Y-111500000D03*
X175400000Y-103500000D03*
X157800000Y-119800000D03*
X130544462Y-92053933D03*
X167000000Y-101400000D03*
X167000000Y-102600000D03*
X95600000Y-126100000D03*
X162600000Y-104200000D03*
X135644462Y-93103933D03*
X135644462Y-92103933D03*
X149300000Y-117100000D03*
X148194462Y-93053933D03*
X150094462Y-105503933D03*
X161200000Y-114300000D03*
X133094462Y-92153933D03*
%TO.N,+3V3*%
X150400000Y-110800000D03*
X154700000Y-107100000D03*
X138700000Y-109200000D03*
%TO.N,+5V*%
X112794462Y-92103933D03*
X112794462Y-94403933D03*
X112794462Y-93703933D03*
X112794462Y-92953933D03*
%TO.N,/Bus_switch/Chainbus_In.RX*%
X148244462Y-98153933D03*
%TO.N,/Bus_switch/Chainbus_In.MOSI*%
X140494462Y-98103933D03*
%TO.N,/Bus_switch/Chainbus_In.SDA*%
X130344462Y-98203933D03*
X142244462Y-105703933D03*
%TO.N,/Bus_switch/SEL1*%
X141244462Y-105603933D03*
X140044462Y-107303933D03*
%TO.N,/Interboard_connector/SEL2*%
X110294462Y-98103933D03*
%TO.N,/Bus_switch/Chainbus_In.TX*%
X145694462Y-98053933D03*
%TO.N,/Interboard_connector/SEL8*%
X125607734Y-98167205D03*
%TO.N,/Interboard_connector/SEL5*%
X117794462Y-98103933D03*
%TO.N,/Interboard_connector/SEL7*%
X123107734Y-98167205D03*
%TO.N,/Interboard_connector/SEL4*%
X115294462Y-98103933D03*
%TO.N,/Bus_switch/Chainbus_In.SCK*%
X137894462Y-98153933D03*
%TO.N,/Bus_switch/Chainbus_In.MISO*%
X143044462Y-98103933D03*
%TO.N,+12V stby*%
X143444462Y-93153933D03*
%TO.N,/Bus_switch/Chainbus_In.SCL*%
X132894462Y-98153933D03*
X143944462Y-106003933D03*
%TO.N,/Bus_switch/Chainbus_In.CS*%
X135444462Y-98153933D03*
%TO.N,/Interboard_connector/SEL3*%
X112794462Y-98103933D03*
%TO.N,/Interboard_connector/SEL6*%
X120294462Y-98103933D03*
%TO.N,BRD_VIN*%
X120394462Y-94003933D03*
X120394462Y-93003933D03*
X125494462Y-94053933D03*
X122944462Y-92053933D03*
X125494462Y-92053933D03*
X122944462Y-93053933D03*
X125494462Y-93053933D03*
X120394462Y-92003933D03*
X122944462Y-94053933D03*
%TO.N,/Bus_switch/Chainbus.SCL*%
X138600000Y-114800000D03*
X161700000Y-100100000D03*
X144644462Y-108503933D03*
X139200000Y-111400000D03*
%TO.N,/Bus_switch/Chainbus.SDA*%
X137200000Y-114400000D03*
X137700000Y-111300000D03*
X143644462Y-108603933D03*
%TO.N,/CH32V003/PC3*%
X112300000Y-119700000D03*
X115500000Y-119800000D03*
X120000000Y-120500000D03*
X101500000Y-121700000D03*
X126800000Y-115500000D03*
%TO.N,/CH32V003/PD2*%
X126800000Y-111500000D03*
%TO.N,/CH32V003/PD0*%
X123700000Y-115400000D03*
X123900000Y-119700000D03*
%TO.N,/CH32V003/CH32V003.MOSI*%
X125200000Y-117700000D03*
X126900000Y-113500000D03*
%TO.N,/CH32V003/CH32V003.MISO*%
X121900000Y-120800000D03*
X125803554Y-114503554D03*
%TO.N,/CH32V003/CH32V003.RX*%
X129596446Y-113103554D03*
X124000000Y-112200000D03*
%TO.N,/CH32V003/PD3*%
X133400000Y-112100000D03*
X129800000Y-110900000D03*
%TO.N,/CH32V003/PD4*%
X123600000Y-110800000D03*
X130900000Y-113700000D03*
%TD*%
D19*
%TO.N,+3V3*%
X154700000Y-107100000D02*
X158790000Y-103010000D01*
X138700000Y-109200000D02*
X140300000Y-110800000D01*
X158790000Y-103010000D02*
X158790000Y-100000000D01*
X140300000Y-110800000D02*
X150400000Y-110800000D01*
D20*
%TO.N,/Bus_switch/Chainbus_In.RX*%
X148244462Y-98153933D02*
X147097734Y-98153933D01*
X147097734Y-98153933D02*
X147084462Y-98167205D01*
%TO.N,/Bus_switch/Chainbus_In.MOSI*%
X139527734Y-98103933D02*
X139464462Y-98167205D01*
X140494462Y-98103933D02*
X139527734Y-98103933D01*
%TO.N,/Bus_switch/Chainbus_In.SDA*%
X138038850Y-101301933D02*
X142244462Y-105507545D01*
X129341190Y-98203933D02*
X129304462Y-98167205D01*
X130344462Y-98203933D02*
X129341190Y-98203933D01*
X142244462Y-105507545D02*
X142244462Y-105703933D01*
X129304462Y-98167205D02*
X132439190Y-101301933D01*
X132439190Y-101301933D02*
X134944462Y-101301933D01*
X134944462Y-101301933D02*
X138038850Y-101301933D01*
%TO.N,/Bus_switch/SEL1*%
X128184462Y-100873933D02*
X128963462Y-101652933D01*
X108984462Y-97615538D02*
X110816067Y-95783933D01*
X137893462Y-101652933D02*
X140295462Y-104054933D01*
X110816067Y-95783933D02*
X127224462Y-95783933D01*
X140944462Y-105303933D02*
X141244462Y-105603933D01*
X140295462Y-105303933D02*
X140295462Y-107052933D01*
X127224462Y-95783933D02*
X128184462Y-96743933D01*
X128963462Y-101652933D02*
X137893462Y-101652933D01*
X140295462Y-104054933D02*
X140295462Y-105303933D01*
X128184462Y-96743933D02*
X128184462Y-100873933D01*
X140295462Y-105303933D02*
X140944462Y-105303933D01*
X140295462Y-107052933D02*
X140044462Y-107303933D01*
X108984462Y-98167205D02*
X108984462Y-97615538D01*
%TO.N,/Interboard_connector/SEL2*%
X110357734Y-98167205D02*
X110294462Y-98103933D01*
X111524462Y-98167205D02*
X110357734Y-98167205D01*
%TO.N,/Bus_switch/Chainbus_In.TX*%
X145581190Y-98167205D02*
X145694462Y-98053933D01*
X144544462Y-98167205D02*
X145581190Y-98167205D01*
%TO.N,/Interboard_connector/SEL8*%
X126764462Y-98167205D02*
X125607734Y-98167205D01*
%TO.N,/Interboard_connector/SEL5*%
X117857734Y-98167205D02*
X117794462Y-98103933D01*
X119144462Y-98167205D02*
X117857734Y-98167205D01*
%TO.N,/Interboard_connector/SEL7*%
X124224462Y-98167205D02*
X123107734Y-98167205D01*
%TO.N,/Interboard_connector/SEL4*%
X115357734Y-98167205D02*
X115294462Y-98103933D01*
X116604462Y-98167205D02*
X115357734Y-98167205D01*
%TO.N,/Bus_switch/Chainbus_In.SCK*%
X137894462Y-98153933D02*
X136937734Y-98153933D01*
X136937734Y-98153933D02*
X136924462Y-98167205D01*
%TO.N,/Bus_switch/Chainbus_In.MISO*%
X142981190Y-98167205D02*
X143044462Y-98103933D01*
X142004462Y-98167205D02*
X142981190Y-98167205D01*
D21*
%TO.N,+12V stby*%
X143481190Y-93117205D02*
X143444462Y-93153933D01*
X144544462Y-93117205D02*
X143481190Y-93117205D01*
D20*
%TO.N,/Bus_switch/Chainbus_In.SCL*%
X131844462Y-98167205D02*
X134628190Y-100950933D01*
X134628190Y-100950933D02*
X138191462Y-100950933D01*
X138191462Y-100950933D02*
X141444462Y-104203933D01*
X132894462Y-98153933D02*
X131857734Y-98153933D01*
X131857734Y-98153933D02*
X131844462Y-98167205D01*
X142144462Y-104203933D02*
X143944462Y-106003933D01*
X141444462Y-104203933D02*
X142144462Y-104203933D01*
%TO.N,/Bus_switch/Chainbus_In.CS*%
X135444462Y-98153933D02*
X134397734Y-98153933D01*
X134397734Y-98153933D02*
X134384462Y-98167205D01*
%TO.N,/Interboard_connector/SEL3*%
X114064462Y-98167205D02*
X112857734Y-98167205D01*
X112857734Y-98167205D02*
X112794462Y-98103933D01*
%TO.N,/Interboard_connector/SEL6*%
X121684462Y-98167205D02*
X120357734Y-98167205D01*
X120357734Y-98167205D02*
X120294462Y-98103933D01*
%TO.N,/Bus_switch/Chainbus.SCL*%
X144644462Y-108503933D02*
X145140529Y-109000000D01*
X139200000Y-114200000D02*
X138600000Y-114800000D01*
X160499000Y-98899000D02*
X154811000Y-98899000D01*
X139200000Y-111400000D02*
X139200000Y-114200000D01*
X161700000Y-100100000D02*
X160499000Y-98899000D01*
X153710000Y-106290000D02*
X153710000Y-100000000D01*
X154811000Y-98899000D02*
X153710000Y-100000000D01*
X145140529Y-109000000D02*
X151000000Y-109000000D01*
X151000000Y-109000000D02*
X153710000Y-106290000D01*
%TO.N,/Bus_switch/Chainbus.SDA*%
X145344462Y-106103933D02*
X150544462Y-106103933D01*
X137200000Y-114400000D02*
X137200000Y-111800000D01*
X137200000Y-111800000D02*
X137700000Y-111300000D01*
X150544462Y-106103933D02*
X151170000Y-105478395D01*
X151170000Y-105478395D02*
X151170000Y-100000000D01*
X143644462Y-108603933D02*
X143644462Y-107803933D01*
X143644462Y-107803933D02*
X145344462Y-106103933D01*
%TO.N,/CH32V003/PC3*%
X121100000Y-121600000D02*
X124300000Y-121600000D01*
X101530000Y-121600000D02*
X101530000Y-121670000D01*
X120000000Y-120500000D02*
X121100000Y-121600000D01*
X115400000Y-119700000D02*
X115500000Y-119800000D01*
X124300000Y-121600000D02*
X126800000Y-119100000D01*
X101530000Y-121670000D02*
X101500000Y-121700000D01*
X112300000Y-119700000D02*
X115400000Y-119700000D01*
X91750000Y-132455000D02*
X101500000Y-122705000D01*
X126800000Y-119100000D02*
X126800000Y-115500000D01*
X101500000Y-122705000D02*
X101500000Y-121700000D01*
%TO.N,/CH32V003/PD2*%
X133575000Y-132242500D02*
X133575000Y-118275000D01*
X133575000Y-118275000D02*
X126800000Y-111500000D01*
%TO.N,/CH32V003/PD0*%
X123900000Y-119700000D02*
X123600000Y-119400000D01*
X123600000Y-115500000D02*
X123700000Y-115400000D01*
X123600000Y-119400000D02*
X123600000Y-115500000D01*
%TO.N,/CH32V003/CH32V003.MOSI*%
X124200000Y-116700000D02*
X124200000Y-115400000D01*
X125200000Y-117700000D02*
X124200000Y-116700000D01*
X126100000Y-113500000D02*
X126900000Y-113500000D01*
X124200000Y-115400000D02*
X126100000Y-113500000D01*
%TO.N,/CH32V003/CH32V003.MISO*%
X123508521Y-120800000D02*
X125800000Y-118508521D01*
X125800000Y-118508521D02*
X125800000Y-114507108D01*
X125800000Y-114507108D02*
X125803554Y-114503554D01*
X121900000Y-120800000D02*
X123508521Y-120800000D01*
%TO.N,/CH32V003/CH32V003.RX*%
X129596446Y-113103554D02*
X127491892Y-110999000D01*
X125201000Y-110999000D02*
X124000000Y-112200000D01*
X127491892Y-110999000D02*
X125201000Y-110999000D01*
%TO.N,/CH32V003/PD3*%
X132200000Y-110900000D02*
X129800000Y-110900000D01*
X133400000Y-112100000D02*
X132200000Y-110900000D01*
%TO.N,/CH32V003/PD4*%
X130900000Y-113700000D02*
X127800000Y-110600000D01*
X127800000Y-110600000D02*
X123800000Y-110600000D01*
X123800000Y-110600000D02*
X123600000Y-110800000D01*
%TD*%
%TA.AperFunction,Conductor*%
%TO.N,GND*%
G36*
X117344462Y-94553933D02*
G01*
X115294462Y-94553933D01*
X115294462Y-91403933D01*
X117344462Y-91403933D01*
X117344462Y-94553933D01*
G37*
%TD.AperFunction*%
%TD*%
%TA.AperFunction,Conductor*%
%TO.N,BRD_VIN*%
G36*
X127385417Y-91573618D02*
G01*
X127431172Y-91626422D01*
X127442361Y-91679999D01*
X127396494Y-94431999D01*
X127375695Y-94498702D01*
X127322136Y-94543570D01*
X127272511Y-94553933D01*
X118766413Y-94553933D01*
X118699374Y-94534248D01*
X118653619Y-94481444D01*
X118642430Y-94431999D01*
X118596563Y-91679999D01*
X118615128Y-91612641D01*
X118667162Y-91566013D01*
X118720546Y-91553933D01*
X127318378Y-91553933D01*
X127385417Y-91573618D01*
G37*
%TD.AperFunction*%
%TD*%
%TA.AperFunction,Conductor*%
%TO.N,+5V*%
G36*
X114487501Y-91573618D02*
G01*
X114533256Y-91626422D01*
X114544462Y-91677933D01*
X114544462Y-94579933D01*
X114524777Y-94646972D01*
X114471973Y-94692727D01*
X114420462Y-94703933D01*
X111168462Y-94703933D01*
X111101423Y-94684248D01*
X111055668Y-94631444D01*
X111044462Y-94579933D01*
X111044462Y-91677933D01*
X111064147Y-91610894D01*
X111116951Y-91565139D01*
X111168462Y-91553933D01*
X114420462Y-91553933D01*
X114487501Y-91573618D01*
G37*
%TD.AperFunction*%
%TD*%
%TA.AperFunction,Conductor*%
%TO.N,GND*%
G36*
X137444462Y-94703933D02*
G01*
X128744462Y-94703933D01*
X128744462Y-91553933D01*
X137444462Y-91553933D01*
X137444462Y-94703933D01*
G37*
%TD.AperFunction*%
%TD*%
%TA.AperFunction,Conductor*%
%TO.N,GND*%
G36*
X110394462Y-94703933D02*
G01*
X108344462Y-94703933D01*
X108344462Y-91553933D01*
X110394462Y-91553933D01*
X110394462Y-94703933D01*
G37*
%TD.AperFunction*%
%TD*%
%TA.AperFunction,Conductor*%
%TO.N,GND*%
G36*
X148444462Y-94703933D02*
G01*
X146394462Y-94703933D01*
X146394462Y-91553933D01*
X148444462Y-91553933D01*
X148444462Y-94703933D01*
G37*
%TD.AperFunction*%
%TD*%
%TA.AperFunction,Conductor*%
%TO.N,GND*%
G36*
X84280888Y-89019685D02*
G01*
X84326643Y-89072489D01*
X84337849Y-89124000D01*
X84337849Y-90057177D01*
X86337849Y-90057177D01*
X86337849Y-89124000D01*
X86357534Y-89056961D01*
X86410338Y-89011206D01*
X86461849Y-89000000D01*
X176876000Y-89000000D01*
X176943039Y-89019685D01*
X176988794Y-89072489D01*
X177000000Y-89124000D01*
X177000000Y-136876000D01*
X176980315Y-136943039D01*
X176927511Y-136988794D01*
X176876000Y-137000000D01*
X80124000Y-137000000D01*
X80056961Y-136980315D01*
X80011206Y-136927511D01*
X80000000Y-136876000D01*
X80000000Y-136000000D01*
X79124000Y-136000000D01*
X79056961Y-135980315D01*
X79011206Y-135927511D01*
X79000000Y-135876000D01*
X79000000Y-133874038D01*
X80399500Y-133874038D01*
X80399500Y-134125961D01*
X80438910Y-134374785D01*
X80516760Y-134614383D01*
X80631132Y-134838848D01*
X80779201Y-135042649D01*
X80779205Y-135042654D01*
X80957345Y-135220794D01*
X80957350Y-135220798D01*
X81135117Y-135349952D01*
X81161155Y-135368870D01*
X81304184Y-135441747D01*
X81385616Y-135483239D01*
X81385618Y-135483239D01*
X81385621Y-135483241D01*
X81625215Y-135561090D01*
X81874038Y-135600500D01*
X81874039Y-135600500D01*
X82125961Y-135600500D01*
X82125962Y-135600500D01*
X82374785Y-135561090D01*
X82614379Y-135483241D01*
X82838845Y-135368870D01*
X83042656Y-135220793D01*
X83220793Y-135042656D01*
X83368870Y-134838845D01*
X83483241Y-134614379D01*
X83561090Y-134374785D01*
X83600500Y-134125962D01*
X83600500Y-133874038D01*
X83561090Y-133625215D01*
X83483241Y-133385621D01*
X83483239Y-133385618D01*
X83483239Y-133385616D01*
X83438068Y-133296964D01*
X83368870Y-133161155D01*
X83319208Y-133092801D01*
X83220798Y-132957350D01*
X83220794Y-132957345D01*
X83042654Y-132779205D01*
X83042649Y-132779201D01*
X82838848Y-132631132D01*
X82838847Y-132631131D01*
X82838845Y-132631130D01*
X82746655Y-132584157D01*
X82614383Y-132516760D01*
X82374785Y-132438910D01*
X82292284Y-132425843D01*
X82125962Y-132399500D01*
X81874038Y-132399500D01*
X81749626Y-132419205D01*
X81625214Y-132438910D01*
X81385616Y-132516760D01*
X81161151Y-132631132D01*
X80957350Y-132779201D01*
X80957345Y-132779205D01*
X80779205Y-132957345D01*
X80779201Y-132957350D01*
X80631132Y-133161151D01*
X80516760Y-133385616D01*
X80438910Y-133625214D01*
X80399500Y-133874038D01*
X79000000Y-133874038D01*
X79000000Y-131698475D01*
X88249500Y-131698475D01*
X88249500Y-133211517D01*
X88256521Y-133255847D01*
X88264354Y-133305304D01*
X88321950Y-133418342D01*
X88321952Y-133418344D01*
X88321954Y-133418347D01*
X88411652Y-133508045D01*
X88411654Y-133508046D01*
X88411658Y-133508050D01*
X88524694Y-133565645D01*
X88524698Y-133565647D01*
X88618475Y-133580499D01*
X88618481Y-133580500D01*
X89881518Y-133580499D01*
X89975304Y-133565646D01*
X90088342Y-133508050D01*
X90178050Y-133418342D01*
X90235646Y-133305304D01*
X90235646Y-133305302D01*
X90235647Y-133305301D01*
X90246282Y-133238147D01*
X90250500Y-133211519D01*
X90250500Y-132678543D01*
X90749499Y-132678543D01*
X90787947Y-132871829D01*
X90787950Y-132871839D01*
X90863364Y-133053907D01*
X90863371Y-133053920D01*
X90972860Y-133217781D01*
X90972863Y-133217785D01*
X91112214Y-133357136D01*
X91112218Y-133357139D01*
X91276079Y-133466628D01*
X91276092Y-133466635D01*
X91458160Y-133542049D01*
X91458165Y-133542051D01*
X91458169Y-133542051D01*
X91458170Y-133542052D01*
X91651456Y-133580500D01*
X91651459Y-133580500D01*
X91848543Y-133580500D01*
X91978582Y-133554632D01*
X92041835Y-133542051D01*
X92223914Y-133466632D01*
X92387782Y-133357139D01*
X92527139Y-133217782D01*
X92636632Y-133053914D01*
X92638658Y-133049024D01*
X92690389Y-132924132D01*
X92712051Y-132871835D01*
X92730476Y-132779207D01*
X92750500Y-132678543D01*
X93249499Y-132678543D01*
X93287947Y-132871829D01*
X93287950Y-132871839D01*
X93363364Y-133053907D01*
X93363371Y-133053920D01*
X93472860Y-133217781D01*
X93472863Y-133217785D01*
X93612214Y-133357136D01*
X93612218Y-133357139D01*
X93776079Y-133466628D01*
X93776092Y-133466635D01*
X93958160Y-133542049D01*
X93958165Y-133542051D01*
X93958169Y-133542051D01*
X93958170Y-133542052D01*
X94151456Y-133580500D01*
X94151459Y-133580500D01*
X94348543Y-133580500D01*
X94478582Y-133554632D01*
X94541835Y-133542051D01*
X94723914Y-133466632D01*
X94887782Y-133357139D01*
X95027139Y-133217782D01*
X95136632Y-133053914D01*
X95202959Y-132893783D01*
X95246797Y-132839385D01*
X95313091Y-132817319D01*
X95380790Y-132834598D01*
X95428401Y-132885734D01*
X95435449Y-132902922D01*
X95498904Y-133098217D01*
X95595379Y-133287557D01*
X95720272Y-133459459D01*
X95720276Y-133459464D01*
X95870535Y-133609723D01*
X95870540Y-133609727D01*
X96042442Y-133734620D01*
X96231782Y-133831095D01*
X96433871Y-133896757D01*
X96500000Y-133907231D01*
X96500000Y-132859145D01*
X96566657Y-132897630D01*
X96687465Y-132930000D01*
X96812535Y-132930000D01*
X96933343Y-132897630D01*
X97000000Y-132859145D01*
X97000000Y-133907230D01*
X97066126Y-133896757D01*
X97066129Y-133896757D01*
X97268217Y-133831095D01*
X97457557Y-133734620D01*
X97629459Y-133609727D01*
X97629464Y-133609723D01*
X97779723Y-133459464D01*
X97779727Y-133459459D01*
X97904620Y-133287557D01*
X98001095Y-133098217D01*
X98066757Y-132896130D01*
X98066757Y-132896127D01*
X98097030Y-132705000D01*
X97154146Y-132705000D01*
X97192630Y-132638343D01*
X97225000Y-132517535D01*
X97225000Y-132392465D01*
X97192630Y-132271657D01*
X97154146Y-132205000D01*
X98097030Y-132205000D01*
X98066757Y-132013872D01*
X98066757Y-132013869D01*
X98001095Y-131811782D01*
X97904621Y-131622443D01*
X97891217Y-131603993D01*
X97891216Y-131603992D01*
X97841799Y-131535975D01*
X102249500Y-131535975D01*
X102249500Y-133049017D01*
X102260292Y-133117157D01*
X102264354Y-133142804D01*
X102321950Y-133255842D01*
X102321952Y-133255844D01*
X102321954Y-133255847D01*
X102411652Y-133345545D01*
X102411654Y-133345546D01*
X102411658Y-133345550D01*
X102524694Y-133403145D01*
X102524698Y-133403147D01*
X102618475Y-133417999D01*
X102618481Y-133418000D01*
X103881518Y-133417999D01*
X103975304Y-133403146D01*
X104088342Y-133345550D01*
X104178050Y-133255842D01*
X104235646Y-133142804D01*
X104235646Y-133142802D01*
X104235647Y-133142801D01*
X104247617Y-133067223D01*
X104250500Y-133049019D01*
X104250500Y-132516043D01*
X104749499Y-132516043D01*
X104787947Y-132709329D01*
X104787950Y-132709339D01*
X104863364Y-132891407D01*
X104863371Y-132891420D01*
X104972860Y-133055281D01*
X104972863Y-133055285D01*
X105112214Y-133194636D01*
X105112218Y-133194639D01*
X105276079Y-133304128D01*
X105276092Y-133304135D01*
X105430278Y-133368000D01*
X105458165Y-133379551D01*
X105458169Y-133379551D01*
X105458170Y-133379552D01*
X105651456Y-133418000D01*
X105651459Y-133418000D01*
X105848543Y-133418000D01*
X106011319Y-133385621D01*
X106041835Y-133379551D01*
X106182655Y-133321221D01*
X106223907Y-133304135D01*
X106223907Y-133304134D01*
X106223914Y-133304132D01*
X106387782Y-133194639D01*
X106527139Y-133055282D01*
X106636632Y-132891414D01*
X106712051Y-132709335D01*
X106745237Y-132542500D01*
X106750500Y-132516043D01*
X107249499Y-132516043D01*
X107287947Y-132709329D01*
X107287950Y-132709339D01*
X107363364Y-132891407D01*
X107363371Y-132891420D01*
X107472860Y-133055281D01*
X107472863Y-133055285D01*
X107612214Y-133194636D01*
X107612218Y-133194639D01*
X107776079Y-133304128D01*
X107776092Y-133304135D01*
X107930278Y-133368000D01*
X107958165Y-133379551D01*
X107958169Y-133379551D01*
X107958170Y-133379552D01*
X108151456Y-133418000D01*
X108151459Y-133418000D01*
X108348543Y-133418000D01*
X108511319Y-133385621D01*
X108541835Y-133379551D01*
X108682655Y-133321221D01*
X108723907Y-133304135D01*
X108723907Y-133304134D01*
X108723914Y-133304132D01*
X108887782Y-133194639D01*
X109027139Y-133055282D01*
X109136632Y-132891414D01*
X109202959Y-132731283D01*
X109246797Y-132676885D01*
X109313091Y-132654819D01*
X109380790Y-132672098D01*
X109428401Y-132723234D01*
X109435449Y-132740422D01*
X109498904Y-132935717D01*
X109595379Y-133125057D01*
X109720272Y-133296959D01*
X109720276Y-133296964D01*
X109870535Y-133447223D01*
X109870540Y-133447227D01*
X110042442Y-133572120D01*
X110231782Y-133668595D01*
X110433871Y-133734257D01*
X110500000Y-133744731D01*
X110500000Y-132696645D01*
X110566657Y-132735130D01*
X110687465Y-132767500D01*
X110812535Y-132767500D01*
X110933343Y-132735130D01*
X111000000Y-132696645D01*
X111000000Y-133744730D01*
X111066126Y-133734257D01*
X111066129Y-133734257D01*
X111268217Y-133668595D01*
X111457557Y-133572120D01*
X111629459Y-133447227D01*
X111629464Y-133447223D01*
X111779723Y-133296964D01*
X111779727Y-133296959D01*
X111904620Y-133125057D01*
X112001095Y-132935717D01*
X112066757Y-132733630D01*
X112066757Y-132733627D01*
X112097030Y-132542500D01*
X111154146Y-132542500D01*
X111192630Y-132475843D01*
X111225000Y-132355035D01*
X111225000Y-132229965D01*
X111192630Y-132109157D01*
X111154146Y-132042500D01*
X112097030Y-132042500D01*
X112066757Y-131851372D01*
X112066757Y-131851369D01*
X112001095Y-131649282D01*
X111904620Y-131459942D01*
X111779727Y-131288040D01*
X111779723Y-131288035D01*
X111647663Y-131155975D01*
X116424500Y-131155975D01*
X116424500Y-132669017D01*
X116431834Y-132715320D01*
X116439354Y-132762804D01*
X116496950Y-132875842D01*
X116496952Y-132875844D01*
X116496954Y-132875847D01*
X116586652Y-132965545D01*
X116586654Y-132965546D01*
X116586658Y-132965550D01*
X116691045Y-133018738D01*
X116699698Y-133023147D01*
X116793475Y-133037999D01*
X116793481Y-133038000D01*
X118056518Y-133037999D01*
X118150304Y-133023146D01*
X118263342Y-132965550D01*
X118353050Y-132875842D01*
X118410646Y-132762804D01*
X118410646Y-132762802D01*
X118410647Y-132762801D01*
X118423557Y-132681288D01*
X118425500Y-132669019D01*
X118425500Y-132136043D01*
X118924499Y-132136043D01*
X118962947Y-132329329D01*
X118962950Y-132329339D01*
X119038364Y-132511407D01*
X119038371Y-132511420D01*
X119147860Y-132675281D01*
X119147863Y-132675285D01*
X119287214Y-132814636D01*
X119287218Y-132814639D01*
X119451079Y-132924128D01*
X119451092Y-132924135D01*
X119631893Y-132999024D01*
X119633165Y-132999551D01*
X119633169Y-132999551D01*
X119633170Y-132999552D01*
X119826456Y-133038000D01*
X119826459Y-133038000D01*
X120023543Y-133038000D01*
X120153582Y-133012132D01*
X120216835Y-132999551D01*
X120398914Y-132924132D01*
X120562782Y-132814639D01*
X120702139Y-132675282D01*
X120811632Y-132511414D01*
X120887051Y-132329335D01*
X120916763Y-132179965D01*
X120925500Y-132136043D01*
X121424499Y-132136043D01*
X121462947Y-132329329D01*
X121462950Y-132329339D01*
X121538364Y-132511407D01*
X121538371Y-132511420D01*
X121647860Y-132675281D01*
X121647863Y-132675285D01*
X121787214Y-132814636D01*
X121787218Y-132814639D01*
X121951079Y-132924128D01*
X121951092Y-132924135D01*
X122131893Y-132999024D01*
X122133165Y-132999551D01*
X122133169Y-132999551D01*
X122133170Y-132999552D01*
X122326456Y-133038000D01*
X122326459Y-133038000D01*
X122523543Y-133038000D01*
X122653582Y-133012132D01*
X122716835Y-132999551D01*
X122898914Y-132924132D01*
X123062782Y-132814639D01*
X123202139Y-132675282D01*
X123311632Y-132511414D01*
X123377959Y-132351283D01*
X123421797Y-132296885D01*
X123488091Y-132274819D01*
X123555790Y-132292098D01*
X123603401Y-132343234D01*
X123610449Y-132360422D01*
X123673904Y-132555717D01*
X123770379Y-132745057D01*
X123895272Y-132916959D01*
X123895276Y-132916964D01*
X124045535Y-133067223D01*
X124045540Y-133067227D01*
X124217442Y-133192120D01*
X124406782Y-133288595D01*
X124608871Y-133354257D01*
X124675000Y-133364731D01*
X124675000Y-132316645D01*
X124741657Y-132355130D01*
X124862465Y-132387500D01*
X124987535Y-132387500D01*
X125108343Y-132355130D01*
X125175000Y-132316645D01*
X125175000Y-133364730D01*
X125241126Y-133354257D01*
X125241129Y-133354257D01*
X125443217Y-133288595D01*
X125632557Y-133192120D01*
X125804459Y-133067227D01*
X125804464Y-133067223D01*
X125954723Y-132916964D01*
X125954727Y-132916959D01*
X126079620Y-132745057D01*
X126176095Y-132555717D01*
X126241757Y-132353630D01*
X126241757Y-132353627D01*
X126272030Y-132162500D01*
X125329146Y-132162500D01*
X125367630Y-132095843D01*
X125400000Y-131975035D01*
X125400000Y-131849965D01*
X125367630Y-131729157D01*
X125329146Y-131662500D01*
X126272030Y-131662500D01*
X126246372Y-131500508D01*
X126246371Y-131500506D01*
X126244069Y-131485975D01*
X130074500Y-131485975D01*
X130074500Y-132999017D01*
X130083412Y-133055285D01*
X130089354Y-133092804D01*
X130146950Y-133205842D01*
X130146952Y-133205844D01*
X130146954Y-133205847D01*
X130236652Y-133295545D01*
X130236654Y-133295546D01*
X130236658Y-133295550D01*
X130334788Y-133345550D01*
X130349698Y-133353147D01*
X130443475Y-133367999D01*
X130443481Y-133368000D01*
X131706518Y-133367999D01*
X131800304Y-133353146D01*
X131913342Y-133295550D01*
X132003050Y-133205842D01*
X132060646Y-133092804D01*
X132060646Y-133092802D01*
X132060647Y-133092801D01*
X132072377Y-133018738D01*
X132075500Y-132999019D01*
X132075499Y-131485982D01*
X132060646Y-131392196D01*
X132003050Y-131279158D01*
X132003046Y-131279154D01*
X132003045Y-131279152D01*
X131913347Y-131189454D01*
X131913344Y-131189452D01*
X131913342Y-131189450D01*
X131830473Y-131147226D01*
X131800301Y-131131852D01*
X131706524Y-131117000D01*
X130443482Y-131117000D01*
X130362519Y-131129823D01*
X130349696Y-131131854D01*
X130236658Y-131189450D01*
X130236657Y-131189451D01*
X130236652Y-131189454D01*
X130146954Y-131279152D01*
X130146951Y-131279157D01*
X130146950Y-131279158D01*
X130136192Y-131300272D01*
X130089352Y-131392198D01*
X130074500Y-131485975D01*
X126244069Y-131485975D01*
X126241755Y-131471365D01*
X126176095Y-131269282D01*
X126079620Y-131079942D01*
X125954727Y-130908040D01*
X125954723Y-130908035D01*
X125804464Y-130757776D01*
X125804459Y-130757772D01*
X125632557Y-130632879D01*
X125443215Y-130536403D01*
X125241124Y-130470741D01*
X125175000Y-130460268D01*
X125175000Y-131508354D01*
X125108343Y-131469870D01*
X124987535Y-131437500D01*
X124862465Y-131437500D01*
X124741657Y-131469870D01*
X124675000Y-131508354D01*
X124675000Y-130460268D01*
X124674999Y-130460268D01*
X124608875Y-130470741D01*
X124406784Y-130536403D01*
X124217442Y-130632879D01*
X124045540Y-130757772D01*
X124045535Y-130757776D01*
X123895276Y-130908035D01*
X123895272Y-130908040D01*
X123770379Y-131079942D01*
X123673904Y-131269283D01*
X123610449Y-131464577D01*
X123571011Y-131522253D01*
X123506653Y-131549451D01*
X123437806Y-131537536D01*
X123386331Y-131490292D01*
X123377957Y-131473711D01*
X123376985Y-131471365D01*
X123344194Y-131392198D01*
X123311635Y-131313591D01*
X123311628Y-131313579D01*
X123202139Y-131149718D01*
X123202136Y-131149714D01*
X123062785Y-131010363D01*
X123062781Y-131010360D01*
X122898920Y-130900871D01*
X122898907Y-130900864D01*
X122716839Y-130825450D01*
X122716829Y-130825447D01*
X122523543Y-130787000D01*
X122523541Y-130787000D01*
X122326459Y-130787000D01*
X122326457Y-130787000D01*
X122133170Y-130825447D01*
X122133160Y-130825450D01*
X121951092Y-130900864D01*
X121951079Y-130900871D01*
X121787218Y-131010360D01*
X121787214Y-131010363D01*
X121647863Y-131149714D01*
X121647860Y-131149718D01*
X121538371Y-131313579D01*
X121538364Y-131313592D01*
X121462950Y-131495660D01*
X121462947Y-131495670D01*
X121424500Y-131688956D01*
X121424500Y-131688959D01*
X121424500Y-132136041D01*
X121424500Y-132136043D01*
X121424499Y-132136043D01*
X120925500Y-132136043D01*
X120925500Y-131688956D01*
X120887052Y-131495670D01*
X120887051Y-131495669D01*
X120887051Y-131495665D01*
X120885389Y-131491652D01*
X120811635Y-131313592D01*
X120811628Y-131313579D01*
X120702139Y-131149718D01*
X120702136Y-131149714D01*
X120562785Y-131010363D01*
X120562781Y-131010360D01*
X120398920Y-130900871D01*
X120398907Y-130900864D01*
X120216839Y-130825450D01*
X120216829Y-130825447D01*
X120023543Y-130787000D01*
X120023541Y-130787000D01*
X119826459Y-130787000D01*
X119826457Y-130787000D01*
X119633170Y-130825447D01*
X119633160Y-130825450D01*
X119451092Y-130900864D01*
X119451079Y-130900871D01*
X119287218Y-131010360D01*
X119287214Y-131010363D01*
X119147863Y-131149714D01*
X119147860Y-131149718D01*
X119038371Y-131313579D01*
X119038364Y-131313592D01*
X118962950Y-131495660D01*
X118962947Y-131495670D01*
X118924500Y-131688956D01*
X118924500Y-131688959D01*
X118924500Y-132136041D01*
X118924500Y-132136043D01*
X118924499Y-132136043D01*
X118425500Y-132136043D01*
X118425499Y-131155982D01*
X118410646Y-131062196D01*
X118353050Y-130949158D01*
X118353046Y-130949154D01*
X118353045Y-130949152D01*
X118263347Y-130859454D01*
X118263344Y-130859452D01*
X118263342Y-130859450D01*
X118186517Y-130820305D01*
X118150301Y-130801852D01*
X118056524Y-130787000D01*
X116793482Y-130787000D01*
X116712519Y-130799823D01*
X116699696Y-130801854D01*
X116586658Y-130859450D01*
X116586657Y-130859451D01*
X116586652Y-130859454D01*
X116496954Y-130949152D01*
X116496951Y-130949157D01*
X116439352Y-131062198D01*
X116424500Y-131155975D01*
X111647663Y-131155975D01*
X111629464Y-131137776D01*
X111629459Y-131137772D01*
X111457557Y-131012879D01*
X111268215Y-130916403D01*
X111066124Y-130850741D01*
X111000000Y-130840268D01*
X111000000Y-131888354D01*
X110933343Y-131849870D01*
X110812535Y-131817500D01*
X110687465Y-131817500D01*
X110566657Y-131849870D01*
X110500000Y-131888354D01*
X110500000Y-130840268D01*
X110499999Y-130840268D01*
X110433875Y-130850741D01*
X110231784Y-130916403D01*
X110042442Y-131012879D01*
X109870540Y-131137772D01*
X109870535Y-131137776D01*
X109720276Y-131288035D01*
X109720272Y-131288040D01*
X109595379Y-131459942D01*
X109498904Y-131649283D01*
X109435449Y-131844577D01*
X109396011Y-131902253D01*
X109331653Y-131929451D01*
X109262806Y-131917536D01*
X109211331Y-131870292D01*
X109202957Y-131853711D01*
X109202353Y-131852253D01*
X109167248Y-131767500D01*
X109136635Y-131693591D01*
X109136628Y-131693579D01*
X109027139Y-131529718D01*
X109027136Y-131529714D01*
X108887785Y-131390363D01*
X108887781Y-131390360D01*
X108723920Y-131280871D01*
X108723907Y-131280864D01*
X108541839Y-131205450D01*
X108541829Y-131205447D01*
X108348543Y-131167000D01*
X108348541Y-131167000D01*
X108151459Y-131167000D01*
X108151457Y-131167000D01*
X107958170Y-131205447D01*
X107958160Y-131205450D01*
X107776092Y-131280864D01*
X107776079Y-131280871D01*
X107612218Y-131390360D01*
X107612214Y-131390363D01*
X107472863Y-131529714D01*
X107472860Y-131529718D01*
X107363371Y-131693579D01*
X107363364Y-131693592D01*
X107287950Y-131875660D01*
X107287947Y-131875670D01*
X107249500Y-132068956D01*
X107249500Y-132068959D01*
X107249500Y-132516041D01*
X107249500Y-132516043D01*
X107249499Y-132516043D01*
X106750500Y-132516043D01*
X106750500Y-132068956D01*
X106712052Y-131875670D01*
X106712051Y-131875669D01*
X106712051Y-131875665D01*
X106712049Y-131875660D01*
X106636635Y-131693592D01*
X106636628Y-131693579D01*
X106527139Y-131529718D01*
X106527136Y-131529714D01*
X106387785Y-131390363D01*
X106387781Y-131390360D01*
X106223920Y-131280871D01*
X106223907Y-131280864D01*
X106041839Y-131205450D01*
X106041829Y-131205447D01*
X105848543Y-131167000D01*
X105848541Y-131167000D01*
X105651459Y-131167000D01*
X105651457Y-131167000D01*
X105458170Y-131205447D01*
X105458160Y-131205450D01*
X105276092Y-131280864D01*
X105276079Y-131280871D01*
X105112218Y-131390360D01*
X105112214Y-131390363D01*
X104972863Y-131529714D01*
X104972860Y-131529718D01*
X104863371Y-131693579D01*
X104863364Y-131693592D01*
X104787950Y-131875660D01*
X104787947Y-131875670D01*
X104749500Y-132068956D01*
X104749500Y-132068959D01*
X104749500Y-132516041D01*
X104749500Y-132516043D01*
X104749499Y-132516043D01*
X104250500Y-132516043D01*
X104250499Y-131535982D01*
X104235646Y-131442196D01*
X104178050Y-131329158D01*
X104178046Y-131329154D01*
X104178045Y-131329152D01*
X104088347Y-131239454D01*
X104088344Y-131239452D01*
X104088342Y-131239450D01*
X103990212Y-131189450D01*
X103975301Y-131181852D01*
X103881524Y-131167000D01*
X102618482Y-131167000D01*
X102537519Y-131179823D01*
X102524696Y-131181854D01*
X102411658Y-131239450D01*
X102411657Y-131239451D01*
X102411652Y-131239454D01*
X102321954Y-131329152D01*
X102321951Y-131329157D01*
X102321950Y-131329158D01*
X102305392Y-131361654D01*
X102264352Y-131442198D01*
X102249500Y-131535975D01*
X97841799Y-131535975D01*
X97779727Y-131450540D01*
X97779723Y-131450535D01*
X97629464Y-131300276D01*
X97629459Y-131300272D01*
X97457557Y-131175379D01*
X97268215Y-131078903D01*
X97066124Y-131013241D01*
X97000000Y-131002768D01*
X97000000Y-132050854D01*
X96933343Y-132012370D01*
X96812535Y-131980000D01*
X96687465Y-131980000D01*
X96566657Y-132012370D01*
X96500000Y-132050854D01*
X96500000Y-131002768D01*
X96499999Y-131002768D01*
X96433875Y-131013241D01*
X96231784Y-131078903D01*
X96042442Y-131175379D01*
X95870540Y-131300272D01*
X95870535Y-131300276D01*
X95720276Y-131450535D01*
X95720272Y-131450540D01*
X95595379Y-131622442D01*
X95498904Y-131811783D01*
X95435449Y-132007077D01*
X95396011Y-132064753D01*
X95331653Y-132091951D01*
X95262806Y-132080036D01*
X95211331Y-132032792D01*
X95202957Y-132016211D01*
X95202860Y-132015977D01*
X95167021Y-131929451D01*
X95136635Y-131856091D01*
X95136628Y-131856079D01*
X95027139Y-131692218D01*
X95027136Y-131692214D01*
X94887785Y-131552863D01*
X94887781Y-131552860D01*
X94723920Y-131443371D01*
X94723907Y-131443364D01*
X94541839Y-131367950D01*
X94541829Y-131367947D01*
X94348543Y-131329500D01*
X94348541Y-131329500D01*
X94151459Y-131329500D01*
X94151457Y-131329500D01*
X93958170Y-131367947D01*
X93958160Y-131367950D01*
X93776092Y-131443364D01*
X93776079Y-131443371D01*
X93612218Y-131552860D01*
X93612214Y-131552863D01*
X93472863Y-131692214D01*
X93472860Y-131692218D01*
X93363371Y-131856079D01*
X93363364Y-131856092D01*
X93287950Y-132038160D01*
X93287947Y-132038170D01*
X93249500Y-132231456D01*
X93249500Y-132231459D01*
X93249500Y-132678541D01*
X93249500Y-132678543D01*
X93249499Y-132678543D01*
X92750500Y-132678543D01*
X92750500Y-132231456D01*
X92712052Y-132038170D01*
X92712049Y-132038159D01*
X92687828Y-131979687D01*
X92680358Y-131910218D01*
X92711632Y-131847738D01*
X92714683Y-131844577D01*
X101712364Y-122846897D01*
X101750500Y-122754828D01*
X101750500Y-122655172D01*
X101750500Y-122067255D01*
X101770185Y-122000216D01*
X101786819Y-121979574D01*
X101820480Y-121945913D01*
X101873207Y-121854587D01*
X101900500Y-121752727D01*
X101900500Y-121647273D01*
X101873207Y-121545413D01*
X101820480Y-121454087D01*
X101745913Y-121379520D01*
X101654587Y-121326793D01*
X101552727Y-121299500D01*
X101447273Y-121299500D01*
X101345413Y-121326793D01*
X101345410Y-121326794D01*
X101254085Y-121379521D01*
X101179521Y-121454085D01*
X101126794Y-121545410D01*
X101126793Y-121545413D01*
X101099500Y-121647273D01*
X101099500Y-121752727D01*
X101115480Y-121812363D01*
X101126793Y-121854586D01*
X101126794Y-121854589D01*
X101179521Y-121945914D01*
X101213181Y-121979574D01*
X101246666Y-122040897D01*
X101249500Y-122067255D01*
X101249500Y-122549876D01*
X101229815Y-122616915D01*
X101213181Y-122637557D01*
X92405846Y-131444891D01*
X92344523Y-131478376D01*
X92274831Y-131473392D01*
X92249277Y-131460314D01*
X92223920Y-131443372D01*
X92223919Y-131443371D01*
X92223914Y-131443368D01*
X92223910Y-131443366D01*
X92223906Y-131443364D01*
X92041839Y-131367950D01*
X92041829Y-131367947D01*
X91848543Y-131329500D01*
X91848541Y-131329500D01*
X91651459Y-131329500D01*
X91651457Y-131329500D01*
X91458170Y-131367947D01*
X91458160Y-131367950D01*
X91276092Y-131443364D01*
X91276079Y-131443371D01*
X91112218Y-131552860D01*
X91112214Y-131552863D01*
X90972863Y-131692214D01*
X90972860Y-131692218D01*
X90863371Y-131856079D01*
X90863364Y-131856092D01*
X90787950Y-132038160D01*
X90787947Y-132038170D01*
X90749500Y-132231456D01*
X90749500Y-132231459D01*
X90749500Y-132678541D01*
X90749500Y-132678543D01*
X90749499Y-132678543D01*
X90250500Y-132678543D01*
X90250499Y-131698482D01*
X90235646Y-131604696D01*
X90178050Y-131491658D01*
X90178046Y-131491654D01*
X90178045Y-131491652D01*
X90088347Y-131401954D01*
X90088344Y-131401952D01*
X90088342Y-131401950D01*
X90009257Y-131361654D01*
X89975301Y-131344352D01*
X89881524Y-131329500D01*
X88618482Y-131329500D01*
X88537519Y-131342323D01*
X88524696Y-131344354D01*
X88411658Y-131401950D01*
X88411657Y-131401951D01*
X88411652Y-131401954D01*
X88321954Y-131491652D01*
X88321951Y-131491657D01*
X88321950Y-131491658D01*
X88312156Y-131510880D01*
X88264352Y-131604698D01*
X88249500Y-131698475D01*
X79000000Y-131698475D01*
X79000000Y-120447273D01*
X119599500Y-120447273D01*
X119599500Y-120552727D01*
X119626793Y-120654587D01*
X119679520Y-120745913D01*
X119754087Y-120820480D01*
X119845413Y-120873207D01*
X119947273Y-120900500D01*
X119994877Y-120900500D01*
X120061916Y-120920185D01*
X120082558Y-120936819D01*
X120880565Y-121734825D01*
X120880568Y-121734829D01*
X120887636Y-121741897D01*
X120958103Y-121812364D01*
X121050172Y-121850500D01*
X121050174Y-121850500D01*
X124349826Y-121850500D01*
X124349828Y-121850500D01*
X124441897Y-121812364D01*
X126924455Y-119329803D01*
X126924458Y-119329802D01*
X126941896Y-119312364D01*
X126941897Y-119312364D01*
X127012364Y-119241897D01*
X127050500Y-119149828D01*
X127050500Y-115867255D01*
X127070185Y-115800216D01*
X127086819Y-115779574D01*
X127093186Y-115773207D01*
X127120480Y-115745913D01*
X127173207Y-115654587D01*
X127200500Y-115552727D01*
X127200500Y-115447273D01*
X127173207Y-115345413D01*
X127120480Y-115254087D01*
X127045913Y-115179520D01*
X126979059Y-115140922D01*
X126954589Y-115126794D01*
X126954588Y-115126793D01*
X126954587Y-115126793D01*
X126852727Y-115099500D01*
X126747273Y-115099500D01*
X126645413Y-115126793D01*
X126645410Y-115126794D01*
X126554085Y-115179521D01*
X126479521Y-115254085D01*
X126426794Y-115345410D01*
X126426793Y-115345413D01*
X126399500Y-115447273D01*
X126399500Y-115552727D01*
X126426793Y-115654587D01*
X126464836Y-115720480D01*
X126479521Y-115745914D01*
X126513181Y-115779574D01*
X126546666Y-115840897D01*
X126549500Y-115867255D01*
X126549500Y-118944877D01*
X126529815Y-119011916D01*
X126513181Y-119032558D01*
X124232558Y-121313181D01*
X124171235Y-121346666D01*
X124144877Y-121349500D01*
X122212012Y-121349500D01*
X122144973Y-121329815D01*
X122099218Y-121277011D01*
X122089274Y-121207853D01*
X122118299Y-121144297D01*
X122127900Y-121134390D01*
X122138049Y-121125019D01*
X122145913Y-121120480D01*
X122181320Y-121085072D01*
X122183143Y-121083390D01*
X122212324Y-121068935D01*
X122240897Y-121053334D01*
X122244634Y-121052932D01*
X122245753Y-121052378D01*
X122247731Y-121052599D01*
X122267255Y-121050500D01*
X123558347Y-121050500D01*
X123558349Y-121050500D01*
X123650418Y-121012364D01*
X125941895Y-118720885D01*
X125941897Y-118720885D01*
X126012364Y-118650418D01*
X126028160Y-118612281D01*
X126050501Y-118558348D01*
X126050501Y-118458693D01*
X126050501Y-118448704D01*
X126050500Y-118448690D01*
X126050500Y-114874363D01*
X126070185Y-114807324D01*
X126086819Y-114786682D01*
X126100296Y-114773205D01*
X126124034Y-114749467D01*
X126176761Y-114658141D01*
X126204054Y-114556281D01*
X126204054Y-114450827D01*
X126176761Y-114348967D01*
X126124034Y-114257641D01*
X126049467Y-114183074D01*
X126012990Y-114162014D01*
X125964777Y-114111450D01*
X125951553Y-114042843D01*
X125977521Y-113977978D01*
X125987303Y-113966956D01*
X126167441Y-113786819D01*
X126228764Y-113753334D01*
X126255122Y-113750500D01*
X126532745Y-113750500D01*
X126599784Y-113770185D01*
X126620426Y-113786819D01*
X126654087Y-113820480D01*
X126745413Y-113873207D01*
X126847273Y-113900500D01*
X126847275Y-113900500D01*
X126952725Y-113900500D01*
X126952727Y-113900500D01*
X127054587Y-113873207D01*
X127145913Y-113820480D01*
X127220480Y-113745913D01*
X127273207Y-113654587D01*
X127300500Y-113552727D01*
X127300500Y-113447273D01*
X127273207Y-113345413D01*
X127220480Y-113254087D01*
X127145913Y-113179520D01*
X127054587Y-113126793D01*
X126952727Y-113099500D01*
X126847273Y-113099500D01*
X126745413Y-113126793D01*
X126745410Y-113126794D01*
X126654085Y-113179521D01*
X126620426Y-113213181D01*
X126559103Y-113246666D01*
X126532745Y-113249500D01*
X126164270Y-113249500D01*
X126164262Y-113249499D01*
X126149828Y-113249499D01*
X126050172Y-113249499D01*
X126050170Y-113249499D01*
X126050168Y-113249500D01*
X125985072Y-113276463D01*
X125985069Y-113276465D01*
X125958885Y-113287312D01*
X125958103Y-113287636D01*
X125958099Y-113287639D01*
X125887635Y-113358104D01*
X124143746Y-115101991D01*
X124082423Y-115135476D01*
X124012731Y-115130492D01*
X123968384Y-115101991D01*
X123945914Y-115079521D01*
X123945913Y-115079520D01*
X123854587Y-115026793D01*
X123752727Y-114999500D01*
X123647273Y-114999500D01*
X123545413Y-115026793D01*
X123545410Y-115026794D01*
X123454085Y-115079521D01*
X123379521Y-115154085D01*
X123326794Y-115245410D01*
X123326793Y-115245413D01*
X123299500Y-115347273D01*
X123299500Y-115452727D01*
X123326294Y-115552726D01*
X123326794Y-115554589D01*
X123326794Y-115554590D01*
X123332885Y-115565139D01*
X123349500Y-115627142D01*
X123349500Y-119449829D01*
X123387636Y-119541897D01*
X123463181Y-119617442D01*
X123496666Y-119678765D01*
X123499500Y-119705123D01*
X123499500Y-119752727D01*
X123526793Y-119854587D01*
X123579520Y-119945913D01*
X123654087Y-120020480D01*
X123691457Y-120042056D01*
X123739671Y-120092620D01*
X123752895Y-120161227D01*
X123726927Y-120226092D01*
X123717137Y-120237122D01*
X123441079Y-120513181D01*
X123379756Y-120546666D01*
X123353398Y-120549500D01*
X122267255Y-120549500D01*
X122200216Y-120529815D01*
X122179574Y-120513181D01*
X122145914Y-120479521D01*
X122145913Y-120479520D01*
X122054587Y-120426793D01*
X121952727Y-120399500D01*
X121847273Y-120399500D01*
X121745413Y-120426793D01*
X121745410Y-120426794D01*
X121654085Y-120479521D01*
X121579521Y-120554085D01*
X121526794Y-120645410D01*
X121526793Y-120645413D01*
X121499500Y-120747273D01*
X121499500Y-120852727D01*
X121512301Y-120900499D01*
X121526793Y-120954586D01*
X121526794Y-120954589D01*
X121579521Y-121045914D01*
X121654087Y-121120480D01*
X121660533Y-121125426D01*
X121658940Y-121127501D01*
X121698206Y-121168685D01*
X121711426Y-121237292D01*
X121685455Y-121302156D01*
X121628539Y-121342682D01*
X121587988Y-121349500D01*
X121255122Y-121349500D01*
X121188083Y-121329815D01*
X121167441Y-121313181D01*
X120436819Y-120582558D01*
X120403334Y-120521235D01*
X120400500Y-120494877D01*
X120400500Y-120447275D01*
X120400500Y-120447273D01*
X120373207Y-120345413D01*
X120320480Y-120254087D01*
X120245913Y-120179520D01*
X120154587Y-120126793D01*
X120052727Y-120099500D01*
X119947273Y-120099500D01*
X119845413Y-120126793D01*
X119845410Y-120126794D01*
X119754085Y-120179521D01*
X119679521Y-120254085D01*
X119626794Y-120345410D01*
X119626793Y-120345413D01*
X119599500Y-120447273D01*
X79000000Y-120447273D01*
X79000000Y-119647273D01*
X111899500Y-119647273D01*
X111899500Y-119752727D01*
X111926793Y-119854587D01*
X111979520Y-119945913D01*
X112054087Y-120020480D01*
X112145413Y-120073207D01*
X112247273Y-120100500D01*
X112247275Y-120100500D01*
X112352725Y-120100500D01*
X112352727Y-120100500D01*
X112454587Y-120073207D01*
X112545913Y-120020480D01*
X112579574Y-119986819D01*
X112640897Y-119953334D01*
X112667255Y-119950500D01*
X115052842Y-119950500D01*
X115119881Y-119970185D01*
X115160228Y-120012499D01*
X115164835Y-120020478D01*
X115179520Y-120045913D01*
X115254087Y-120120480D01*
X115345413Y-120173207D01*
X115447273Y-120200500D01*
X115447275Y-120200500D01*
X115552725Y-120200500D01*
X115552727Y-120200500D01*
X115654587Y-120173207D01*
X115745913Y-120120480D01*
X115820480Y-120045913D01*
X115873207Y-119954587D01*
X115900500Y-119852727D01*
X115900500Y-119747273D01*
X115873207Y-119645413D01*
X115820480Y-119554087D01*
X115745913Y-119479520D01*
X115654587Y-119426793D01*
X115552727Y-119399500D01*
X115447273Y-119399500D01*
X115345413Y-119426793D01*
X115345410Y-119426794D01*
X115334858Y-119432887D01*
X115272858Y-119449500D01*
X112667255Y-119449500D01*
X112600216Y-119429815D01*
X112579574Y-119413181D01*
X112545914Y-119379521D01*
X112545913Y-119379520D01*
X112454587Y-119326793D01*
X112352727Y-119299500D01*
X112247273Y-119299500D01*
X112145413Y-119326793D01*
X112145410Y-119326794D01*
X112054085Y-119379521D01*
X111979521Y-119454085D01*
X111926794Y-119545410D01*
X111926793Y-119545413D01*
X111899500Y-119647273D01*
X79000000Y-119647273D01*
X79000000Y-110747273D01*
X123199500Y-110747273D01*
X123199500Y-110852727D01*
X123226793Y-110954587D01*
X123279520Y-111045913D01*
X123354087Y-111120480D01*
X123445413Y-111173207D01*
X123547273Y-111200500D01*
X123547275Y-111200500D01*
X123652725Y-111200500D01*
X123652727Y-111200500D01*
X123754587Y-111173207D01*
X123845913Y-111120480D01*
X123920480Y-111045913D01*
X123973207Y-110954587D01*
X123976470Y-110942407D01*
X124012834Y-110882747D01*
X124075680Y-110852217D01*
X124096245Y-110850500D01*
X124695877Y-110850500D01*
X124762916Y-110870185D01*
X124808671Y-110922989D01*
X124818615Y-110992147D01*
X124789590Y-111055703D01*
X124783558Y-111062181D01*
X124082558Y-111763181D01*
X124021235Y-111796666D01*
X123994877Y-111799500D01*
X123947273Y-111799500D01*
X123845413Y-111826793D01*
X123845410Y-111826794D01*
X123754085Y-111879521D01*
X123679521Y-111954085D01*
X123626794Y-112045410D01*
X123626793Y-112045413D01*
X123599500Y-112147273D01*
X123599500Y-112252727D01*
X123626793Y-112354587D01*
X123679520Y-112445913D01*
X123754087Y-112520480D01*
X123845413Y-112573207D01*
X123947273Y-112600500D01*
X123947275Y-112600500D01*
X124052725Y-112600500D01*
X124052727Y-112600500D01*
X124154587Y-112573207D01*
X124245913Y-112520480D01*
X124320480Y-112445913D01*
X124373207Y-112354587D01*
X124400500Y-112252727D01*
X124400500Y-112205123D01*
X124420185Y-112138084D01*
X124436819Y-112117442D01*
X125268442Y-111285819D01*
X125329765Y-111252334D01*
X125356123Y-111249500D01*
X126290893Y-111249500D01*
X126357932Y-111269185D01*
X126403687Y-111321989D01*
X126413631Y-111391147D01*
X126410668Y-111405592D01*
X126399500Y-111447271D01*
X126399500Y-111447273D01*
X126399500Y-111552727D01*
X126426793Y-111654587D01*
X126479520Y-111745913D01*
X126554087Y-111820480D01*
X126645413Y-111873207D01*
X126747273Y-111900500D01*
X126794877Y-111900500D01*
X126861916Y-111920185D01*
X126882558Y-111936819D01*
X133288181Y-118342441D01*
X133321666Y-118403764D01*
X133324500Y-118430122D01*
X133324500Y-131055473D01*
X133304815Y-131122512D01*
X133252011Y-131168267D01*
X133247952Y-131170034D01*
X133101092Y-131230864D01*
X133101079Y-131230871D01*
X132937218Y-131340360D01*
X132937214Y-131340363D01*
X132797863Y-131479714D01*
X132797860Y-131479718D01*
X132688371Y-131643579D01*
X132688364Y-131643592D01*
X132612950Y-131825660D01*
X132612947Y-131825670D01*
X132574500Y-132018956D01*
X132574500Y-132018959D01*
X132574500Y-132466041D01*
X132574500Y-132466043D01*
X132574499Y-132466043D01*
X132612947Y-132659329D01*
X132612950Y-132659339D01*
X132688364Y-132841407D01*
X132688371Y-132841420D01*
X132797860Y-133005281D01*
X132797863Y-133005285D01*
X132937214Y-133144636D01*
X132937218Y-133144639D01*
X133101079Y-133254128D01*
X133101092Y-133254135D01*
X133224622Y-133305302D01*
X133283165Y-133329551D01*
X133283169Y-133329551D01*
X133283170Y-133329552D01*
X133476456Y-133368000D01*
X133476459Y-133368000D01*
X133673543Y-133368000D01*
X133803582Y-133342132D01*
X133866835Y-133329551D01*
X134048914Y-133254132D01*
X134212782Y-133144639D01*
X134352139Y-133005282D01*
X134461632Y-132841414D01*
X134462473Y-132839385D01*
X134529095Y-132678543D01*
X134537051Y-132659335D01*
X134565411Y-132516760D01*
X134575500Y-132466043D01*
X135074499Y-132466043D01*
X135112947Y-132659329D01*
X135112950Y-132659339D01*
X135188364Y-132841407D01*
X135188371Y-132841420D01*
X135297860Y-133005281D01*
X135297863Y-133005285D01*
X135437214Y-133144636D01*
X135437218Y-133144639D01*
X135601079Y-133254128D01*
X135601092Y-133254135D01*
X135724622Y-133305302D01*
X135783165Y-133329551D01*
X135783169Y-133329551D01*
X135783170Y-133329552D01*
X135976456Y-133368000D01*
X135976459Y-133368000D01*
X136173543Y-133368000D01*
X136303582Y-133342132D01*
X136366835Y-133329551D01*
X136548914Y-133254132D01*
X136712782Y-133144639D01*
X136852139Y-133005282D01*
X136961632Y-132841414D01*
X137027959Y-132681283D01*
X137071797Y-132626885D01*
X137138091Y-132604819D01*
X137205790Y-132622098D01*
X137253401Y-132673234D01*
X137260449Y-132690422D01*
X137323904Y-132885717D01*
X137420379Y-133075057D01*
X137545272Y-133246959D01*
X137545276Y-133246964D01*
X137695535Y-133397223D01*
X137695540Y-133397227D01*
X137867442Y-133522120D01*
X138056782Y-133618595D01*
X138258871Y-133684257D01*
X138325000Y-133694731D01*
X138325000Y-132646645D01*
X138391657Y-132685130D01*
X138512465Y-132717500D01*
X138637535Y-132717500D01*
X138758343Y-132685130D01*
X138825000Y-132646645D01*
X138825000Y-133694730D01*
X138891126Y-133684257D01*
X138891129Y-133684257D01*
X139093217Y-133618595D01*
X139282557Y-133522120D01*
X139454459Y-133397227D01*
X139454464Y-133397223D01*
X139604723Y-133246964D01*
X139604727Y-133246959D01*
X139729620Y-133075057D01*
X139826095Y-132885717D01*
X139881461Y-132715320D01*
X139881461Y-132715319D01*
X139891756Y-132683634D01*
X139891757Y-132683627D01*
X139922030Y-132492500D01*
X138979146Y-132492500D01*
X139017630Y-132425843D01*
X139050000Y-132305035D01*
X139050000Y-132179965D01*
X139017630Y-132059157D01*
X138979146Y-131992500D01*
X139922030Y-131992500D01*
X139891757Y-131801372D01*
X139891757Y-131801369D01*
X139884818Y-131780013D01*
X143900000Y-131780013D01*
X143900000Y-132305000D01*
X144845854Y-132305000D01*
X144807370Y-132371657D01*
X144775000Y-132492465D01*
X144775000Y-132617535D01*
X144807370Y-132738343D01*
X144845854Y-132805000D01*
X143900001Y-132805000D01*
X143900001Y-133329986D01*
X143910494Y-133432697D01*
X143965641Y-133599119D01*
X143965643Y-133599124D01*
X144057684Y-133748345D01*
X144181654Y-133872315D01*
X144330875Y-133964356D01*
X144330880Y-133964358D01*
X144497302Y-134019505D01*
X144497309Y-134019506D01*
X144600019Y-134029999D01*
X144999999Y-134029999D01*
X145000000Y-134029998D01*
X145000000Y-132959145D01*
X145066657Y-132997630D01*
X145187465Y-133030000D01*
X145312535Y-133030000D01*
X145433343Y-132997630D01*
X145500000Y-132959145D01*
X145500000Y-134029999D01*
X145899972Y-134029999D01*
X145899986Y-134029998D01*
X146002697Y-134019505D01*
X146169119Y-133964358D01*
X146169124Y-133964356D01*
X146318345Y-133872315D01*
X146442315Y-133748345D01*
X146534356Y-133599124D01*
X146534358Y-133599119D01*
X146589505Y-133432697D01*
X146589506Y-133432690D01*
X146599999Y-133329986D01*
X146599999Y-133141477D01*
X146619683Y-133074437D01*
X146672487Y-133028682D01*
X146741645Y-133018738D01*
X146805201Y-133047763D01*
X146838560Y-133094023D01*
X146863366Y-133153910D01*
X146863371Y-133153920D01*
X146972860Y-133317781D01*
X146972863Y-133317785D01*
X147112214Y-133457136D01*
X147112218Y-133457139D01*
X147276079Y-133566628D01*
X147276092Y-133566635D01*
X147417519Y-133625215D01*
X147458165Y-133642051D01*
X147458169Y-133642051D01*
X147458170Y-133642052D01*
X147651456Y-133680500D01*
X147651459Y-133680500D01*
X147848543Y-133680500D01*
X147978582Y-133654632D01*
X148041835Y-133642051D01*
X148223914Y-133566632D01*
X148387782Y-133457139D01*
X148527139Y-133317782D01*
X148636632Y-133153914D01*
X148712051Y-132971835D01*
X148729181Y-132885717D01*
X148750500Y-132778543D01*
X149249499Y-132778543D01*
X149287947Y-132971829D01*
X149287950Y-132971839D01*
X149363364Y-133153907D01*
X149363371Y-133153920D01*
X149472860Y-133317781D01*
X149472863Y-133317785D01*
X149612214Y-133457136D01*
X149612218Y-133457139D01*
X149776079Y-133566628D01*
X149776092Y-133566635D01*
X149917519Y-133625215D01*
X149958165Y-133642051D01*
X149958169Y-133642051D01*
X149958170Y-133642052D01*
X150151456Y-133680500D01*
X150151459Y-133680500D01*
X150348543Y-133680500D01*
X150478582Y-133654632D01*
X150541835Y-133642051D01*
X150723914Y-133566632D01*
X150887782Y-133457139D01*
X151027139Y-133317782D01*
X151136632Y-133153914D01*
X151212051Y-132971835D01*
X151229181Y-132885717D01*
X151250500Y-132778543D01*
X151749499Y-132778543D01*
X151787947Y-132971829D01*
X151787950Y-132971839D01*
X151863364Y-133153907D01*
X151863371Y-133153920D01*
X151972860Y-133317781D01*
X151972863Y-133317785D01*
X152112214Y-133457136D01*
X152112218Y-133457139D01*
X152276079Y-133566628D01*
X152276092Y-133566635D01*
X152417519Y-133625215D01*
X152458165Y-133642051D01*
X152458169Y-133642051D01*
X152458170Y-133642052D01*
X152651456Y-133680500D01*
X152651459Y-133680500D01*
X152848543Y-133680500D01*
X152978582Y-133654632D01*
X153041835Y-133642051D01*
X153223914Y-133566632D01*
X153387782Y-133457139D01*
X153527139Y-133317782D01*
X153636632Y-133153914D01*
X153712051Y-132971835D01*
X153729181Y-132885717D01*
X153750500Y-132778543D01*
X153750500Y-132331456D01*
X153712052Y-132138170D01*
X153712051Y-132138169D01*
X153712051Y-132138165D01*
X153711171Y-132136041D01*
X153636635Y-131956092D01*
X153636628Y-131956079D01*
X153562912Y-131845755D01*
X153527139Y-131792218D01*
X153527136Y-131792214D01*
X153514935Y-131780013D01*
X157900000Y-131780013D01*
X157900000Y-132305000D01*
X158845854Y-132305000D01*
X158807370Y-132371657D01*
X158775000Y-132492465D01*
X158775000Y-132617535D01*
X158807370Y-132738343D01*
X158845854Y-132805000D01*
X157900001Y-132805000D01*
X157900001Y-133329986D01*
X157910494Y-133432697D01*
X157965641Y-133599119D01*
X157965643Y-133599124D01*
X158057684Y-133748345D01*
X158181654Y-133872315D01*
X158330875Y-133964356D01*
X158330880Y-133964358D01*
X158497302Y-134019505D01*
X158497309Y-134019506D01*
X158600019Y-134029999D01*
X158999999Y-134029999D01*
X159000000Y-134029998D01*
X159000000Y-132959145D01*
X159066657Y-132997630D01*
X159187465Y-133030000D01*
X159312535Y-133030000D01*
X159433343Y-132997630D01*
X159500000Y-132959145D01*
X159500000Y-134029999D01*
X159899972Y-134029999D01*
X159899986Y-134029998D01*
X160002697Y-134019505D01*
X160169119Y-133964358D01*
X160169124Y-133964356D01*
X160315552Y-133874038D01*
X172399500Y-133874038D01*
X172399500Y-134125961D01*
X172438910Y-134374785D01*
X172516760Y-134614383D01*
X172631132Y-134838848D01*
X172779201Y-135042649D01*
X172779205Y-135042654D01*
X172957345Y-135220794D01*
X172957350Y-135220798D01*
X173135117Y-135349952D01*
X173161155Y-135368870D01*
X173304184Y-135441747D01*
X173385616Y-135483239D01*
X173385618Y-135483239D01*
X173385621Y-135483241D01*
X173625215Y-135561090D01*
X173874038Y-135600500D01*
X173874039Y-135600500D01*
X174125961Y-135600500D01*
X174125962Y-135600500D01*
X174374785Y-135561090D01*
X174614379Y-135483241D01*
X174838845Y-135368870D01*
X175042656Y-135220793D01*
X175220793Y-135042656D01*
X175368870Y-134838845D01*
X175483241Y-134614379D01*
X175561090Y-134374785D01*
X175600500Y-134125962D01*
X175600500Y-133874038D01*
X175561090Y-133625215D01*
X175483241Y-133385621D01*
X175483239Y-133385618D01*
X175483239Y-133385616D01*
X175438068Y-133296964D01*
X175368870Y-133161155D01*
X175319208Y-133092801D01*
X175220798Y-132957350D01*
X175220794Y-132957345D01*
X175042654Y-132779205D01*
X175042649Y-132779201D01*
X174838848Y-132631132D01*
X174838847Y-132631131D01*
X174838845Y-132631130D01*
X174746655Y-132584157D01*
X174614383Y-132516760D01*
X174374785Y-132438910D01*
X174292284Y-132425843D01*
X174125962Y-132399500D01*
X173874038Y-132399500D01*
X173749626Y-132419205D01*
X173625214Y-132438910D01*
X173385616Y-132516760D01*
X173161151Y-132631132D01*
X172957350Y-132779201D01*
X172957345Y-132779205D01*
X172779205Y-132957345D01*
X172779201Y-132957350D01*
X172631132Y-133161151D01*
X172516760Y-133385616D01*
X172438910Y-133625214D01*
X172399500Y-133874038D01*
X160315552Y-133874038D01*
X160318345Y-133872315D01*
X160409176Y-133781485D01*
X160442315Y-133748345D01*
X160534356Y-133599124D01*
X160534358Y-133599119D01*
X160589505Y-133432697D01*
X160589506Y-133432690D01*
X160599999Y-133329986D01*
X160599999Y-133141477D01*
X160619683Y-133074437D01*
X160672487Y-133028682D01*
X160741645Y-133018738D01*
X160805201Y-133047763D01*
X160838560Y-133094023D01*
X160863366Y-133153910D01*
X160863371Y-133153920D01*
X160972860Y-133317781D01*
X160972863Y-133317785D01*
X161112214Y-133457136D01*
X161112218Y-133457139D01*
X161276079Y-133566628D01*
X161276092Y-133566635D01*
X161417519Y-133625215D01*
X161458165Y-133642051D01*
X161458169Y-133642051D01*
X161458170Y-133642052D01*
X161651456Y-133680500D01*
X161651459Y-133680500D01*
X161848543Y-133680500D01*
X161978582Y-133654632D01*
X162041835Y-133642051D01*
X162223914Y-133566632D01*
X162387782Y-133457139D01*
X162527139Y-133317782D01*
X162636632Y-133153914D01*
X162712051Y-132971835D01*
X162729181Y-132885717D01*
X162750500Y-132778543D01*
X163249499Y-132778543D01*
X163287947Y-132971829D01*
X163287950Y-132971839D01*
X163363364Y-133153907D01*
X163363371Y-133153920D01*
X163472860Y-133317781D01*
X163472863Y-133317785D01*
X163612214Y-133457136D01*
X163612218Y-133457139D01*
X163776079Y-133566628D01*
X163776092Y-133566635D01*
X163917519Y-133625215D01*
X163958165Y-133642051D01*
X163958169Y-133642051D01*
X163958170Y-133642052D01*
X164151456Y-133680500D01*
X164151459Y-133680500D01*
X164348543Y-133680500D01*
X164478582Y-133654632D01*
X164541835Y-133642051D01*
X164723914Y-133566632D01*
X164887782Y-133457139D01*
X165027139Y-133317782D01*
X165136632Y-133153914D01*
X165212051Y-132971835D01*
X165229181Y-132885717D01*
X165250500Y-132778543D01*
X165749499Y-132778543D01*
X165787947Y-132971829D01*
X165787950Y-132971839D01*
X165863364Y-133153907D01*
X165863371Y-133153920D01*
X165972860Y-133317781D01*
X165972863Y-133317785D01*
X166112214Y-133457136D01*
X166112218Y-133457139D01*
X166276079Y-133566628D01*
X166276092Y-133566635D01*
X166417519Y-133625215D01*
X166458165Y-133642051D01*
X166458169Y-133642051D01*
X166458170Y-133642052D01*
X166651456Y-133680500D01*
X166651459Y-133680500D01*
X166848543Y-133680500D01*
X166978582Y-133654632D01*
X167041835Y-133642051D01*
X167223914Y-133566632D01*
X167387782Y-133457139D01*
X167527139Y-133317782D01*
X167636632Y-133153914D01*
X167712051Y-132971835D01*
X167729181Y-132885717D01*
X167750500Y-132778543D01*
X167750500Y-132331456D01*
X167712052Y-132138170D01*
X167712051Y-132138169D01*
X167712051Y-132138165D01*
X167711171Y-132136041D01*
X167636635Y-131956092D01*
X167636628Y-131956079D01*
X167527139Y-131792218D01*
X167527136Y-131792214D01*
X167387785Y-131652863D01*
X167387781Y-131652860D01*
X167223920Y-131543371D01*
X167223907Y-131543364D01*
X167041839Y-131467950D01*
X167041829Y-131467947D01*
X166848543Y-131429500D01*
X166848541Y-131429500D01*
X166651459Y-131429500D01*
X166651457Y-131429500D01*
X166458170Y-131467947D01*
X166458160Y-131467950D01*
X166276092Y-131543364D01*
X166276079Y-131543371D01*
X166112218Y-131652860D01*
X166112214Y-131652863D01*
X165972863Y-131792214D01*
X165972860Y-131792218D01*
X165863371Y-131956079D01*
X165863364Y-131956092D01*
X165787950Y-132138160D01*
X165787947Y-132138170D01*
X165749500Y-132331456D01*
X165749500Y-132331459D01*
X165749500Y-132778541D01*
X165749500Y-132778543D01*
X165749499Y-132778543D01*
X165250500Y-132778543D01*
X165250500Y-132331456D01*
X165212052Y-132138170D01*
X165212051Y-132138169D01*
X165212051Y-132138165D01*
X165211171Y-132136041D01*
X165136635Y-131956092D01*
X165136628Y-131956079D01*
X165027139Y-131792218D01*
X165027136Y-131792214D01*
X164887785Y-131652863D01*
X164887781Y-131652860D01*
X164723920Y-131543371D01*
X164723907Y-131543364D01*
X164541839Y-131467950D01*
X164541829Y-131467947D01*
X164348543Y-131429500D01*
X164348541Y-131429500D01*
X164151459Y-131429500D01*
X164151457Y-131429500D01*
X163958170Y-131467947D01*
X163958160Y-131467950D01*
X163776092Y-131543364D01*
X163776079Y-131543371D01*
X163612218Y-131652860D01*
X163612214Y-131652863D01*
X163472863Y-131792214D01*
X163472860Y-131792218D01*
X163363371Y-131956079D01*
X163363364Y-131956092D01*
X163287950Y-132138160D01*
X163287947Y-132138170D01*
X163249500Y-132331456D01*
X163249500Y-132331459D01*
X163249500Y-132778541D01*
X163249500Y-132778543D01*
X163249499Y-132778543D01*
X162750500Y-132778543D01*
X162750500Y-132331456D01*
X162712052Y-132138170D01*
X162712051Y-132138169D01*
X162712051Y-132138165D01*
X162711171Y-132136041D01*
X162636635Y-131956092D01*
X162636628Y-131956079D01*
X162527139Y-131792218D01*
X162527136Y-131792214D01*
X162387785Y-131652863D01*
X162387781Y-131652860D01*
X162223920Y-131543371D01*
X162223907Y-131543364D01*
X162041839Y-131467950D01*
X162041829Y-131467947D01*
X161848543Y-131429500D01*
X161848541Y-131429500D01*
X161651459Y-131429500D01*
X161651457Y-131429500D01*
X161458170Y-131467947D01*
X161458160Y-131467950D01*
X161276092Y-131543364D01*
X161276079Y-131543371D01*
X161112218Y-131652860D01*
X161112214Y-131652863D01*
X160972863Y-131792214D01*
X160972860Y-131792218D01*
X160863371Y-131956079D01*
X160863366Y-131956089D01*
X160838560Y-132015977D01*
X160794719Y-132070380D01*
X160728425Y-132092445D01*
X160660725Y-132075166D01*
X160613115Y-132024028D01*
X160599999Y-131968524D01*
X160599999Y-131780028D01*
X160599998Y-131780012D01*
X160589505Y-131677302D01*
X160534358Y-131510880D01*
X160534356Y-131510875D01*
X160442315Y-131361654D01*
X160318345Y-131237684D01*
X160169124Y-131145643D01*
X160169119Y-131145641D01*
X160002697Y-131090494D01*
X160002690Y-131090493D01*
X159899986Y-131080000D01*
X159500000Y-131080000D01*
X159500000Y-132150854D01*
X159433343Y-132112370D01*
X159312535Y-132080000D01*
X159187465Y-132080000D01*
X159066657Y-132112370D01*
X159000000Y-132150854D01*
X159000000Y-131080000D01*
X158600028Y-131080000D01*
X158600012Y-131080001D01*
X158497302Y-131090494D01*
X158330880Y-131145641D01*
X158330875Y-131145643D01*
X158181654Y-131237684D01*
X158057684Y-131361654D01*
X157965643Y-131510875D01*
X157965641Y-131510880D01*
X157910494Y-131677302D01*
X157910493Y-131677309D01*
X157900000Y-131780013D01*
X153514935Y-131780013D01*
X153387785Y-131652863D01*
X153387781Y-131652860D01*
X153223920Y-131543371D01*
X153223907Y-131543364D01*
X153041839Y-131467950D01*
X153041829Y-131467947D01*
X152848543Y-131429500D01*
X152848541Y-131429500D01*
X152651459Y-131429500D01*
X152651457Y-131429500D01*
X152458170Y-131467947D01*
X152458160Y-131467950D01*
X152276092Y-131543364D01*
X152276079Y-131543371D01*
X152112218Y-131652860D01*
X152112214Y-131652863D01*
X151972863Y-131792214D01*
X151972860Y-131792218D01*
X151863371Y-131956079D01*
X151863364Y-131956092D01*
X151787950Y-132138160D01*
X151787947Y-132138170D01*
X151749500Y-132331456D01*
X151749500Y-132331459D01*
X151749500Y-132778541D01*
X151749500Y-132778543D01*
X151749499Y-132778543D01*
X151250500Y-132778543D01*
X151250500Y-132331456D01*
X151212052Y-132138170D01*
X151212051Y-132138169D01*
X151212051Y-132138165D01*
X151211171Y-132136041D01*
X151136635Y-131956092D01*
X151136628Y-131956079D01*
X151027139Y-131792218D01*
X151027136Y-131792214D01*
X150887785Y-131652863D01*
X150887781Y-131652860D01*
X150723920Y-131543371D01*
X150723907Y-131543364D01*
X150541839Y-131467950D01*
X150541829Y-131467947D01*
X150348543Y-131429500D01*
X150348541Y-131429500D01*
X150151459Y-131429500D01*
X150151457Y-131429500D01*
X149958170Y-131467947D01*
X149958160Y-131467950D01*
X149776092Y-131543364D01*
X149776079Y-131543371D01*
X149612218Y-131652860D01*
X149612214Y-131652863D01*
X149472863Y-131792214D01*
X149472860Y-131792218D01*
X149363371Y-131956079D01*
X149363364Y-131956092D01*
X149287950Y-132138160D01*
X149287947Y-132138170D01*
X149249500Y-132331456D01*
X149249500Y-132331459D01*
X149249500Y-132778541D01*
X149249500Y-132778543D01*
X149249499Y-132778543D01*
X148750500Y-132778543D01*
X148750500Y-132331456D01*
X148712052Y-132138170D01*
X148712051Y-132138169D01*
X148712051Y-132138165D01*
X148711171Y-132136041D01*
X148636635Y-131956092D01*
X148636628Y-131956079D01*
X148527139Y-131792218D01*
X148527136Y-131792214D01*
X148387785Y-131652863D01*
X148387781Y-131652860D01*
X148223920Y-131543371D01*
X148223907Y-131543364D01*
X148041839Y-131467950D01*
X148041829Y-131467947D01*
X147848543Y-131429500D01*
X147848541Y-131429500D01*
X147651459Y-131429500D01*
X147651457Y-131429500D01*
X147458170Y-131467947D01*
X147458160Y-131467950D01*
X147276092Y-131543364D01*
X147276079Y-131543371D01*
X147112218Y-131652860D01*
X147112214Y-131652863D01*
X146972863Y-131792214D01*
X146972860Y-131792218D01*
X146863371Y-131956079D01*
X146863366Y-131956089D01*
X146838560Y-132015977D01*
X146794719Y-132070380D01*
X146728425Y-132092445D01*
X146660725Y-132075166D01*
X146613115Y-132024028D01*
X146599999Y-131968524D01*
X146599999Y-131780028D01*
X146599998Y-131780012D01*
X146589505Y-131677302D01*
X146534358Y-131510880D01*
X146534356Y-131510875D01*
X146442315Y-131361654D01*
X146318345Y-131237684D01*
X146169124Y-131145643D01*
X146169119Y-131145641D01*
X146002697Y-131090494D01*
X146002690Y-131090493D01*
X145899986Y-131080000D01*
X145500000Y-131080000D01*
X145500000Y-132150854D01*
X145433343Y-132112370D01*
X145312535Y-132080000D01*
X145187465Y-132080000D01*
X145066657Y-132112370D01*
X145000000Y-132150854D01*
X145000000Y-131080000D01*
X144600028Y-131080000D01*
X144600012Y-131080001D01*
X144497302Y-131090494D01*
X144330880Y-131145641D01*
X144330875Y-131145643D01*
X144181654Y-131237684D01*
X144057684Y-131361654D01*
X143965643Y-131510875D01*
X143965641Y-131510880D01*
X143910494Y-131677302D01*
X143910493Y-131677309D01*
X143900000Y-131780013D01*
X139884818Y-131780013D01*
X139826095Y-131599282D01*
X139729620Y-131409942D01*
X139604727Y-131238040D01*
X139604723Y-131238035D01*
X139454464Y-131087776D01*
X139454459Y-131087772D01*
X139282557Y-130962879D01*
X139093215Y-130866403D01*
X138891124Y-130800741D01*
X138825000Y-130790268D01*
X138825000Y-131838354D01*
X138758343Y-131799870D01*
X138637535Y-131767500D01*
X138512465Y-131767500D01*
X138391657Y-131799870D01*
X138325000Y-131838354D01*
X138325000Y-130790268D01*
X138324999Y-130790268D01*
X138258875Y-130800741D01*
X138056784Y-130866403D01*
X137867442Y-130962879D01*
X137695540Y-131087772D01*
X137695535Y-131087776D01*
X137545276Y-131238035D01*
X137545272Y-131238040D01*
X137420379Y-131409942D01*
X137323904Y-131599283D01*
X137260449Y-131794577D01*
X137221011Y-131852253D01*
X137156653Y-131879451D01*
X137087806Y-131867536D01*
X137036331Y-131820292D01*
X137027957Y-131803711D01*
X137026988Y-131801372D01*
X137007080Y-131753309D01*
X136961635Y-131643591D01*
X136961628Y-131643579D01*
X136852139Y-131479718D01*
X136852136Y-131479714D01*
X136712785Y-131340363D01*
X136712781Y-131340360D01*
X136548920Y-131230871D01*
X136548907Y-131230864D01*
X136366839Y-131155450D01*
X136366829Y-131155447D01*
X136173543Y-131117000D01*
X136173541Y-131117000D01*
X135976459Y-131117000D01*
X135976457Y-131117000D01*
X135783170Y-131155447D01*
X135783160Y-131155450D01*
X135601092Y-131230864D01*
X135601079Y-131230871D01*
X135437218Y-131340360D01*
X135437214Y-131340363D01*
X135297863Y-131479714D01*
X135297860Y-131479718D01*
X135188371Y-131643579D01*
X135188364Y-131643592D01*
X135112950Y-131825660D01*
X135112947Y-131825670D01*
X135074500Y-132018956D01*
X135074500Y-132018959D01*
X135074500Y-132466041D01*
X135074500Y-132466043D01*
X135074499Y-132466043D01*
X134575500Y-132466043D01*
X134575500Y-132018956D01*
X134537052Y-131825670D01*
X134537051Y-131825669D01*
X134537051Y-131825665D01*
X134537049Y-131825660D01*
X134461635Y-131643592D01*
X134461628Y-131643579D01*
X134352139Y-131479718D01*
X134352136Y-131479714D01*
X134212785Y-131340363D01*
X134212781Y-131340360D01*
X134048920Y-131230871D01*
X134048907Y-131230864D01*
X133902048Y-131170034D01*
X133847644Y-131126193D01*
X133825579Y-131059899D01*
X133825500Y-131055473D01*
X133825500Y-118225173D01*
X133825499Y-118225170D01*
X133787364Y-118133103D01*
X133716897Y-118062636D01*
X133709832Y-118055571D01*
X133709825Y-118055565D01*
X130081088Y-114426827D01*
X130001534Y-114347273D01*
X136799500Y-114347273D01*
X136799500Y-114452727D01*
X136826793Y-114554587D01*
X136879520Y-114645913D01*
X136954087Y-114720480D01*
X137045413Y-114773207D01*
X137147273Y-114800500D01*
X137147275Y-114800500D01*
X137252725Y-114800500D01*
X137252727Y-114800500D01*
X137354587Y-114773207D01*
X137399506Y-114747273D01*
X138199500Y-114747273D01*
X138199500Y-114852727D01*
X138226793Y-114954587D01*
X138279520Y-115045913D01*
X138354087Y-115120480D01*
X138445413Y-115173207D01*
X138547273Y-115200500D01*
X138547275Y-115200500D01*
X138652725Y-115200500D01*
X138652727Y-115200500D01*
X138754587Y-115173207D01*
X138845913Y-115120480D01*
X138920480Y-115045913D01*
X138973207Y-114954587D01*
X139000500Y-114852727D01*
X139000500Y-114805123D01*
X139020185Y-114738084D01*
X139036819Y-114717442D01*
X139203055Y-114551206D01*
X139412364Y-114341897D01*
X139450500Y-114249828D01*
X139450500Y-114150172D01*
X139450500Y-111767255D01*
X139470185Y-111700216D01*
X139486819Y-111679574D01*
X139503212Y-111663181D01*
X139520480Y-111645913D01*
X139573207Y-111554587D01*
X139600500Y-111452727D01*
X139600500Y-111347273D01*
X139573207Y-111245413D01*
X139520480Y-111154087D01*
X139445913Y-111079520D01*
X139354587Y-111026793D01*
X139252727Y-110999500D01*
X139147273Y-110999500D01*
X139045413Y-111026793D01*
X139045410Y-111026794D01*
X138954085Y-111079521D01*
X138879521Y-111154085D01*
X138826794Y-111245410D01*
X138826793Y-111245413D01*
X138799500Y-111347273D01*
X138799500Y-111452727D01*
X138826793Y-111554587D01*
X138864836Y-111620480D01*
X138879521Y-111645914D01*
X138913181Y-111679574D01*
X138946666Y-111740897D01*
X138949500Y-111767255D01*
X138949500Y-114044877D01*
X138929815Y-114111916D01*
X138913181Y-114132558D01*
X138682558Y-114363181D01*
X138621235Y-114396666D01*
X138594877Y-114399500D01*
X138547273Y-114399500D01*
X138445413Y-114426793D01*
X138445410Y-114426794D01*
X138354085Y-114479521D01*
X138279521Y-114554085D01*
X138226794Y-114645410D01*
X138226793Y-114645413D01*
X138199500Y-114747273D01*
X137399506Y-114747273D01*
X137445913Y-114720480D01*
X137520480Y-114645913D01*
X137573207Y-114554587D01*
X137600500Y-114452727D01*
X137600500Y-114347273D01*
X137573207Y-114245413D01*
X137520480Y-114154087D01*
X137486819Y-114120426D01*
X137453334Y-114059103D01*
X137450500Y-114032745D01*
X137450500Y-111955122D01*
X137459144Y-111925681D01*
X137465668Y-111895695D01*
X137469422Y-111890679D01*
X137470185Y-111888083D01*
X137486819Y-111867441D01*
X137617441Y-111736819D01*
X137678764Y-111703334D01*
X137705122Y-111700500D01*
X137752725Y-111700500D01*
X137752727Y-111700500D01*
X137854587Y-111673207D01*
X137945913Y-111620480D01*
X138020480Y-111545913D01*
X138073207Y-111454587D01*
X138100500Y-111352727D01*
X138100500Y-111247273D01*
X138073207Y-111145413D01*
X138020480Y-111054087D01*
X137945913Y-110979520D01*
X137854587Y-110926793D01*
X137752727Y-110899500D01*
X137647273Y-110899500D01*
X137545413Y-110926793D01*
X137545410Y-110926794D01*
X137454085Y-110979521D01*
X137379521Y-111054085D01*
X137326794Y-111145410D01*
X137326793Y-111145413D01*
X137299500Y-111247273D01*
X137299500Y-111294876D01*
X137279815Y-111361915D01*
X137263181Y-111382557D01*
X137040670Y-111605066D01*
X137040661Y-111605078D01*
X136987636Y-111658103D01*
X136949500Y-111750170D01*
X136949500Y-114032745D01*
X136929815Y-114099784D01*
X136913181Y-114120426D01*
X136879521Y-114154085D01*
X136826794Y-114245410D01*
X136826793Y-114245413D01*
X136799500Y-114347273D01*
X130001534Y-114347273D01*
X129344477Y-113690216D01*
X129310992Y-113628893D01*
X129315976Y-113559201D01*
X129357848Y-113503268D01*
X129423312Y-113478851D01*
X129464245Y-113482759D01*
X129543719Y-113504054D01*
X129543722Y-113504054D01*
X129649171Y-113504054D01*
X129649173Y-113504054D01*
X129751033Y-113476761D01*
X129842359Y-113424034D01*
X129916926Y-113349467D01*
X129937985Y-113312990D01*
X129988549Y-113264778D01*
X130057156Y-113251554D01*
X130122021Y-113277522D01*
X130133051Y-113287312D01*
X130463181Y-113617442D01*
X130496666Y-113678765D01*
X130499500Y-113705123D01*
X130499500Y-113752727D01*
X130526793Y-113854587D01*
X130579520Y-113945913D01*
X130654087Y-114020480D01*
X130745413Y-114073207D01*
X130847273Y-114100500D01*
X130847275Y-114100500D01*
X130952725Y-114100500D01*
X130952727Y-114100500D01*
X131054587Y-114073207D01*
X131145913Y-114020480D01*
X131220480Y-113945913D01*
X131273207Y-113854587D01*
X131300500Y-113752727D01*
X131300500Y-113647273D01*
X131273207Y-113545413D01*
X131220480Y-113454087D01*
X131145913Y-113379520D01*
X131054587Y-113326793D01*
X130952727Y-113299500D01*
X130952726Y-113299500D01*
X130905123Y-113299500D01*
X130838084Y-113279815D01*
X130817442Y-113263181D01*
X128401534Y-110847273D01*
X129399500Y-110847273D01*
X129399500Y-110952727D01*
X129426793Y-111054587D01*
X129479520Y-111145913D01*
X129554087Y-111220480D01*
X129645413Y-111273207D01*
X129747273Y-111300500D01*
X129747275Y-111300500D01*
X129852725Y-111300500D01*
X129852727Y-111300500D01*
X129954587Y-111273207D01*
X130045913Y-111220480D01*
X130079574Y-111186819D01*
X130140897Y-111153334D01*
X130167255Y-111150500D01*
X132044877Y-111150500D01*
X132111916Y-111170185D01*
X132132558Y-111186819D01*
X132963181Y-112017442D01*
X132996666Y-112078765D01*
X132999500Y-112105123D01*
X132999500Y-112152727D01*
X133026793Y-112254587D01*
X133079520Y-112345913D01*
X133154087Y-112420480D01*
X133245413Y-112473207D01*
X133347273Y-112500500D01*
X133347275Y-112500500D01*
X133452725Y-112500500D01*
X133452727Y-112500500D01*
X133554587Y-112473207D01*
X133645913Y-112420480D01*
X133720480Y-112345913D01*
X133773207Y-112254587D01*
X133800500Y-112152727D01*
X133800500Y-112047273D01*
X133773207Y-111945413D01*
X133720480Y-111854087D01*
X133645913Y-111779520D01*
X133554587Y-111726793D01*
X133452727Y-111699500D01*
X133452726Y-111699500D01*
X133405123Y-111699500D01*
X133338084Y-111679815D01*
X133317442Y-111663181D01*
X132341897Y-110687636D01*
X132249829Y-110649500D01*
X132249828Y-110649500D01*
X130167255Y-110649500D01*
X130100216Y-110629815D01*
X130079574Y-110613181D01*
X130045914Y-110579521D01*
X130045913Y-110579520D01*
X129954587Y-110526793D01*
X129852727Y-110499500D01*
X129747273Y-110499500D01*
X129645413Y-110526793D01*
X129645410Y-110526794D01*
X129554085Y-110579521D01*
X129479521Y-110654085D01*
X129426794Y-110745410D01*
X129426793Y-110745413D01*
X129399500Y-110847273D01*
X128401534Y-110847273D01*
X127941897Y-110387636D01*
X127849829Y-110349500D01*
X127849828Y-110349500D01*
X123849830Y-110349500D01*
X123849828Y-110349499D01*
X123750173Y-110349499D01*
X123696240Y-110371839D01*
X123682064Y-110377710D01*
X123682062Y-110377711D01*
X123652249Y-110390061D01*
X123604796Y-110399500D01*
X123547273Y-110399500D01*
X123445413Y-110426793D01*
X123445410Y-110426794D01*
X123354085Y-110479521D01*
X123279521Y-110554085D01*
X123226794Y-110645410D01*
X123226793Y-110645413D01*
X123199500Y-110747273D01*
X79000000Y-110747273D01*
X79000000Y-106418475D01*
X95679500Y-106418475D01*
X95679500Y-109581517D01*
X95690292Y-109649657D01*
X95694354Y-109675304D01*
X95751950Y-109788342D01*
X95751952Y-109788344D01*
X95751954Y-109788347D01*
X95841652Y-109878045D01*
X95841654Y-109878046D01*
X95841658Y-109878050D01*
X95954694Y-109935645D01*
X95954698Y-109935647D01*
X96048475Y-109950499D01*
X96048481Y-109950500D01*
X97951518Y-109950499D01*
X98045304Y-109935646D01*
X98158342Y-109878050D01*
X98248050Y-109788342D01*
X98305646Y-109675304D01*
X98305646Y-109675302D01*
X98305647Y-109675301D01*
X98320499Y-109581524D01*
X98320500Y-109581519D01*
X98320500Y-109147273D01*
X138299500Y-109147273D01*
X138299500Y-109252726D01*
X138326793Y-109354589D01*
X138353156Y-109400250D01*
X138379520Y-109445913D01*
X138379521Y-109445914D01*
X138379522Y-109445915D01*
X139975179Y-111041571D01*
X139975189Y-111041582D01*
X139979519Y-111045912D01*
X139979520Y-111045913D01*
X140054087Y-111120480D01*
X140112296Y-111154087D01*
X140145413Y-111173207D01*
X140247273Y-111200501D01*
X140247275Y-111200501D01*
X140360323Y-111200501D01*
X140360339Y-111200500D01*
X150452725Y-111200500D01*
X150452727Y-111200500D01*
X150554587Y-111173207D01*
X150645913Y-111120480D01*
X150720480Y-111045913D01*
X150773207Y-110954587D01*
X150800500Y-110852727D01*
X150800500Y-110747273D01*
X150773207Y-110645413D01*
X150720480Y-110554087D01*
X150645913Y-110479520D01*
X150554587Y-110426793D01*
X150452727Y-110399500D01*
X150452726Y-110399500D01*
X140517254Y-110399500D01*
X140450215Y-110379815D01*
X140429573Y-110363181D01*
X138945915Y-108879522D01*
X138945914Y-108879521D01*
X138945913Y-108879520D01*
X138894517Y-108849846D01*
X138854589Y-108826793D01*
X138803657Y-108813146D01*
X138752727Y-108799500D01*
X138647273Y-108799500D01*
X138545410Y-108826793D01*
X138454087Y-108879520D01*
X138454084Y-108879522D01*
X138379522Y-108954084D01*
X138379520Y-108954087D01*
X138326793Y-109045410D01*
X138299500Y-109147273D01*
X98320500Y-109147273D01*
X98320500Y-108989822D01*
X122799499Y-108989822D01*
X122808231Y-109033717D01*
X122808234Y-109033724D01*
X122816044Y-109045412D01*
X122841496Y-109083504D01*
X122891278Y-109116767D01*
X122891281Y-109116767D01*
X122891282Y-109116768D01*
X122935177Y-109125500D01*
X122935180Y-109125500D01*
X124664822Y-109125500D01*
X124708717Y-109116768D01*
X124708717Y-109116767D01*
X124708722Y-109116767D01*
X124758504Y-109083504D01*
X124791767Y-109033722D01*
X124797593Y-109004433D01*
X124800500Y-108989822D01*
X124800500Y-107623543D01*
X130099499Y-107623543D01*
X130137947Y-107816829D01*
X130137950Y-107816839D01*
X130213364Y-107998907D01*
X130213371Y-107998920D01*
X130322860Y-108162781D01*
X130322863Y-108162785D01*
X130462214Y-108302136D01*
X130462218Y-108302139D01*
X130626079Y-108411628D01*
X130626092Y-108411635D01*
X130808160Y-108487049D01*
X130808165Y-108487051D01*
X130808169Y-108487051D01*
X130808170Y-108487052D01*
X131001456Y-108525500D01*
X131001459Y-108525500D01*
X131198543Y-108525500D01*
X131332719Y-108498810D01*
X131391835Y-108487051D01*
X131573914Y-108411632D01*
X131737782Y-108302139D01*
X131877139Y-108162782D01*
X131986632Y-107998914D01*
X132062051Y-107816835D01*
X132081712Y-107717993D01*
X132100500Y-107623543D01*
X132639499Y-107623543D01*
X132677947Y-107816829D01*
X132677950Y-107816839D01*
X132753364Y-107998907D01*
X132753371Y-107998920D01*
X132862860Y-108162781D01*
X132862863Y-108162785D01*
X133002214Y-108302136D01*
X133002218Y-108302139D01*
X133166079Y-108411628D01*
X133166092Y-108411635D01*
X133348160Y-108487049D01*
X133348165Y-108487051D01*
X133348169Y-108487051D01*
X133348170Y-108487052D01*
X133541456Y-108525500D01*
X133541459Y-108525500D01*
X133738543Y-108525500D01*
X133872719Y-108498810D01*
X133931835Y-108487051D01*
X134113914Y-108411632D01*
X134277782Y-108302139D01*
X134417139Y-108162782D01*
X134526632Y-107998914D01*
X134591439Y-107842455D01*
X134635279Y-107788051D01*
X134701573Y-107765986D01*
X134769273Y-107783265D01*
X134816884Y-107834402D01*
X134830000Y-107889907D01*
X134830000Y-108422844D01*
X134836401Y-108482372D01*
X134836403Y-108482379D01*
X134886645Y-108617086D01*
X134886649Y-108617093D01*
X134972809Y-108732187D01*
X134972812Y-108732190D01*
X135087906Y-108818350D01*
X135087913Y-108818354D01*
X135222620Y-108868596D01*
X135222627Y-108868598D01*
X135282155Y-108874999D01*
X135282172Y-108875000D01*
X135930000Y-108875000D01*
X135930000Y-107958012D01*
X135987007Y-107990925D01*
X136114174Y-108025000D01*
X136245826Y-108025000D01*
X136372993Y-107990925D01*
X136430000Y-107958012D01*
X136430000Y-108875000D01*
X137077828Y-108875000D01*
X137077844Y-108874999D01*
X137137372Y-108868598D01*
X137137379Y-108868596D01*
X137272086Y-108818354D01*
X137272093Y-108818350D01*
X137387187Y-108732190D01*
X137387190Y-108732187D01*
X137473350Y-108617093D01*
X137473354Y-108617086D01*
X137497926Y-108551206D01*
X143243962Y-108551206D01*
X143243962Y-108656660D01*
X143271255Y-108758520D01*
X143323982Y-108849846D01*
X143398549Y-108924413D01*
X143489875Y-108977140D01*
X143591735Y-109004433D01*
X143591737Y-109004433D01*
X143697187Y-109004433D01*
X143697189Y-109004433D01*
X143799049Y-108977140D01*
X143890375Y-108924413D01*
X143964942Y-108849846D01*
X144017669Y-108758520D01*
X144039002Y-108678902D01*
X144075364Y-108619245D01*
X144138210Y-108588715D01*
X144207586Y-108597009D01*
X144261464Y-108641493D01*
X144266925Y-108651634D01*
X144267191Y-108651481D01*
X144271255Y-108658520D01*
X144323982Y-108749846D01*
X144398549Y-108824413D01*
X144489875Y-108877140D01*
X144591735Y-108904433D01*
X144639339Y-108904433D01*
X144706378Y-108924118D01*
X144727020Y-108940752D01*
X144831679Y-109045410D01*
X144928164Y-109141895D01*
X144928165Y-109141897D01*
X144998632Y-109212364D01*
X145036769Y-109228160D01*
X145090702Y-109250501D01*
X145090703Y-109250501D01*
X145204791Y-109250501D01*
X145204799Y-109250500D01*
X151049826Y-109250500D01*
X151049828Y-109250500D01*
X151141897Y-109212364D01*
X153851895Y-106502364D01*
X153851897Y-106502364D01*
X153922364Y-106431897D01*
X153945045Y-106377140D01*
X153960501Y-106339828D01*
X153960501Y-106240172D01*
X153960501Y-106230183D01*
X153960500Y-106230169D01*
X153960500Y-101062026D01*
X153980185Y-100994987D01*
X154032989Y-100949232D01*
X154037028Y-100947473D01*
X154130596Y-100908717D01*
X154183908Y-100886635D01*
X154183911Y-100886633D01*
X154183914Y-100886632D01*
X154347782Y-100777139D01*
X154487139Y-100637782D01*
X154596632Y-100473914D01*
X154672051Y-100291835D01*
X154679852Y-100252615D01*
X154712236Y-100190707D01*
X154772952Y-100156133D01*
X154842721Y-100159872D01*
X154899394Y-100200738D01*
X154923942Y-100257411D01*
X154933242Y-100316127D01*
X154933242Y-100316130D01*
X154998904Y-100518217D01*
X155095375Y-100707550D01*
X155134728Y-100761716D01*
X155767036Y-100129407D01*
X155784075Y-100192993D01*
X155849901Y-100307007D01*
X155942993Y-100400099D01*
X156057007Y-100465925D01*
X156120590Y-100482962D01*
X155488282Y-101115269D01*
X155488282Y-101115270D01*
X155542449Y-101154624D01*
X155731782Y-101251095D01*
X155933870Y-101316757D01*
X156143754Y-101350000D01*
X156356246Y-101350000D01*
X156566127Y-101316757D01*
X156566130Y-101316757D01*
X156768217Y-101251095D01*
X156957554Y-101154622D01*
X157011716Y-101115270D01*
X157011717Y-101115270D01*
X156379408Y-100482962D01*
X156442993Y-100465925D01*
X156557007Y-100400099D01*
X156650099Y-100307007D01*
X156715925Y-100192993D01*
X156732962Y-100129409D01*
X157365270Y-100761717D01*
X157365270Y-100761716D01*
X157404622Y-100707554D01*
X157501095Y-100518217D01*
X157566755Y-100316134D01*
X157576056Y-100257412D01*
X157605985Y-100194277D01*
X157665296Y-100157346D01*
X157735159Y-100158342D01*
X157793392Y-100196952D01*
X157820147Y-100252616D01*
X157827947Y-100291830D01*
X157827950Y-100291839D01*
X157903364Y-100473907D01*
X157903371Y-100473920D01*
X158012860Y-100637781D01*
X158012863Y-100637785D01*
X158152217Y-100777139D01*
X158245925Y-100839752D01*
X158316086Y-100886632D01*
X158316092Y-100886634D01*
X158321457Y-100889502D01*
X158320453Y-100891378D01*
X158367355Y-100929173D01*
X158389421Y-100995467D01*
X158389500Y-100999895D01*
X158389500Y-102792745D01*
X158369815Y-102859784D01*
X158353181Y-102880426D01*
X154379522Y-106854084D01*
X154379520Y-106854087D01*
X154326793Y-106945410D01*
X154305468Y-107025000D01*
X154299500Y-107047273D01*
X154299500Y-107152727D01*
X154310781Y-107194830D01*
X154326793Y-107254589D01*
X154353156Y-107300250D01*
X154379520Y-107345913D01*
X154454087Y-107420480D01*
X154545412Y-107473207D01*
X154647273Y-107500500D01*
X154647275Y-107500500D01*
X154752725Y-107500500D01*
X154752727Y-107500500D01*
X154854588Y-107473207D01*
X154945913Y-107420480D01*
X159110480Y-103255913D01*
X159163206Y-103164588D01*
X159163207Y-103164587D01*
X159190500Y-103062727D01*
X159190500Y-100999895D01*
X159210185Y-100932856D01*
X159259073Y-100890494D01*
X159258543Y-100889502D01*
X159262914Y-100887165D01*
X159262989Y-100887101D01*
X159263238Y-100886992D01*
X159263902Y-100886636D01*
X159263914Y-100886632D01*
X159427782Y-100777139D01*
X159567139Y-100637782D01*
X159676632Y-100473914D01*
X159752051Y-100291835D01*
X159772167Y-100190707D01*
X159790500Y-100098543D01*
X159790500Y-99901456D01*
X159752052Y-99708170D01*
X159752051Y-99708167D01*
X159752051Y-99708165D01*
X159691217Y-99561297D01*
X159676635Y-99526092D01*
X159676628Y-99526079D01*
X159567139Y-99362218D01*
X159567136Y-99362214D01*
X159566103Y-99361181D01*
X159565734Y-99360506D01*
X159563274Y-99357508D01*
X159563842Y-99357041D01*
X159532618Y-99299858D01*
X159537602Y-99230166D01*
X159579474Y-99174233D01*
X159644938Y-99149816D01*
X159653784Y-99149500D01*
X160343877Y-99149500D01*
X160410916Y-99169185D01*
X160431558Y-99185819D01*
X161263181Y-100017442D01*
X161296666Y-100078765D01*
X161299500Y-100105123D01*
X161299500Y-100152727D01*
X161326793Y-100254587D01*
X161379520Y-100345913D01*
X161454087Y-100420480D01*
X161545413Y-100473207D01*
X161647273Y-100500500D01*
X161647275Y-100500500D01*
X161752725Y-100500500D01*
X161752727Y-100500500D01*
X161854587Y-100473207D01*
X161945913Y-100420480D01*
X162020480Y-100345913D01*
X162073207Y-100254587D01*
X162100500Y-100152727D01*
X162100500Y-100047273D01*
X162073207Y-99945413D01*
X162020480Y-99854087D01*
X161945913Y-99779520D01*
X161854587Y-99726793D01*
X161752727Y-99699500D01*
X161752726Y-99699500D01*
X161705123Y-99699500D01*
X161638084Y-99679815D01*
X161617442Y-99663181D01*
X160640897Y-98686636D01*
X160548829Y-98648500D01*
X160548828Y-98648500D01*
X154860828Y-98648500D01*
X154761172Y-98648500D01*
X154761170Y-98648500D01*
X154669102Y-98686636D01*
X154669101Y-98686637D01*
X154283835Y-99071902D01*
X154222512Y-99105387D01*
X154152820Y-99100403D01*
X154148702Y-99098782D01*
X154001839Y-99037950D01*
X154001829Y-99037947D01*
X153808543Y-98999500D01*
X153808541Y-98999500D01*
X153611459Y-98999500D01*
X153611457Y-98999500D01*
X153418170Y-99037947D01*
X153418160Y-99037950D01*
X153236092Y-99113364D01*
X153236079Y-99113371D01*
X153072218Y-99222860D01*
X153072214Y-99222863D01*
X152932863Y-99362214D01*
X152932860Y-99362218D01*
X152823371Y-99526079D01*
X152823364Y-99526092D01*
X152747950Y-99708160D01*
X152747947Y-99708170D01*
X152709500Y-99901456D01*
X152709500Y-99901459D01*
X152709500Y-100098541D01*
X152709500Y-100098543D01*
X152709499Y-100098543D01*
X152747947Y-100291829D01*
X152747950Y-100291839D01*
X152823364Y-100473907D01*
X152823371Y-100473920D01*
X152932860Y-100637781D01*
X152932863Y-100637785D01*
X153072214Y-100777136D01*
X153072218Y-100777139D01*
X153236079Y-100886628D01*
X153236091Y-100886635D01*
X153325724Y-100923761D01*
X153382953Y-100947465D01*
X153437356Y-100991305D01*
X153459421Y-101057599D01*
X153459500Y-101062026D01*
X153459500Y-106134877D01*
X153439815Y-106201916D01*
X153423181Y-106222558D01*
X150932558Y-108713181D01*
X150871235Y-108746666D01*
X150844877Y-108749500D01*
X145295651Y-108749500D01*
X145266210Y-108740855D01*
X145236224Y-108734332D01*
X145231208Y-108730577D01*
X145228612Y-108729815D01*
X145207975Y-108713185D01*
X145081279Y-108586489D01*
X145047796Y-108525168D01*
X145044962Y-108498810D01*
X145044962Y-108451208D01*
X145044962Y-108451206D01*
X145017669Y-108349346D01*
X144964942Y-108258020D01*
X144890375Y-108183453D01*
X144799049Y-108130726D01*
X144697189Y-108103433D01*
X144591735Y-108103433D01*
X144489875Y-108130726D01*
X144489872Y-108130727D01*
X144398547Y-108183454D01*
X144323983Y-108258018D01*
X144271256Y-108349343D01*
X144271255Y-108349346D01*
X144251562Y-108422844D01*
X144249923Y-108428960D01*
X144213558Y-108488621D01*
X144150711Y-108519150D01*
X144081336Y-108510855D01*
X144028281Y-108467572D01*
X144018950Y-108454129D01*
X144017669Y-108449346D01*
X143964942Y-108358020D01*
X143923425Y-108316503D01*
X143917095Y-108307383D01*
X143909430Y-108284342D01*
X143897796Y-108263036D01*
X143895624Y-108242843D01*
X143895040Y-108241085D01*
X143895318Y-108239994D01*
X143894962Y-108236678D01*
X143894962Y-107959056D01*
X143914647Y-107892017D01*
X143931281Y-107871375D01*
X145411904Y-106390752D01*
X145473227Y-106357267D01*
X145499585Y-106354433D01*
X150594288Y-106354433D01*
X150594290Y-106354433D01*
X150686359Y-106316297D01*
X151382364Y-105620292D01*
X151420500Y-105528223D01*
X151420500Y-105428568D01*
X151420500Y-101124500D01*
X151440185Y-101057461D01*
X151492989Y-101011706D01*
X151544500Y-101000500D01*
X152034822Y-101000500D01*
X152078717Y-100991768D01*
X152078717Y-100991767D01*
X152078722Y-100991767D01*
X152128504Y-100958504D01*
X152161767Y-100908722D01*
X152170500Y-100864820D01*
X152170500Y-99135180D01*
X152170500Y-99135177D01*
X152161768Y-99091282D01*
X152161767Y-99091281D01*
X152161767Y-99091278D01*
X152128504Y-99041496D01*
X152123197Y-99037950D01*
X152078724Y-99008234D01*
X152078717Y-99008231D01*
X152034822Y-98999500D01*
X152034820Y-98999500D01*
X150305180Y-98999500D01*
X150305178Y-98999500D01*
X150261282Y-99008231D01*
X150261275Y-99008234D01*
X150211496Y-99041495D01*
X150211495Y-99041496D01*
X150178234Y-99091275D01*
X150178231Y-99091282D01*
X150169500Y-99135177D01*
X150169500Y-99135180D01*
X150169500Y-100864820D01*
X150169500Y-100864822D01*
X150169499Y-100864822D01*
X150178231Y-100908717D01*
X150178234Y-100908724D01*
X150211495Y-100958503D01*
X150211496Y-100958504D01*
X150261278Y-100991767D01*
X150261281Y-100991767D01*
X150261282Y-100991768D01*
X150305177Y-101000500D01*
X150305180Y-101000500D01*
X150795500Y-101000500D01*
X150862539Y-101020185D01*
X150908294Y-101072989D01*
X150919500Y-101124500D01*
X150919500Y-105323272D01*
X150899815Y-105390311D01*
X150883181Y-105410953D01*
X150477020Y-105817114D01*
X150415697Y-105850599D01*
X150389339Y-105853433D01*
X145294632Y-105853433D01*
X145202564Y-105891569D01*
X143432098Y-107662035D01*
X143393962Y-107754103D01*
X143393962Y-108236678D01*
X143374277Y-108303717D01*
X143357643Y-108324359D01*
X143323983Y-108358018D01*
X143271256Y-108449343D01*
X143271255Y-108449346D01*
X143243962Y-108551206D01*
X137497926Y-108551206D01*
X137517120Y-108499746D01*
X137523597Y-108482378D01*
X137523598Y-108482372D01*
X137529999Y-108422844D01*
X137530000Y-108422827D01*
X137530000Y-107775000D01*
X136613012Y-107775000D01*
X136645925Y-107717993D01*
X136680000Y-107590826D01*
X136680000Y-107459174D01*
X136645925Y-107332007D01*
X136613012Y-107275000D01*
X137530000Y-107275000D01*
X137530000Y-106627172D01*
X137529999Y-106627155D01*
X137523598Y-106567627D01*
X137523596Y-106567620D01*
X137473354Y-106432913D01*
X137473350Y-106432906D01*
X137387190Y-106317812D01*
X137387187Y-106317809D01*
X137272093Y-106231649D01*
X137272086Y-106231645D01*
X137137379Y-106181403D01*
X137137372Y-106181401D01*
X137077844Y-106175000D01*
X136430000Y-106175000D01*
X136430000Y-107091988D01*
X136372993Y-107059075D01*
X136245826Y-107025000D01*
X136114174Y-107025000D01*
X135987007Y-107059075D01*
X135930000Y-107091988D01*
X135930000Y-106175000D01*
X135282155Y-106175000D01*
X135222627Y-106181401D01*
X135222620Y-106181403D01*
X135087913Y-106231645D01*
X135087906Y-106231649D01*
X134972812Y-106317809D01*
X134972809Y-106317812D01*
X134886649Y-106432906D01*
X134886645Y-106432913D01*
X134836403Y-106567620D01*
X134836401Y-106567627D01*
X134830000Y-106627155D01*
X134830000Y-107160092D01*
X134810315Y-107227131D01*
X134757511Y-107272886D01*
X134688353Y-107282830D01*
X134624797Y-107253805D01*
X134591439Y-107207544D01*
X134526635Y-107051092D01*
X134526628Y-107051079D01*
X134417139Y-106887218D01*
X134417136Y-106887214D01*
X134277785Y-106747863D01*
X134277781Y-106747860D01*
X134113920Y-106638371D01*
X134113907Y-106638364D01*
X133931839Y-106562950D01*
X133931829Y-106562947D01*
X133738543Y-106524500D01*
X133738541Y-106524500D01*
X133541459Y-106524500D01*
X133541457Y-106524500D01*
X133348170Y-106562947D01*
X133348160Y-106562950D01*
X133166092Y-106638364D01*
X133166079Y-106638371D01*
X133002218Y-106747860D01*
X133002214Y-106747863D01*
X132862863Y-106887214D01*
X132862860Y-106887218D01*
X132753371Y-107051079D01*
X132753364Y-107051092D01*
X132677950Y-107233160D01*
X132677947Y-107233170D01*
X132639500Y-107426456D01*
X132639500Y-107426459D01*
X132639500Y-107623541D01*
X132639500Y-107623543D01*
X132639499Y-107623543D01*
X132100500Y-107623543D01*
X132100500Y-107426456D01*
X132062052Y-107233170D01*
X132062051Y-107233169D01*
X132062051Y-107233165D01*
X132034436Y-107166495D01*
X131986635Y-107051092D01*
X131986628Y-107051079D01*
X131877139Y-106887218D01*
X131877136Y-106887214D01*
X131737785Y-106747863D01*
X131737781Y-106747860D01*
X131573920Y-106638371D01*
X131573907Y-106638364D01*
X131391839Y-106562950D01*
X131391829Y-106562947D01*
X131198543Y-106524500D01*
X131198541Y-106524500D01*
X131001459Y-106524500D01*
X131001457Y-106524500D01*
X130808170Y-106562947D01*
X130808160Y-106562950D01*
X130626092Y-106638364D01*
X130626079Y-106638371D01*
X130462218Y-106747860D01*
X130462214Y-106747863D01*
X130322863Y-106887214D01*
X130322860Y-106887218D01*
X130213371Y-107051079D01*
X130213364Y-107051092D01*
X130137950Y-107233160D01*
X130137947Y-107233170D01*
X130099500Y-107426456D01*
X130099500Y-107426459D01*
X130099500Y-107623541D01*
X130099500Y-107623543D01*
X130099499Y-107623543D01*
X124800500Y-107623543D01*
X124800500Y-107260177D01*
X124791768Y-107216282D01*
X124791767Y-107216281D01*
X124791767Y-107216278D01*
X124758504Y-107166496D01*
X124748920Y-107160092D01*
X124708724Y-107133234D01*
X124708717Y-107133231D01*
X124664822Y-107124500D01*
X124664820Y-107124500D01*
X122935180Y-107124500D01*
X122935178Y-107124500D01*
X122891282Y-107133231D01*
X122891275Y-107133234D01*
X122841496Y-107166495D01*
X122841495Y-107166496D01*
X122808234Y-107216275D01*
X122808231Y-107216282D01*
X122799500Y-107260177D01*
X122799500Y-107260180D01*
X122799500Y-108989820D01*
X122799500Y-108989822D01*
X122799499Y-108989822D01*
X98320500Y-108989822D01*
X98320499Y-106418482D01*
X98305646Y-106324696D01*
X98248050Y-106211658D01*
X98248046Y-106211654D01*
X98248045Y-106211652D01*
X98158347Y-106121954D01*
X98158344Y-106121952D01*
X98158342Y-106121950D01*
X98070394Y-106077138D01*
X98045301Y-106064352D01*
X97951524Y-106049500D01*
X96048482Y-106049500D01*
X95967519Y-106062323D01*
X95954696Y-106064354D01*
X95841658Y-106121950D01*
X95841657Y-106121951D01*
X95841652Y-106121954D01*
X95751954Y-106211652D01*
X95751951Y-106211657D01*
X95694352Y-106324698D01*
X95679500Y-106418475D01*
X79000000Y-106418475D01*
X79000000Y-99653094D01*
X108289499Y-99653094D01*
X108298231Y-99696989D01*
X108298234Y-99696996D01*
X108324223Y-99735891D01*
X108331496Y-99746776D01*
X108381278Y-99780039D01*
X108381281Y-99780039D01*
X108381282Y-99780040D01*
X108425177Y-99788772D01*
X108425180Y-99788772D01*
X109454822Y-99788772D01*
X109498717Y-99780040D01*
X109498717Y-99780039D01*
X109498722Y-99780039D01*
X109548504Y-99746776D01*
X109581767Y-99696994D01*
X109590500Y-99653092D01*
X109590500Y-97415122D01*
X109610185Y-97348083D01*
X109626819Y-97327441D01*
X110106566Y-96847694D01*
X110627037Y-96327222D01*
X110688358Y-96293739D01*
X110758050Y-96298723D01*
X110813983Y-96340595D01*
X110838400Y-96406059D01*
X110836333Y-96439096D01*
X110829500Y-96473447D01*
X110829500Y-97773216D01*
X110809815Y-97840255D01*
X110757011Y-97886010D01*
X110687853Y-97895954D01*
X110624297Y-97866929D01*
X110617819Y-97860897D01*
X110540376Y-97783454D01*
X110540375Y-97783453D01*
X110453774Y-97733454D01*
X110449051Y-97730727D01*
X110449050Y-97730726D01*
X110449049Y-97730726D01*
X110347189Y-97703433D01*
X110241735Y-97703433D01*
X110139875Y-97730726D01*
X110139872Y-97730727D01*
X110048547Y-97783454D01*
X109973983Y-97858018D01*
X109921256Y-97949343D01*
X109921256Y-97949344D01*
X109921255Y-97949346D01*
X109893962Y-98051206D01*
X109893962Y-98156660D01*
X109921255Y-98258520D01*
X109973982Y-98349846D01*
X110048549Y-98424413D01*
X110139875Y-98477140D01*
X110241735Y-98504433D01*
X110241737Y-98504433D01*
X110347187Y-98504433D01*
X110347189Y-98504433D01*
X110449049Y-98477140D01*
X110523220Y-98434316D01*
X110538706Y-98430167D01*
X110550283Y-98422728D01*
X110585218Y-98417705D01*
X110705500Y-98417705D01*
X110772539Y-98437390D01*
X110818294Y-98490194D01*
X110829500Y-98541705D01*
X110829500Y-99653092D01*
X110829500Y-99653094D01*
X110829499Y-99653094D01*
X110838231Y-99696989D01*
X110838234Y-99696996D01*
X110864223Y-99735891D01*
X110871496Y-99746776D01*
X110921278Y-99780039D01*
X110921281Y-99780039D01*
X110921282Y-99780040D01*
X110965177Y-99788772D01*
X110965180Y-99788772D01*
X111994822Y-99788772D01*
X112038717Y-99780040D01*
X112038717Y-99780039D01*
X112038722Y-99780039D01*
X112088504Y-99746776D01*
X112121767Y-99696994D01*
X112130500Y-99653092D01*
X112130500Y-98051206D01*
X112393962Y-98051206D01*
X112393962Y-98156660D01*
X112421255Y-98258520D01*
X112473982Y-98349846D01*
X112548549Y-98424413D01*
X112639875Y-98477140D01*
X112741735Y-98504433D01*
X112741737Y-98504433D01*
X112847187Y-98504433D01*
X112847189Y-98504433D01*
X112949049Y-98477140D01*
X113023220Y-98434316D01*
X113038706Y-98430167D01*
X113050283Y-98422728D01*
X113085218Y-98417705D01*
X113245500Y-98417705D01*
X113312539Y-98437390D01*
X113358294Y-98490194D01*
X113369500Y-98541705D01*
X113369500Y-99653092D01*
X113369500Y-99653094D01*
X113369499Y-99653094D01*
X113378231Y-99696989D01*
X113378234Y-99696996D01*
X113404223Y-99735891D01*
X113411496Y-99746776D01*
X113461278Y-99780039D01*
X113461281Y-99780039D01*
X113461282Y-99780040D01*
X113505177Y-99788772D01*
X113505180Y-99788772D01*
X114534822Y-99788772D01*
X114578717Y-99780040D01*
X114578717Y-99780039D01*
X114578722Y-99780039D01*
X114628504Y-99746776D01*
X114661767Y-99696994D01*
X114670500Y-99653092D01*
X114670500Y-98264561D01*
X114690185Y-98197522D01*
X114742989Y-98151767D01*
X114812147Y-98141823D01*
X114875703Y-98170848D01*
X114913477Y-98229626D01*
X114914263Y-98232426D01*
X114921255Y-98258520D01*
X114973982Y-98349846D01*
X115048549Y-98424413D01*
X115139875Y-98477140D01*
X115241735Y-98504433D01*
X115241737Y-98504433D01*
X115347187Y-98504433D01*
X115347189Y-98504433D01*
X115449049Y-98477140D01*
X115523220Y-98434316D01*
X115538706Y-98430167D01*
X115550283Y-98422728D01*
X115585218Y-98417705D01*
X115785500Y-98417705D01*
X115852539Y-98437390D01*
X115898294Y-98490194D01*
X115909500Y-98541705D01*
X115909500Y-99653092D01*
X115909500Y-99653094D01*
X115909499Y-99653094D01*
X115918231Y-99696989D01*
X115918234Y-99696996D01*
X115944223Y-99735891D01*
X115951496Y-99746776D01*
X116001278Y-99780039D01*
X116001281Y-99780039D01*
X116001282Y-99780040D01*
X116045177Y-99788772D01*
X116045180Y-99788772D01*
X117074822Y-99788772D01*
X117118717Y-99780040D01*
X117118717Y-99780039D01*
X117118722Y-99780039D01*
X117168504Y-99746776D01*
X117201767Y-99696994D01*
X117210500Y-99653092D01*
X117210500Y-98356255D01*
X117230185Y-98289216D01*
X117282989Y-98243461D01*
X117352147Y-98233517D01*
X117415703Y-98262542D01*
X117441885Y-98294253D01*
X117473982Y-98349846D01*
X117548549Y-98424413D01*
X117639875Y-98477140D01*
X117741735Y-98504433D01*
X117741737Y-98504433D01*
X117847187Y-98504433D01*
X117847189Y-98504433D01*
X117949049Y-98477140D01*
X118023220Y-98434316D01*
X118038706Y-98430167D01*
X118050283Y-98422728D01*
X118085218Y-98417705D01*
X118325500Y-98417705D01*
X118392539Y-98437390D01*
X118438294Y-98490194D01*
X118449500Y-98541705D01*
X118449500Y-99653092D01*
X118449500Y-99653094D01*
X118449499Y-99653094D01*
X118458231Y-99696989D01*
X118458234Y-99696996D01*
X118484223Y-99735891D01*
X118491496Y-99746776D01*
X118541278Y-99780039D01*
X118541281Y-99780039D01*
X118541282Y-99780040D01*
X118585177Y-99788772D01*
X118585180Y-99788772D01*
X119614822Y-99788772D01*
X119658717Y-99780040D01*
X119658717Y-99780039D01*
X119658722Y-99780039D01*
X119708504Y-99746776D01*
X119741767Y-99696994D01*
X119750500Y-99653092D01*
X119750500Y-98423889D01*
X119770185Y-98356850D01*
X119822989Y-98311095D01*
X119892147Y-98301151D01*
X119955703Y-98330176D01*
X119972882Y-98348410D01*
X119973977Y-98349837D01*
X119973982Y-98349846D01*
X120048549Y-98424413D01*
X120139875Y-98477140D01*
X120241735Y-98504433D01*
X120241737Y-98504433D01*
X120347187Y-98504433D01*
X120347189Y-98504433D01*
X120449049Y-98477140D01*
X120523220Y-98434316D01*
X120585218Y-98417705D01*
X120865500Y-98417705D01*
X120932539Y-98437390D01*
X120978294Y-98490194D01*
X120989500Y-98541705D01*
X120989500Y-99653092D01*
X120989500Y-99653094D01*
X120989499Y-99653094D01*
X120998231Y-99696989D01*
X120998234Y-99696996D01*
X121024223Y-99735891D01*
X121031496Y-99746776D01*
X121081278Y-99780039D01*
X121081281Y-99780039D01*
X121081282Y-99780040D01*
X121125177Y-99788772D01*
X121125180Y-99788772D01*
X122154822Y-99788772D01*
X122198717Y-99780040D01*
X122198717Y-99780039D01*
X122198722Y-99780039D01*
X122248504Y-99746776D01*
X122281767Y-99696994D01*
X122290500Y-99653092D01*
X122290500Y-98114478D01*
X122707234Y-98114478D01*
X122707234Y-98219932D01*
X122734527Y-98321792D01*
X122787254Y-98413118D01*
X122861821Y-98487685D01*
X122953147Y-98540412D01*
X123055007Y-98567705D01*
X123055009Y-98567705D01*
X123160459Y-98567705D01*
X123160461Y-98567705D01*
X123262321Y-98540412D01*
X123343501Y-98493542D01*
X123411399Y-98477069D01*
X123477426Y-98499921D01*
X123520617Y-98554842D01*
X123529500Y-98600929D01*
X123529500Y-99653092D01*
X123529500Y-99653094D01*
X123529499Y-99653094D01*
X123538231Y-99696989D01*
X123538234Y-99696996D01*
X123564223Y-99735891D01*
X123571496Y-99746776D01*
X123621278Y-99780039D01*
X123621281Y-99780039D01*
X123621282Y-99780040D01*
X123665177Y-99788772D01*
X123665180Y-99788772D01*
X124694822Y-99788772D01*
X124738717Y-99780040D01*
X124738717Y-99780039D01*
X124738722Y-99780039D01*
X124788504Y-99746776D01*
X124821767Y-99696994D01*
X124830500Y-99653092D01*
X124830500Y-96473452D01*
X124830500Y-96473449D01*
X124821768Y-96429554D01*
X124821767Y-96429553D01*
X124821767Y-96429550D01*
X124788504Y-96379768D01*
X124788503Y-96379767D01*
X124738724Y-96346506D01*
X124738717Y-96346503D01*
X124694822Y-96337772D01*
X124694820Y-96337772D01*
X123665180Y-96337772D01*
X123665178Y-96337772D01*
X123621282Y-96346503D01*
X123621275Y-96346506D01*
X123571496Y-96379767D01*
X123571495Y-96379768D01*
X123538234Y-96429547D01*
X123538231Y-96429554D01*
X123529500Y-96473449D01*
X123529500Y-97733480D01*
X123509815Y-97800519D01*
X123457011Y-97846274D01*
X123387853Y-97856218D01*
X123343501Y-97840867D01*
X123273616Y-97800519D01*
X123262323Y-97793999D01*
X123262322Y-97793998D01*
X123262321Y-97793998D01*
X123160461Y-97766705D01*
X123055007Y-97766705D01*
X122953147Y-97793998D01*
X122953144Y-97793999D01*
X122861819Y-97846726D01*
X122787255Y-97921290D01*
X122734528Y-98012615D01*
X122734527Y-98012618D01*
X122707234Y-98114478D01*
X122290500Y-98114478D01*
X122290500Y-96473452D01*
X122290500Y-96473449D01*
X122281768Y-96429554D01*
X122281767Y-96429553D01*
X122281767Y-96429550D01*
X122248504Y-96379768D01*
X122248503Y-96379767D01*
X122198724Y-96346506D01*
X122198717Y-96346503D01*
X122154822Y-96337772D01*
X122154820Y-96337772D01*
X121125180Y-96337772D01*
X121125178Y-96337772D01*
X121081282Y-96346503D01*
X121081275Y-96346506D01*
X121031496Y-96379767D01*
X121031495Y-96379768D01*
X120998234Y-96429547D01*
X120998231Y-96429554D01*
X120989500Y-96473449D01*
X120989500Y-97792705D01*
X120986949Y-97801390D01*
X120988238Y-97810352D01*
X120977259Y-97834392D01*
X120969815Y-97859744D01*
X120962974Y-97865671D01*
X120959213Y-97873908D01*
X120936978Y-97888197D01*
X120917011Y-97905499D01*
X120906496Y-97907786D01*
X120900435Y-97911682D01*
X120865500Y-97916705D01*
X120720415Y-97916705D01*
X120653376Y-97897020D01*
X120621303Y-97863384D01*
X120619890Y-97864469D01*
X120614944Y-97858023D01*
X120614942Y-97858020D01*
X120540375Y-97783453D01*
X120453774Y-97733454D01*
X120449051Y-97730727D01*
X120449050Y-97730726D01*
X120449049Y-97730726D01*
X120347189Y-97703433D01*
X120241735Y-97703433D01*
X120139875Y-97730726D01*
X120139872Y-97730727D01*
X120048547Y-97783454D01*
X119973984Y-97858017D01*
X119972877Y-97859461D01*
X119971631Y-97860370D01*
X119968235Y-97863767D01*
X119967705Y-97863237D01*
X119916450Y-97900664D01*
X119846704Y-97904820D01*
X119785783Y-97870609D01*
X119753029Y-97808892D01*
X119750500Y-97783976D01*
X119750500Y-96473449D01*
X119741768Y-96429554D01*
X119741767Y-96429553D01*
X119741767Y-96429550D01*
X119708504Y-96379768D01*
X119708503Y-96379767D01*
X119658724Y-96346506D01*
X119658717Y-96346503D01*
X119614822Y-96337772D01*
X119614820Y-96337772D01*
X118585180Y-96337772D01*
X118585178Y-96337772D01*
X118541282Y-96346503D01*
X118541275Y-96346506D01*
X118491496Y-96379767D01*
X118491495Y-96379768D01*
X118458234Y-96429547D01*
X118458231Y-96429554D01*
X118449500Y-96473449D01*
X118449500Y-97792705D01*
X118446949Y-97801390D01*
X118448238Y-97810352D01*
X118437259Y-97834392D01*
X118429815Y-97859744D01*
X118422974Y-97865671D01*
X118419213Y-97873908D01*
X118396978Y-97888197D01*
X118377011Y-97905499D01*
X118366496Y-97907786D01*
X118360435Y-97911682D01*
X118325500Y-97916705D01*
X118220415Y-97916705D01*
X118153376Y-97897020D01*
X118121303Y-97863384D01*
X118119890Y-97864469D01*
X118114944Y-97858023D01*
X118114942Y-97858020D01*
X118040375Y-97783453D01*
X117953774Y-97733454D01*
X117949051Y-97730727D01*
X117949050Y-97730726D01*
X117949049Y-97730726D01*
X117847189Y-97703433D01*
X117741735Y-97703433D01*
X117639875Y-97730726D01*
X117639872Y-97730727D01*
X117548547Y-97783454D01*
X117473984Y-97858017D01*
X117473982Y-97858019D01*
X117473982Y-97858020D01*
X117443001Y-97911682D01*
X117441887Y-97913611D01*
X117391319Y-97961826D01*
X117322712Y-97975048D01*
X117257847Y-97949080D01*
X117217320Y-97892165D01*
X117210500Y-97851610D01*
X117210500Y-96473449D01*
X117201768Y-96429554D01*
X117201767Y-96429553D01*
X117201767Y-96429550D01*
X117168504Y-96379768D01*
X117168503Y-96379767D01*
X117118724Y-96346506D01*
X117118717Y-96346503D01*
X117074822Y-96337772D01*
X117074820Y-96337772D01*
X116045180Y-96337772D01*
X116045178Y-96337772D01*
X116001282Y-96346503D01*
X116001275Y-96346506D01*
X115951496Y-96379767D01*
X115951495Y-96379768D01*
X115918234Y-96429547D01*
X115918231Y-96429554D01*
X115909500Y-96473449D01*
X115909500Y-97792705D01*
X115906949Y-97801390D01*
X115908238Y-97810352D01*
X115897259Y-97834392D01*
X115889815Y-97859744D01*
X115882974Y-97865671D01*
X115879213Y-97873908D01*
X115856978Y-97888197D01*
X115837011Y-97905499D01*
X115826496Y-97907786D01*
X115820435Y-97911682D01*
X115785500Y-97916705D01*
X115720415Y-97916705D01*
X115653376Y-97897020D01*
X115621303Y-97863384D01*
X115619890Y-97864469D01*
X115614944Y-97858023D01*
X115614942Y-97858020D01*
X115540375Y-97783453D01*
X115453774Y-97733454D01*
X115449051Y-97730727D01*
X115449050Y-97730726D01*
X115449049Y-97730726D01*
X115347189Y-97703433D01*
X115241735Y-97703433D01*
X115139875Y-97730726D01*
X115139872Y-97730727D01*
X115048547Y-97783454D01*
X114973983Y-97858018D01*
X114921256Y-97949343D01*
X114921256Y-97949344D01*
X114921255Y-97949346D01*
X114914274Y-97975399D01*
X114877910Y-98035058D01*
X114815063Y-98065587D01*
X114745687Y-98057292D01*
X114691810Y-98012807D01*
X114670535Y-97946255D01*
X114670500Y-97943304D01*
X114670500Y-96473449D01*
X114661768Y-96429554D01*
X114661767Y-96429553D01*
X114661767Y-96429550D01*
X114628504Y-96379768D01*
X114628503Y-96379767D01*
X114578724Y-96346506D01*
X114578717Y-96346503D01*
X114534822Y-96337772D01*
X114534820Y-96337772D01*
X113505180Y-96337772D01*
X113505178Y-96337772D01*
X113461282Y-96346503D01*
X113461275Y-96346506D01*
X113411496Y-96379767D01*
X113411495Y-96379768D01*
X113378234Y-96429547D01*
X113378231Y-96429554D01*
X113369500Y-96473449D01*
X113369500Y-97792705D01*
X113366949Y-97801390D01*
X113368238Y-97810352D01*
X113357259Y-97834392D01*
X113349815Y-97859744D01*
X113342974Y-97865671D01*
X113339213Y-97873908D01*
X113316978Y-97888197D01*
X113297011Y-97905499D01*
X113286496Y-97907786D01*
X113280435Y-97911682D01*
X113245500Y-97916705D01*
X113220415Y-97916705D01*
X113153376Y-97897020D01*
X113121303Y-97863384D01*
X113119890Y-97864469D01*
X113114944Y-97858023D01*
X113114942Y-97858020D01*
X113040375Y-97783453D01*
X112953774Y-97733454D01*
X112949051Y-97730727D01*
X112949050Y-97730726D01*
X112949049Y-97730726D01*
X112847189Y-97703433D01*
X112741735Y-97703433D01*
X112639875Y-97730726D01*
X112639872Y-97730727D01*
X112548547Y-97783454D01*
X112473983Y-97858018D01*
X112421256Y-97949343D01*
X112421256Y-97949344D01*
X112421255Y-97949346D01*
X112393962Y-98051206D01*
X112130500Y-98051206D01*
X112130500Y-96473452D01*
X112130500Y-96473449D01*
X112121768Y-96429554D01*
X112121767Y-96429553D01*
X112121767Y-96429550D01*
X112088504Y-96379768D01*
X112088503Y-96379767D01*
X112038724Y-96346506D01*
X112038717Y-96346503D01*
X111994822Y-96337772D01*
X111994820Y-96337772D01*
X110965180Y-96337772D01*
X110965175Y-96337772D01*
X110930824Y-96344605D01*
X110861232Y-96338378D01*
X110806055Y-96295514D01*
X110782811Y-96229625D01*
X110798879Y-96161628D01*
X110818945Y-96135314D01*
X110883510Y-96070749D01*
X110944832Y-96037267D01*
X110971189Y-96034433D01*
X127069339Y-96034433D01*
X127098779Y-96043077D01*
X127128766Y-96049601D01*
X127133781Y-96053355D01*
X127136378Y-96054118D01*
X127157019Y-96070751D01*
X127212359Y-96126091D01*
X127245844Y-96187414D01*
X127240860Y-96257106D01*
X127198988Y-96313039D01*
X127133524Y-96337456D01*
X127124678Y-96337772D01*
X126205178Y-96337772D01*
X126161282Y-96346503D01*
X126161275Y-96346506D01*
X126111496Y-96379767D01*
X126111495Y-96379768D01*
X126078234Y-96429547D01*
X126078231Y-96429554D01*
X126069500Y-96473449D01*
X126069500Y-97763216D01*
X126049815Y-97830255D01*
X125997011Y-97876010D01*
X125927853Y-97885954D01*
X125864297Y-97856929D01*
X125857819Y-97850897D01*
X125853648Y-97846726D01*
X125853647Y-97846725D01*
X125773616Y-97800519D01*
X125762323Y-97793999D01*
X125762322Y-97793998D01*
X125762321Y-97793998D01*
X125660461Y-97766705D01*
X125555007Y-97766705D01*
X125453147Y-97793998D01*
X125453144Y-97793999D01*
X125361819Y-97846726D01*
X125287255Y-97921290D01*
X125234528Y-98012615D01*
X125234527Y-98012618D01*
X125207234Y-98114478D01*
X125207234Y-98219932D01*
X125234527Y-98321792D01*
X125287254Y-98413118D01*
X125361821Y-98487685D01*
X125453147Y-98540412D01*
X125555007Y-98567705D01*
X125555009Y-98567705D01*
X125660459Y-98567705D01*
X125660461Y-98567705D01*
X125762321Y-98540412D01*
X125853647Y-98487685D01*
X125857819Y-98483513D01*
X125919142Y-98450028D01*
X125988834Y-98455012D01*
X126044767Y-98496884D01*
X126069184Y-98562348D01*
X126069500Y-98571194D01*
X126069500Y-99653092D01*
X126069500Y-99653094D01*
X126069499Y-99653094D01*
X126078231Y-99696989D01*
X126078234Y-99696996D01*
X126104223Y-99735891D01*
X126111496Y-99746776D01*
X126161278Y-99780039D01*
X126161281Y-99780039D01*
X126161282Y-99780040D01*
X126205177Y-99788772D01*
X126205180Y-99788772D01*
X127234822Y-99788772D01*
X127278717Y-99780040D01*
X127278717Y-99780039D01*
X127278722Y-99780039D01*
X127328504Y-99746776D01*
X127361767Y-99696994D01*
X127370500Y-99653092D01*
X127370500Y-96583594D01*
X127390185Y-96516555D01*
X127442989Y-96470800D01*
X127512147Y-96460856D01*
X127575703Y-96489881D01*
X127582181Y-96495913D01*
X127897643Y-96811375D01*
X127931128Y-96872698D01*
X127933962Y-96899056D01*
X127933962Y-100923762D01*
X127965748Y-101000500D01*
X127972098Y-101015830D01*
X128821565Y-101865297D01*
X128913634Y-101903433D01*
X129013289Y-101903433D01*
X137738339Y-101903433D01*
X137805378Y-101923118D01*
X137826020Y-101939752D01*
X140008643Y-104122375D01*
X140042128Y-104183698D01*
X140044962Y-104210056D01*
X140044962Y-106794022D01*
X140025277Y-106861061D01*
X139972473Y-106906816D01*
X139953056Y-106913797D01*
X139889873Y-106930726D01*
X139889872Y-106930727D01*
X139798547Y-106983454D01*
X139723983Y-107058018D01*
X139671256Y-107149343D01*
X139671255Y-107149346D01*
X139643962Y-107251206D01*
X139643962Y-107356660D01*
X139662665Y-107426459D01*
X139671255Y-107458519D01*
X139671256Y-107458522D01*
X139685384Y-107482992D01*
X139723982Y-107549846D01*
X139798549Y-107624413D01*
X139889875Y-107677140D01*
X139991735Y-107704433D01*
X139991737Y-107704433D01*
X140097187Y-107704433D01*
X140097189Y-107704433D01*
X140199049Y-107677140D01*
X140290375Y-107624413D01*
X140364942Y-107549846D01*
X140417669Y-107458520D01*
X140444962Y-107356660D01*
X140444962Y-107309056D01*
X140463335Y-107244102D01*
X140470969Y-107231686D01*
X140507826Y-107194830D01*
X140533340Y-107133233D01*
X140545963Y-107102760D01*
X140545963Y-107003105D01*
X140545963Y-106993116D01*
X140545962Y-106993102D01*
X140545962Y-105678433D01*
X140548512Y-105669747D01*
X140547224Y-105660786D01*
X140558202Y-105636745D01*
X140565647Y-105611394D01*
X140572487Y-105605466D01*
X140576249Y-105597230D01*
X140598483Y-105582940D01*
X140618451Y-105565639D01*
X140628965Y-105563351D01*
X140635027Y-105559456D01*
X140669962Y-105554433D01*
X140721759Y-105554433D01*
X140788798Y-105574118D01*
X140834553Y-105626922D01*
X140840910Y-105649064D01*
X140841859Y-105648810D01*
X140843962Y-105656658D01*
X140843962Y-105656660D01*
X140871255Y-105758520D01*
X140923982Y-105849846D01*
X140998549Y-105924413D01*
X141089875Y-105977140D01*
X141191735Y-106004433D01*
X141191737Y-106004433D01*
X141297187Y-106004433D01*
X141297189Y-106004433D01*
X141399049Y-105977140D01*
X141490375Y-105924413D01*
X141564942Y-105849846D01*
X141617669Y-105758520D01*
X141617669Y-105758519D01*
X141621733Y-105751481D01*
X141624176Y-105752891D01*
X141659411Y-105709154D01*
X141725701Y-105687078D01*
X141793403Y-105704346D01*
X141841023Y-105755475D01*
X141849921Y-105778900D01*
X141871255Y-105858520D01*
X141923982Y-105949846D01*
X141998549Y-106024413D01*
X142089875Y-106077140D01*
X142191735Y-106104433D01*
X142191737Y-106104433D01*
X142297187Y-106104433D01*
X142297189Y-106104433D01*
X142399049Y-106077140D01*
X142490375Y-106024413D01*
X142564942Y-105949846D01*
X142617669Y-105858520D01*
X142644962Y-105756660D01*
X142644962Y-105651206D01*
X142617669Y-105549346D01*
X142564942Y-105458020D01*
X142490375Y-105383453D01*
X142467261Y-105370108D01*
X142441584Y-105350406D01*
X142386359Y-105295181D01*
X142386357Y-105295180D01*
X141757291Y-104666114D01*
X141723806Y-104604791D01*
X141728790Y-104535099D01*
X141770662Y-104479166D01*
X141836126Y-104454749D01*
X141844972Y-104454433D01*
X141989339Y-104454433D01*
X142056378Y-104474118D01*
X142077020Y-104490752D01*
X143507643Y-105921375D01*
X143541128Y-105982698D01*
X143543962Y-106009056D01*
X143543962Y-106056660D01*
X143571255Y-106158520D01*
X143623982Y-106249846D01*
X143698549Y-106324413D01*
X143789875Y-106377140D01*
X143891735Y-106404433D01*
X143891737Y-106404433D01*
X143997187Y-106404433D01*
X143997189Y-106404433D01*
X144099049Y-106377140D01*
X144190375Y-106324413D01*
X144264942Y-106249846D01*
X144317669Y-106158520D01*
X144344962Y-106056660D01*
X144344962Y-105951206D01*
X144317669Y-105849346D01*
X144264942Y-105758020D01*
X144190375Y-105683453D01*
X144099049Y-105630726D01*
X143997189Y-105603433D01*
X143997188Y-105603433D01*
X143949585Y-105603433D01*
X143882546Y-105583748D01*
X143861904Y-105567114D01*
X142286359Y-103991569D01*
X142194291Y-103953433D01*
X142194290Y-103953433D01*
X141599584Y-103953433D01*
X141532545Y-103933748D01*
X141511903Y-103917114D01*
X140387534Y-102792745D01*
X138333359Y-100738569D01*
X138241291Y-100700433D01*
X138241290Y-100700433D01*
X134783312Y-100700433D01*
X134716273Y-100680748D01*
X134695631Y-100664114D01*
X134031970Y-100000453D01*
X133998485Y-99939130D01*
X134003469Y-99869438D01*
X134045341Y-99813505D01*
X134110805Y-99789088D01*
X134119651Y-99788772D01*
X134854822Y-99788772D01*
X134898717Y-99780040D01*
X134898717Y-99780039D01*
X134898722Y-99780039D01*
X134948504Y-99746776D01*
X134981767Y-99696994D01*
X134990500Y-99653094D01*
X136229499Y-99653094D01*
X136238231Y-99696989D01*
X136238234Y-99696996D01*
X136264223Y-99735891D01*
X136271496Y-99746776D01*
X136321278Y-99780039D01*
X136321281Y-99780039D01*
X136321282Y-99780040D01*
X136365177Y-99788772D01*
X136365180Y-99788772D01*
X137394822Y-99788772D01*
X137438717Y-99780040D01*
X137438717Y-99780039D01*
X137438722Y-99780039D01*
X137488504Y-99746776D01*
X137521767Y-99696994D01*
X137530500Y-99653094D01*
X138769499Y-99653094D01*
X138778231Y-99696989D01*
X138778234Y-99696996D01*
X138804223Y-99735891D01*
X138811496Y-99746776D01*
X138861278Y-99780039D01*
X138861281Y-99780039D01*
X138861282Y-99780040D01*
X138905177Y-99788772D01*
X138905180Y-99788772D01*
X139934822Y-99788772D01*
X139978717Y-99780040D01*
X139978717Y-99780039D01*
X139978722Y-99780039D01*
X140028504Y-99746776D01*
X140061767Y-99696994D01*
X140070500Y-99653094D01*
X141309499Y-99653094D01*
X141318231Y-99696989D01*
X141318234Y-99696996D01*
X141344223Y-99735891D01*
X141351496Y-99746776D01*
X141401278Y-99780039D01*
X141401281Y-99780039D01*
X141401282Y-99780040D01*
X141445177Y-99788772D01*
X141445180Y-99788772D01*
X142474822Y-99788772D01*
X142518717Y-99780040D01*
X142518717Y-99780039D01*
X142518722Y-99780039D01*
X142568504Y-99746776D01*
X142601767Y-99696994D01*
X142610500Y-99653094D01*
X143849499Y-99653094D01*
X143858231Y-99696989D01*
X143858234Y-99696996D01*
X143884223Y-99735891D01*
X143891496Y-99746776D01*
X143941278Y-99780039D01*
X143941281Y-99780039D01*
X143941282Y-99780040D01*
X143985177Y-99788772D01*
X143985180Y-99788772D01*
X145014822Y-99788772D01*
X145058717Y-99780040D01*
X145058717Y-99780039D01*
X145058722Y-99780039D01*
X145108504Y-99746776D01*
X145141767Y-99696994D01*
X145150500Y-99653094D01*
X146389499Y-99653094D01*
X146398231Y-99696989D01*
X146398234Y-99696996D01*
X146424223Y-99735891D01*
X146431496Y-99746776D01*
X146481278Y-99780039D01*
X146481281Y-99780039D01*
X146481282Y-99780040D01*
X146525177Y-99788772D01*
X146525180Y-99788772D01*
X147554822Y-99788772D01*
X147598717Y-99780040D01*
X147598717Y-99780039D01*
X147598722Y-99780039D01*
X147648504Y-99746776D01*
X147681767Y-99696994D01*
X147690500Y-99653092D01*
X147690500Y-98528433D01*
X147693050Y-98519747D01*
X147691762Y-98510786D01*
X147702740Y-98486745D01*
X147710185Y-98461394D01*
X147717025Y-98455466D01*
X147720787Y-98447230D01*
X147743021Y-98432940D01*
X147762989Y-98415639D01*
X147773503Y-98413351D01*
X147779565Y-98409456D01*
X147814500Y-98404433D01*
X147877207Y-98404433D01*
X147944246Y-98424118D01*
X147964888Y-98440752D01*
X147998549Y-98474413D01*
X148089875Y-98527140D01*
X148191735Y-98554433D01*
X148191737Y-98554433D01*
X148297187Y-98554433D01*
X148297189Y-98554433D01*
X148399049Y-98527140D01*
X148490375Y-98474413D01*
X148564942Y-98399846D01*
X148617669Y-98308520D01*
X148644962Y-98206660D01*
X148644962Y-98101206D01*
X148617669Y-97999346D01*
X148564942Y-97908020D01*
X148490375Y-97833453D01*
X148411371Y-97787840D01*
X148399051Y-97780727D01*
X148399050Y-97780726D01*
X148399049Y-97780726D01*
X148297189Y-97753433D01*
X148191735Y-97753433D01*
X148089875Y-97780726D01*
X148089872Y-97780727D01*
X147998547Y-97833454D01*
X147964888Y-97867114D01*
X147937960Y-97881817D01*
X147912142Y-97898410D01*
X147905941Y-97899301D01*
X147903565Y-97900599D01*
X147877207Y-97903433D01*
X147814500Y-97903433D01*
X147747461Y-97883748D01*
X147701706Y-97830944D01*
X147690500Y-97779433D01*
X147690500Y-96473449D01*
X147681768Y-96429554D01*
X147681767Y-96429553D01*
X147681767Y-96429550D01*
X147648504Y-96379768D01*
X147648503Y-96379767D01*
X147598724Y-96346506D01*
X147598717Y-96346503D01*
X147554822Y-96337772D01*
X147554820Y-96337772D01*
X146525180Y-96337772D01*
X146525178Y-96337772D01*
X146481282Y-96346503D01*
X146481275Y-96346506D01*
X146431496Y-96379767D01*
X146431495Y-96379768D01*
X146398234Y-96429547D01*
X146398231Y-96429554D01*
X146389500Y-96473449D01*
X146389500Y-96473452D01*
X146389500Y-99653092D01*
X146389500Y-99653094D01*
X146389499Y-99653094D01*
X145150500Y-99653094D01*
X145150500Y-99653092D01*
X145150500Y-98541705D01*
X145153050Y-98533019D01*
X145151762Y-98524058D01*
X145162740Y-98500017D01*
X145170185Y-98474666D01*
X145177025Y-98468738D01*
X145180787Y-98460502D01*
X145203021Y-98446212D01*
X145222989Y-98428911D01*
X145233503Y-98426623D01*
X145239565Y-98422728D01*
X145274500Y-98417705D01*
X145492432Y-98417705D01*
X145531885Y-98425552D01*
X145532024Y-98425036D01*
X145539873Y-98427139D01*
X145539875Y-98427140D01*
X145641735Y-98454433D01*
X145641737Y-98454433D01*
X145747187Y-98454433D01*
X145747189Y-98454433D01*
X145849049Y-98427140D01*
X145940375Y-98374413D01*
X146014942Y-98299846D01*
X146067669Y-98208520D01*
X146094962Y-98106660D01*
X146094962Y-98001206D01*
X146067669Y-97899346D01*
X146014942Y-97808020D01*
X145940375Y-97733453D01*
X145873521Y-97694855D01*
X145849051Y-97680727D01*
X145849050Y-97680726D01*
X145849049Y-97680726D01*
X145747189Y-97653433D01*
X145641735Y-97653433D01*
X145539875Y-97680726D01*
X145539872Y-97680727D01*
X145448547Y-97733454D01*
X145373984Y-97808017D01*
X145372877Y-97809461D01*
X145371631Y-97810370D01*
X145368235Y-97813767D01*
X145367705Y-97813237D01*
X145316450Y-97850664D01*
X145246704Y-97854820D01*
X145185783Y-97820609D01*
X145153029Y-97758892D01*
X145150500Y-97733976D01*
X145150500Y-96473449D01*
X145141768Y-96429554D01*
X145141767Y-96429553D01*
X145141767Y-96429550D01*
X145108504Y-96379768D01*
X145108503Y-96379767D01*
X145058724Y-96346506D01*
X145058717Y-96346503D01*
X145014822Y-96337772D01*
X145014820Y-96337772D01*
X143985180Y-96337772D01*
X143985178Y-96337772D01*
X143941282Y-96346503D01*
X143941275Y-96346506D01*
X143891496Y-96379767D01*
X143891495Y-96379768D01*
X143858234Y-96429547D01*
X143858231Y-96429554D01*
X143849500Y-96473449D01*
X143849500Y-96473452D01*
X143849500Y-99653092D01*
X143849500Y-99653094D01*
X143849499Y-99653094D01*
X142610500Y-99653094D01*
X142610500Y-99653092D01*
X142610500Y-98541705D01*
X142613050Y-98533019D01*
X142611762Y-98524058D01*
X142622740Y-98500017D01*
X142630185Y-98474666D01*
X142637025Y-98468738D01*
X142640787Y-98460502D01*
X142663021Y-98446212D01*
X142682989Y-98428911D01*
X142693503Y-98426623D01*
X142699565Y-98422728D01*
X142734500Y-98417705D01*
X142753706Y-98417705D01*
X142815703Y-98434316D01*
X142889875Y-98477140D01*
X142991735Y-98504433D01*
X142991737Y-98504433D01*
X143097187Y-98504433D01*
X143097189Y-98504433D01*
X143199049Y-98477140D01*
X143290375Y-98424413D01*
X143364942Y-98349846D01*
X143417669Y-98258520D01*
X143444962Y-98156660D01*
X143444962Y-98051206D01*
X143417669Y-97949346D01*
X143364942Y-97858020D01*
X143290375Y-97783453D01*
X143203774Y-97733454D01*
X143199051Y-97730727D01*
X143199050Y-97730726D01*
X143199049Y-97730726D01*
X143097189Y-97703433D01*
X142991735Y-97703433D01*
X142889875Y-97730726D01*
X142889872Y-97730727D01*
X142796500Y-97784636D01*
X142728600Y-97801109D01*
X142662573Y-97778256D01*
X142619382Y-97723335D01*
X142610500Y-97677249D01*
X142610500Y-96473449D01*
X142601768Y-96429554D01*
X142601767Y-96429553D01*
X142601767Y-96429550D01*
X142568504Y-96379768D01*
X142568503Y-96379767D01*
X142518724Y-96346506D01*
X142518717Y-96346503D01*
X142474822Y-96337772D01*
X142474820Y-96337772D01*
X141445180Y-96337772D01*
X141445178Y-96337772D01*
X141401282Y-96346503D01*
X141401275Y-96346506D01*
X141351496Y-96379767D01*
X141351495Y-96379768D01*
X141318234Y-96429547D01*
X141318231Y-96429554D01*
X141309500Y-96473449D01*
X141309500Y-96473452D01*
X141309500Y-99653092D01*
X141309500Y-99653094D01*
X141309499Y-99653094D01*
X140070500Y-99653094D01*
X140070500Y-99653092D01*
X140070500Y-98536389D01*
X140090185Y-98469350D01*
X140142989Y-98423595D01*
X140212147Y-98413651D01*
X140256496Y-98429001D01*
X140339875Y-98477140D01*
X140441735Y-98504433D01*
X140441737Y-98504433D01*
X140547187Y-98504433D01*
X140547189Y-98504433D01*
X140649049Y-98477140D01*
X140740375Y-98424413D01*
X140814942Y-98349846D01*
X140867669Y-98258520D01*
X140894962Y-98156660D01*
X140894962Y-98051206D01*
X140867669Y-97949346D01*
X140814942Y-97858020D01*
X140740375Y-97783453D01*
X140653774Y-97733454D01*
X140649051Y-97730727D01*
X140649050Y-97730726D01*
X140649049Y-97730726D01*
X140547189Y-97703433D01*
X140441735Y-97703433D01*
X140339875Y-97730726D01*
X140339872Y-97730727D01*
X140300545Y-97753433D01*
X140256498Y-97778863D01*
X140188600Y-97795336D01*
X140122573Y-97772484D01*
X140079383Y-97717563D01*
X140070500Y-97671476D01*
X140070500Y-96473449D01*
X140061768Y-96429554D01*
X140061767Y-96429553D01*
X140061767Y-96429550D01*
X140028504Y-96379768D01*
X140028503Y-96379767D01*
X139978724Y-96346506D01*
X139978717Y-96346503D01*
X139934822Y-96337772D01*
X139934820Y-96337772D01*
X138905180Y-96337772D01*
X138905178Y-96337772D01*
X138861282Y-96346503D01*
X138861275Y-96346506D01*
X138811496Y-96379767D01*
X138811495Y-96379768D01*
X138778234Y-96429547D01*
X138778231Y-96429554D01*
X138769500Y-96473449D01*
X138769500Y-96473452D01*
X138769500Y-99653092D01*
X138769500Y-99653094D01*
X138769499Y-99653094D01*
X137530500Y-99653094D01*
X137530500Y-99653092D01*
X137530500Y-98621031D01*
X137550185Y-98553992D01*
X137602989Y-98508237D01*
X137672147Y-98498293D01*
X137716500Y-98513644D01*
X137739875Y-98527140D01*
X137841735Y-98554433D01*
X137841737Y-98554433D01*
X137947187Y-98554433D01*
X137947189Y-98554433D01*
X138049049Y-98527140D01*
X138140375Y-98474413D01*
X138214942Y-98399846D01*
X138267669Y-98308520D01*
X138294962Y-98206660D01*
X138294962Y-98101206D01*
X138267669Y-97999346D01*
X138214942Y-97908020D01*
X138140375Y-97833453D01*
X138061371Y-97787840D01*
X138049051Y-97780727D01*
X138049050Y-97780726D01*
X138049049Y-97780726D01*
X137947189Y-97753433D01*
X137841735Y-97753433D01*
X137739875Y-97780726D01*
X137739874Y-97780726D01*
X137716499Y-97794222D01*
X137648598Y-97810693D01*
X137582572Y-97787840D01*
X137539382Y-97732919D01*
X137530500Y-97686834D01*
X137530500Y-96473449D01*
X137521768Y-96429554D01*
X137521767Y-96429553D01*
X137521767Y-96429550D01*
X137488504Y-96379768D01*
X137488503Y-96379767D01*
X137438724Y-96346506D01*
X137438717Y-96346503D01*
X137394822Y-96337772D01*
X137394820Y-96337772D01*
X136365180Y-96337772D01*
X136365178Y-96337772D01*
X136321282Y-96346503D01*
X136321275Y-96346506D01*
X136271496Y-96379767D01*
X136271495Y-96379768D01*
X136238234Y-96429547D01*
X136238231Y-96429554D01*
X136229500Y-96473449D01*
X136229500Y-96473452D01*
X136229500Y-99653092D01*
X136229500Y-99653094D01*
X136229499Y-99653094D01*
X134990500Y-99653094D01*
X134990500Y-99653092D01*
X134990500Y-98565726D01*
X135010185Y-98498687D01*
X135062989Y-98452932D01*
X135132147Y-98442988D01*
X135191585Y-98470132D01*
X135192099Y-98469464D01*
X135195006Y-98471694D01*
X135195703Y-98472013D01*
X135197023Y-98473242D01*
X135198545Y-98474410D01*
X135198547Y-98474411D01*
X135198549Y-98474413D01*
X135289875Y-98527140D01*
X135391735Y-98554433D01*
X135391737Y-98554433D01*
X135497187Y-98554433D01*
X135497189Y-98554433D01*
X135599049Y-98527140D01*
X135690375Y-98474413D01*
X135764942Y-98399846D01*
X135817669Y-98308520D01*
X135844962Y-98206660D01*
X135844962Y-98101206D01*
X135817669Y-97999346D01*
X135764942Y-97908020D01*
X135690375Y-97833453D01*
X135611371Y-97787840D01*
X135599051Y-97780727D01*
X135599050Y-97780726D01*
X135599049Y-97780726D01*
X135497189Y-97753433D01*
X135391735Y-97753433D01*
X135289875Y-97780726D01*
X135289872Y-97780727D01*
X135198545Y-97833455D01*
X135192099Y-97838402D01*
X135190435Y-97836234D01*
X135140858Y-97863306D01*
X135071166Y-97858322D01*
X135015233Y-97816450D01*
X134990816Y-97750986D01*
X134990500Y-97742140D01*
X134990500Y-96473449D01*
X134981768Y-96429554D01*
X134981767Y-96429553D01*
X134981767Y-96429550D01*
X134948504Y-96379768D01*
X134948503Y-96379767D01*
X134898724Y-96346506D01*
X134898717Y-96346503D01*
X134854822Y-96337772D01*
X134854820Y-96337772D01*
X133825180Y-96337772D01*
X133825178Y-96337772D01*
X133781282Y-96346503D01*
X133781275Y-96346506D01*
X133731496Y-96379767D01*
X133731495Y-96379768D01*
X133698234Y-96429547D01*
X133698231Y-96429554D01*
X133689500Y-96473449D01*
X133689500Y-99358620D01*
X133669815Y-99425659D01*
X133617011Y-99471414D01*
X133547853Y-99481358D01*
X133484297Y-99452333D01*
X133477819Y-99446301D01*
X132797632Y-98766114D01*
X132764147Y-98704791D01*
X132769131Y-98635099D01*
X132811003Y-98579166D01*
X132876467Y-98554749D01*
X132885313Y-98554433D01*
X132947187Y-98554433D01*
X132947189Y-98554433D01*
X133049049Y-98527140D01*
X133140375Y-98474413D01*
X133214942Y-98399846D01*
X133267669Y-98308520D01*
X133294962Y-98206660D01*
X133294962Y-98101206D01*
X133267669Y-97999346D01*
X133214942Y-97908020D01*
X133140375Y-97833453D01*
X133061371Y-97787840D01*
X133049051Y-97780727D01*
X133049050Y-97780726D01*
X133049049Y-97780726D01*
X132947189Y-97753433D01*
X132841735Y-97753433D01*
X132739875Y-97780726D01*
X132739872Y-97780727D01*
X132692604Y-97808018D01*
X132648549Y-97833453D01*
X132648547Y-97833454D01*
X132641511Y-97837517D01*
X132640620Y-97835974D01*
X132584801Y-97857545D01*
X132516358Y-97843498D01*
X132466374Y-97794677D01*
X132450500Y-97733974D01*
X132450500Y-96473449D01*
X132441768Y-96429554D01*
X132441767Y-96429553D01*
X132441767Y-96429550D01*
X132408504Y-96379768D01*
X132408503Y-96379767D01*
X132358724Y-96346506D01*
X132358717Y-96346503D01*
X132314822Y-96337772D01*
X132314820Y-96337772D01*
X131285180Y-96337772D01*
X131285178Y-96337772D01*
X131241282Y-96346503D01*
X131241275Y-96346506D01*
X131191496Y-96379767D01*
X131191495Y-96379768D01*
X131158234Y-96429547D01*
X131158231Y-96429554D01*
X131149500Y-96473449D01*
X131149500Y-99358620D01*
X131129815Y-99425659D01*
X131077011Y-99471414D01*
X131007853Y-99481358D01*
X130944297Y-99452333D01*
X130937819Y-99446301D01*
X130307632Y-98816114D01*
X130274147Y-98754791D01*
X130279131Y-98685099D01*
X130321003Y-98629166D01*
X130386467Y-98604749D01*
X130395313Y-98604433D01*
X130397187Y-98604433D01*
X130397189Y-98604433D01*
X130499049Y-98577140D01*
X130590375Y-98524413D01*
X130664942Y-98449846D01*
X130717669Y-98358520D01*
X130744962Y-98256660D01*
X130744962Y-98151206D01*
X130717669Y-98049346D01*
X130664942Y-97958020D01*
X130590375Y-97883453D01*
X130512344Y-97838402D01*
X130499051Y-97830727D01*
X130499050Y-97830726D01*
X130499049Y-97830726D01*
X130397189Y-97803433D01*
X130291735Y-97803433D01*
X130189875Y-97830726D01*
X130189872Y-97830727D01*
X130096500Y-97884636D01*
X130028600Y-97901109D01*
X129962573Y-97878256D01*
X129919382Y-97823335D01*
X129910500Y-97777249D01*
X129910500Y-96473449D01*
X129901768Y-96429554D01*
X129901767Y-96429553D01*
X129901767Y-96429550D01*
X129868504Y-96379768D01*
X129868503Y-96379767D01*
X129818724Y-96346506D01*
X129818717Y-96346503D01*
X129774822Y-96337772D01*
X129774820Y-96337772D01*
X128745180Y-96337772D01*
X128745178Y-96337772D01*
X128701282Y-96346503D01*
X128701275Y-96346506D01*
X128651496Y-96379767D01*
X128651495Y-96379768D01*
X128618234Y-96429547D01*
X128618231Y-96429554D01*
X128609500Y-96473449D01*
X128609500Y-96515348D01*
X128589815Y-96582387D01*
X128537011Y-96628142D01*
X128467853Y-96638086D01*
X128404297Y-96609061D01*
X128397819Y-96603029D01*
X127366359Y-95571569D01*
X127274291Y-95533433D01*
X127274290Y-95533433D01*
X110880337Y-95533433D01*
X110880329Y-95533432D01*
X110865895Y-95533432D01*
X110766240Y-95533432D01*
X110766239Y-95533432D01*
X110739273Y-95544602D01*
X110712307Y-95555772D01*
X110674170Y-95571569D01*
X110674168Y-95571570D01*
X110603702Y-95642037D01*
X109781651Y-96464087D01*
X109720328Y-96497572D01*
X109650636Y-96492588D01*
X109594703Y-96450716D01*
X109587743Y-96438493D01*
X109548504Y-96379768D01*
X109548503Y-96379767D01*
X109498724Y-96346506D01*
X109498717Y-96346503D01*
X109454822Y-96337772D01*
X109454820Y-96337772D01*
X108425180Y-96337772D01*
X108425178Y-96337772D01*
X108381282Y-96346503D01*
X108381275Y-96346506D01*
X108331496Y-96379767D01*
X108331495Y-96379768D01*
X108298234Y-96429547D01*
X108298231Y-96429554D01*
X108289500Y-96473449D01*
X108289500Y-96473452D01*
X108289500Y-99653092D01*
X108289500Y-99653094D01*
X108289499Y-99653094D01*
X79000000Y-99653094D01*
X79000000Y-93874038D01*
X101399500Y-93874038D01*
X101399500Y-94125961D01*
X101438910Y-94374785D01*
X101516760Y-94614383D01*
X101586424Y-94751105D01*
X101628379Y-94833446D01*
X101631132Y-94838848D01*
X101779201Y-95042649D01*
X101779205Y-95042654D01*
X101957345Y-95220794D01*
X101957350Y-95220798D01*
X102135117Y-95349952D01*
X102161155Y-95368870D01*
X102304184Y-95441747D01*
X102385616Y-95483239D01*
X102385618Y-95483239D01*
X102385621Y-95483241D01*
X102625215Y-95561090D01*
X102874038Y-95600500D01*
X102874039Y-95600500D01*
X103125961Y-95600500D01*
X103125962Y-95600500D01*
X103374785Y-95561090D01*
X103614379Y-95483241D01*
X103838845Y-95368870D01*
X104042656Y-95220793D01*
X104220793Y-95042656D01*
X104368870Y-94838845D01*
X104483241Y-94614379D01*
X104561090Y-94374785D01*
X104600500Y-94125962D01*
X104600500Y-93874038D01*
X104561090Y-93625215D01*
X104483241Y-93385621D01*
X104368870Y-93161155D01*
X104282776Y-93042656D01*
X104220798Y-92957350D01*
X104220794Y-92957345D01*
X104042654Y-92779205D01*
X104042649Y-92779201D01*
X103838848Y-92631132D01*
X103838847Y-92631131D01*
X103838845Y-92631130D01*
X103768747Y-92595413D01*
X103614383Y-92516760D01*
X103374785Y-92438910D01*
X103125962Y-92399500D01*
X102874038Y-92399500D01*
X102749626Y-92419205D01*
X102625214Y-92438910D01*
X102385616Y-92516760D01*
X102161151Y-92631132D01*
X101957350Y-92779201D01*
X101957345Y-92779205D01*
X101779205Y-92957345D01*
X101779201Y-92957350D01*
X101631132Y-93161151D01*
X101516760Y-93385616D01*
X101438910Y-93625214D01*
X101399500Y-93874038D01*
X79000000Y-93874038D01*
X79000000Y-91390427D01*
X107940000Y-91390427D01*
X107940000Y-92763272D01*
X108344462Y-92763272D01*
X108344462Y-93263272D01*
X107940000Y-93263272D01*
X107940000Y-94636116D01*
X107946401Y-94695644D01*
X107946403Y-94695651D01*
X107996645Y-94830358D01*
X107996649Y-94830365D01*
X108082809Y-94945459D01*
X108082812Y-94945462D01*
X108197906Y-95031622D01*
X108197913Y-95031626D01*
X108332620Y-95081868D01*
X108332627Y-95081870D01*
X108392155Y-95088271D01*
X108392172Y-95088272D01*
X108690000Y-95088272D01*
X108690000Y-94703933D01*
X109190000Y-94703933D01*
X109190000Y-95088272D01*
X109487828Y-95088272D01*
X109487844Y-95088271D01*
X109547372Y-95081870D01*
X109547379Y-95081868D01*
X109682086Y-95031626D01*
X109682093Y-95031622D01*
X109797187Y-94945462D01*
X109797190Y-94945459D01*
X109883350Y-94830365D01*
X109883354Y-94830358D01*
X109930507Y-94703933D01*
X110394462Y-94703933D01*
X110394462Y-94603094D01*
X110829499Y-94603094D01*
X110838231Y-94646989D01*
X110838234Y-94646996D01*
X110870744Y-94695651D01*
X110871496Y-94696776D01*
X110877966Y-94701099D01*
X110931434Y-94736825D01*
X110930480Y-94738251D01*
X110962408Y-94761271D01*
X110971909Y-94772236D01*
X110983901Y-94786076D01*
X110988884Y-94791556D01*
X111057607Y-94833446D01*
X111057612Y-94833449D01*
X111124651Y-94853134D01*
X111168462Y-94859433D01*
X111168465Y-94859433D01*
X114420453Y-94859433D01*
X114420462Y-94859433D01*
X114453517Y-94855879D01*
X114505028Y-94844673D01*
X114573804Y-94810246D01*
X114626608Y-94764491D01*
X114632083Y-94759513D01*
X114673978Y-94690783D01*
X114693663Y-94623744D01*
X114699962Y-94579933D01*
X114699962Y-91677933D01*
X114696408Y-91644878D01*
X114685202Y-91593367D01*
X114683614Y-91590196D01*
X114680919Y-91579564D01*
X114676721Y-91573476D01*
X114672147Y-91544965D01*
X114670565Y-91538723D01*
X114670500Y-91536723D01*
X114670500Y-91423452D01*
X114666617Y-91403933D01*
X115294462Y-91403933D01*
X115294462Y-94553933D01*
X115560000Y-94553933D01*
X115560000Y-94636116D01*
X115566401Y-94695644D01*
X115566403Y-94695651D01*
X115616645Y-94830358D01*
X115616649Y-94830365D01*
X115702809Y-94945459D01*
X115702812Y-94945462D01*
X115817906Y-95031622D01*
X115817913Y-95031626D01*
X115952620Y-95081868D01*
X115952627Y-95081870D01*
X116012155Y-95088271D01*
X116012172Y-95088272D01*
X116310000Y-95088272D01*
X116310000Y-94553933D01*
X116810000Y-94553933D01*
X116810000Y-95088272D01*
X117107828Y-95088272D01*
X117107844Y-95088271D01*
X117167372Y-95081870D01*
X117167379Y-95081868D01*
X117302086Y-95031626D01*
X117302093Y-95031622D01*
X117417187Y-94945462D01*
X117417190Y-94945459D01*
X117503350Y-94830365D01*
X117503354Y-94830358D01*
X117553596Y-94695651D01*
X117553598Y-94695644D01*
X117559999Y-94636116D01*
X117560000Y-94636099D01*
X117560000Y-93263272D01*
X117344462Y-93263272D01*
X117344462Y-92763272D01*
X117560000Y-92763272D01*
X117560000Y-91683424D01*
X118391092Y-91683424D01*
X118391312Y-91696626D01*
X118391311Y-91696630D01*
X118436958Y-94435417D01*
X118436959Y-94435426D01*
X118441998Y-94477355D01*
X118446442Y-94496993D01*
X118449500Y-94524360D01*
X118449500Y-94603092D01*
X118449500Y-94603094D01*
X118449499Y-94603094D01*
X118458231Y-94646989D01*
X118458234Y-94646996D01*
X118490744Y-94695651D01*
X118491496Y-94696776D01*
X118541278Y-94730039D01*
X118541281Y-94730039D01*
X118541282Y-94730040D01*
X118585177Y-94738772D01*
X118585180Y-94738772D01*
X118648674Y-94738772D01*
X118683611Y-94743796D01*
X118708503Y-94751105D01*
X118708506Y-94751105D01*
X118708515Y-94751108D01*
X118766413Y-94759433D01*
X118766417Y-94759433D01*
X127272511Y-94759433D01*
X127314519Y-94755094D01*
X127364144Y-94744731D01*
X127372685Y-94742756D01*
X127454102Y-94701098D01*
X127507661Y-94656230D01*
X127525909Y-94638938D01*
X127571879Y-94559875D01*
X127592678Y-94493172D01*
X127601965Y-94435424D01*
X127647832Y-91683424D01*
X127643521Y-91637989D01*
X127643520Y-91637984D01*
X127643520Y-91637981D01*
X127632337Y-91584437D01*
X127632332Y-91584412D01*
X127629488Y-91572560D01*
X127586478Y-91491848D01*
X127566093Y-91468322D01*
X127540729Y-91439050D01*
X127540722Y-91439043D01*
X127523135Y-91421093D01*
X127523134Y-91421092D01*
X127523132Y-91421090D01*
X127523130Y-91421089D01*
X127523128Y-91421087D01*
X127468316Y-91390427D01*
X128260000Y-91390427D01*
X128260000Y-92763272D01*
X128744462Y-92763272D01*
X128744462Y-93263272D01*
X128260000Y-93263272D01*
X128260000Y-94636116D01*
X128266401Y-94695644D01*
X128266403Y-94695651D01*
X128316645Y-94830358D01*
X128316649Y-94830365D01*
X128402809Y-94945459D01*
X128402812Y-94945462D01*
X128517906Y-95031622D01*
X128517913Y-95031626D01*
X128652620Y-95081868D01*
X128652627Y-95081870D01*
X128712155Y-95088271D01*
X128712172Y-95088272D01*
X129010000Y-95088272D01*
X129010000Y-94703933D01*
X129510000Y-94703933D01*
X129510000Y-95088272D01*
X129807828Y-95088272D01*
X129807844Y-95088271D01*
X129867372Y-95081870D01*
X129867379Y-95081868D01*
X130002086Y-95031626D01*
X130002093Y-95031622D01*
X130117187Y-94945462D01*
X130117190Y-94945459D01*
X130203350Y-94830365D01*
X130203354Y-94830358D01*
X130250507Y-94703933D01*
X130809492Y-94703933D01*
X130856645Y-94830358D01*
X130856649Y-94830365D01*
X130942809Y-94945459D01*
X130942812Y-94945462D01*
X131057906Y-95031622D01*
X131057913Y-95031626D01*
X131192620Y-95081868D01*
X131192627Y-95081870D01*
X131252155Y-95088271D01*
X131252172Y-95088272D01*
X131550000Y-95088272D01*
X131550000Y-94703933D01*
X132050000Y-94703933D01*
X132050000Y-95088272D01*
X132347828Y-95088272D01*
X132347844Y-95088271D01*
X132407372Y-95081870D01*
X132407379Y-95081868D01*
X132542086Y-95031626D01*
X132542093Y-95031622D01*
X132657187Y-94945462D01*
X132657190Y-94945459D01*
X132743350Y-94830365D01*
X132743354Y-94830358D01*
X132790507Y-94703933D01*
X133349492Y-94703933D01*
X133396645Y-94830358D01*
X133396649Y-94830365D01*
X133482809Y-94945459D01*
X133482812Y-94945462D01*
X133597906Y-95031622D01*
X133597913Y-95031626D01*
X133732620Y-95081868D01*
X133732627Y-95081870D01*
X133792155Y-95088271D01*
X133792172Y-95088272D01*
X134090000Y-95088272D01*
X134090000Y-94703933D01*
X134590000Y-94703933D01*
X134590000Y-95088272D01*
X134887828Y-95088272D01*
X134887844Y-95088271D01*
X134947372Y-95081870D01*
X134947379Y-95081868D01*
X135082086Y-95031626D01*
X135082093Y-95031622D01*
X135197187Y-94945462D01*
X135197190Y-94945459D01*
X135283350Y-94830365D01*
X135283354Y-94830358D01*
X135330507Y-94703933D01*
X135889492Y-94703933D01*
X135936645Y-94830358D01*
X135936649Y-94830365D01*
X136022809Y-94945459D01*
X136022812Y-94945462D01*
X136137906Y-95031622D01*
X136137913Y-95031626D01*
X136272620Y-95081868D01*
X136272627Y-95081870D01*
X136332155Y-95088271D01*
X136332172Y-95088272D01*
X136630000Y-95088272D01*
X136630000Y-94703933D01*
X137130000Y-94703933D01*
X137130000Y-95088272D01*
X137427828Y-95088272D01*
X137427844Y-95088271D01*
X137487372Y-95081870D01*
X137487379Y-95081868D01*
X137622086Y-95031626D01*
X137622093Y-95031622D01*
X137737187Y-94945462D01*
X137737190Y-94945459D01*
X137823350Y-94830365D01*
X137823354Y-94830358D01*
X137873596Y-94695651D01*
X137873598Y-94695644D01*
X137879999Y-94636116D01*
X137880000Y-94636099D01*
X137880000Y-94603094D01*
X138769499Y-94603094D01*
X138778231Y-94646989D01*
X138778234Y-94646996D01*
X138810744Y-94695651D01*
X138811496Y-94696776D01*
X138861278Y-94730039D01*
X138861281Y-94730039D01*
X138861282Y-94730040D01*
X138905177Y-94738772D01*
X138905180Y-94738772D01*
X139934822Y-94738772D01*
X139978717Y-94730040D01*
X139978717Y-94730039D01*
X139978722Y-94730039D01*
X140028504Y-94696776D01*
X140061767Y-94646994D01*
X140070500Y-94603094D01*
X141309499Y-94603094D01*
X141318231Y-94646989D01*
X141318234Y-94646996D01*
X141350744Y-94695651D01*
X141351496Y-94696776D01*
X141401278Y-94730039D01*
X141401281Y-94730039D01*
X141401282Y-94730040D01*
X141445177Y-94738772D01*
X141445180Y-94738772D01*
X142474822Y-94738772D01*
X142518717Y-94730040D01*
X142518717Y-94730039D01*
X142518722Y-94730039D01*
X142568504Y-94696776D01*
X142601767Y-94646994D01*
X142610500Y-94603092D01*
X142610500Y-93101206D01*
X143043962Y-93101206D01*
X143043962Y-93206660D01*
X143071255Y-93308520D01*
X143123982Y-93399846D01*
X143198549Y-93474413D01*
X143289875Y-93527140D01*
X143391735Y-93554433D01*
X143391737Y-93554433D01*
X143497187Y-93554433D01*
X143497189Y-93554433D01*
X143599049Y-93527140D01*
X143663501Y-93489928D01*
X143731399Y-93473455D01*
X143797426Y-93496307D01*
X143840617Y-93551227D01*
X143849500Y-93597315D01*
X143849500Y-94603092D01*
X143849500Y-94603094D01*
X143849499Y-94603094D01*
X143858231Y-94646989D01*
X143858234Y-94646996D01*
X143890744Y-94695651D01*
X143891496Y-94696776D01*
X143941278Y-94730039D01*
X143941281Y-94730039D01*
X143941282Y-94730040D01*
X143985177Y-94738772D01*
X143985180Y-94738772D01*
X145014822Y-94738772D01*
X145058717Y-94730040D01*
X145058717Y-94730039D01*
X145058722Y-94730039D01*
X145108504Y-94696776D01*
X145141767Y-94646994D01*
X145150500Y-94603092D01*
X145150500Y-91423452D01*
X145150499Y-91423449D01*
X145148086Y-91411316D01*
X145148086Y-91411314D01*
X145143931Y-91390427D01*
X146040000Y-91390427D01*
X146040000Y-92763272D01*
X146394462Y-92763272D01*
X146394462Y-93263272D01*
X146040000Y-93263272D01*
X146040000Y-94636116D01*
X146046401Y-94695644D01*
X146046403Y-94695651D01*
X146096645Y-94830358D01*
X146096649Y-94830365D01*
X146182809Y-94945459D01*
X146182812Y-94945462D01*
X146297906Y-95031622D01*
X146297913Y-95031626D01*
X146432620Y-95081868D01*
X146432627Y-95081870D01*
X146492155Y-95088271D01*
X146492172Y-95088272D01*
X146790000Y-95088272D01*
X146790000Y-94703933D01*
X147290000Y-94703933D01*
X147290000Y-95088272D01*
X147587828Y-95088272D01*
X147587844Y-95088271D01*
X147647372Y-95081870D01*
X147647379Y-95081868D01*
X147782086Y-95031626D01*
X147782093Y-95031622D01*
X147897187Y-94945462D01*
X147897190Y-94945459D01*
X147983350Y-94830365D01*
X147983354Y-94830358D01*
X148030507Y-94703933D01*
X148444462Y-94703933D01*
X148444462Y-93874038D01*
X151399500Y-93874038D01*
X151399500Y-94125961D01*
X151438910Y-94374785D01*
X151516760Y-94614383D01*
X151586424Y-94751105D01*
X151628379Y-94833446D01*
X151631132Y-94838848D01*
X151779201Y-95042649D01*
X151779205Y-95042654D01*
X151957345Y-95220794D01*
X151957350Y-95220798D01*
X152135117Y-95349952D01*
X152161155Y-95368870D01*
X152304184Y-95441747D01*
X152385616Y-95483239D01*
X152385618Y-95483239D01*
X152385621Y-95483241D01*
X152625215Y-95561090D01*
X152874038Y-95600500D01*
X152874039Y-95600500D01*
X153125961Y-95600500D01*
X153125962Y-95600500D01*
X153374785Y-95561090D01*
X153614379Y-95483241D01*
X153838845Y-95368870D01*
X154042656Y-95220793D01*
X154220793Y-95042656D01*
X154368870Y-94838845D01*
X154483241Y-94614379D01*
X154561090Y-94374785D01*
X154600500Y-94125962D01*
X154600500Y-93874038D01*
X154561090Y-93625215D01*
X154483241Y-93385621D01*
X154483239Y-93385618D01*
X154483239Y-93385616D01*
X154441747Y-93304184D01*
X154368870Y-93161155D01*
X154282776Y-93042656D01*
X154220798Y-92957350D01*
X154220794Y-92957345D01*
X154042654Y-92779205D01*
X154042649Y-92779201D01*
X153838848Y-92631132D01*
X153838847Y-92631131D01*
X153838845Y-92631130D01*
X153768747Y-92595413D01*
X153614383Y-92516760D01*
X153374785Y-92438910D01*
X153125962Y-92399500D01*
X152874038Y-92399500D01*
X152749626Y-92419205D01*
X152625214Y-92438910D01*
X152385616Y-92516760D01*
X152161151Y-92631132D01*
X151957350Y-92779201D01*
X151957345Y-92779205D01*
X151779205Y-92957345D01*
X151779201Y-92957350D01*
X151631132Y-93161151D01*
X151516760Y-93385616D01*
X151438910Y-93625214D01*
X151399500Y-93874038D01*
X148444462Y-93874038D01*
X148444462Y-91874038D01*
X172399500Y-91874038D01*
X172399500Y-92125961D01*
X172438910Y-92374785D01*
X172516760Y-92614383D01*
X172587610Y-92753433D01*
X172628383Y-92833454D01*
X172631132Y-92838848D01*
X172779201Y-93042649D01*
X172779205Y-93042654D01*
X172957345Y-93220794D01*
X172957350Y-93220798D01*
X173078090Y-93308520D01*
X173161155Y-93368870D01*
X173304184Y-93441747D01*
X173385616Y-93483239D01*
X173385618Y-93483239D01*
X173385621Y-93483241D01*
X173625215Y-93561090D01*
X173874038Y-93600500D01*
X173874039Y-93600500D01*
X174125961Y-93600500D01*
X174125962Y-93600500D01*
X174374785Y-93561090D01*
X174614379Y-93483241D01*
X174838845Y-93368870D01*
X175042656Y-93220793D01*
X175220793Y-93042656D01*
X175368870Y-92838845D01*
X175483241Y-92614379D01*
X175561090Y-92374785D01*
X175600500Y-92125962D01*
X175600500Y-91874038D01*
X175561090Y-91625215D01*
X175483241Y-91385621D01*
X175483239Y-91385618D01*
X175483239Y-91385616D01*
X175437833Y-91296503D01*
X175368870Y-91161155D01*
X175310693Y-91081081D01*
X175220798Y-90957350D01*
X175220794Y-90957345D01*
X175042654Y-90779205D01*
X175042649Y-90779201D01*
X174838848Y-90631132D01*
X174838847Y-90631131D01*
X174838845Y-90631130D01*
X174768747Y-90595413D01*
X174614383Y-90516760D01*
X174374785Y-90438910D01*
X174125962Y-90399500D01*
X173874038Y-90399500D01*
X173749626Y-90419205D01*
X173625214Y-90438910D01*
X173385616Y-90516760D01*
X173161151Y-90631132D01*
X172957350Y-90779201D01*
X172957345Y-90779205D01*
X172779205Y-90957345D01*
X172779201Y-90957350D01*
X172631132Y-91161151D01*
X172516760Y-91385616D01*
X172438910Y-91625214D01*
X172399500Y-91874038D01*
X148444462Y-91874038D01*
X148444462Y-91553933D01*
X148040000Y-91553933D01*
X148040000Y-91390444D01*
X148039999Y-91390427D01*
X148033598Y-91330899D01*
X148033596Y-91330892D01*
X148022074Y-91300000D01*
X168700000Y-91300000D01*
X170700000Y-91300000D01*
X170700000Y-89300000D01*
X168700000Y-89300000D01*
X168700000Y-91300000D01*
X148022074Y-91300000D01*
X147983354Y-91196185D01*
X147983350Y-91196178D01*
X147897190Y-91081084D01*
X147897187Y-91081081D01*
X147782093Y-90994921D01*
X147782086Y-90994917D01*
X147647379Y-90944675D01*
X147647372Y-90944673D01*
X147587844Y-90938272D01*
X147290000Y-90938272D01*
X147290000Y-91553933D01*
X146790000Y-91553933D01*
X146790000Y-90938272D01*
X146492155Y-90938272D01*
X146432627Y-90944673D01*
X146432620Y-90944675D01*
X146297913Y-90994917D01*
X146297906Y-90994921D01*
X146182812Y-91081081D01*
X146182809Y-91081084D01*
X146096649Y-91196178D01*
X146096645Y-91196185D01*
X146046403Y-91330892D01*
X146046401Y-91330899D01*
X146040000Y-91390427D01*
X145143931Y-91390427D01*
X145141768Y-91379554D01*
X145141767Y-91379553D01*
X145141767Y-91379550D01*
X145108504Y-91329768D01*
X145108503Y-91329767D01*
X145058724Y-91296506D01*
X145058717Y-91296503D01*
X145014822Y-91287772D01*
X145014820Y-91287772D01*
X143985180Y-91287772D01*
X143985178Y-91287772D01*
X143941282Y-91296503D01*
X143941275Y-91296506D01*
X143891496Y-91329767D01*
X143891495Y-91329768D01*
X143858234Y-91379547D01*
X143858231Y-91379554D01*
X143849500Y-91423449D01*
X143849500Y-92692705D01*
X143846949Y-92701390D01*
X143848238Y-92710352D01*
X143837259Y-92734392D01*
X143829815Y-92759744D01*
X143822974Y-92765671D01*
X143819213Y-92773908D01*
X143796978Y-92788197D01*
X143777011Y-92805499D01*
X143766496Y-92807786D01*
X143760435Y-92811682D01*
X143725500Y-92816705D01*
X143694592Y-92816705D01*
X143632592Y-92800092D01*
X143599051Y-92780727D01*
X143599050Y-92780726D01*
X143599049Y-92780726D01*
X143497189Y-92753433D01*
X143391735Y-92753433D01*
X143289875Y-92780726D01*
X143289872Y-92780727D01*
X143198547Y-92833454D01*
X143123983Y-92908018D01*
X143071256Y-92999343D01*
X143071255Y-92999346D01*
X143043962Y-93101206D01*
X142610500Y-93101206D01*
X142610500Y-91423452D01*
X142610500Y-91423450D01*
X142610500Y-91423449D01*
X142601768Y-91379554D01*
X142601767Y-91379553D01*
X142601767Y-91379550D01*
X142568504Y-91329768D01*
X142568503Y-91329767D01*
X142518724Y-91296506D01*
X142518717Y-91296503D01*
X142474822Y-91287772D01*
X142474820Y-91287772D01*
X141445180Y-91287772D01*
X141445178Y-91287772D01*
X141401282Y-91296503D01*
X141401275Y-91296506D01*
X141351496Y-91329767D01*
X141351495Y-91329768D01*
X141318234Y-91379547D01*
X141318231Y-91379554D01*
X141309500Y-91423449D01*
X141309500Y-91423450D01*
X141309500Y-91423452D01*
X141309500Y-94603092D01*
X141309500Y-94603094D01*
X141309499Y-94603094D01*
X140070500Y-94603094D01*
X140070500Y-94603092D01*
X140070500Y-91423452D01*
X140070500Y-91423450D01*
X140070500Y-91423449D01*
X140061768Y-91379554D01*
X140061767Y-91379553D01*
X140061767Y-91379550D01*
X140028504Y-91329768D01*
X140028503Y-91329767D01*
X139978724Y-91296506D01*
X139978717Y-91296503D01*
X139934822Y-91287772D01*
X139934820Y-91287772D01*
X138905180Y-91287772D01*
X138905178Y-91287772D01*
X138861282Y-91296503D01*
X138861275Y-91296506D01*
X138811496Y-91329767D01*
X138811495Y-91329768D01*
X138778234Y-91379547D01*
X138778231Y-91379554D01*
X138769500Y-91423449D01*
X138769500Y-91423450D01*
X138769500Y-91423452D01*
X138769500Y-94603092D01*
X138769500Y-94603094D01*
X138769499Y-94603094D01*
X137880000Y-94603094D01*
X137880000Y-93263272D01*
X137444462Y-93263272D01*
X137444462Y-92763272D01*
X137880000Y-92763272D01*
X137880000Y-91390444D01*
X137879999Y-91390427D01*
X137873598Y-91330899D01*
X137873596Y-91330892D01*
X137823354Y-91196185D01*
X137823350Y-91196178D01*
X137737190Y-91081084D01*
X137737187Y-91081081D01*
X137622093Y-90994921D01*
X137622086Y-90994917D01*
X137487379Y-90944675D01*
X137487372Y-90944673D01*
X137427844Y-90938272D01*
X137130000Y-90938272D01*
X137130000Y-91553933D01*
X136630000Y-91553933D01*
X136630000Y-90938272D01*
X136332155Y-90938272D01*
X136272627Y-90944673D01*
X136272620Y-90944675D01*
X136137913Y-90994917D01*
X136137906Y-90994921D01*
X136022812Y-91081081D01*
X136022809Y-91081084D01*
X135936649Y-91196178D01*
X135936645Y-91196185D01*
X135886403Y-91330892D01*
X135886401Y-91330899D01*
X135880000Y-91390427D01*
X135880000Y-91553933D01*
X135340000Y-91553933D01*
X135340000Y-91390444D01*
X135339999Y-91390427D01*
X135333598Y-91330899D01*
X135333596Y-91330892D01*
X135283354Y-91196185D01*
X135283350Y-91196178D01*
X135197190Y-91081084D01*
X135197187Y-91081081D01*
X135082093Y-90994921D01*
X135082086Y-90994917D01*
X134947379Y-90944675D01*
X134947372Y-90944673D01*
X134887844Y-90938272D01*
X134590000Y-90938272D01*
X134590000Y-91553933D01*
X134090000Y-91553933D01*
X134090000Y-90938272D01*
X133792155Y-90938272D01*
X133732627Y-90944673D01*
X133732620Y-90944675D01*
X133597913Y-90994917D01*
X133597906Y-90994921D01*
X133482812Y-91081081D01*
X133482809Y-91081084D01*
X133396649Y-91196178D01*
X133396645Y-91196185D01*
X133346403Y-91330892D01*
X133346401Y-91330899D01*
X133340000Y-91390427D01*
X133340000Y-91553933D01*
X132800000Y-91553933D01*
X132800000Y-91390444D01*
X132799999Y-91390427D01*
X132793598Y-91330899D01*
X132793596Y-91330892D01*
X132743354Y-91196185D01*
X132743350Y-91196178D01*
X132657190Y-91081084D01*
X132657187Y-91081081D01*
X132542093Y-90994921D01*
X132542086Y-90994917D01*
X132407379Y-90944675D01*
X132407372Y-90944673D01*
X132347844Y-90938272D01*
X132050000Y-90938272D01*
X132050000Y-91553933D01*
X131550000Y-91553933D01*
X131550000Y-90938272D01*
X131252155Y-90938272D01*
X131192627Y-90944673D01*
X131192620Y-90944675D01*
X131057913Y-90994917D01*
X131057906Y-90994921D01*
X130942812Y-91081081D01*
X130942809Y-91081084D01*
X130856649Y-91196178D01*
X130856645Y-91196185D01*
X130806403Y-91330892D01*
X130806401Y-91330899D01*
X130800000Y-91390427D01*
X130800000Y-91553933D01*
X130260000Y-91553933D01*
X130260000Y-91390444D01*
X130259999Y-91390427D01*
X130253598Y-91330899D01*
X130253596Y-91330892D01*
X130203354Y-91196185D01*
X130203350Y-91196178D01*
X130117190Y-91081084D01*
X130117187Y-91081081D01*
X130002093Y-90994921D01*
X130002086Y-90994917D01*
X129867379Y-90944675D01*
X129867372Y-90944673D01*
X129807844Y-90938272D01*
X129510000Y-90938272D01*
X129510000Y-91553933D01*
X129010000Y-91553933D01*
X129010000Y-90938272D01*
X128712155Y-90938272D01*
X128652627Y-90944673D01*
X128652620Y-90944675D01*
X128517913Y-90994917D01*
X128517906Y-90994921D01*
X128402812Y-91081081D01*
X128402809Y-91081084D01*
X128316649Y-91196178D01*
X128316645Y-91196185D01*
X128266403Y-91330892D01*
X128266401Y-91330899D01*
X128260000Y-91390427D01*
X127468316Y-91390427D01*
X127443318Y-91376444D01*
X127443309Y-91376441D01*
X127409046Y-91366380D01*
X127377221Y-91357035D01*
X127339806Y-91334835D01*
X127338659Y-91336553D01*
X127278724Y-91296506D01*
X127278717Y-91296503D01*
X127234822Y-91287772D01*
X127234820Y-91287772D01*
X126205180Y-91287772D01*
X126205178Y-91287772D01*
X126161282Y-91296503D01*
X126161279Y-91296504D01*
X126156047Y-91300000D01*
X126114835Y-91327536D01*
X126048159Y-91348413D01*
X126045947Y-91348433D01*
X124854053Y-91348433D01*
X124787014Y-91328748D01*
X124785190Y-91327553D01*
X124738722Y-91296505D01*
X124738721Y-91296504D01*
X124738720Y-91296504D01*
X124738717Y-91296503D01*
X124694822Y-91287772D01*
X124694820Y-91287772D01*
X123665180Y-91287772D01*
X123665178Y-91287772D01*
X123621282Y-91296503D01*
X123621279Y-91296504D01*
X123616047Y-91300000D01*
X123574835Y-91327536D01*
X123508159Y-91348413D01*
X123505947Y-91348433D01*
X122314053Y-91348433D01*
X122247014Y-91328748D01*
X122245190Y-91327553D01*
X122198722Y-91296505D01*
X122198721Y-91296504D01*
X122198720Y-91296504D01*
X122198717Y-91296503D01*
X122154822Y-91287772D01*
X122154820Y-91287772D01*
X121125180Y-91287772D01*
X121125178Y-91287772D01*
X121081282Y-91296503D01*
X121081279Y-91296504D01*
X121076047Y-91300000D01*
X121034835Y-91327536D01*
X120968159Y-91348413D01*
X120965947Y-91348433D01*
X119774053Y-91348433D01*
X119707014Y-91328748D01*
X119705190Y-91327553D01*
X119658722Y-91296505D01*
X119658721Y-91296504D01*
X119658720Y-91296504D01*
X119658717Y-91296503D01*
X119614822Y-91287772D01*
X119614820Y-91287772D01*
X118585180Y-91287772D01*
X118585178Y-91287772D01*
X118541282Y-91296503D01*
X118541275Y-91296506D01*
X118491496Y-91329767D01*
X118491495Y-91329768D01*
X118458234Y-91379547D01*
X118458231Y-91379554D01*
X118449500Y-91423449D01*
X118449500Y-91466398D01*
X118448858Y-91468944D01*
X118445142Y-91498983D01*
X118441420Y-91512648D01*
X118417015Y-91558038D01*
X118398450Y-91625396D01*
X118391092Y-91683424D01*
X117560000Y-91683424D01*
X117560000Y-91390444D01*
X117559999Y-91390427D01*
X117553598Y-91330899D01*
X117553596Y-91330892D01*
X117503354Y-91196185D01*
X117503350Y-91196178D01*
X117417190Y-91081084D01*
X117417187Y-91081081D01*
X117302093Y-90994921D01*
X117302086Y-90994917D01*
X117167379Y-90944675D01*
X117167372Y-90944673D01*
X117107844Y-90938272D01*
X116810000Y-90938272D01*
X116810000Y-91403933D01*
X116310000Y-91403933D01*
X116310000Y-90938272D01*
X116012155Y-90938272D01*
X115952627Y-90944673D01*
X115952620Y-90944675D01*
X115817913Y-90994917D01*
X115817906Y-90994921D01*
X115702812Y-91081081D01*
X115702809Y-91081084D01*
X115616649Y-91196178D01*
X115616645Y-91196185D01*
X115566403Y-91330892D01*
X115566401Y-91330899D01*
X115560000Y-91390427D01*
X115560000Y-91403933D01*
X115294462Y-91403933D01*
X114666617Y-91403933D01*
X114661767Y-91379550D01*
X114628504Y-91329768D01*
X114628503Y-91329767D01*
X114578724Y-91296506D01*
X114578717Y-91296503D01*
X114534822Y-91287772D01*
X114534820Y-91287772D01*
X113505180Y-91287772D01*
X113505178Y-91287772D01*
X113461282Y-91296503D01*
X113461275Y-91296506D01*
X113411496Y-91329767D01*
X113411495Y-91329768D01*
X113402437Y-91343325D01*
X113348824Y-91388130D01*
X113299336Y-91398433D01*
X112200664Y-91398433D01*
X112133625Y-91378748D01*
X112097563Y-91343325D01*
X112088504Y-91329768D01*
X112088503Y-91329767D01*
X112038724Y-91296506D01*
X112038717Y-91296503D01*
X111994822Y-91287772D01*
X111994820Y-91287772D01*
X110965180Y-91287772D01*
X110965178Y-91287772D01*
X110921282Y-91296503D01*
X110921275Y-91296506D01*
X110871496Y-91329767D01*
X110871495Y-91329768D01*
X110838234Y-91379547D01*
X110838231Y-91379554D01*
X110829500Y-91423449D01*
X110829500Y-91423450D01*
X110829500Y-91423452D01*
X110829500Y-94603092D01*
X110829500Y-94603094D01*
X110829499Y-94603094D01*
X110394462Y-94603094D01*
X110394462Y-91553933D01*
X109940000Y-91553933D01*
X109940000Y-91390444D01*
X109939999Y-91390427D01*
X109933598Y-91330899D01*
X109933596Y-91330892D01*
X109883354Y-91196185D01*
X109883350Y-91196178D01*
X109797190Y-91081084D01*
X109797187Y-91081081D01*
X109682093Y-90994921D01*
X109682086Y-90994917D01*
X109547379Y-90944675D01*
X109547372Y-90944673D01*
X109487844Y-90938272D01*
X109190000Y-90938272D01*
X109190000Y-91553933D01*
X108690000Y-91553933D01*
X108690000Y-90938272D01*
X108392155Y-90938272D01*
X108332627Y-90944673D01*
X108332620Y-90944675D01*
X108197913Y-90994917D01*
X108197906Y-90994921D01*
X108082812Y-91081081D01*
X108082809Y-91081084D01*
X107996649Y-91196178D01*
X107996645Y-91196185D01*
X107946403Y-91330892D01*
X107946401Y-91330899D01*
X107940000Y-91390427D01*
X79000000Y-91390427D01*
X79000000Y-89124000D01*
X79019685Y-89056961D01*
X79072489Y-89011206D01*
X79124000Y-89000000D01*
X84213849Y-89000000D01*
X84280888Y-89019685D01*
G37*
%TD.AperFunction*%
%TD*%
M02*
