%TF.GenerationSoftware,KiCad,Pcbnew,9.0.2*%
%TF.CreationDate,2026-04-08T21:59:32+02:00*%
%TF.ProjectId,MMS3_hat_HC-SR04-HX711,4d4d5333-5f68-4617-945f-48432d535230,R0*%
%TF.SameCoordinates,Original*%
%TF.FileFunction,Legend,Top*%
%TF.FilePolarity,Positive*%
%FSLAX46Y46*%
G04 Gerber Fmt 4.6, Leading zero omitted, Abs format (unit mm)*
G04 Created by KiCad (PCBNEW 9.0.2) date 2026-04-08 21:59:32*
%MOMM*%
%LPD*%
G01*
G04 APERTURE LIST*
G04 Aperture macros list*
%AMRoundRect*
0 Rectangle with rounded corners*
0 $1 Rounding radius*
0 $2 $3 $4 $5 $6 $7 $8 $9 X,Y pos of 4 corners*
0 Add a 4 corners polygon primitive as box body*
4,1,4,$2,$3,$4,$5,$6,$7,$8,$9,$2,$3,0*
0 Add four circle primitives for the rounded corners*
1,1,$1+$1,$2,$3*
1,1,$1+$1,$4,$5*
1,1,$1+$1,$6,$7*
1,1,$1+$1,$8,$9*
0 Add four rect primitives between the rounded corners*
20,1,$1+$1,$2,$3,$4,$5,0*
20,1,$1+$1,$4,$5,$6,$7,0*
20,1,$1+$1,$6,$7,$8,$9,0*
20,1,$1+$1,$8,$9,$2,$3,0*%
G04 Aperture macros list end*
%ADD10C,0.200000*%
%ADD11C,0.100000*%
%ADD12C,0.150000*%
%ADD13C,0.300000*%
%ADD14C,0.600000*%
%ADD15C,0.120000*%
%ADD16C,0.060000*%
%ADD17RoundRect,0.244000X0.244000X0.269000X-0.244000X0.269000X-0.244000X-0.269000X0.244000X-0.269000X0*%
%ADD18RoundRect,0.159000X-0.159000X-0.189000X0.159000X-0.189000X0.159000X0.189000X-0.159000X0.189000X0*%
%ADD19RoundRect,0.150000X-0.850000X-0.150000X0.850000X-0.150000X0.850000X0.150000X-0.850000X0.150000X0*%
%ADD20RoundRect,0.250000X-0.600000X-0.725000X0.600000X-0.725000X0.600000X0.725000X-0.600000X0.725000X0*%
%ADD21O,1.700000X1.950000*%
%ADD22C,3.100000*%
%ADD23C,4.700000*%
%ADD24RoundRect,0.159000X0.159000X0.189000X-0.159000X0.189000X-0.159000X-0.189000X0.159000X-0.189000X0*%
%ADD25RoundRect,0.244000X0.269000X-0.244000X0.269000X0.244000X-0.269000X0.244000X-0.269000X-0.244000X0*%
%ADD26RoundRect,0.244000X-0.269000X0.244000X-0.269000X-0.244000X0.269000X-0.244000X0.269000X0.244000X0*%
%ADD27R,1.700000X1.700000*%
%ADD28RoundRect,0.250000X-1.000000X-0.300000X1.000000X-0.300000X1.000000X0.300000X-1.000000X0.300000X0*%
%ADD29C,0.500000*%
%ADD30RoundRect,0.250000X-0.920000X-1.550000X0.920000X-1.550000X0.920000X1.550000X-0.920000X1.550000X0*%
%ADD31RoundRect,0.159000X0.189000X-0.159000X0.189000X0.159000X-0.189000X0.159000X-0.189000X-0.159000X0*%
%ADD32R,1.000000X3.000000*%
%ADD33C,1.296000*%
%ADD34C,1.700000*%
%ADD35RoundRect,0.150000X-0.150000X0.587500X-0.150000X-0.587500X0.150000X-0.587500X0.150000X0.587500X0*%
%ADD36O,1.950000X0.570000*%
%ADD37C,2.700000*%
%ADD38RoundRect,0.218750X0.256250X-0.218750X0.256250X0.218750X-0.256250X0.218750X-0.256250X-0.218750X0*%
%ADD39RoundRect,0.159000X-0.189000X0.159000X-0.189000X-0.159000X0.189000X-0.159000X0.189000X0.159000X0*%
%ADD40O,0.364000X1.742000*%
%ADD41RoundRect,0.218750X-0.256250X0.218750X-0.256250X-0.218750X0.256250X-0.218750X0.256250X0.218750X0*%
%ADD42RoundRect,0.244000X-0.244000X-0.269000X0.244000X-0.269000X0.244000X0.269000X-0.244000X0.269000X0*%
%ADD43RoundRect,0.100000X-0.637500X-0.100000X0.637500X-0.100000X0.637500X0.100000X-0.637500X0.100000X0*%
G04 APERTURE END LIST*
D10*
X86809524Y-94842275D02*
X87142857Y-95842275D01*
X87142857Y-95842275D02*
X87476190Y-94842275D01*
X88190476Y-95794656D02*
X88095238Y-95842275D01*
X88095238Y-95842275D02*
X87904762Y-95842275D01*
X87904762Y-95842275D02*
X87809524Y-95794656D01*
X87809524Y-95794656D02*
X87761905Y-95699417D01*
X87761905Y-95699417D02*
X87761905Y-95318465D01*
X87761905Y-95318465D02*
X87809524Y-95223227D01*
X87809524Y-95223227D02*
X87904762Y-95175608D01*
X87904762Y-95175608D02*
X88095238Y-95175608D01*
X88095238Y-95175608D02*
X88190476Y-95223227D01*
X88190476Y-95223227D02*
X88238095Y-95318465D01*
X88238095Y-95318465D02*
X88238095Y-95413703D01*
X88238095Y-95413703D02*
X87761905Y-95508941D01*
X88666667Y-95842275D02*
X88666667Y-95175608D01*
X88666667Y-95366084D02*
X88714286Y-95270846D01*
X88714286Y-95270846D02*
X88761905Y-95223227D01*
X88761905Y-95223227D02*
X88857143Y-95175608D01*
X88857143Y-95175608D02*
X88952381Y-95175608D01*
X89238096Y-95794656D02*
X89333334Y-95842275D01*
X89333334Y-95842275D02*
X89523810Y-95842275D01*
X89523810Y-95842275D02*
X89619048Y-95794656D01*
X89619048Y-95794656D02*
X89666667Y-95699417D01*
X89666667Y-95699417D02*
X89666667Y-95651798D01*
X89666667Y-95651798D02*
X89619048Y-95556560D01*
X89619048Y-95556560D02*
X89523810Y-95508941D01*
X89523810Y-95508941D02*
X89380953Y-95508941D01*
X89380953Y-95508941D02*
X89285715Y-95461322D01*
X89285715Y-95461322D02*
X89238096Y-95366084D01*
X89238096Y-95366084D02*
X89238096Y-95318465D01*
X89238096Y-95318465D02*
X89285715Y-95223227D01*
X89285715Y-95223227D02*
X89380953Y-95175608D01*
X89380953Y-95175608D02*
X89523810Y-95175608D01*
X89523810Y-95175608D02*
X89619048Y-95223227D01*
X90095239Y-95842275D02*
X90095239Y-95175608D01*
X90095239Y-94842275D02*
X90047620Y-94889894D01*
X90047620Y-94889894D02*
X90095239Y-94937513D01*
X90095239Y-94937513D02*
X90142858Y-94889894D01*
X90142858Y-94889894D02*
X90095239Y-94842275D01*
X90095239Y-94842275D02*
X90095239Y-94937513D01*
X90714286Y-95842275D02*
X90619048Y-95794656D01*
X90619048Y-95794656D02*
X90571429Y-95747036D01*
X90571429Y-95747036D02*
X90523810Y-95651798D01*
X90523810Y-95651798D02*
X90523810Y-95366084D01*
X90523810Y-95366084D02*
X90571429Y-95270846D01*
X90571429Y-95270846D02*
X90619048Y-95223227D01*
X90619048Y-95223227D02*
X90714286Y-95175608D01*
X90714286Y-95175608D02*
X90857143Y-95175608D01*
X90857143Y-95175608D02*
X90952381Y-95223227D01*
X90952381Y-95223227D02*
X91000000Y-95270846D01*
X91000000Y-95270846D02*
X91047619Y-95366084D01*
X91047619Y-95366084D02*
X91047619Y-95651798D01*
X91047619Y-95651798D02*
X91000000Y-95747036D01*
X91000000Y-95747036D02*
X90952381Y-95794656D01*
X90952381Y-95794656D02*
X90857143Y-95842275D01*
X90857143Y-95842275D02*
X90714286Y-95842275D01*
X91476191Y-95175608D02*
X91476191Y-95842275D01*
X91476191Y-95270846D02*
X91523810Y-95223227D01*
X91523810Y-95223227D02*
X91619048Y-95175608D01*
X91619048Y-95175608D02*
X91761905Y-95175608D01*
X91761905Y-95175608D02*
X91857143Y-95223227D01*
X91857143Y-95223227D02*
X91904762Y-95318465D01*
X91904762Y-95318465D02*
X91904762Y-95842275D01*
X93666667Y-95842275D02*
X93095239Y-95842275D01*
X93380953Y-95842275D02*
X93380953Y-94842275D01*
X93380953Y-94842275D02*
X93285715Y-94985132D01*
X93285715Y-94985132D02*
X93190477Y-95080370D01*
X93190477Y-95080370D02*
X93095239Y-95127989D01*
X94095239Y-95747036D02*
X94142858Y-95794656D01*
X94142858Y-95794656D02*
X94095239Y-95842275D01*
X94095239Y-95842275D02*
X94047620Y-95794656D01*
X94047620Y-95794656D02*
X94095239Y-95747036D01*
X94095239Y-95747036D02*
X94095239Y-95842275D01*
X94761905Y-94842275D02*
X94857143Y-94842275D01*
X94857143Y-94842275D02*
X94952381Y-94889894D01*
X94952381Y-94889894D02*
X95000000Y-94937513D01*
X95000000Y-94937513D02*
X95047619Y-95032751D01*
X95047619Y-95032751D02*
X95095238Y-95223227D01*
X95095238Y-95223227D02*
X95095238Y-95461322D01*
X95095238Y-95461322D02*
X95047619Y-95651798D01*
X95047619Y-95651798D02*
X95000000Y-95747036D01*
X95000000Y-95747036D02*
X94952381Y-95794656D01*
X94952381Y-95794656D02*
X94857143Y-95842275D01*
X94857143Y-95842275D02*
X94761905Y-95842275D01*
X94761905Y-95842275D02*
X94666667Y-95794656D01*
X94666667Y-95794656D02*
X94619048Y-95747036D01*
X94619048Y-95747036D02*
X94571429Y-95651798D01*
X94571429Y-95651798D02*
X94523810Y-95461322D01*
X94523810Y-95461322D02*
X94523810Y-95223227D01*
X94523810Y-95223227D02*
X94571429Y-95032751D01*
X94571429Y-95032751D02*
X94619048Y-94937513D01*
X94619048Y-94937513D02*
X94666667Y-94889894D01*
X94666667Y-94889894D02*
X94761905Y-94842275D01*
X88119047Y-97452219D02*
X88119047Y-96452219D01*
X88119047Y-96452219D02*
X88452380Y-97166504D01*
X88452380Y-97166504D02*
X88785713Y-96452219D01*
X88785713Y-96452219D02*
X88785713Y-97452219D01*
X89690475Y-97452219D02*
X89690475Y-96928409D01*
X89690475Y-96928409D02*
X89642856Y-96833171D01*
X89642856Y-96833171D02*
X89547618Y-96785552D01*
X89547618Y-96785552D02*
X89357142Y-96785552D01*
X89357142Y-96785552D02*
X89261904Y-96833171D01*
X89690475Y-97404600D02*
X89595237Y-97452219D01*
X89595237Y-97452219D02*
X89357142Y-97452219D01*
X89357142Y-97452219D02*
X89261904Y-97404600D01*
X89261904Y-97404600D02*
X89214285Y-97309361D01*
X89214285Y-97309361D02*
X89214285Y-97214123D01*
X89214285Y-97214123D02*
X89261904Y-97118885D01*
X89261904Y-97118885D02*
X89357142Y-97071266D01*
X89357142Y-97071266D02*
X89595237Y-97071266D01*
X89595237Y-97071266D02*
X89690475Y-97023647D01*
X90595237Y-97452219D02*
X90595237Y-96452219D01*
X90595237Y-97404600D02*
X90499999Y-97452219D01*
X90499999Y-97452219D02*
X90309523Y-97452219D01*
X90309523Y-97452219D02*
X90214285Y-97404600D01*
X90214285Y-97404600D02*
X90166666Y-97356980D01*
X90166666Y-97356980D02*
X90119047Y-97261742D01*
X90119047Y-97261742D02*
X90119047Y-96976028D01*
X90119047Y-96976028D02*
X90166666Y-96880790D01*
X90166666Y-96880790D02*
X90214285Y-96833171D01*
X90214285Y-96833171D02*
X90309523Y-96785552D01*
X90309523Y-96785552D02*
X90499999Y-96785552D01*
X90499999Y-96785552D02*
X90595237Y-96833171D01*
X91452380Y-97404600D02*
X91357142Y-97452219D01*
X91357142Y-97452219D02*
X91166666Y-97452219D01*
X91166666Y-97452219D02*
X91071428Y-97404600D01*
X91071428Y-97404600D02*
X91023809Y-97309361D01*
X91023809Y-97309361D02*
X91023809Y-96928409D01*
X91023809Y-96928409D02*
X91071428Y-96833171D01*
X91071428Y-96833171D02*
X91166666Y-96785552D01*
X91166666Y-96785552D02*
X91357142Y-96785552D01*
X91357142Y-96785552D02*
X91452380Y-96833171D01*
X91452380Y-96833171D02*
X91499999Y-96928409D01*
X91499999Y-96928409D02*
X91499999Y-97023647D01*
X91499999Y-97023647D02*
X91023809Y-97118885D01*
X92690476Y-97452219D02*
X92690476Y-96452219D01*
X92690476Y-96833171D02*
X92785714Y-96785552D01*
X92785714Y-96785552D02*
X92976190Y-96785552D01*
X92976190Y-96785552D02*
X93071428Y-96833171D01*
X93071428Y-96833171D02*
X93119047Y-96880790D01*
X93119047Y-96880790D02*
X93166666Y-96976028D01*
X93166666Y-96976028D02*
X93166666Y-97261742D01*
X93166666Y-97261742D02*
X93119047Y-97356980D01*
X93119047Y-97356980D02*
X93071428Y-97404600D01*
X93071428Y-97404600D02*
X92976190Y-97452219D01*
X92976190Y-97452219D02*
X92785714Y-97452219D01*
X92785714Y-97452219D02*
X92690476Y-97404600D01*
X93500000Y-96785552D02*
X93738095Y-97452219D01*
X93976190Y-96785552D02*
X93738095Y-97452219D01*
X93738095Y-97452219D02*
X93642857Y-97690314D01*
X93642857Y-97690314D02*
X93595238Y-97737933D01*
X93595238Y-97737933D02*
X93500000Y-97785552D01*
X83642857Y-98062163D02*
X83880952Y-99062163D01*
X83880952Y-99062163D02*
X84071428Y-98347877D01*
X84071428Y-98347877D02*
X84261904Y-99062163D01*
X84261904Y-99062163D02*
X84500000Y-98062163D01*
X85023809Y-99062163D02*
X84928571Y-99014544D01*
X84928571Y-99014544D02*
X84880952Y-98966924D01*
X84880952Y-98966924D02*
X84833333Y-98871686D01*
X84833333Y-98871686D02*
X84833333Y-98585972D01*
X84833333Y-98585972D02*
X84880952Y-98490734D01*
X84880952Y-98490734D02*
X84928571Y-98443115D01*
X84928571Y-98443115D02*
X85023809Y-98395496D01*
X85023809Y-98395496D02*
X85166666Y-98395496D01*
X85166666Y-98395496D02*
X85261904Y-98443115D01*
X85261904Y-98443115D02*
X85309523Y-98490734D01*
X85309523Y-98490734D02*
X85357142Y-98585972D01*
X85357142Y-98585972D02*
X85357142Y-98871686D01*
X85357142Y-98871686D02*
X85309523Y-98966924D01*
X85309523Y-98966924D02*
X85261904Y-99014544D01*
X85261904Y-99014544D02*
X85166666Y-99062163D01*
X85166666Y-99062163D02*
X85023809Y-99062163D01*
X85785714Y-98395496D02*
X85785714Y-99252639D01*
X85785714Y-99252639D02*
X85738095Y-99347877D01*
X85738095Y-99347877D02*
X85642857Y-99395496D01*
X85642857Y-99395496D02*
X85595238Y-99395496D01*
X85785714Y-98062163D02*
X85738095Y-98109782D01*
X85738095Y-98109782D02*
X85785714Y-98157401D01*
X85785714Y-98157401D02*
X85833333Y-98109782D01*
X85833333Y-98109782D02*
X85785714Y-98062163D01*
X85785714Y-98062163D02*
X85785714Y-98157401D01*
X86690475Y-99014544D02*
X86595237Y-99062163D01*
X86595237Y-99062163D02*
X86404761Y-99062163D01*
X86404761Y-99062163D02*
X86309523Y-99014544D01*
X86309523Y-99014544D02*
X86261904Y-98966924D01*
X86261904Y-98966924D02*
X86214285Y-98871686D01*
X86214285Y-98871686D02*
X86214285Y-98585972D01*
X86214285Y-98585972D02*
X86261904Y-98490734D01*
X86261904Y-98490734D02*
X86309523Y-98443115D01*
X86309523Y-98443115D02*
X86404761Y-98395496D01*
X86404761Y-98395496D02*
X86595237Y-98395496D01*
X86595237Y-98395496D02*
X86690475Y-98443115D01*
X87119047Y-99062163D02*
X87119047Y-98395496D01*
X87119047Y-98062163D02*
X87071428Y-98109782D01*
X87071428Y-98109782D02*
X87119047Y-98157401D01*
X87119047Y-98157401D02*
X87166666Y-98109782D01*
X87166666Y-98109782D02*
X87119047Y-98062163D01*
X87119047Y-98062163D02*
X87119047Y-98157401D01*
X87976189Y-99014544D02*
X87880951Y-99062163D01*
X87880951Y-99062163D02*
X87690475Y-99062163D01*
X87690475Y-99062163D02*
X87595237Y-99014544D01*
X87595237Y-99014544D02*
X87547618Y-98919305D01*
X87547618Y-98919305D02*
X87547618Y-98538353D01*
X87547618Y-98538353D02*
X87595237Y-98443115D01*
X87595237Y-98443115D02*
X87690475Y-98395496D01*
X87690475Y-98395496D02*
X87880951Y-98395496D01*
X87880951Y-98395496D02*
X87976189Y-98443115D01*
X87976189Y-98443115D02*
X88023808Y-98538353D01*
X88023808Y-98538353D02*
X88023808Y-98633591D01*
X88023808Y-98633591D02*
X87547618Y-98728829D01*
X88880951Y-99014544D02*
X88785713Y-99062163D01*
X88785713Y-99062163D02*
X88595237Y-99062163D01*
X88595237Y-99062163D02*
X88499999Y-99014544D01*
X88499999Y-99014544D02*
X88452380Y-98966924D01*
X88452380Y-98966924D02*
X88404761Y-98871686D01*
X88404761Y-98871686D02*
X88404761Y-98585972D01*
X88404761Y-98585972D02*
X88452380Y-98490734D01*
X88452380Y-98490734D02*
X88499999Y-98443115D01*
X88499999Y-98443115D02*
X88595237Y-98395496D01*
X88595237Y-98395496D02*
X88785713Y-98395496D01*
X88785713Y-98395496D02*
X88880951Y-98443115D01*
X89309523Y-99062163D02*
X89309523Y-98062163D01*
X89738094Y-99062163D02*
X89738094Y-98538353D01*
X89738094Y-98538353D02*
X89690475Y-98443115D01*
X89690475Y-98443115D02*
X89595237Y-98395496D01*
X89595237Y-98395496D02*
X89452380Y-98395496D01*
X89452380Y-98395496D02*
X89357142Y-98443115D01*
X89357142Y-98443115D02*
X89309523Y-98490734D01*
X90928571Y-99014544D02*
X91071428Y-99062163D01*
X91071428Y-99062163D02*
X91309523Y-99062163D01*
X91309523Y-99062163D02*
X91404761Y-99014544D01*
X91404761Y-99014544D02*
X91452380Y-98966924D01*
X91452380Y-98966924D02*
X91499999Y-98871686D01*
X91499999Y-98871686D02*
X91499999Y-98776448D01*
X91499999Y-98776448D02*
X91452380Y-98681210D01*
X91452380Y-98681210D02*
X91404761Y-98633591D01*
X91404761Y-98633591D02*
X91309523Y-98585972D01*
X91309523Y-98585972D02*
X91119047Y-98538353D01*
X91119047Y-98538353D02*
X91023809Y-98490734D01*
X91023809Y-98490734D02*
X90976190Y-98443115D01*
X90976190Y-98443115D02*
X90928571Y-98347877D01*
X90928571Y-98347877D02*
X90928571Y-98252639D01*
X90928571Y-98252639D02*
X90976190Y-98157401D01*
X90976190Y-98157401D02*
X91023809Y-98109782D01*
X91023809Y-98109782D02*
X91119047Y-98062163D01*
X91119047Y-98062163D02*
X91357142Y-98062163D01*
X91357142Y-98062163D02*
X91499999Y-98109782D01*
X91833333Y-98395496D02*
X92357142Y-98395496D01*
X92357142Y-98395496D02*
X91833333Y-99062163D01*
X91833333Y-99062163D02*
X92357142Y-99062163D01*
X93166666Y-99062163D02*
X93166666Y-98538353D01*
X93166666Y-98538353D02*
X93119047Y-98443115D01*
X93119047Y-98443115D02*
X93023809Y-98395496D01*
X93023809Y-98395496D02*
X92833333Y-98395496D01*
X92833333Y-98395496D02*
X92738095Y-98443115D01*
X93166666Y-99014544D02*
X93071428Y-99062163D01*
X93071428Y-99062163D02*
X92833333Y-99062163D01*
X92833333Y-99062163D02*
X92738095Y-99014544D01*
X92738095Y-99014544D02*
X92690476Y-98919305D01*
X92690476Y-98919305D02*
X92690476Y-98824067D01*
X92690476Y-98824067D02*
X92738095Y-98728829D01*
X92738095Y-98728829D02*
X92833333Y-98681210D01*
X92833333Y-98681210D02*
X93071428Y-98681210D01*
X93071428Y-98681210D02*
X93166666Y-98633591D01*
X93500000Y-98395496D02*
X93880952Y-98395496D01*
X93642857Y-99062163D02*
X93642857Y-98205020D01*
X93642857Y-98205020D02*
X93690476Y-98109782D01*
X93690476Y-98109782D02*
X93785714Y-98062163D01*
X93785714Y-98062163D02*
X93880952Y-98062163D01*
X94214286Y-99062163D02*
X94214286Y-98395496D01*
X94214286Y-98585972D02*
X94261905Y-98490734D01*
X94261905Y-98490734D02*
X94309524Y-98443115D01*
X94309524Y-98443115D02*
X94404762Y-98395496D01*
X94404762Y-98395496D02*
X94500000Y-98395496D01*
X95261905Y-99062163D02*
X95261905Y-98538353D01*
X95261905Y-98538353D02*
X95214286Y-98443115D01*
X95214286Y-98443115D02*
X95119048Y-98395496D01*
X95119048Y-98395496D02*
X94928572Y-98395496D01*
X94928572Y-98395496D02*
X94833334Y-98443115D01*
X95261905Y-99014544D02*
X95166667Y-99062163D01*
X95166667Y-99062163D02*
X94928572Y-99062163D01*
X94928572Y-99062163D02*
X94833334Y-99014544D01*
X94833334Y-99014544D02*
X94785715Y-98919305D01*
X94785715Y-98919305D02*
X94785715Y-98824067D01*
X94785715Y-98824067D02*
X94833334Y-98728829D01*
X94833334Y-98728829D02*
X94928572Y-98681210D01*
X94928572Y-98681210D02*
X95166667Y-98681210D01*
X95166667Y-98681210D02*
X95261905Y-98633591D01*
X95738096Y-98395496D02*
X95738096Y-99062163D01*
X95738096Y-98490734D02*
X95785715Y-98443115D01*
X95785715Y-98443115D02*
X95880953Y-98395496D01*
X95880953Y-98395496D02*
X96023810Y-98395496D01*
X96023810Y-98395496D02*
X96119048Y-98443115D01*
X96119048Y-98443115D02*
X96166667Y-98538353D01*
X96166667Y-98538353D02*
X96166667Y-99062163D01*
X96023810Y-98014544D02*
X95880953Y-98157401D01*
X96595239Y-99014544D02*
X96690477Y-99062163D01*
X96690477Y-99062163D02*
X96880953Y-99062163D01*
X96880953Y-99062163D02*
X96976191Y-99014544D01*
X96976191Y-99014544D02*
X97023810Y-98919305D01*
X97023810Y-98919305D02*
X97023810Y-98871686D01*
X97023810Y-98871686D02*
X96976191Y-98776448D01*
X96976191Y-98776448D02*
X96880953Y-98728829D01*
X96880953Y-98728829D02*
X96738096Y-98728829D01*
X96738096Y-98728829D02*
X96642858Y-98681210D01*
X96642858Y-98681210D02*
X96595239Y-98585972D01*
X96595239Y-98585972D02*
X96595239Y-98538353D01*
X96595239Y-98538353D02*
X96642858Y-98443115D01*
X96642858Y-98443115D02*
X96738096Y-98395496D01*
X96738096Y-98395496D02*
X96880953Y-98395496D01*
X96880953Y-98395496D02*
X96976191Y-98443115D01*
X97452382Y-99062163D02*
X97452382Y-98062163D01*
X97547620Y-98681210D02*
X97833334Y-99062163D01*
X97833334Y-98395496D02*
X97452382Y-98776448D01*
X98261906Y-99062163D02*
X98261906Y-98395496D01*
X98261906Y-98062163D02*
X98214287Y-98109782D01*
X98214287Y-98109782D02*
X98261906Y-98157401D01*
X98261906Y-98157401D02*
X98309525Y-98109782D01*
X98309525Y-98109782D02*
X98261906Y-98062163D01*
X98261906Y-98062163D02*
X98261906Y-98157401D01*
D11*
X110800000Y-131200000D02*
X110800000Y-129400000D01*
X138700000Y-131100000D02*
X139200000Y-130500000D01*
X110800000Y-131200000D02*
X111300000Y-130600000D01*
X125000000Y-130900000D02*
X124600000Y-130300000D01*
X152800000Y-131200000D02*
X152800000Y-129400000D01*
X166700000Y-131400000D02*
X166300000Y-130800000D01*
X166700000Y-131400000D02*
X167200000Y-130800000D01*
X96800000Y-131100000D02*
X96800000Y-129300000D01*
X125000000Y-130900000D02*
X125000000Y-129100000D01*
X96800000Y-131100000D02*
X96400000Y-130500000D01*
X110800000Y-131200000D02*
X110400000Y-130600000D01*
X166700000Y-131400000D02*
X166700000Y-129600000D01*
X125000000Y-130900000D02*
X125500000Y-130300000D01*
X156300000Y-102000000D02*
X156700000Y-102600000D01*
X156300000Y-102000000D02*
X156300000Y-103800000D01*
X138700000Y-131100000D02*
X138700000Y-129300000D01*
X96800000Y-131100000D02*
X97300000Y-130500000D01*
X138700000Y-131100000D02*
X138300000Y-130500000D01*
X156300000Y-102000000D02*
X155800000Y-102600000D01*
X152800000Y-131200000D02*
X153300000Y-130600000D01*
X152800000Y-131200000D02*
X152400000Y-130600000D01*
D12*
X121166666Y-104954819D02*
X121166666Y-105764342D01*
X121166666Y-105764342D02*
X121214285Y-105859580D01*
X121214285Y-105859580D02*
X121261904Y-105907200D01*
X121261904Y-105907200D02*
X121357142Y-105954819D01*
X121357142Y-105954819D02*
X121547618Y-105954819D01*
X121547618Y-105954819D02*
X121642856Y-105907200D01*
X121642856Y-105907200D02*
X121690475Y-105859580D01*
X121690475Y-105859580D02*
X121738094Y-105764342D01*
X121738094Y-105764342D02*
X121738094Y-104954819D01*
X122166666Y-105669104D02*
X122642856Y-105669104D01*
X122071428Y-105954819D02*
X122404761Y-104954819D01*
X122404761Y-104954819D02*
X122738094Y-105954819D01*
X123642856Y-105954819D02*
X123309523Y-105478628D01*
X123071428Y-105954819D02*
X123071428Y-104954819D01*
X123071428Y-104954819D02*
X123452380Y-104954819D01*
X123452380Y-104954819D02*
X123547618Y-105002438D01*
X123547618Y-105002438D02*
X123595237Y-105050057D01*
X123595237Y-105050057D02*
X123642856Y-105145295D01*
X123642856Y-105145295D02*
X123642856Y-105288152D01*
X123642856Y-105288152D02*
X123595237Y-105383390D01*
X123595237Y-105383390D02*
X123547618Y-105431009D01*
X123547618Y-105431009D02*
X123452380Y-105478628D01*
X123452380Y-105478628D02*
X123071428Y-105478628D01*
X123928571Y-104954819D02*
X124499999Y-104954819D01*
X124214285Y-105954819D02*
X124214285Y-104954819D01*
X125452381Y-104954819D02*
X126023809Y-104954819D01*
X125738095Y-105954819D02*
X125738095Y-104954819D01*
X126261905Y-104954819D02*
X126928571Y-105954819D01*
X126928571Y-104954819D02*
X126261905Y-105954819D01*
X166690476Y-128631009D02*
X167023809Y-128631009D01*
X167166666Y-129154819D02*
X166690476Y-129154819D01*
X166690476Y-129154819D02*
X166690476Y-128154819D01*
X166690476Y-128154819D02*
X167166666Y-128154819D01*
X167500000Y-128154819D02*
X168166666Y-129154819D01*
X168166666Y-128154819D02*
X167500000Y-129154819D01*
X168547619Y-128773866D02*
X169309524Y-128773866D01*
X168928571Y-129154819D02*
X168928571Y-128392914D01*
X111297561Y-126538095D02*
X111345180Y-126442857D01*
X111345180Y-126442857D02*
X111345180Y-126300000D01*
X111345180Y-126300000D02*
X111297561Y-126157143D01*
X111297561Y-126157143D02*
X111202323Y-126061905D01*
X111202323Y-126061905D02*
X111107085Y-126014286D01*
X111107085Y-126014286D02*
X110916609Y-125966667D01*
X110916609Y-125966667D02*
X110773752Y-125966667D01*
X110773752Y-125966667D02*
X110583276Y-126014286D01*
X110583276Y-126014286D02*
X110488038Y-126061905D01*
X110488038Y-126061905D02*
X110392800Y-126157143D01*
X110392800Y-126157143D02*
X110345180Y-126300000D01*
X110345180Y-126300000D02*
X110345180Y-126395238D01*
X110345180Y-126395238D02*
X110392800Y-126538095D01*
X110392800Y-126538095D02*
X110440419Y-126585714D01*
X110440419Y-126585714D02*
X110773752Y-126585714D01*
X110773752Y-126585714D02*
X110773752Y-126395238D01*
X110345180Y-127014286D02*
X111345180Y-127014286D01*
X111345180Y-127014286D02*
X110345180Y-127585714D01*
X110345180Y-127585714D02*
X111345180Y-127585714D01*
X110345180Y-128061905D02*
X111345180Y-128061905D01*
X111345180Y-128061905D02*
X111345180Y-128300000D01*
X111345180Y-128300000D02*
X111297561Y-128442857D01*
X111297561Y-128442857D02*
X111202323Y-128538095D01*
X111202323Y-128538095D02*
X111107085Y-128585714D01*
X111107085Y-128585714D02*
X110916609Y-128633333D01*
X110916609Y-128633333D02*
X110773752Y-128633333D01*
X110773752Y-128633333D02*
X110583276Y-128585714D01*
X110583276Y-128585714D02*
X110488038Y-128538095D01*
X110488038Y-128538095D02*
X110392800Y-128442857D01*
X110392800Y-128442857D02*
X110345180Y-128300000D01*
X110345180Y-128300000D02*
X110345180Y-128061905D01*
D13*
X86333332Y-122399694D02*
X86333332Y-120399694D01*
X86333332Y-121352075D02*
X87304761Y-121352075D01*
X87304761Y-122399694D02*
X87304761Y-120399694D01*
X89085713Y-122209217D02*
X89004761Y-122304456D01*
X89004761Y-122304456D02*
X88761903Y-122399694D01*
X88761903Y-122399694D02*
X88599999Y-122399694D01*
X88599999Y-122399694D02*
X88357142Y-122304456D01*
X88357142Y-122304456D02*
X88195237Y-122113979D01*
X88195237Y-122113979D02*
X88114284Y-121923503D01*
X88114284Y-121923503D02*
X88033332Y-121542551D01*
X88033332Y-121542551D02*
X88033332Y-121256836D01*
X88033332Y-121256836D02*
X88114284Y-120875884D01*
X88114284Y-120875884D02*
X88195237Y-120685408D01*
X88195237Y-120685408D02*
X88357142Y-120494932D01*
X88357142Y-120494932D02*
X88599999Y-120399694D01*
X88599999Y-120399694D02*
X88761903Y-120399694D01*
X88761903Y-120399694D02*
X89004761Y-120494932D01*
X89004761Y-120494932D02*
X89085713Y-120590170D01*
X89814284Y-121637789D02*
X91109523Y-121637789D01*
X91838094Y-122304456D02*
X92080951Y-122399694D01*
X92080951Y-122399694D02*
X92485713Y-122399694D01*
X92485713Y-122399694D02*
X92647618Y-122304456D01*
X92647618Y-122304456D02*
X92728570Y-122209217D01*
X92728570Y-122209217D02*
X92809523Y-122018741D01*
X92809523Y-122018741D02*
X92809523Y-121828265D01*
X92809523Y-121828265D02*
X92728570Y-121637789D01*
X92728570Y-121637789D02*
X92647618Y-121542551D01*
X92647618Y-121542551D02*
X92485713Y-121447313D01*
X92485713Y-121447313D02*
X92161904Y-121352075D01*
X92161904Y-121352075D02*
X91999999Y-121256836D01*
X91999999Y-121256836D02*
X91919046Y-121161598D01*
X91919046Y-121161598D02*
X91838094Y-120971122D01*
X91838094Y-120971122D02*
X91838094Y-120780646D01*
X91838094Y-120780646D02*
X91919046Y-120590170D01*
X91919046Y-120590170D02*
X91999999Y-120494932D01*
X91999999Y-120494932D02*
X92161904Y-120399694D01*
X92161904Y-120399694D02*
X92566665Y-120399694D01*
X92566665Y-120399694D02*
X92809523Y-120494932D01*
X94509523Y-122399694D02*
X93942856Y-121447313D01*
X93538094Y-122399694D02*
X93538094Y-120399694D01*
X93538094Y-120399694D02*
X94185713Y-120399694D01*
X94185713Y-120399694D02*
X94347618Y-120494932D01*
X94347618Y-120494932D02*
X94428571Y-120590170D01*
X94428571Y-120590170D02*
X94509523Y-120780646D01*
X94509523Y-120780646D02*
X94509523Y-121066360D01*
X94509523Y-121066360D02*
X94428571Y-121256836D01*
X94428571Y-121256836D02*
X94347618Y-121352075D01*
X94347618Y-121352075D02*
X94185713Y-121447313D01*
X94185713Y-121447313D02*
X93538094Y-121447313D01*
X95561904Y-120399694D02*
X95723809Y-120399694D01*
X95723809Y-120399694D02*
X95885713Y-120494932D01*
X95885713Y-120494932D02*
X95966666Y-120590170D01*
X95966666Y-120590170D02*
X96047618Y-120780646D01*
X96047618Y-120780646D02*
X96128571Y-121161598D01*
X96128571Y-121161598D02*
X96128571Y-121637789D01*
X96128571Y-121637789D02*
X96047618Y-122018741D01*
X96047618Y-122018741D02*
X95966666Y-122209217D01*
X95966666Y-122209217D02*
X95885713Y-122304456D01*
X95885713Y-122304456D02*
X95723809Y-122399694D01*
X95723809Y-122399694D02*
X95561904Y-122399694D01*
X95561904Y-122399694D02*
X95399999Y-122304456D01*
X95399999Y-122304456D02*
X95319047Y-122209217D01*
X95319047Y-122209217D02*
X95238094Y-122018741D01*
X95238094Y-122018741D02*
X95157142Y-121637789D01*
X95157142Y-121637789D02*
X95157142Y-121161598D01*
X95157142Y-121161598D02*
X95238094Y-120780646D01*
X95238094Y-120780646D02*
X95319047Y-120590170D01*
X95319047Y-120590170D02*
X95399999Y-120494932D01*
X95399999Y-120494932D02*
X95561904Y-120399694D01*
X97585714Y-121066360D02*
X97585714Y-122399694D01*
X97180952Y-120304456D02*
X96776190Y-121733027D01*
X96776190Y-121733027D02*
X97828571Y-121733027D01*
X90664285Y-124286248D02*
X91878571Y-124286248D01*
X91149999Y-123429105D02*
X90664285Y-126000534D01*
X91716666Y-125143391D02*
X90502380Y-125143391D01*
X91230952Y-126000534D02*
X91716666Y-123429105D01*
X93335714Y-125619582D02*
X92364285Y-125619582D01*
X92849999Y-125619582D02*
X92849999Y-123619582D01*
X92849999Y-123619582D02*
X92688095Y-123905296D01*
X92688095Y-123905296D02*
X92526190Y-124095772D01*
X92526190Y-124095772D02*
X92364285Y-124191010D01*
X114933332Y-122399694D02*
X114933332Y-120399694D01*
X114933332Y-121352075D02*
X115904761Y-121352075D01*
X115904761Y-122399694D02*
X115904761Y-120399694D01*
X117685713Y-122209217D02*
X117604761Y-122304456D01*
X117604761Y-122304456D02*
X117361903Y-122399694D01*
X117361903Y-122399694D02*
X117199999Y-122399694D01*
X117199999Y-122399694D02*
X116957142Y-122304456D01*
X116957142Y-122304456D02*
X116795237Y-122113979D01*
X116795237Y-122113979D02*
X116714284Y-121923503D01*
X116714284Y-121923503D02*
X116633332Y-121542551D01*
X116633332Y-121542551D02*
X116633332Y-121256836D01*
X116633332Y-121256836D02*
X116714284Y-120875884D01*
X116714284Y-120875884D02*
X116795237Y-120685408D01*
X116795237Y-120685408D02*
X116957142Y-120494932D01*
X116957142Y-120494932D02*
X117199999Y-120399694D01*
X117199999Y-120399694D02*
X117361903Y-120399694D01*
X117361903Y-120399694D02*
X117604761Y-120494932D01*
X117604761Y-120494932D02*
X117685713Y-120590170D01*
X118414284Y-121637789D02*
X119709523Y-121637789D01*
X120438094Y-122304456D02*
X120680951Y-122399694D01*
X120680951Y-122399694D02*
X121085713Y-122399694D01*
X121085713Y-122399694D02*
X121247618Y-122304456D01*
X121247618Y-122304456D02*
X121328570Y-122209217D01*
X121328570Y-122209217D02*
X121409523Y-122018741D01*
X121409523Y-122018741D02*
X121409523Y-121828265D01*
X121409523Y-121828265D02*
X121328570Y-121637789D01*
X121328570Y-121637789D02*
X121247618Y-121542551D01*
X121247618Y-121542551D02*
X121085713Y-121447313D01*
X121085713Y-121447313D02*
X120761904Y-121352075D01*
X120761904Y-121352075D02*
X120599999Y-121256836D01*
X120599999Y-121256836D02*
X120519046Y-121161598D01*
X120519046Y-121161598D02*
X120438094Y-120971122D01*
X120438094Y-120971122D02*
X120438094Y-120780646D01*
X120438094Y-120780646D02*
X120519046Y-120590170D01*
X120519046Y-120590170D02*
X120599999Y-120494932D01*
X120599999Y-120494932D02*
X120761904Y-120399694D01*
X120761904Y-120399694D02*
X121166665Y-120399694D01*
X121166665Y-120399694D02*
X121409523Y-120494932D01*
X123109523Y-122399694D02*
X122542856Y-121447313D01*
X122138094Y-122399694D02*
X122138094Y-120399694D01*
X122138094Y-120399694D02*
X122785713Y-120399694D01*
X122785713Y-120399694D02*
X122947618Y-120494932D01*
X122947618Y-120494932D02*
X123028571Y-120590170D01*
X123028571Y-120590170D02*
X123109523Y-120780646D01*
X123109523Y-120780646D02*
X123109523Y-121066360D01*
X123109523Y-121066360D02*
X123028571Y-121256836D01*
X123028571Y-121256836D02*
X122947618Y-121352075D01*
X122947618Y-121352075D02*
X122785713Y-121447313D01*
X122785713Y-121447313D02*
X122138094Y-121447313D01*
X124161904Y-120399694D02*
X124323809Y-120399694D01*
X124323809Y-120399694D02*
X124485713Y-120494932D01*
X124485713Y-120494932D02*
X124566666Y-120590170D01*
X124566666Y-120590170D02*
X124647618Y-120780646D01*
X124647618Y-120780646D02*
X124728571Y-121161598D01*
X124728571Y-121161598D02*
X124728571Y-121637789D01*
X124728571Y-121637789D02*
X124647618Y-122018741D01*
X124647618Y-122018741D02*
X124566666Y-122209217D01*
X124566666Y-122209217D02*
X124485713Y-122304456D01*
X124485713Y-122304456D02*
X124323809Y-122399694D01*
X124323809Y-122399694D02*
X124161904Y-122399694D01*
X124161904Y-122399694D02*
X123999999Y-122304456D01*
X123999999Y-122304456D02*
X123919047Y-122209217D01*
X123919047Y-122209217D02*
X123838094Y-122018741D01*
X123838094Y-122018741D02*
X123757142Y-121637789D01*
X123757142Y-121637789D02*
X123757142Y-121161598D01*
X123757142Y-121161598D02*
X123838094Y-120780646D01*
X123838094Y-120780646D02*
X123919047Y-120590170D01*
X123919047Y-120590170D02*
X123999999Y-120494932D01*
X123999999Y-120494932D02*
X124161904Y-120399694D01*
X126185714Y-121066360D02*
X126185714Y-122399694D01*
X125780952Y-120304456D02*
X125376190Y-121733027D01*
X125376190Y-121733027D02*
X126428571Y-121733027D01*
X119264285Y-124286248D02*
X120478571Y-124286248D01*
X119749999Y-123429105D02*
X119264285Y-126000534D01*
X120316666Y-125143391D02*
X119102380Y-125143391D01*
X119830952Y-126000534D02*
X120316666Y-123429105D01*
X120883333Y-123619582D02*
X121935714Y-123619582D01*
X121935714Y-123619582D02*
X121369047Y-124381486D01*
X121369047Y-124381486D02*
X121611904Y-124381486D01*
X121611904Y-124381486D02*
X121773809Y-124476724D01*
X121773809Y-124476724D02*
X121854761Y-124571963D01*
X121854761Y-124571963D02*
X121935714Y-124762439D01*
X121935714Y-124762439D02*
X121935714Y-125238629D01*
X121935714Y-125238629D02*
X121854761Y-125429105D01*
X121854761Y-125429105D02*
X121773809Y-125524344D01*
X121773809Y-125524344D02*
X121611904Y-125619582D01*
X121611904Y-125619582D02*
X121126190Y-125619582D01*
X121126190Y-125619582D02*
X120964285Y-125524344D01*
X120964285Y-125524344D02*
X120883333Y-125429105D01*
D12*
X152790476Y-128431009D02*
X153123809Y-128431009D01*
X153266666Y-128954819D02*
X152790476Y-128954819D01*
X152790476Y-128954819D02*
X152790476Y-127954819D01*
X152790476Y-127954819D02*
X153266666Y-127954819D01*
X153600000Y-127954819D02*
X154266666Y-128954819D01*
X154266666Y-127954819D02*
X153600000Y-128954819D01*
X154647619Y-128573866D02*
X155409524Y-128573866D01*
X155028571Y-128954819D02*
X155028571Y-128192914D01*
X133792800Y-109480953D02*
X133745180Y-109623810D01*
X133745180Y-109623810D02*
X133745180Y-109861905D01*
X133745180Y-109861905D02*
X133792800Y-109957143D01*
X133792800Y-109957143D02*
X133840419Y-110004762D01*
X133840419Y-110004762D02*
X133935657Y-110052381D01*
X133935657Y-110052381D02*
X134030895Y-110052381D01*
X134030895Y-110052381D02*
X134126133Y-110004762D01*
X134126133Y-110004762D02*
X134173752Y-109957143D01*
X134173752Y-109957143D02*
X134221371Y-109861905D01*
X134221371Y-109861905D02*
X134268990Y-109671429D01*
X134268990Y-109671429D02*
X134316609Y-109576191D01*
X134316609Y-109576191D02*
X134364228Y-109528572D01*
X134364228Y-109528572D02*
X134459466Y-109480953D01*
X134459466Y-109480953D02*
X134554704Y-109480953D01*
X134554704Y-109480953D02*
X134649942Y-109528572D01*
X134649942Y-109528572D02*
X134697561Y-109576191D01*
X134697561Y-109576191D02*
X134745180Y-109671429D01*
X134745180Y-109671429D02*
X134745180Y-109909524D01*
X134745180Y-109909524D02*
X134697561Y-110052381D01*
X134745180Y-110385715D02*
X133745180Y-110623810D01*
X133745180Y-110623810D02*
X134459466Y-110814286D01*
X134459466Y-110814286D02*
X133745180Y-111004762D01*
X133745180Y-111004762D02*
X134745180Y-111242858D01*
X133745180Y-111623810D02*
X134745180Y-111623810D01*
X134745180Y-112290476D02*
X134745180Y-112480952D01*
X134745180Y-112480952D02*
X134697561Y-112576190D01*
X134697561Y-112576190D02*
X134602323Y-112671428D01*
X134602323Y-112671428D02*
X134411847Y-112719047D01*
X134411847Y-112719047D02*
X134078514Y-112719047D01*
X134078514Y-112719047D02*
X133888038Y-112671428D01*
X133888038Y-112671428D02*
X133792800Y-112576190D01*
X133792800Y-112576190D02*
X133745180Y-112480952D01*
X133745180Y-112480952D02*
X133745180Y-112290476D01*
X133745180Y-112290476D02*
X133792800Y-112195238D01*
X133792800Y-112195238D02*
X133888038Y-112100000D01*
X133888038Y-112100000D02*
X134078514Y-112052381D01*
X134078514Y-112052381D02*
X134411847Y-112052381D01*
X134411847Y-112052381D02*
X134602323Y-112100000D01*
X134602323Y-112100000D02*
X134697561Y-112195238D01*
X134697561Y-112195238D02*
X134745180Y-112290476D01*
D13*
X101033332Y-122399694D02*
X101033332Y-120399694D01*
X101033332Y-121352075D02*
X102004761Y-121352075D01*
X102004761Y-122399694D02*
X102004761Y-120399694D01*
X103785713Y-122209217D02*
X103704761Y-122304456D01*
X103704761Y-122304456D02*
X103461903Y-122399694D01*
X103461903Y-122399694D02*
X103299999Y-122399694D01*
X103299999Y-122399694D02*
X103057142Y-122304456D01*
X103057142Y-122304456D02*
X102895237Y-122113979D01*
X102895237Y-122113979D02*
X102814284Y-121923503D01*
X102814284Y-121923503D02*
X102733332Y-121542551D01*
X102733332Y-121542551D02*
X102733332Y-121256836D01*
X102733332Y-121256836D02*
X102814284Y-120875884D01*
X102814284Y-120875884D02*
X102895237Y-120685408D01*
X102895237Y-120685408D02*
X103057142Y-120494932D01*
X103057142Y-120494932D02*
X103299999Y-120399694D01*
X103299999Y-120399694D02*
X103461903Y-120399694D01*
X103461903Y-120399694D02*
X103704761Y-120494932D01*
X103704761Y-120494932D02*
X103785713Y-120590170D01*
X104514284Y-121637789D02*
X105809523Y-121637789D01*
X106538094Y-122304456D02*
X106780951Y-122399694D01*
X106780951Y-122399694D02*
X107185713Y-122399694D01*
X107185713Y-122399694D02*
X107347618Y-122304456D01*
X107347618Y-122304456D02*
X107428570Y-122209217D01*
X107428570Y-122209217D02*
X107509523Y-122018741D01*
X107509523Y-122018741D02*
X107509523Y-121828265D01*
X107509523Y-121828265D02*
X107428570Y-121637789D01*
X107428570Y-121637789D02*
X107347618Y-121542551D01*
X107347618Y-121542551D02*
X107185713Y-121447313D01*
X107185713Y-121447313D02*
X106861904Y-121352075D01*
X106861904Y-121352075D02*
X106699999Y-121256836D01*
X106699999Y-121256836D02*
X106619046Y-121161598D01*
X106619046Y-121161598D02*
X106538094Y-120971122D01*
X106538094Y-120971122D02*
X106538094Y-120780646D01*
X106538094Y-120780646D02*
X106619046Y-120590170D01*
X106619046Y-120590170D02*
X106699999Y-120494932D01*
X106699999Y-120494932D02*
X106861904Y-120399694D01*
X106861904Y-120399694D02*
X107266665Y-120399694D01*
X107266665Y-120399694D02*
X107509523Y-120494932D01*
X109209523Y-122399694D02*
X108642856Y-121447313D01*
X108238094Y-122399694D02*
X108238094Y-120399694D01*
X108238094Y-120399694D02*
X108885713Y-120399694D01*
X108885713Y-120399694D02*
X109047618Y-120494932D01*
X109047618Y-120494932D02*
X109128571Y-120590170D01*
X109128571Y-120590170D02*
X109209523Y-120780646D01*
X109209523Y-120780646D02*
X109209523Y-121066360D01*
X109209523Y-121066360D02*
X109128571Y-121256836D01*
X109128571Y-121256836D02*
X109047618Y-121352075D01*
X109047618Y-121352075D02*
X108885713Y-121447313D01*
X108885713Y-121447313D02*
X108238094Y-121447313D01*
X110261904Y-120399694D02*
X110423809Y-120399694D01*
X110423809Y-120399694D02*
X110585713Y-120494932D01*
X110585713Y-120494932D02*
X110666666Y-120590170D01*
X110666666Y-120590170D02*
X110747618Y-120780646D01*
X110747618Y-120780646D02*
X110828571Y-121161598D01*
X110828571Y-121161598D02*
X110828571Y-121637789D01*
X110828571Y-121637789D02*
X110747618Y-122018741D01*
X110747618Y-122018741D02*
X110666666Y-122209217D01*
X110666666Y-122209217D02*
X110585713Y-122304456D01*
X110585713Y-122304456D02*
X110423809Y-122399694D01*
X110423809Y-122399694D02*
X110261904Y-122399694D01*
X110261904Y-122399694D02*
X110099999Y-122304456D01*
X110099999Y-122304456D02*
X110019047Y-122209217D01*
X110019047Y-122209217D02*
X109938094Y-122018741D01*
X109938094Y-122018741D02*
X109857142Y-121637789D01*
X109857142Y-121637789D02*
X109857142Y-121161598D01*
X109857142Y-121161598D02*
X109938094Y-120780646D01*
X109938094Y-120780646D02*
X110019047Y-120590170D01*
X110019047Y-120590170D02*
X110099999Y-120494932D01*
X110099999Y-120494932D02*
X110261904Y-120399694D01*
X112285714Y-121066360D02*
X112285714Y-122399694D01*
X111880952Y-120304456D02*
X111476190Y-121733027D01*
X111476190Y-121733027D02*
X112528571Y-121733027D01*
X105364285Y-124286248D02*
X106578571Y-124286248D01*
X105849999Y-123429105D02*
X105364285Y-126000534D01*
X106416666Y-125143391D02*
X105202380Y-125143391D01*
X105930952Y-126000534D02*
X106416666Y-123429105D01*
X107064285Y-123810058D02*
X107145237Y-123714820D01*
X107145237Y-123714820D02*
X107307142Y-123619582D01*
X107307142Y-123619582D02*
X107711904Y-123619582D01*
X107711904Y-123619582D02*
X107873809Y-123714820D01*
X107873809Y-123714820D02*
X107954761Y-123810058D01*
X107954761Y-123810058D02*
X108035714Y-124000534D01*
X108035714Y-124000534D02*
X108035714Y-124191010D01*
X108035714Y-124191010D02*
X107954761Y-124476724D01*
X107954761Y-124476724D02*
X106983333Y-125619582D01*
X106983333Y-125619582D02*
X108035714Y-125619582D01*
X152976189Y-112809638D02*
X152976189Y-110809638D01*
X152976189Y-111762019D02*
X153947618Y-111762019D01*
X153947618Y-112809638D02*
X153947618Y-110809638D01*
X154595237Y-110809638D02*
X155728570Y-112809638D01*
X155728570Y-110809638D02*
X154595237Y-112809638D01*
X156214285Y-110809638D02*
X157347618Y-110809638D01*
X157347618Y-110809638D02*
X156619047Y-112809638D01*
X158885714Y-112809638D02*
X157914285Y-112809638D01*
X158399999Y-112809638D02*
X158399999Y-110809638D01*
X158399999Y-110809638D02*
X158238095Y-111095352D01*
X158238095Y-111095352D02*
X158076190Y-111285828D01*
X158076190Y-111285828D02*
X157914285Y-111381066D01*
X160504762Y-112809638D02*
X159533333Y-112809638D01*
X160019047Y-112809638D02*
X160019047Y-110809638D01*
X160019047Y-110809638D02*
X159857143Y-111095352D01*
X159857143Y-111095352D02*
X159695238Y-111285828D01*
X159695238Y-111285828D02*
X159533333Y-111381066D01*
D12*
X131545180Y-109561905D02*
X131545180Y-110180952D01*
X131545180Y-110180952D02*
X131164228Y-109847619D01*
X131164228Y-109847619D02*
X131164228Y-109990476D01*
X131164228Y-109990476D02*
X131116609Y-110085714D01*
X131116609Y-110085714D02*
X131068990Y-110133333D01*
X131068990Y-110133333D02*
X130973752Y-110180952D01*
X130973752Y-110180952D02*
X130735657Y-110180952D01*
X130735657Y-110180952D02*
X130640419Y-110133333D01*
X130640419Y-110133333D02*
X130592800Y-110085714D01*
X130592800Y-110085714D02*
X130545180Y-109990476D01*
X130545180Y-109990476D02*
X130545180Y-109704762D01*
X130545180Y-109704762D02*
X130592800Y-109609524D01*
X130592800Y-109609524D02*
X130640419Y-109561905D01*
X131545180Y-110466667D02*
X130545180Y-110800000D01*
X130545180Y-110800000D02*
X131545180Y-111133333D01*
X131545180Y-111371429D02*
X131545180Y-111990476D01*
X131545180Y-111990476D02*
X131164228Y-111657143D01*
X131164228Y-111657143D02*
X131164228Y-111800000D01*
X131164228Y-111800000D02*
X131116609Y-111895238D01*
X131116609Y-111895238D02*
X131068990Y-111942857D01*
X131068990Y-111942857D02*
X130973752Y-111990476D01*
X130973752Y-111990476D02*
X130735657Y-111990476D01*
X130735657Y-111990476D02*
X130640419Y-111942857D01*
X130640419Y-111942857D02*
X130592800Y-111895238D01*
X130592800Y-111895238D02*
X130545180Y-111800000D01*
X130545180Y-111800000D02*
X130545180Y-111514286D01*
X130545180Y-111514286D02*
X130592800Y-111419048D01*
X130592800Y-111419048D02*
X130640419Y-111371429D01*
D10*
X167322387Y-117252380D02*
X166322387Y-117252380D01*
X166322387Y-117252380D02*
X166322387Y-116871428D01*
X166322387Y-116871428D02*
X166370006Y-116776190D01*
X166370006Y-116776190D02*
X166417625Y-116728571D01*
X166417625Y-116728571D02*
X166512863Y-116680952D01*
X166512863Y-116680952D02*
X166655720Y-116680952D01*
X166655720Y-116680952D02*
X166750958Y-116728571D01*
X166750958Y-116728571D02*
X166798577Y-116776190D01*
X166798577Y-116776190D02*
X166846196Y-116871428D01*
X166846196Y-116871428D02*
X166846196Y-117252380D01*
X167322387Y-116252380D02*
X166322387Y-116252380D01*
X167322387Y-115776190D02*
X166322387Y-115776190D01*
X166322387Y-115776190D02*
X167322387Y-115204762D01*
X167322387Y-115204762D02*
X166322387Y-115204762D01*
X166322387Y-114538095D02*
X166322387Y-114347619D01*
X166322387Y-114347619D02*
X166370006Y-114252381D01*
X166370006Y-114252381D02*
X166465244Y-114157143D01*
X166465244Y-114157143D02*
X166655720Y-114109524D01*
X166655720Y-114109524D02*
X166989053Y-114109524D01*
X166989053Y-114109524D02*
X167179529Y-114157143D01*
X167179529Y-114157143D02*
X167274768Y-114252381D01*
X167274768Y-114252381D02*
X167322387Y-114347619D01*
X167322387Y-114347619D02*
X167322387Y-114538095D01*
X167322387Y-114538095D02*
X167274768Y-114633333D01*
X167274768Y-114633333D02*
X167179529Y-114728571D01*
X167179529Y-114728571D02*
X166989053Y-114776190D01*
X166989053Y-114776190D02*
X166655720Y-114776190D01*
X166655720Y-114776190D02*
X166465244Y-114728571D01*
X166465244Y-114728571D02*
X166370006Y-114633333D01*
X166370006Y-114633333D02*
X166322387Y-114538095D01*
X166322387Y-113680952D02*
X167131910Y-113680952D01*
X167131910Y-113680952D02*
X167227148Y-113633333D01*
X167227148Y-113633333D02*
X167274768Y-113585714D01*
X167274768Y-113585714D02*
X167322387Y-113490476D01*
X167322387Y-113490476D02*
X167322387Y-113300000D01*
X167322387Y-113300000D02*
X167274768Y-113204762D01*
X167274768Y-113204762D02*
X167227148Y-113157143D01*
X167227148Y-113157143D02*
X167131910Y-113109524D01*
X167131910Y-113109524D02*
X166322387Y-113109524D01*
X166322387Y-112776190D02*
X166322387Y-112204762D01*
X167322387Y-112490476D02*
X166322387Y-112490476D01*
X170542275Y-118514285D02*
X169542275Y-118514285D01*
X170018465Y-118514285D02*
X170018465Y-117942857D01*
X170542275Y-117942857D02*
X169542275Y-117942857D01*
X170447036Y-116895238D02*
X170494656Y-116942857D01*
X170494656Y-116942857D02*
X170542275Y-117085714D01*
X170542275Y-117085714D02*
X170542275Y-117180952D01*
X170542275Y-117180952D02*
X170494656Y-117323809D01*
X170494656Y-117323809D02*
X170399417Y-117419047D01*
X170399417Y-117419047D02*
X170304179Y-117466666D01*
X170304179Y-117466666D02*
X170113703Y-117514285D01*
X170113703Y-117514285D02*
X169970846Y-117514285D01*
X169970846Y-117514285D02*
X169780370Y-117466666D01*
X169780370Y-117466666D02*
X169685132Y-117419047D01*
X169685132Y-117419047D02*
X169589894Y-117323809D01*
X169589894Y-117323809D02*
X169542275Y-117180952D01*
X169542275Y-117180952D02*
X169542275Y-117085714D01*
X169542275Y-117085714D02*
X169589894Y-116942857D01*
X169589894Y-116942857D02*
X169637513Y-116895238D01*
X170161322Y-116466666D02*
X170161322Y-115704762D01*
X170494656Y-115276190D02*
X170542275Y-115133333D01*
X170542275Y-115133333D02*
X170542275Y-114895238D01*
X170542275Y-114895238D02*
X170494656Y-114800000D01*
X170494656Y-114800000D02*
X170447036Y-114752381D01*
X170447036Y-114752381D02*
X170351798Y-114704762D01*
X170351798Y-114704762D02*
X170256560Y-114704762D01*
X170256560Y-114704762D02*
X170161322Y-114752381D01*
X170161322Y-114752381D02*
X170113703Y-114800000D01*
X170113703Y-114800000D02*
X170066084Y-114895238D01*
X170066084Y-114895238D02*
X170018465Y-115085714D01*
X170018465Y-115085714D02*
X169970846Y-115180952D01*
X169970846Y-115180952D02*
X169923227Y-115228571D01*
X169923227Y-115228571D02*
X169827989Y-115276190D01*
X169827989Y-115276190D02*
X169732751Y-115276190D01*
X169732751Y-115276190D02*
X169637513Y-115228571D01*
X169637513Y-115228571D02*
X169589894Y-115180952D01*
X169589894Y-115180952D02*
X169542275Y-115085714D01*
X169542275Y-115085714D02*
X169542275Y-114847619D01*
X169542275Y-114847619D02*
X169589894Y-114704762D01*
X170542275Y-113704762D02*
X170066084Y-114038095D01*
X170542275Y-114276190D02*
X169542275Y-114276190D01*
X169542275Y-114276190D02*
X169542275Y-113895238D01*
X169542275Y-113895238D02*
X169589894Y-113800000D01*
X169589894Y-113800000D02*
X169637513Y-113752381D01*
X169637513Y-113752381D02*
X169732751Y-113704762D01*
X169732751Y-113704762D02*
X169875608Y-113704762D01*
X169875608Y-113704762D02*
X169970846Y-113752381D01*
X169970846Y-113752381D02*
X170018465Y-113800000D01*
X170018465Y-113800000D02*
X170066084Y-113895238D01*
X170066084Y-113895238D02*
X170066084Y-114276190D01*
X169542275Y-113085714D02*
X169542275Y-112990476D01*
X169542275Y-112990476D02*
X169589894Y-112895238D01*
X169589894Y-112895238D02*
X169637513Y-112847619D01*
X169637513Y-112847619D02*
X169732751Y-112800000D01*
X169732751Y-112800000D02*
X169923227Y-112752381D01*
X169923227Y-112752381D02*
X170161322Y-112752381D01*
X170161322Y-112752381D02*
X170351798Y-112800000D01*
X170351798Y-112800000D02*
X170447036Y-112847619D01*
X170447036Y-112847619D02*
X170494656Y-112895238D01*
X170494656Y-112895238D02*
X170542275Y-112990476D01*
X170542275Y-112990476D02*
X170542275Y-113085714D01*
X170542275Y-113085714D02*
X170494656Y-113180952D01*
X170494656Y-113180952D02*
X170447036Y-113228571D01*
X170447036Y-113228571D02*
X170351798Y-113276190D01*
X170351798Y-113276190D02*
X170161322Y-113323809D01*
X170161322Y-113323809D02*
X169923227Y-113323809D01*
X169923227Y-113323809D02*
X169732751Y-113276190D01*
X169732751Y-113276190D02*
X169637513Y-113228571D01*
X169637513Y-113228571D02*
X169589894Y-113180952D01*
X169589894Y-113180952D02*
X169542275Y-113085714D01*
X169875608Y-111895238D02*
X170542275Y-111895238D01*
X169494656Y-112133333D02*
X170208941Y-112371428D01*
X170208941Y-112371428D02*
X170208941Y-111752381D01*
X171152219Y-123847619D02*
X171152219Y-124323809D01*
X171152219Y-124323809D02*
X171628409Y-124371428D01*
X171628409Y-124371428D02*
X171580790Y-124323809D01*
X171580790Y-124323809D02*
X171533171Y-124228571D01*
X171533171Y-124228571D02*
X171533171Y-123990476D01*
X171533171Y-123990476D02*
X171580790Y-123895238D01*
X171580790Y-123895238D02*
X171628409Y-123847619D01*
X171628409Y-123847619D02*
X171723647Y-123800000D01*
X171723647Y-123800000D02*
X171961742Y-123800000D01*
X171961742Y-123800000D02*
X172056980Y-123847619D01*
X172056980Y-123847619D02*
X172104600Y-123895238D01*
X172104600Y-123895238D02*
X172152219Y-123990476D01*
X172152219Y-123990476D02*
X172152219Y-124228571D01*
X172152219Y-124228571D02*
X172104600Y-124323809D01*
X172104600Y-124323809D02*
X172056980Y-124371428D01*
X171152219Y-123514285D02*
X172152219Y-123180952D01*
X172152219Y-123180952D02*
X171152219Y-122847619D01*
X172485552Y-121514285D02*
X171056980Y-121514285D01*
X171152219Y-120180951D02*
X171152219Y-119609523D01*
X172152219Y-119895237D02*
X171152219Y-119895237D01*
X172152219Y-118704761D02*
X171676028Y-119038094D01*
X172152219Y-119276189D02*
X171152219Y-119276189D01*
X171152219Y-119276189D02*
X171152219Y-118895237D01*
X171152219Y-118895237D02*
X171199838Y-118799999D01*
X171199838Y-118799999D02*
X171247457Y-118752380D01*
X171247457Y-118752380D02*
X171342695Y-118704761D01*
X171342695Y-118704761D02*
X171485552Y-118704761D01*
X171485552Y-118704761D02*
X171580790Y-118752380D01*
X171580790Y-118752380D02*
X171628409Y-118799999D01*
X171628409Y-118799999D02*
X171676028Y-118895237D01*
X171676028Y-118895237D02*
X171676028Y-119276189D01*
X172152219Y-118276189D02*
X171152219Y-118276189D01*
X171199838Y-117276190D02*
X171152219Y-117371428D01*
X171152219Y-117371428D02*
X171152219Y-117514285D01*
X171152219Y-117514285D02*
X171199838Y-117657142D01*
X171199838Y-117657142D02*
X171295076Y-117752380D01*
X171295076Y-117752380D02*
X171390314Y-117799999D01*
X171390314Y-117799999D02*
X171580790Y-117847618D01*
X171580790Y-117847618D02*
X171723647Y-117847618D01*
X171723647Y-117847618D02*
X171914123Y-117799999D01*
X171914123Y-117799999D02*
X172009361Y-117752380D01*
X172009361Y-117752380D02*
X172104600Y-117657142D01*
X172104600Y-117657142D02*
X172152219Y-117514285D01*
X172152219Y-117514285D02*
X172152219Y-117419047D01*
X172152219Y-117419047D02*
X172104600Y-117276190D01*
X172104600Y-117276190D02*
X172056980Y-117228571D01*
X172056980Y-117228571D02*
X171723647Y-117228571D01*
X171723647Y-117228571D02*
X171723647Y-117419047D01*
X172485552Y-115799999D02*
X171056980Y-115799999D01*
X171628409Y-114323808D02*
X171628409Y-113990475D01*
X172152219Y-113847618D02*
X172152219Y-114323808D01*
X172152219Y-114323808D02*
X171152219Y-114323808D01*
X171152219Y-114323808D02*
X171152219Y-113847618D01*
X172056980Y-112847618D02*
X172104600Y-112895237D01*
X172104600Y-112895237D02*
X172152219Y-113038094D01*
X172152219Y-113038094D02*
X172152219Y-113133332D01*
X172152219Y-113133332D02*
X172104600Y-113276189D01*
X172104600Y-113276189D02*
X172009361Y-113371427D01*
X172009361Y-113371427D02*
X171914123Y-113419046D01*
X171914123Y-113419046D02*
X171723647Y-113466665D01*
X171723647Y-113466665D02*
X171580790Y-113466665D01*
X171580790Y-113466665D02*
X171390314Y-113419046D01*
X171390314Y-113419046D02*
X171295076Y-113371427D01*
X171295076Y-113371427D02*
X171199838Y-113276189D01*
X171199838Y-113276189D02*
X171152219Y-113133332D01*
X171152219Y-113133332D02*
X171152219Y-113038094D01*
X171152219Y-113038094D02*
X171199838Y-112895237D01*
X171199838Y-112895237D02*
X171247457Y-112847618D01*
X172152219Y-112419046D02*
X171152219Y-112419046D01*
X171628409Y-112419046D02*
X171628409Y-111847618D01*
X172152219Y-111847618D02*
X171152219Y-111847618D01*
X171152219Y-111180951D02*
X171152219Y-110990475D01*
X171152219Y-110990475D02*
X171199838Y-110895237D01*
X171199838Y-110895237D02*
X171295076Y-110799999D01*
X171295076Y-110799999D02*
X171485552Y-110752380D01*
X171485552Y-110752380D02*
X171818885Y-110752380D01*
X171818885Y-110752380D02*
X172009361Y-110799999D01*
X172009361Y-110799999D02*
X172104600Y-110895237D01*
X172104600Y-110895237D02*
X172152219Y-110990475D01*
X172152219Y-110990475D02*
X172152219Y-111180951D01*
X172152219Y-111180951D02*
X172104600Y-111276189D01*
X172104600Y-111276189D02*
X172009361Y-111371427D01*
X172009361Y-111371427D02*
X171818885Y-111419046D01*
X171818885Y-111419046D02*
X171485552Y-111419046D01*
X171485552Y-111419046D02*
X171295076Y-111371427D01*
X171295076Y-111371427D02*
X171199838Y-111276189D01*
X171199838Y-111276189D02*
X171152219Y-111180951D01*
X172485552Y-109323808D02*
X171056980Y-109323808D01*
X171199838Y-107323808D02*
X171152219Y-107419046D01*
X171152219Y-107419046D02*
X171152219Y-107561903D01*
X171152219Y-107561903D02*
X171199838Y-107704760D01*
X171199838Y-107704760D02*
X171295076Y-107799998D01*
X171295076Y-107799998D02*
X171390314Y-107847617D01*
X171390314Y-107847617D02*
X171580790Y-107895236D01*
X171580790Y-107895236D02*
X171723647Y-107895236D01*
X171723647Y-107895236D02*
X171914123Y-107847617D01*
X171914123Y-107847617D02*
X172009361Y-107799998D01*
X172009361Y-107799998D02*
X172104600Y-107704760D01*
X172104600Y-107704760D02*
X172152219Y-107561903D01*
X172152219Y-107561903D02*
X172152219Y-107466665D01*
X172152219Y-107466665D02*
X172104600Y-107323808D01*
X172104600Y-107323808D02*
X172056980Y-107276189D01*
X172056980Y-107276189D02*
X171723647Y-107276189D01*
X171723647Y-107276189D02*
X171723647Y-107466665D01*
X172152219Y-106847617D02*
X171152219Y-106847617D01*
X171152219Y-106847617D02*
X172152219Y-106276189D01*
X172152219Y-106276189D02*
X171152219Y-106276189D01*
X172152219Y-105799998D02*
X171152219Y-105799998D01*
X171152219Y-105799998D02*
X171152219Y-105561903D01*
X171152219Y-105561903D02*
X171199838Y-105419046D01*
X171199838Y-105419046D02*
X171295076Y-105323808D01*
X171295076Y-105323808D02*
X171390314Y-105276189D01*
X171390314Y-105276189D02*
X171580790Y-105228570D01*
X171580790Y-105228570D02*
X171723647Y-105228570D01*
X171723647Y-105228570D02*
X171914123Y-105276189D01*
X171914123Y-105276189D02*
X172009361Y-105323808D01*
X172009361Y-105323808D02*
X172104600Y-105419046D01*
X172104600Y-105419046D02*
X172152219Y-105561903D01*
X172152219Y-105561903D02*
X172152219Y-105799998D01*
X175372107Y-116990475D02*
X174372107Y-116990475D01*
X174848297Y-116990475D02*
X174848297Y-116419047D01*
X175372107Y-116419047D02*
X174372107Y-116419047D01*
X174372107Y-116038094D02*
X175372107Y-115371428D01*
X174372107Y-115371428D02*
X175372107Y-116038094D01*
X174372107Y-115085713D02*
X174372107Y-114419047D01*
X174372107Y-114419047D02*
X175372107Y-114847618D01*
X175372107Y-113514285D02*
X175372107Y-114085713D01*
X175372107Y-113799999D02*
X174372107Y-113799999D01*
X174372107Y-113799999D02*
X174514964Y-113895237D01*
X174514964Y-113895237D02*
X174610202Y-113990475D01*
X174610202Y-113990475D02*
X174657821Y-114085713D01*
X175372107Y-112561904D02*
X175372107Y-113133332D01*
X175372107Y-112847618D02*
X174372107Y-112847618D01*
X174372107Y-112847618D02*
X174514964Y-112942856D01*
X174514964Y-112942856D02*
X174610202Y-113038094D01*
X174610202Y-113038094D02*
X174657821Y-113133332D01*
X176029670Y-123585714D02*
X175982051Y-123680952D01*
X175982051Y-123680952D02*
X175982051Y-123823809D01*
X175982051Y-123823809D02*
X176029670Y-123966666D01*
X176029670Y-123966666D02*
X176124908Y-124061904D01*
X176124908Y-124061904D02*
X176220146Y-124109523D01*
X176220146Y-124109523D02*
X176410622Y-124157142D01*
X176410622Y-124157142D02*
X176553479Y-124157142D01*
X176553479Y-124157142D02*
X176743955Y-124109523D01*
X176743955Y-124109523D02*
X176839193Y-124061904D01*
X176839193Y-124061904D02*
X176934432Y-123966666D01*
X176934432Y-123966666D02*
X176982051Y-123823809D01*
X176982051Y-123823809D02*
X176982051Y-123728571D01*
X176982051Y-123728571D02*
X176934432Y-123585714D01*
X176934432Y-123585714D02*
X176886812Y-123538095D01*
X176886812Y-123538095D02*
X176553479Y-123538095D01*
X176553479Y-123538095D02*
X176553479Y-123728571D01*
X176982051Y-123109523D02*
X175982051Y-123109523D01*
X175982051Y-123109523D02*
X176982051Y-122538095D01*
X176982051Y-122538095D02*
X175982051Y-122538095D01*
X176982051Y-122061904D02*
X175982051Y-122061904D01*
X175982051Y-122061904D02*
X175982051Y-121823809D01*
X175982051Y-121823809D02*
X176029670Y-121680952D01*
X176029670Y-121680952D02*
X176124908Y-121585714D01*
X176124908Y-121585714D02*
X176220146Y-121538095D01*
X176220146Y-121538095D02*
X176410622Y-121490476D01*
X176410622Y-121490476D02*
X176553479Y-121490476D01*
X176553479Y-121490476D02*
X176743955Y-121538095D01*
X176743955Y-121538095D02*
X176839193Y-121585714D01*
X176839193Y-121585714D02*
X176934432Y-121680952D01*
X176934432Y-121680952D02*
X176982051Y-121823809D01*
X176982051Y-121823809D02*
X176982051Y-122061904D01*
X177315384Y-120061904D02*
X175886812Y-120061904D01*
X176982051Y-118585713D02*
X175982051Y-118585713D01*
X176982051Y-118109523D02*
X175982051Y-118109523D01*
X175982051Y-118109523D02*
X176982051Y-117538095D01*
X176982051Y-117538095D02*
X175982051Y-117538095D01*
X176601098Y-117061904D02*
X176601098Y-116300000D01*
X177315384Y-114823809D02*
X175886812Y-114823809D01*
X176982051Y-113347618D02*
X175982051Y-113347618D01*
X176982051Y-112871428D02*
X175982051Y-112871428D01*
X175982051Y-112871428D02*
X176982051Y-112300000D01*
X176982051Y-112300000D02*
X175982051Y-112300000D01*
X176601098Y-111823809D02*
X176601098Y-111061905D01*
X176982051Y-111442857D02*
X176220146Y-111442857D01*
X177315384Y-109585714D02*
X175886812Y-109585714D01*
X176458241Y-108109523D02*
X176458241Y-107776190D01*
X176982051Y-107633333D02*
X176982051Y-108109523D01*
X176982051Y-108109523D02*
X175982051Y-108109523D01*
X175982051Y-108109523D02*
X175982051Y-107633333D01*
X175982051Y-107299999D02*
X176982051Y-106633333D01*
X175982051Y-106633333D02*
X176982051Y-107299999D01*
X176601098Y-106252380D02*
X176601098Y-105490476D01*
X176982051Y-105871428D02*
X176220146Y-105871428D01*
D14*
X143871429Y-125930228D02*
X146728572Y-125930228D01*
X143300000Y-127644514D02*
X145300000Y-121644514D01*
X145300000Y-121644514D02*
X147300000Y-127644514D01*
D12*
X125497561Y-126238095D02*
X125545180Y-126142857D01*
X125545180Y-126142857D02*
X125545180Y-126000000D01*
X125545180Y-126000000D02*
X125497561Y-125857143D01*
X125497561Y-125857143D02*
X125402323Y-125761905D01*
X125402323Y-125761905D02*
X125307085Y-125714286D01*
X125307085Y-125714286D02*
X125116609Y-125666667D01*
X125116609Y-125666667D02*
X124973752Y-125666667D01*
X124973752Y-125666667D02*
X124783276Y-125714286D01*
X124783276Y-125714286D02*
X124688038Y-125761905D01*
X124688038Y-125761905D02*
X124592800Y-125857143D01*
X124592800Y-125857143D02*
X124545180Y-126000000D01*
X124545180Y-126000000D02*
X124545180Y-126095238D01*
X124545180Y-126095238D02*
X124592800Y-126238095D01*
X124592800Y-126238095D02*
X124640419Y-126285714D01*
X124640419Y-126285714D02*
X124973752Y-126285714D01*
X124973752Y-126285714D02*
X124973752Y-126095238D01*
X124545180Y-126714286D02*
X125545180Y-126714286D01*
X125545180Y-126714286D02*
X124545180Y-127285714D01*
X124545180Y-127285714D02*
X125545180Y-127285714D01*
X124545180Y-127761905D02*
X125545180Y-127761905D01*
X125545180Y-127761905D02*
X125545180Y-128000000D01*
X125545180Y-128000000D02*
X125497561Y-128142857D01*
X125497561Y-128142857D02*
X125402323Y-128238095D01*
X125402323Y-128238095D02*
X125307085Y-128285714D01*
X125307085Y-128285714D02*
X125116609Y-128333333D01*
X125116609Y-128333333D02*
X124973752Y-128333333D01*
X124973752Y-128333333D02*
X124783276Y-128285714D01*
X124783276Y-128285714D02*
X124688038Y-128238095D01*
X124688038Y-128238095D02*
X124592800Y-128142857D01*
X124592800Y-128142857D02*
X124545180Y-128000000D01*
X124545180Y-128000000D02*
X124545180Y-127761905D01*
D14*
X168128571Y-123901657D02*
X168985714Y-124187371D01*
X168985714Y-124187371D02*
X169271428Y-124473085D01*
X169271428Y-124473085D02*
X169557142Y-125044514D01*
X169557142Y-125044514D02*
X169557142Y-125901657D01*
X169557142Y-125901657D02*
X169271428Y-126473085D01*
X169271428Y-126473085D02*
X168985714Y-126758800D01*
X168985714Y-126758800D02*
X168414285Y-127044514D01*
X168414285Y-127044514D02*
X166128571Y-127044514D01*
X166128571Y-127044514D02*
X166128571Y-121044514D01*
X166128571Y-121044514D02*
X168128571Y-121044514D01*
X168128571Y-121044514D02*
X168700000Y-121330228D01*
X168700000Y-121330228D02*
X168985714Y-121615942D01*
X168985714Y-121615942D02*
X169271428Y-122187371D01*
X169271428Y-122187371D02*
X169271428Y-122758800D01*
X169271428Y-122758800D02*
X168985714Y-123330228D01*
X168985714Y-123330228D02*
X168700000Y-123615942D01*
X168700000Y-123615942D02*
X168128571Y-123901657D01*
X168128571Y-123901657D02*
X166128571Y-123901657D01*
D12*
X155738095Y-104202438D02*
X155642857Y-104154819D01*
X155642857Y-104154819D02*
X155500000Y-104154819D01*
X155500000Y-104154819D02*
X155357143Y-104202438D01*
X155357143Y-104202438D02*
X155261905Y-104297676D01*
X155261905Y-104297676D02*
X155214286Y-104392914D01*
X155214286Y-104392914D02*
X155166667Y-104583390D01*
X155166667Y-104583390D02*
X155166667Y-104726247D01*
X155166667Y-104726247D02*
X155214286Y-104916723D01*
X155214286Y-104916723D02*
X155261905Y-105011961D01*
X155261905Y-105011961D02*
X155357143Y-105107200D01*
X155357143Y-105107200D02*
X155500000Y-105154819D01*
X155500000Y-105154819D02*
X155595238Y-105154819D01*
X155595238Y-105154819D02*
X155738095Y-105107200D01*
X155738095Y-105107200D02*
X155785714Y-105059580D01*
X155785714Y-105059580D02*
X155785714Y-104726247D01*
X155785714Y-104726247D02*
X155595238Y-104726247D01*
X156214286Y-105154819D02*
X156214286Y-104154819D01*
X156214286Y-104154819D02*
X156785714Y-105154819D01*
X156785714Y-105154819D02*
X156785714Y-104154819D01*
X157261905Y-105154819D02*
X157261905Y-104154819D01*
X157261905Y-104154819D02*
X157500000Y-104154819D01*
X157500000Y-104154819D02*
X157642857Y-104202438D01*
X157642857Y-104202438D02*
X157738095Y-104297676D01*
X157738095Y-104297676D02*
X157785714Y-104392914D01*
X157785714Y-104392914D02*
X157833333Y-104583390D01*
X157833333Y-104583390D02*
X157833333Y-104726247D01*
X157833333Y-104726247D02*
X157785714Y-104916723D01*
X157785714Y-104916723D02*
X157738095Y-105011961D01*
X157738095Y-105011961D02*
X157642857Y-105107200D01*
X157642857Y-105107200D02*
X157500000Y-105154819D01*
X157500000Y-105154819D02*
X157261905Y-105154819D01*
X136897561Y-110238095D02*
X136945180Y-110142857D01*
X136945180Y-110142857D02*
X136945180Y-110000000D01*
X136945180Y-110000000D02*
X136897561Y-109857143D01*
X136897561Y-109857143D02*
X136802323Y-109761905D01*
X136802323Y-109761905D02*
X136707085Y-109714286D01*
X136707085Y-109714286D02*
X136516609Y-109666667D01*
X136516609Y-109666667D02*
X136373752Y-109666667D01*
X136373752Y-109666667D02*
X136183276Y-109714286D01*
X136183276Y-109714286D02*
X136088038Y-109761905D01*
X136088038Y-109761905D02*
X135992800Y-109857143D01*
X135992800Y-109857143D02*
X135945180Y-110000000D01*
X135945180Y-110000000D02*
X135945180Y-110095238D01*
X135945180Y-110095238D02*
X135992800Y-110238095D01*
X135992800Y-110238095D02*
X136040419Y-110285714D01*
X136040419Y-110285714D02*
X136373752Y-110285714D01*
X136373752Y-110285714D02*
X136373752Y-110095238D01*
X135945180Y-110714286D02*
X136945180Y-110714286D01*
X136945180Y-110714286D02*
X135945180Y-111285714D01*
X135945180Y-111285714D02*
X136945180Y-111285714D01*
X135945180Y-111761905D02*
X136945180Y-111761905D01*
X136945180Y-111761905D02*
X136945180Y-112000000D01*
X136945180Y-112000000D02*
X136897561Y-112142857D01*
X136897561Y-112142857D02*
X136802323Y-112238095D01*
X136802323Y-112238095D02*
X136707085Y-112285714D01*
X136707085Y-112285714D02*
X136516609Y-112333333D01*
X136516609Y-112333333D02*
X136373752Y-112333333D01*
X136373752Y-112333333D02*
X136183276Y-112285714D01*
X136183276Y-112285714D02*
X136088038Y-112238095D01*
X136088038Y-112238095D02*
X135992800Y-112142857D01*
X135992800Y-112142857D02*
X135945180Y-112000000D01*
X135945180Y-112000000D02*
X135945180Y-111761905D01*
X177407200Y-104000000D02*
X177454819Y-103857143D01*
X177454819Y-103857143D02*
X177454819Y-103619048D01*
X177454819Y-103619048D02*
X177407200Y-103523810D01*
X177407200Y-103523810D02*
X177359580Y-103476191D01*
X177359580Y-103476191D02*
X177264342Y-103428572D01*
X177264342Y-103428572D02*
X177169104Y-103428572D01*
X177169104Y-103428572D02*
X177073866Y-103476191D01*
X177073866Y-103476191D02*
X177026247Y-103523810D01*
X177026247Y-103523810D02*
X176978628Y-103619048D01*
X176978628Y-103619048D02*
X176931009Y-103809524D01*
X176931009Y-103809524D02*
X176883390Y-103904762D01*
X176883390Y-103904762D02*
X176835771Y-103952381D01*
X176835771Y-103952381D02*
X176740533Y-104000000D01*
X176740533Y-104000000D02*
X176645295Y-104000000D01*
X176645295Y-104000000D02*
X176550057Y-103952381D01*
X176550057Y-103952381D02*
X176502438Y-103904762D01*
X176502438Y-103904762D02*
X176454819Y-103809524D01*
X176454819Y-103809524D02*
X176454819Y-103571429D01*
X176454819Y-103571429D02*
X176502438Y-103428572D01*
X177407200Y-102619048D02*
X177454819Y-102714286D01*
X177454819Y-102714286D02*
X177454819Y-102904762D01*
X177454819Y-102904762D02*
X177407200Y-103000000D01*
X177407200Y-103000000D02*
X177311961Y-103047619D01*
X177311961Y-103047619D02*
X176931009Y-103047619D01*
X176931009Y-103047619D02*
X176835771Y-103000000D01*
X176835771Y-103000000D02*
X176788152Y-102904762D01*
X176788152Y-102904762D02*
X176788152Y-102714286D01*
X176788152Y-102714286D02*
X176835771Y-102619048D01*
X176835771Y-102619048D02*
X176931009Y-102571429D01*
X176931009Y-102571429D02*
X177026247Y-102571429D01*
X177026247Y-102571429D02*
X177121485Y-103047619D01*
X177454819Y-102000000D02*
X177407200Y-102095238D01*
X177407200Y-102095238D02*
X177311961Y-102142857D01*
X177311961Y-102142857D02*
X176454819Y-102142857D01*
X177407200Y-101238095D02*
X177454819Y-101333333D01*
X177454819Y-101333333D02*
X177454819Y-101523809D01*
X177454819Y-101523809D02*
X177407200Y-101619047D01*
X177407200Y-101619047D02*
X177311961Y-101666666D01*
X177311961Y-101666666D02*
X176931009Y-101666666D01*
X176931009Y-101666666D02*
X176835771Y-101619047D01*
X176835771Y-101619047D02*
X176788152Y-101523809D01*
X176788152Y-101523809D02*
X176788152Y-101333333D01*
X176788152Y-101333333D02*
X176835771Y-101238095D01*
X176835771Y-101238095D02*
X176931009Y-101190476D01*
X176931009Y-101190476D02*
X177026247Y-101190476D01*
X177026247Y-101190476D02*
X177121485Y-101666666D01*
X177407200Y-100333333D02*
X177454819Y-100428571D01*
X177454819Y-100428571D02*
X177454819Y-100619047D01*
X177454819Y-100619047D02*
X177407200Y-100714285D01*
X177407200Y-100714285D02*
X177359580Y-100761904D01*
X177359580Y-100761904D02*
X177264342Y-100809523D01*
X177264342Y-100809523D02*
X176978628Y-100809523D01*
X176978628Y-100809523D02*
X176883390Y-100761904D01*
X176883390Y-100761904D02*
X176835771Y-100714285D01*
X176835771Y-100714285D02*
X176788152Y-100619047D01*
X176788152Y-100619047D02*
X176788152Y-100428571D01*
X176788152Y-100428571D02*
X176835771Y-100333333D01*
X176788152Y-100047618D02*
X176788152Y-99666666D01*
X176454819Y-99904761D02*
X177311961Y-99904761D01*
X177311961Y-99904761D02*
X177407200Y-99857142D01*
X177407200Y-99857142D02*
X177454819Y-99761904D01*
X177454819Y-99761904D02*
X177454819Y-99666666D01*
X177407200Y-98952380D02*
X177454819Y-99047618D01*
X177454819Y-99047618D02*
X177454819Y-99238094D01*
X177454819Y-99238094D02*
X177407200Y-99333332D01*
X177407200Y-99333332D02*
X177311961Y-99380951D01*
X177311961Y-99380951D02*
X176931009Y-99380951D01*
X176931009Y-99380951D02*
X176835771Y-99333332D01*
X176835771Y-99333332D02*
X176788152Y-99238094D01*
X176788152Y-99238094D02*
X176788152Y-99047618D01*
X176788152Y-99047618D02*
X176835771Y-98952380D01*
X176835771Y-98952380D02*
X176931009Y-98904761D01*
X176931009Y-98904761D02*
X177026247Y-98904761D01*
X177026247Y-98904761D02*
X177121485Y-99380951D01*
X177454819Y-98047618D02*
X176454819Y-98047618D01*
X177407200Y-98047618D02*
X177454819Y-98142856D01*
X177454819Y-98142856D02*
X177454819Y-98333332D01*
X177454819Y-98333332D02*
X177407200Y-98428570D01*
X177407200Y-98428570D02*
X177359580Y-98476189D01*
X177359580Y-98476189D02*
X177264342Y-98523808D01*
X177264342Y-98523808D02*
X176978628Y-98523808D01*
X176978628Y-98523808D02*
X176883390Y-98476189D01*
X176883390Y-98476189D02*
X176835771Y-98428570D01*
X176835771Y-98428570D02*
X176788152Y-98333332D01*
X176788152Y-98333332D02*
X176788152Y-98142856D01*
X176788152Y-98142856D02*
X176835771Y-98047618D01*
X97197561Y-126438095D02*
X97245180Y-126342857D01*
X97245180Y-126342857D02*
X97245180Y-126200000D01*
X97245180Y-126200000D02*
X97197561Y-126057143D01*
X97197561Y-126057143D02*
X97102323Y-125961905D01*
X97102323Y-125961905D02*
X97007085Y-125914286D01*
X97007085Y-125914286D02*
X96816609Y-125866667D01*
X96816609Y-125866667D02*
X96673752Y-125866667D01*
X96673752Y-125866667D02*
X96483276Y-125914286D01*
X96483276Y-125914286D02*
X96388038Y-125961905D01*
X96388038Y-125961905D02*
X96292800Y-126057143D01*
X96292800Y-126057143D02*
X96245180Y-126200000D01*
X96245180Y-126200000D02*
X96245180Y-126295238D01*
X96245180Y-126295238D02*
X96292800Y-126438095D01*
X96292800Y-126438095D02*
X96340419Y-126485714D01*
X96340419Y-126485714D02*
X96673752Y-126485714D01*
X96673752Y-126485714D02*
X96673752Y-126295238D01*
X96245180Y-126914286D02*
X97245180Y-126914286D01*
X97245180Y-126914286D02*
X96245180Y-127485714D01*
X96245180Y-127485714D02*
X97245180Y-127485714D01*
X96245180Y-127961905D02*
X97245180Y-127961905D01*
X97245180Y-127961905D02*
X97245180Y-128200000D01*
X97245180Y-128200000D02*
X97197561Y-128342857D01*
X97197561Y-128342857D02*
X97102323Y-128438095D01*
X97102323Y-128438095D02*
X97007085Y-128485714D01*
X97007085Y-128485714D02*
X96816609Y-128533333D01*
X96816609Y-128533333D02*
X96673752Y-128533333D01*
X96673752Y-128533333D02*
X96483276Y-128485714D01*
X96483276Y-128485714D02*
X96388038Y-128438095D01*
X96388038Y-128438095D02*
X96292800Y-128342857D01*
X96292800Y-128342857D02*
X96245180Y-128200000D01*
X96245180Y-128200000D02*
X96245180Y-127961905D01*
X139197561Y-126438095D02*
X139245180Y-126342857D01*
X139245180Y-126342857D02*
X139245180Y-126200000D01*
X139245180Y-126200000D02*
X139197561Y-126057143D01*
X139197561Y-126057143D02*
X139102323Y-125961905D01*
X139102323Y-125961905D02*
X139007085Y-125914286D01*
X139007085Y-125914286D02*
X138816609Y-125866667D01*
X138816609Y-125866667D02*
X138673752Y-125866667D01*
X138673752Y-125866667D02*
X138483276Y-125914286D01*
X138483276Y-125914286D02*
X138388038Y-125961905D01*
X138388038Y-125961905D02*
X138292800Y-126057143D01*
X138292800Y-126057143D02*
X138245180Y-126200000D01*
X138245180Y-126200000D02*
X138245180Y-126295238D01*
X138245180Y-126295238D02*
X138292800Y-126438095D01*
X138292800Y-126438095D02*
X138340419Y-126485714D01*
X138340419Y-126485714D02*
X138673752Y-126485714D01*
X138673752Y-126485714D02*
X138673752Y-126295238D01*
X138245180Y-126914286D02*
X139245180Y-126914286D01*
X139245180Y-126914286D02*
X138245180Y-127485714D01*
X138245180Y-127485714D02*
X139245180Y-127485714D01*
X138245180Y-127961905D02*
X139245180Y-127961905D01*
X139245180Y-127961905D02*
X139245180Y-128200000D01*
X139245180Y-128200000D02*
X139197561Y-128342857D01*
X139197561Y-128342857D02*
X139102323Y-128438095D01*
X139102323Y-128438095D02*
X139007085Y-128485714D01*
X139007085Y-128485714D02*
X138816609Y-128533333D01*
X138816609Y-128533333D02*
X138673752Y-128533333D01*
X138673752Y-128533333D02*
X138483276Y-128485714D01*
X138483276Y-128485714D02*
X138388038Y-128438095D01*
X138388038Y-128438095D02*
X138292800Y-128342857D01*
X138292800Y-128342857D02*
X138245180Y-128200000D01*
X138245180Y-128200000D02*
X138245180Y-127961905D01*
D13*
X128433332Y-122599694D02*
X128433332Y-120599694D01*
X128433332Y-121552075D02*
X129404761Y-121552075D01*
X129404761Y-122599694D02*
X129404761Y-120599694D01*
X131185713Y-122409217D02*
X131104761Y-122504456D01*
X131104761Y-122504456D02*
X130861903Y-122599694D01*
X130861903Y-122599694D02*
X130699999Y-122599694D01*
X130699999Y-122599694D02*
X130457142Y-122504456D01*
X130457142Y-122504456D02*
X130295237Y-122313979D01*
X130295237Y-122313979D02*
X130214284Y-122123503D01*
X130214284Y-122123503D02*
X130133332Y-121742551D01*
X130133332Y-121742551D02*
X130133332Y-121456836D01*
X130133332Y-121456836D02*
X130214284Y-121075884D01*
X130214284Y-121075884D02*
X130295237Y-120885408D01*
X130295237Y-120885408D02*
X130457142Y-120694932D01*
X130457142Y-120694932D02*
X130699999Y-120599694D01*
X130699999Y-120599694D02*
X130861903Y-120599694D01*
X130861903Y-120599694D02*
X131104761Y-120694932D01*
X131104761Y-120694932D02*
X131185713Y-120790170D01*
X131914284Y-121837789D02*
X133209523Y-121837789D01*
X133938094Y-122504456D02*
X134180951Y-122599694D01*
X134180951Y-122599694D02*
X134585713Y-122599694D01*
X134585713Y-122599694D02*
X134747618Y-122504456D01*
X134747618Y-122504456D02*
X134828570Y-122409217D01*
X134828570Y-122409217D02*
X134909523Y-122218741D01*
X134909523Y-122218741D02*
X134909523Y-122028265D01*
X134909523Y-122028265D02*
X134828570Y-121837789D01*
X134828570Y-121837789D02*
X134747618Y-121742551D01*
X134747618Y-121742551D02*
X134585713Y-121647313D01*
X134585713Y-121647313D02*
X134261904Y-121552075D01*
X134261904Y-121552075D02*
X134099999Y-121456836D01*
X134099999Y-121456836D02*
X134019046Y-121361598D01*
X134019046Y-121361598D02*
X133938094Y-121171122D01*
X133938094Y-121171122D02*
X133938094Y-120980646D01*
X133938094Y-120980646D02*
X134019046Y-120790170D01*
X134019046Y-120790170D02*
X134099999Y-120694932D01*
X134099999Y-120694932D02*
X134261904Y-120599694D01*
X134261904Y-120599694D02*
X134666665Y-120599694D01*
X134666665Y-120599694D02*
X134909523Y-120694932D01*
X136609523Y-122599694D02*
X136042856Y-121647313D01*
X135638094Y-122599694D02*
X135638094Y-120599694D01*
X135638094Y-120599694D02*
X136285713Y-120599694D01*
X136285713Y-120599694D02*
X136447618Y-120694932D01*
X136447618Y-120694932D02*
X136528571Y-120790170D01*
X136528571Y-120790170D02*
X136609523Y-120980646D01*
X136609523Y-120980646D02*
X136609523Y-121266360D01*
X136609523Y-121266360D02*
X136528571Y-121456836D01*
X136528571Y-121456836D02*
X136447618Y-121552075D01*
X136447618Y-121552075D02*
X136285713Y-121647313D01*
X136285713Y-121647313D02*
X135638094Y-121647313D01*
X137661904Y-120599694D02*
X137823809Y-120599694D01*
X137823809Y-120599694D02*
X137985713Y-120694932D01*
X137985713Y-120694932D02*
X138066666Y-120790170D01*
X138066666Y-120790170D02*
X138147618Y-120980646D01*
X138147618Y-120980646D02*
X138228571Y-121361598D01*
X138228571Y-121361598D02*
X138228571Y-121837789D01*
X138228571Y-121837789D02*
X138147618Y-122218741D01*
X138147618Y-122218741D02*
X138066666Y-122409217D01*
X138066666Y-122409217D02*
X137985713Y-122504456D01*
X137985713Y-122504456D02*
X137823809Y-122599694D01*
X137823809Y-122599694D02*
X137661904Y-122599694D01*
X137661904Y-122599694D02*
X137499999Y-122504456D01*
X137499999Y-122504456D02*
X137419047Y-122409217D01*
X137419047Y-122409217D02*
X137338094Y-122218741D01*
X137338094Y-122218741D02*
X137257142Y-121837789D01*
X137257142Y-121837789D02*
X137257142Y-121361598D01*
X137257142Y-121361598D02*
X137338094Y-120980646D01*
X137338094Y-120980646D02*
X137419047Y-120790170D01*
X137419047Y-120790170D02*
X137499999Y-120694932D01*
X137499999Y-120694932D02*
X137661904Y-120599694D01*
X139685714Y-121266360D02*
X139685714Y-122599694D01*
X139280952Y-120504456D02*
X138876190Y-121933027D01*
X138876190Y-121933027D02*
X139928571Y-121933027D01*
X132764285Y-124486248D02*
X133978571Y-124486248D01*
X133249999Y-123629105D02*
X132764285Y-126200534D01*
X133816666Y-125343391D02*
X132602380Y-125343391D01*
X133330952Y-126200534D02*
X133816666Y-123629105D01*
X135273809Y-124486248D02*
X135273809Y-125819582D01*
X134869047Y-123724344D02*
X134464285Y-125152915D01*
X134464285Y-125152915D02*
X135516666Y-125152915D01*
D12*
X155938095Y-115249819D02*
X155938095Y-116059342D01*
X155938095Y-116059342D02*
X155985714Y-116154580D01*
X155985714Y-116154580D02*
X156033333Y-116202200D01*
X156033333Y-116202200D02*
X156128571Y-116249819D01*
X156128571Y-116249819D02*
X156319047Y-116249819D01*
X156319047Y-116249819D02*
X156414285Y-116202200D01*
X156414285Y-116202200D02*
X156461904Y-116154580D01*
X156461904Y-116154580D02*
X156509523Y-116059342D01*
X156509523Y-116059342D02*
X156509523Y-115249819D01*
X157461904Y-115249819D02*
X156985714Y-115249819D01*
X156985714Y-115249819D02*
X156938095Y-115726009D01*
X156938095Y-115726009D02*
X156985714Y-115678390D01*
X156985714Y-115678390D02*
X157080952Y-115630771D01*
X157080952Y-115630771D02*
X157319047Y-115630771D01*
X157319047Y-115630771D02*
X157414285Y-115678390D01*
X157414285Y-115678390D02*
X157461904Y-115726009D01*
X157461904Y-115726009D02*
X157509523Y-115821247D01*
X157509523Y-115821247D02*
X157509523Y-116059342D01*
X157509523Y-116059342D02*
X157461904Y-116154580D01*
X157461904Y-116154580D02*
X157414285Y-116202200D01*
X157414285Y-116202200D02*
X157319047Y-116249819D01*
X157319047Y-116249819D02*
X157080952Y-116249819D01*
X157080952Y-116249819D02*
X156985714Y-116202200D01*
X156985714Y-116202200D02*
X156938095Y-116154580D01*
X148666666Y-128499819D02*
X148666666Y-129214104D01*
X148666666Y-129214104D02*
X148619047Y-129356961D01*
X148619047Y-129356961D02*
X148523809Y-129452200D01*
X148523809Y-129452200D02*
X148380952Y-129499819D01*
X148380952Y-129499819D02*
X148285714Y-129499819D01*
X149285714Y-128928390D02*
X149190476Y-128880771D01*
X149190476Y-128880771D02*
X149142857Y-128833152D01*
X149142857Y-128833152D02*
X149095238Y-128737914D01*
X149095238Y-128737914D02*
X149095238Y-128690295D01*
X149095238Y-128690295D02*
X149142857Y-128595057D01*
X149142857Y-128595057D02*
X149190476Y-128547438D01*
X149190476Y-128547438D02*
X149285714Y-128499819D01*
X149285714Y-128499819D02*
X149476190Y-128499819D01*
X149476190Y-128499819D02*
X149571428Y-128547438D01*
X149571428Y-128547438D02*
X149619047Y-128595057D01*
X149619047Y-128595057D02*
X149666666Y-128690295D01*
X149666666Y-128690295D02*
X149666666Y-128737914D01*
X149666666Y-128737914D02*
X149619047Y-128833152D01*
X149619047Y-128833152D02*
X149571428Y-128880771D01*
X149571428Y-128880771D02*
X149476190Y-128928390D01*
X149476190Y-128928390D02*
X149285714Y-128928390D01*
X149285714Y-128928390D02*
X149190476Y-128976009D01*
X149190476Y-128976009D02*
X149142857Y-129023628D01*
X149142857Y-129023628D02*
X149095238Y-129118866D01*
X149095238Y-129118866D02*
X149095238Y-129309342D01*
X149095238Y-129309342D02*
X149142857Y-129404580D01*
X149142857Y-129404580D02*
X149190476Y-129452200D01*
X149190476Y-129452200D02*
X149285714Y-129499819D01*
X149285714Y-129499819D02*
X149476190Y-129499819D01*
X149476190Y-129499819D02*
X149571428Y-129452200D01*
X149571428Y-129452200D02*
X149619047Y-129404580D01*
X149619047Y-129404580D02*
X149666666Y-129309342D01*
X149666666Y-129309342D02*
X149666666Y-129118866D01*
X149666666Y-129118866D02*
X149619047Y-129023628D01*
X149619047Y-129023628D02*
X149571428Y-128976009D01*
X149571428Y-128976009D02*
X149476190Y-128928390D01*
X123466666Y-103454819D02*
X123466666Y-104169104D01*
X123466666Y-104169104D02*
X123419047Y-104311961D01*
X123419047Y-104311961D02*
X123323809Y-104407200D01*
X123323809Y-104407200D02*
X123180952Y-104454819D01*
X123180952Y-104454819D02*
X123085714Y-104454819D01*
X124371428Y-103788152D02*
X124371428Y-104454819D01*
X124133333Y-103407200D02*
X123895238Y-104121485D01*
X123895238Y-104121485D02*
X124514285Y-104121485D01*
X150066666Y-96854819D02*
X150066666Y-97569104D01*
X150066666Y-97569104D02*
X150019047Y-97711961D01*
X150019047Y-97711961D02*
X149923809Y-97807200D01*
X149923809Y-97807200D02*
X149780952Y-97854819D01*
X149780952Y-97854819D02*
X149685714Y-97854819D01*
X150447619Y-96854819D02*
X151066666Y-96854819D01*
X151066666Y-96854819D02*
X150733333Y-97235771D01*
X150733333Y-97235771D02*
X150876190Y-97235771D01*
X150876190Y-97235771D02*
X150971428Y-97283390D01*
X150971428Y-97283390D02*
X151019047Y-97331009D01*
X151019047Y-97331009D02*
X151066666Y-97426247D01*
X151066666Y-97426247D02*
X151066666Y-97664342D01*
X151066666Y-97664342D02*
X151019047Y-97759580D01*
X151019047Y-97759580D02*
X150971428Y-97807200D01*
X150971428Y-97807200D02*
X150876190Y-97854819D01*
X150876190Y-97854819D02*
X150590476Y-97854819D01*
X150590476Y-97854819D02*
X150495238Y-97807200D01*
X150495238Y-97807200D02*
X150447619Y-97759580D01*
X141354761Y-118987557D02*
X141259523Y-118939938D01*
X141259523Y-118939938D02*
X141164285Y-118844700D01*
X141164285Y-118844700D02*
X141021428Y-118701842D01*
X141021428Y-118701842D02*
X140926190Y-118654223D01*
X140926190Y-118654223D02*
X140830952Y-118654223D01*
X140878571Y-118892319D02*
X140783333Y-118844700D01*
X140783333Y-118844700D02*
X140688095Y-118749461D01*
X140688095Y-118749461D02*
X140640476Y-118558985D01*
X140640476Y-118558985D02*
X140640476Y-118225652D01*
X140640476Y-118225652D02*
X140688095Y-118035176D01*
X140688095Y-118035176D02*
X140783333Y-117939938D01*
X140783333Y-117939938D02*
X140878571Y-117892319D01*
X140878571Y-117892319D02*
X141069047Y-117892319D01*
X141069047Y-117892319D02*
X141164285Y-117939938D01*
X141164285Y-117939938D02*
X141259523Y-118035176D01*
X141259523Y-118035176D02*
X141307142Y-118225652D01*
X141307142Y-118225652D02*
X141307142Y-118558985D01*
X141307142Y-118558985D02*
X141259523Y-118749461D01*
X141259523Y-118749461D02*
X141164285Y-118844700D01*
X141164285Y-118844700D02*
X141069047Y-118892319D01*
X141069047Y-118892319D02*
X140878571Y-118892319D01*
X142259523Y-118892319D02*
X141688095Y-118892319D01*
X141973809Y-118892319D02*
X141973809Y-117892319D01*
X141973809Y-117892319D02*
X141878571Y-118035176D01*
X141878571Y-118035176D02*
X141783333Y-118130414D01*
X141783333Y-118130414D02*
X141688095Y-118178033D01*
X120365476Y-127857319D02*
X120365476Y-128571604D01*
X120365476Y-128571604D02*
X120317857Y-128714461D01*
X120317857Y-128714461D02*
X120222619Y-128809700D01*
X120222619Y-128809700D02*
X120079762Y-128857319D01*
X120079762Y-128857319D02*
X119984524Y-128857319D01*
X121365476Y-128857319D02*
X120794048Y-128857319D01*
X121079762Y-128857319D02*
X121079762Y-127857319D01*
X121079762Y-127857319D02*
X120984524Y-128000176D01*
X120984524Y-128000176D02*
X120889286Y-128095414D01*
X120889286Y-128095414D02*
X120794048Y-128143033D01*
X122317857Y-128857319D02*
X121746429Y-128857319D01*
X122032143Y-128857319D02*
X122032143Y-127857319D01*
X122032143Y-127857319D02*
X121936905Y-128000176D01*
X121936905Y-128000176D02*
X121841667Y-128095414D01*
X121841667Y-128095414D02*
X121746429Y-128143033D01*
X134015476Y-128187319D02*
X134015476Y-128901604D01*
X134015476Y-128901604D02*
X133967857Y-129044461D01*
X133967857Y-129044461D02*
X133872619Y-129139700D01*
X133872619Y-129139700D02*
X133729762Y-129187319D01*
X133729762Y-129187319D02*
X133634524Y-129187319D01*
X135015476Y-129187319D02*
X134444048Y-129187319D01*
X134729762Y-129187319D02*
X134729762Y-128187319D01*
X134729762Y-128187319D02*
X134634524Y-128330176D01*
X134634524Y-128330176D02*
X134539286Y-128425414D01*
X134539286Y-128425414D02*
X134444048Y-128473033D01*
X135634524Y-128187319D02*
X135729762Y-128187319D01*
X135729762Y-128187319D02*
X135825000Y-128234938D01*
X135825000Y-128234938D02*
X135872619Y-128282557D01*
X135872619Y-128282557D02*
X135920238Y-128377795D01*
X135920238Y-128377795D02*
X135967857Y-128568271D01*
X135967857Y-128568271D02*
X135967857Y-128806366D01*
X135967857Y-128806366D02*
X135920238Y-128996842D01*
X135920238Y-128996842D02*
X135872619Y-129092080D01*
X135872619Y-129092080D02*
X135825000Y-129139700D01*
X135825000Y-129139700D02*
X135729762Y-129187319D01*
X135729762Y-129187319D02*
X135634524Y-129187319D01*
X135634524Y-129187319D02*
X135539286Y-129139700D01*
X135539286Y-129139700D02*
X135491667Y-129092080D01*
X135491667Y-129092080D02*
X135444048Y-128996842D01*
X135444048Y-128996842D02*
X135396429Y-128806366D01*
X135396429Y-128806366D02*
X135396429Y-128568271D01*
X135396429Y-128568271D02*
X135444048Y-128377795D01*
X135444048Y-128377795D02*
X135491667Y-128282557D01*
X135491667Y-128282557D02*
X135539286Y-128234938D01*
X135539286Y-128234938D02*
X135634524Y-128187319D01*
X162666666Y-128499819D02*
X162666666Y-129214104D01*
X162666666Y-129214104D02*
X162619047Y-129356961D01*
X162619047Y-129356961D02*
X162523809Y-129452200D01*
X162523809Y-129452200D02*
X162380952Y-129499819D01*
X162380952Y-129499819D02*
X162285714Y-129499819D01*
X163190476Y-129499819D02*
X163380952Y-129499819D01*
X163380952Y-129499819D02*
X163476190Y-129452200D01*
X163476190Y-129452200D02*
X163523809Y-129404580D01*
X163523809Y-129404580D02*
X163619047Y-129261723D01*
X163619047Y-129261723D02*
X163666666Y-129071247D01*
X163666666Y-129071247D02*
X163666666Y-128690295D01*
X163666666Y-128690295D02*
X163619047Y-128595057D01*
X163619047Y-128595057D02*
X163571428Y-128547438D01*
X163571428Y-128547438D02*
X163476190Y-128499819D01*
X163476190Y-128499819D02*
X163285714Y-128499819D01*
X163285714Y-128499819D02*
X163190476Y-128547438D01*
X163190476Y-128547438D02*
X163142857Y-128595057D01*
X163142857Y-128595057D02*
X163095238Y-128690295D01*
X163095238Y-128690295D02*
X163095238Y-128928390D01*
X163095238Y-128928390D02*
X163142857Y-129023628D01*
X163142857Y-129023628D02*
X163190476Y-129071247D01*
X163190476Y-129071247D02*
X163285714Y-129118866D01*
X163285714Y-129118866D02*
X163476190Y-129118866D01*
X163476190Y-129118866D02*
X163571428Y-129071247D01*
X163571428Y-129071247D02*
X163619047Y-129023628D01*
X163619047Y-129023628D02*
X163666666Y-128928390D01*
X131566666Y-104854819D02*
X131566666Y-105569104D01*
X131566666Y-105569104D02*
X131519047Y-105711961D01*
X131519047Y-105711961D02*
X131423809Y-105807200D01*
X131423809Y-105807200D02*
X131280952Y-105854819D01*
X131280952Y-105854819D02*
X131185714Y-105854819D01*
X131947619Y-104854819D02*
X132614285Y-104854819D01*
X132614285Y-104854819D02*
X132185714Y-105854819D01*
X92666666Y-128399819D02*
X92666666Y-129114104D01*
X92666666Y-129114104D02*
X92619047Y-129256961D01*
X92619047Y-129256961D02*
X92523809Y-129352200D01*
X92523809Y-129352200D02*
X92380952Y-129399819D01*
X92380952Y-129399819D02*
X92285714Y-129399819D01*
X93619047Y-128399819D02*
X93142857Y-128399819D01*
X93142857Y-128399819D02*
X93095238Y-128876009D01*
X93095238Y-128876009D02*
X93142857Y-128828390D01*
X93142857Y-128828390D02*
X93238095Y-128780771D01*
X93238095Y-128780771D02*
X93476190Y-128780771D01*
X93476190Y-128780771D02*
X93571428Y-128828390D01*
X93571428Y-128828390D02*
X93619047Y-128876009D01*
X93619047Y-128876009D02*
X93666666Y-128971247D01*
X93666666Y-128971247D02*
X93666666Y-129209342D01*
X93666666Y-129209342D02*
X93619047Y-129304580D01*
X93619047Y-129304580D02*
X93571428Y-129352200D01*
X93571428Y-129352200D02*
X93476190Y-129399819D01*
X93476190Y-129399819D02*
X93238095Y-129399819D01*
X93238095Y-129399819D02*
X93142857Y-129352200D01*
X93142857Y-129352200D02*
X93095238Y-129304580D01*
X143168095Y-111895819D02*
X143168095Y-112705342D01*
X143168095Y-112705342D02*
X143215714Y-112800580D01*
X143215714Y-112800580D02*
X143263333Y-112848200D01*
X143263333Y-112848200D02*
X143358571Y-112895819D01*
X143358571Y-112895819D02*
X143549047Y-112895819D01*
X143549047Y-112895819D02*
X143644285Y-112848200D01*
X143644285Y-112848200D02*
X143691904Y-112800580D01*
X143691904Y-112800580D02*
X143739523Y-112705342D01*
X143739523Y-112705342D02*
X143739523Y-111895819D01*
X144739523Y-112895819D02*
X144168095Y-112895819D01*
X144453809Y-112895819D02*
X144453809Y-111895819D01*
X144453809Y-111895819D02*
X144358571Y-112038676D01*
X144358571Y-112038676D02*
X144263333Y-112133914D01*
X144263333Y-112133914D02*
X144168095Y-112181533D01*
X106666666Y-128237319D02*
X106666666Y-128951604D01*
X106666666Y-128951604D02*
X106619047Y-129094461D01*
X106619047Y-129094461D02*
X106523809Y-129189700D01*
X106523809Y-129189700D02*
X106380952Y-129237319D01*
X106380952Y-129237319D02*
X106285714Y-129237319D01*
X107571428Y-128237319D02*
X107380952Y-128237319D01*
X107380952Y-128237319D02*
X107285714Y-128284938D01*
X107285714Y-128284938D02*
X107238095Y-128332557D01*
X107238095Y-128332557D02*
X107142857Y-128475414D01*
X107142857Y-128475414D02*
X107095238Y-128665890D01*
X107095238Y-128665890D02*
X107095238Y-129046842D01*
X107095238Y-129046842D02*
X107142857Y-129142080D01*
X107142857Y-129142080D02*
X107190476Y-129189700D01*
X107190476Y-129189700D02*
X107285714Y-129237319D01*
X107285714Y-129237319D02*
X107476190Y-129237319D01*
X107476190Y-129237319D02*
X107571428Y-129189700D01*
X107571428Y-129189700D02*
X107619047Y-129142080D01*
X107619047Y-129142080D02*
X107666666Y-129046842D01*
X107666666Y-129046842D02*
X107666666Y-128808747D01*
X107666666Y-128808747D02*
X107619047Y-128713509D01*
X107619047Y-128713509D02*
X107571428Y-128665890D01*
X107571428Y-128665890D02*
X107476190Y-128618271D01*
X107476190Y-128618271D02*
X107285714Y-128618271D01*
X107285714Y-128618271D02*
X107190476Y-128665890D01*
X107190476Y-128665890D02*
X107142857Y-128713509D01*
X107142857Y-128713509D02*
X107095238Y-128808747D01*
X118561905Y-107754819D02*
X118561905Y-106754819D01*
X118561905Y-106754819D02*
X118800000Y-106754819D01*
X118800000Y-106754819D02*
X118942857Y-106802438D01*
X118942857Y-106802438D02*
X119038095Y-106897676D01*
X119038095Y-106897676D02*
X119085714Y-106992914D01*
X119085714Y-106992914D02*
X119133333Y-107183390D01*
X119133333Y-107183390D02*
X119133333Y-107326247D01*
X119133333Y-107326247D02*
X119085714Y-107516723D01*
X119085714Y-107516723D02*
X119038095Y-107611961D01*
X119038095Y-107611961D02*
X118942857Y-107707200D01*
X118942857Y-107707200D02*
X118800000Y-107754819D01*
X118800000Y-107754819D02*
X118561905Y-107754819D01*
X119514286Y-106850057D02*
X119561905Y-106802438D01*
X119561905Y-106802438D02*
X119657143Y-106754819D01*
X119657143Y-106754819D02*
X119895238Y-106754819D01*
X119895238Y-106754819D02*
X119990476Y-106802438D01*
X119990476Y-106802438D02*
X120038095Y-106850057D01*
X120038095Y-106850057D02*
X120085714Y-106945295D01*
X120085714Y-106945295D02*
X120085714Y-107040533D01*
X120085714Y-107040533D02*
X120038095Y-107183390D01*
X120038095Y-107183390D02*
X119466667Y-107754819D01*
X119466667Y-107754819D02*
X120085714Y-107754819D01*
X127338095Y-108879819D02*
X127338095Y-109689342D01*
X127338095Y-109689342D02*
X127385714Y-109784580D01*
X127385714Y-109784580D02*
X127433333Y-109832200D01*
X127433333Y-109832200D02*
X127528571Y-109879819D01*
X127528571Y-109879819D02*
X127719047Y-109879819D01*
X127719047Y-109879819D02*
X127814285Y-109832200D01*
X127814285Y-109832200D02*
X127861904Y-109784580D01*
X127861904Y-109784580D02*
X127909523Y-109689342D01*
X127909523Y-109689342D02*
X127909523Y-108879819D01*
X128814285Y-109213152D02*
X128814285Y-109879819D01*
X128576190Y-108832200D02*
X128338095Y-109546485D01*
X128338095Y-109546485D02*
X128957142Y-109546485D01*
D15*
%TO.C,U5*%
X156700000Y-116635000D02*
X154750000Y-116635000D01*
X156700000Y-116635000D02*
X158650000Y-116635000D01*
X156700000Y-126755000D02*
X154750000Y-126755000D01*
X156700000Y-126755000D02*
X158650000Y-126755000D01*
X153975000Y-116690000D02*
X153735000Y-116360000D01*
X154215000Y-116360000D01*
X153975000Y-116690000D01*
G36*
X153975000Y-116690000D02*
G01*
X153735000Y-116360000D01*
X154215000Y-116360000D01*
X153975000Y-116690000D01*
G37*
%TO.C,J8*%
X142690000Y-130145000D02*
X144110000Y-130145000D01*
X142690000Y-141865000D02*
X142690000Y-130145000D01*
X144110000Y-130145000D02*
X144110000Y-134645000D01*
X144110000Y-134645000D02*
X149000000Y-134645000D01*
X144950000Y-130455000D02*
X145550000Y-130455000D01*
X145000000Y-135755000D02*
X145000000Y-141255000D01*
X145000000Y-141255000D02*
X145500000Y-141255000D01*
X145250000Y-131055000D02*
X144950000Y-130455000D01*
X145500000Y-135755000D02*
X145000000Y-135755000D01*
X145500000Y-141255000D02*
X145500000Y-135755000D01*
X145550000Y-130455000D02*
X145250000Y-131055000D01*
X147500000Y-135755000D02*
X147500000Y-141255000D01*
X147500000Y-141255000D02*
X148000000Y-141255000D01*
X148000000Y-135755000D02*
X147500000Y-135755000D01*
X148000000Y-141255000D02*
X148000000Y-135755000D01*
X149000000Y-141865000D02*
X142690000Y-141865000D01*
X149000000Y-141865000D02*
X155310000Y-141865000D01*
X150000000Y-135755000D02*
X150000000Y-141255000D01*
X150000000Y-141255000D02*
X150500000Y-141255000D01*
X150500000Y-135755000D02*
X150000000Y-135755000D01*
X150500000Y-141255000D02*
X150500000Y-135755000D01*
X152500000Y-135755000D02*
X152500000Y-141255000D01*
X152500000Y-141255000D02*
X153000000Y-141255000D01*
X153000000Y-135755000D02*
X152500000Y-135755000D01*
X153000000Y-141255000D02*
X153000000Y-135755000D01*
X153890000Y-130145000D02*
X153890000Y-134645000D01*
X153890000Y-134645000D02*
X149000000Y-134645000D01*
X155310000Y-130145000D02*
X153890000Y-130145000D01*
X155310000Y-141865000D02*
X155310000Y-130145000D01*
%TO.C,J4*%
X122470000Y-109335000D02*
X122470000Y-109455000D01*
X122470000Y-109455000D02*
X125130000Y-109455000D01*
X123800000Y-106795000D02*
X125130000Y-106795000D01*
X125130000Y-106795000D02*
X125130000Y-108125000D01*
X125130000Y-109335000D02*
X125130000Y-109455000D01*
D12*
%TO.C,U3*%
X98430000Y-104670000D02*
X101370000Y-104670000D01*
X98430000Y-111330000D02*
X98430000Y-104670000D01*
X101370000Y-104670000D02*
X101370000Y-111330000D01*
X101370000Y-111330000D02*
X98430000Y-111330000D01*
X101780000Y-111000000D02*
G75*
G02*
X101720000Y-111000000I-30000J0D01*
G01*
X101720000Y-111000000D02*
G75*
G02*
X101780000Y-111000000I30000J0D01*
G01*
D15*
%TO.C,J2*%
X107620000Y-92958272D02*
X108190000Y-92958272D01*
X107620000Y-98158272D02*
X107620000Y-92958272D01*
X107620000Y-98158272D02*
X108190000Y-98158272D01*
X108190000Y-92958272D02*
X108190000Y-91598272D01*
X109710000Y-92958272D02*
X110730000Y-92958272D01*
X109710000Y-98158272D02*
X110730000Y-98158272D01*
X112250000Y-92958272D02*
X113270000Y-92958272D01*
X112250000Y-98158272D02*
X113270000Y-98158272D01*
X114790000Y-92958272D02*
X115810000Y-92958272D01*
X114790000Y-98158272D02*
X115810000Y-98158272D01*
X117330000Y-92958272D02*
X118350000Y-92958272D01*
X117330000Y-98158272D02*
X118350000Y-98158272D01*
X119870000Y-92958272D02*
X120890000Y-92958272D01*
X119870000Y-98158272D02*
X120890000Y-98158272D01*
X122410000Y-92958272D02*
X123430000Y-92958272D01*
X122410000Y-98158272D02*
X123430000Y-98158272D01*
X124950000Y-92958272D02*
X125970000Y-92958272D01*
X124950000Y-98158272D02*
X125970000Y-98158272D01*
X127490000Y-92958272D02*
X128510000Y-92958272D01*
X127490000Y-98158272D02*
X128510000Y-98158272D01*
X130030000Y-92958272D02*
X131050000Y-92958272D01*
X130030000Y-98158272D02*
X131050000Y-98158272D01*
X132570000Y-92958272D02*
X133590000Y-92958272D01*
X132570000Y-98158272D02*
X133590000Y-98158272D01*
X135110000Y-92958272D02*
X136130000Y-92958272D01*
X135110000Y-98158272D02*
X136130000Y-98158272D01*
X137650000Y-92958272D02*
X138670000Y-92958272D01*
X137650000Y-98158272D02*
X138670000Y-98158272D01*
X140190000Y-92958272D02*
X141210000Y-92958272D01*
X140190000Y-98158272D02*
X141210000Y-98158272D01*
X142730000Y-92958272D02*
X143750000Y-92958272D01*
X142730000Y-98158272D02*
X143750000Y-98158272D01*
X145270000Y-92958272D02*
X146290000Y-92958272D01*
X145270000Y-98158272D02*
X146290000Y-98158272D01*
X147810000Y-92958272D02*
X148380000Y-92958272D01*
X147810000Y-98158272D02*
X148380000Y-98158272D01*
X148380000Y-98158272D02*
X148380000Y-92958272D01*
%TO.C,J3*%
X149790000Y-101380000D02*
X149790000Y-100000000D01*
X151170000Y-101380000D02*
X149790000Y-101380000D01*
X152440000Y-98620000D02*
X160170000Y-98620000D01*
X152440000Y-101380000D02*
X152440000Y-98620000D01*
X152440000Y-101380000D02*
X160170000Y-101380000D01*
X160170000Y-101380000D02*
X160170000Y-98620000D01*
%TO.C,Q1*%
X143690000Y-118437500D02*
X143690000Y-117787500D01*
X143690000Y-118437500D02*
X143690000Y-119087500D01*
X146810000Y-118437500D02*
X146810000Y-117787500D01*
X146810000Y-118437500D02*
X146810000Y-119087500D01*
X147090000Y-117515000D02*
X146760000Y-117275000D01*
X147090000Y-117035000D01*
X147090000Y-117515000D01*
G36*
X147090000Y-117515000D02*
G01*
X146760000Y-117275000D01*
X147090000Y-117035000D01*
X147090000Y-117515000D01*
G37*
D12*
%TO.C,U2*%
X164090000Y-98250000D02*
X164090000Y-98340000D01*
X164090000Y-98250000D02*
X167910000Y-98250000D01*
X164090000Y-103250000D02*
X164090000Y-103160000D01*
X167910000Y-98250000D02*
X167910000Y-98340000D01*
X167910000Y-103250000D02*
X164090000Y-103250000D01*
X167910000Y-103250000D02*
X167910000Y-103160000D01*
X168280000Y-103250000D02*
G75*
G02*
X168220000Y-103250000I-30000J0D01*
G01*
X168220000Y-103250000D02*
G75*
G02*
X168280000Y-103250000I30000J0D01*
G01*
D15*
%TO.C,J11*%
X114865000Y-129502500D02*
X116285000Y-129502500D01*
X114865000Y-141222500D02*
X114865000Y-129502500D01*
X116285000Y-129502500D02*
X116285000Y-134002500D01*
X116285000Y-134002500D02*
X121175000Y-134002500D01*
X117125000Y-129812500D02*
X117725000Y-129812500D01*
X117175000Y-135112500D02*
X117175000Y-140612500D01*
X117175000Y-140612500D02*
X117675000Y-140612500D01*
X117425000Y-130412500D02*
X117125000Y-129812500D01*
X117675000Y-135112500D02*
X117175000Y-135112500D01*
X117675000Y-140612500D02*
X117675000Y-135112500D01*
X117725000Y-129812500D02*
X117425000Y-130412500D01*
X119675000Y-135112500D02*
X119675000Y-140612500D01*
X119675000Y-140612500D02*
X120175000Y-140612500D01*
X120175000Y-135112500D02*
X119675000Y-135112500D01*
X120175000Y-140612500D02*
X120175000Y-135112500D01*
X121175000Y-141222500D02*
X114865000Y-141222500D01*
X121175000Y-141222500D02*
X127485000Y-141222500D01*
X122175000Y-135112500D02*
X122175000Y-140612500D01*
X122175000Y-140612500D02*
X122675000Y-140612500D01*
X122675000Y-135112500D02*
X122175000Y-135112500D01*
X122675000Y-140612500D02*
X122675000Y-135112500D01*
X124675000Y-135112500D02*
X124675000Y-140612500D01*
X124675000Y-140612500D02*
X125175000Y-140612500D01*
X125175000Y-135112500D02*
X124675000Y-135112500D01*
X125175000Y-140612500D02*
X125175000Y-135112500D01*
X126065000Y-129502500D02*
X126065000Y-134002500D01*
X126065000Y-134002500D02*
X121175000Y-134002500D01*
X127485000Y-129502500D02*
X126065000Y-129502500D01*
X127485000Y-141222500D02*
X127485000Y-129502500D01*
%TO.C,J10*%
X128515000Y-129832500D02*
X129935000Y-129832500D01*
X128515000Y-141552500D02*
X128515000Y-129832500D01*
X129935000Y-129832500D02*
X129935000Y-134332500D01*
X129935000Y-134332500D02*
X134825000Y-134332500D01*
X130775000Y-130142500D02*
X131375000Y-130142500D01*
X130825000Y-135442500D02*
X130825000Y-140942500D01*
X130825000Y-140942500D02*
X131325000Y-140942500D01*
X131075000Y-130742500D02*
X130775000Y-130142500D01*
X131325000Y-135442500D02*
X130825000Y-135442500D01*
X131325000Y-140942500D02*
X131325000Y-135442500D01*
X131375000Y-130142500D02*
X131075000Y-130742500D01*
X133325000Y-135442500D02*
X133325000Y-140942500D01*
X133325000Y-140942500D02*
X133825000Y-140942500D01*
X133825000Y-135442500D02*
X133325000Y-135442500D01*
X133825000Y-140942500D02*
X133825000Y-135442500D01*
X134825000Y-141552500D02*
X128515000Y-141552500D01*
X134825000Y-141552500D02*
X141135000Y-141552500D01*
X135825000Y-135442500D02*
X135825000Y-140942500D01*
X135825000Y-140942500D02*
X136325000Y-140942500D01*
X136325000Y-135442500D02*
X135825000Y-135442500D01*
X136325000Y-140942500D02*
X136325000Y-135442500D01*
X138325000Y-135442500D02*
X138325000Y-140942500D01*
X138325000Y-140942500D02*
X138825000Y-140942500D01*
X138825000Y-135442500D02*
X138325000Y-135442500D01*
X138825000Y-140942500D02*
X138825000Y-135442500D01*
X139715000Y-129832500D02*
X139715000Y-134332500D01*
X139715000Y-134332500D02*
X134825000Y-134332500D01*
X141135000Y-129832500D02*
X139715000Y-129832500D01*
X141135000Y-141552500D02*
X141135000Y-129832500D01*
%TO.C,J9*%
X156690000Y-130145000D02*
X158110000Y-130145000D01*
X156690000Y-141865000D02*
X156690000Y-130145000D01*
X158110000Y-130145000D02*
X158110000Y-134645000D01*
X158110000Y-134645000D02*
X163000000Y-134645000D01*
X158950000Y-130455000D02*
X159550000Y-130455000D01*
X159000000Y-135755000D02*
X159000000Y-141255000D01*
X159000000Y-141255000D02*
X159500000Y-141255000D01*
X159250000Y-131055000D02*
X158950000Y-130455000D01*
X159500000Y-135755000D02*
X159000000Y-135755000D01*
X159500000Y-141255000D02*
X159500000Y-135755000D01*
X159550000Y-130455000D02*
X159250000Y-131055000D01*
X161500000Y-135755000D02*
X161500000Y-141255000D01*
X161500000Y-141255000D02*
X162000000Y-141255000D01*
X162000000Y-135755000D02*
X161500000Y-135755000D01*
X162000000Y-141255000D02*
X162000000Y-135755000D01*
X163000000Y-141865000D02*
X156690000Y-141865000D01*
X163000000Y-141865000D02*
X169310000Y-141865000D01*
X164000000Y-135755000D02*
X164000000Y-141255000D01*
X164000000Y-141255000D02*
X164500000Y-141255000D01*
X164500000Y-135755000D02*
X164000000Y-135755000D01*
X164500000Y-141255000D02*
X164500000Y-135755000D01*
X166500000Y-135755000D02*
X166500000Y-141255000D01*
X166500000Y-141255000D02*
X167000000Y-141255000D01*
X167000000Y-135755000D02*
X166500000Y-135755000D01*
X167000000Y-141255000D02*
X167000000Y-135755000D01*
X167890000Y-130145000D02*
X167890000Y-134645000D01*
X167890000Y-134645000D02*
X163000000Y-134645000D01*
X169310000Y-130145000D02*
X167890000Y-130145000D01*
X169310000Y-141865000D02*
X169310000Y-130145000D01*
%TO.C,J7*%
X129720000Y-106145000D02*
X129720000Y-108905000D01*
X134910000Y-106145000D02*
X129720000Y-106145000D01*
X134910000Y-106145000D02*
X134910000Y-108905000D01*
X134910000Y-108905000D02*
X129720000Y-108905000D01*
X136180000Y-106145000D02*
X137560000Y-106145000D01*
X137560000Y-106145000D02*
X137560000Y-107525000D01*
%TO.C,D1*%
X174615000Y-100600000D02*
X174615000Y-102885000D01*
X174615000Y-102885000D02*
X176085000Y-102885000D01*
X176085000Y-102885000D02*
X176085000Y-100600000D01*
%TO.C,J5*%
X86690000Y-130045000D02*
X88110000Y-130045000D01*
X86690000Y-141765000D02*
X86690000Y-130045000D01*
X88110000Y-130045000D02*
X88110000Y-134545000D01*
X88110000Y-134545000D02*
X93000000Y-134545000D01*
X88950000Y-130355000D02*
X89550000Y-130355000D01*
X89000000Y-135655000D02*
X89000000Y-141155000D01*
X89000000Y-141155000D02*
X89500000Y-141155000D01*
X89250000Y-130955000D02*
X88950000Y-130355000D01*
X89500000Y-135655000D02*
X89000000Y-135655000D01*
X89500000Y-141155000D02*
X89500000Y-135655000D01*
X89550000Y-130355000D02*
X89250000Y-130955000D01*
X91500000Y-135655000D02*
X91500000Y-141155000D01*
X91500000Y-141155000D02*
X92000000Y-141155000D01*
X92000000Y-135655000D02*
X91500000Y-135655000D01*
X92000000Y-141155000D02*
X92000000Y-135655000D01*
X93000000Y-141765000D02*
X86690000Y-141765000D01*
X93000000Y-141765000D02*
X99310000Y-141765000D01*
X94000000Y-135655000D02*
X94000000Y-141155000D01*
X94000000Y-141155000D02*
X94500000Y-141155000D01*
X94500000Y-135655000D02*
X94000000Y-135655000D01*
X94500000Y-141155000D02*
X94500000Y-135655000D01*
X96500000Y-135655000D02*
X96500000Y-141155000D01*
X96500000Y-141155000D02*
X97000000Y-141155000D01*
X97000000Y-135655000D02*
X96500000Y-135655000D01*
X97000000Y-141155000D02*
X97000000Y-135655000D01*
X97890000Y-130045000D02*
X97890000Y-134545000D01*
X97890000Y-134545000D02*
X93000000Y-134545000D01*
X99310000Y-130045000D02*
X97890000Y-130045000D01*
X99310000Y-141765000D02*
X99310000Y-130045000D01*
D12*
%TO.C,U1*%
X140600000Y-103800000D02*
X147260000Y-103800000D01*
X140600000Y-107340000D02*
X140600000Y-103800000D01*
X147260000Y-103800000D02*
X147260000Y-107340000D01*
X147260000Y-107340000D02*
X140600000Y-107340000D01*
D13*
X147020000Y-104550000D02*
G75*
G02*
X146700000Y-104550000I-160000J0D01*
G01*
X146700000Y-104550000D02*
G75*
G02*
X147020000Y-104550000I160000J0D01*
G01*
D16*
X147210000Y-102370000D02*
G75*
G02*
X147150000Y-102370000I-30000J0D01*
G01*
X147150000Y-102370000D02*
G75*
G02*
X147210000Y-102370000I30000J0D01*
G01*
D13*
X147640000Y-102700000D02*
G75*
G02*
X147340000Y-102700000I-150000J0D01*
G01*
X147340000Y-102700000D02*
G75*
G02*
X147640000Y-102700000I150000J0D01*
G01*
D15*
%TO.C,J6*%
X100690000Y-129882500D02*
X102110000Y-129882500D01*
X100690000Y-141602500D02*
X100690000Y-129882500D01*
X102110000Y-129882500D02*
X102110000Y-134382500D01*
X102110000Y-134382500D02*
X107000000Y-134382500D01*
X102950000Y-130192500D02*
X103550000Y-130192500D01*
X103000000Y-135492500D02*
X103000000Y-140992500D01*
X103000000Y-140992500D02*
X103500000Y-140992500D01*
X103250000Y-130792500D02*
X102950000Y-130192500D01*
X103500000Y-135492500D02*
X103000000Y-135492500D01*
X103500000Y-140992500D02*
X103500000Y-135492500D01*
X103550000Y-130192500D02*
X103250000Y-130792500D01*
X105500000Y-135492500D02*
X105500000Y-140992500D01*
X105500000Y-140992500D02*
X106000000Y-140992500D01*
X106000000Y-135492500D02*
X105500000Y-135492500D01*
X106000000Y-140992500D02*
X106000000Y-135492500D01*
X107000000Y-141602500D02*
X100690000Y-141602500D01*
X107000000Y-141602500D02*
X113310000Y-141602500D01*
X108000000Y-135492500D02*
X108000000Y-140992500D01*
X108000000Y-140992500D02*
X108500000Y-140992500D01*
X108500000Y-135492500D02*
X108000000Y-135492500D01*
X108500000Y-140992500D02*
X108500000Y-135492500D01*
X110500000Y-135492500D02*
X110500000Y-140992500D01*
X110500000Y-140992500D02*
X111000000Y-140992500D01*
X111000000Y-135492500D02*
X110500000Y-135492500D01*
X111000000Y-140992500D02*
X111000000Y-135492500D01*
X111890000Y-129882500D02*
X111890000Y-134382500D01*
X111890000Y-134382500D02*
X107000000Y-134382500D01*
X113310000Y-129882500D02*
X111890000Y-129882500D01*
X113310000Y-141602500D02*
X113310000Y-129882500D01*
%TO.C,D2*%
X118665000Y-108215000D02*
X118665000Y-110500000D01*
X120135000Y-108215000D02*
X118665000Y-108215000D01*
X120135000Y-110500000D02*
X120135000Y-108215000D01*
%TO.C,U4*%
X125337500Y-110415000D02*
X123137500Y-110415000D01*
X125337500Y-110415000D02*
X127537500Y-110415000D01*
X125337500Y-117185000D02*
X123137500Y-117185000D01*
X125337500Y-117185000D02*
X127537500Y-117185000D01*
X121477500Y-110875000D02*
X121147500Y-111115000D01*
X121147500Y-110635000D01*
X121477500Y-110875000D01*
G36*
X121477500Y-110875000D02*
G01*
X121147500Y-111115000D01*
X121147500Y-110635000D01*
X121477500Y-110875000D01*
G37*
%TD*%
%LPC*%
D17*
%TO.C,C6*%
X120480000Y-116075000D03*
X118920000Y-116075000D03*
%TD*%
D18*
%TO.C,R16*%
X162900000Y-124600000D03*
X163900000Y-124600000D03*
%TD*%
D19*
%TO.C,U5*%
X154200000Y-117250000D03*
X154200000Y-118520000D03*
X154200000Y-119790000D03*
X154200000Y-121060000D03*
X154200000Y-122330000D03*
X154200000Y-123600000D03*
X154200000Y-124870000D03*
X154200000Y-126140000D03*
X159200000Y-126140000D03*
X159200000Y-124870000D03*
X159200000Y-123600000D03*
X159200000Y-122330000D03*
X159200000Y-121060000D03*
X159200000Y-119790000D03*
X159200000Y-118520000D03*
X159200000Y-117250000D03*
%TD*%
D18*
%TO.C,R15*%
X162700000Y-126400000D03*
X163700000Y-126400000D03*
%TD*%
D20*
%TO.C,J8*%
X145250000Y-132555000D03*
D21*
X147750000Y-132555000D03*
X150250000Y-132555000D03*
X152750000Y-132555000D03*
%TD*%
D22*
%TO.C,H1*%
X82000000Y-92000000D03*
D23*
X82000000Y-92000000D03*
%TD*%
D24*
%TO.C,R14*%
X150100000Y-125820000D03*
X149100000Y-125820000D03*
%TD*%
D25*
%TO.C,C16*%
X159900000Y-115880000D03*
X159900000Y-114320000D03*
%TD*%
D26*
%TO.C,C12*%
X149900000Y-119920000D03*
X149900000Y-121480000D03*
%TD*%
D27*
%TO.C,J4*%
X123800000Y-108125000D03*
%TD*%
D26*
%TO.C,C4*%
X107300000Y-108220000D03*
X107300000Y-109780000D03*
%TD*%
D28*
%TO.C,U3*%
X102970000Y-110300000D03*
X102970000Y-108000000D03*
X102970000Y-105700000D03*
D29*
X97000000Y-107000000D03*
X97000000Y-108000000D03*
D30*
X97000000Y-108000000D03*
D29*
X97000000Y-109000000D03*
%TD*%
D24*
%TO.C,R8*%
X109300000Y-126837500D03*
X108300000Y-126837500D03*
%TD*%
D31*
%TO.C,R27*%
X173700000Y-101700000D03*
X173700000Y-100700000D03*
%TD*%
D32*
%TO.C,J2*%
X108950000Y-93038272D03*
X108950000Y-98078272D03*
X111490000Y-93038272D03*
X111490000Y-98078272D03*
X114030000Y-93038272D03*
X114030000Y-98078272D03*
X116570000Y-93038272D03*
X116570000Y-98078272D03*
X119110000Y-93038272D03*
X119110000Y-98078272D03*
X121650000Y-93038272D03*
X121650000Y-98078272D03*
X124190000Y-93038272D03*
X124190000Y-98078272D03*
X126730000Y-93038272D03*
X126730000Y-98078272D03*
X129270000Y-93038272D03*
X129270000Y-98078272D03*
X131810000Y-93038272D03*
X131810000Y-98078272D03*
X134350000Y-93038272D03*
X134350000Y-98078272D03*
X136890000Y-93038272D03*
X136890000Y-98078272D03*
X139430000Y-93038272D03*
X139430000Y-98078272D03*
X141970000Y-93038272D03*
X141970000Y-98078272D03*
X144510000Y-93038272D03*
X144510000Y-98078272D03*
X147050000Y-93038272D03*
X147050000Y-98078272D03*
%TD*%
D33*
%TO.C,H8*%
X169700000Y-90300000D03*
%TD*%
D27*
%TO.C,J3*%
X151170000Y-100000000D03*
D34*
X153710000Y-100000000D03*
X156250000Y-100000000D03*
X158790000Y-100000000D03*
%TD*%
D35*
%TO.C,Q1*%
X146200000Y-117500000D03*
X144300000Y-117500000D03*
X145250000Y-119375000D03*
%TD*%
D24*
%TO.C,R20*%
X137125000Y-126787500D03*
X136125000Y-126787500D03*
%TD*%
D33*
%TO.C,H7*%
X79000000Y-137000000D03*
%TD*%
D25*
%TO.C,C1*%
X147900000Y-108380000D03*
X147900000Y-106820000D03*
%TD*%
D36*
%TO.C,U2*%
X168710000Y-102660000D03*
X168710000Y-101390000D03*
X168710000Y-100110000D03*
X168710000Y-98840000D03*
X163290000Y-98840000D03*
X163290000Y-100110000D03*
X163290000Y-101390000D03*
X163290000Y-102660000D03*
%TD*%
D18*
%TO.C,R11*%
X119800000Y-112875000D03*
X120800000Y-112875000D03*
%TD*%
D17*
%TO.C,C14*%
X152180000Y-115500000D03*
X150620000Y-115500000D03*
%TD*%
D20*
%TO.C,J11*%
X117425000Y-131912500D03*
D21*
X119925000Y-131912500D03*
X122425000Y-131912500D03*
X124925000Y-131912500D03*
%TD*%
D37*
%TO.C,H6*%
X153000000Y-94000000D03*
%TD*%
D20*
%TO.C,J10*%
X131075000Y-132242500D03*
D21*
X133575000Y-132242500D03*
X136075000Y-132242500D03*
X138575000Y-132242500D03*
%TD*%
D20*
%TO.C,J9*%
X159250000Y-132555000D03*
D21*
X161750000Y-132555000D03*
X164250000Y-132555000D03*
X166750000Y-132555000D03*
%TD*%
D26*
%TO.C,C5*%
X105800000Y-108220000D03*
X105800000Y-109780000D03*
%TD*%
%TO.C,C2*%
X161450000Y-102670000D03*
X161450000Y-104230000D03*
%TD*%
D18*
%TO.C,R1*%
X153100000Y-103000000D03*
X154100000Y-103000000D03*
%TD*%
D27*
%TO.C,J7*%
X136180000Y-107525000D03*
D34*
X133640000Y-107525000D03*
X131100000Y-107525000D03*
%TD*%
D37*
%TO.C,H5*%
X103000000Y-94000000D03*
%TD*%
D38*
%TO.C,D1*%
X175350000Y-102187500D03*
X175350000Y-100612500D03*
%TD*%
D39*
%TO.C,R17*%
X151700000Y-119900000D03*
X151700000Y-120900000D03*
%TD*%
D20*
%TO.C,J5*%
X89250000Y-132455000D03*
D21*
X91750000Y-132455000D03*
X94250000Y-132455000D03*
X96750000Y-132455000D03*
%TD*%
D39*
%TO.C,R5*%
X94300000Y-128000000D03*
X94300000Y-129000000D03*
%TD*%
D37*
%TO.C,H2*%
X174000000Y-134000000D03*
%TD*%
D26*
%TO.C,C11*%
X148200000Y-119920000D03*
X148200000Y-121480000D03*
%TD*%
D24*
%TO.C,R12*%
X120500000Y-111925000D03*
X119500000Y-111925000D03*
%TD*%
D40*
%TO.C,U1*%
X146860000Y-102700000D03*
X146210000Y-102700000D03*
X145560000Y-102700000D03*
X144910000Y-102700000D03*
X144250000Y-102700000D03*
X143600000Y-102700000D03*
X142950000Y-102700000D03*
X142300000Y-102700000D03*
X141650000Y-102700000D03*
X141000000Y-102700000D03*
X141000000Y-108440000D03*
X141650000Y-108440000D03*
X142300000Y-108440000D03*
X142950000Y-108440000D03*
X143600000Y-108440000D03*
X144250000Y-108440000D03*
X144910000Y-108440000D03*
X145560000Y-108440000D03*
X146210000Y-108440000D03*
X146860000Y-108440000D03*
%TD*%
D25*
%TO.C,C9*%
X151600000Y-127380000D03*
X151600000Y-125820000D03*
%TD*%
D17*
%TO.C,C13*%
X151560000Y-124100000D03*
X150000000Y-124100000D03*
%TD*%
D39*
%TO.C,R18*%
X151700000Y-121900000D03*
X151700000Y-122900000D03*
%TD*%
D37*
%TO.C,H4*%
X174000000Y-92000000D03*
%TD*%
D24*
%TO.C,R13*%
X150100000Y-127420000D03*
X149100000Y-127420000D03*
%TD*%
D39*
%TO.C,R7*%
X108300000Y-127837500D03*
X108300000Y-128837500D03*
%TD*%
D24*
%TO.C,R9*%
X157200000Y-97500000D03*
X156200000Y-97500000D03*
%TD*%
D20*
%TO.C,J6*%
X103250000Y-132292500D03*
D21*
X105750000Y-132292500D03*
X108250000Y-132292500D03*
X110750000Y-132292500D03*
%TD*%
D39*
%TO.C,R19*%
X136125000Y-127787500D03*
X136125000Y-128787500D03*
%TD*%
%TO.C,R21*%
X122475000Y-127457500D03*
X122475000Y-128457500D03*
%TD*%
D33*
%TO.C,H9*%
X86000000Y-91000000D03*
%TD*%
D24*
%TO.C,R22*%
X123475000Y-126457500D03*
X122475000Y-126457500D03*
%TD*%
D41*
%TO.C,D2*%
X119400000Y-108912500D03*
X119400000Y-110487500D03*
%TD*%
D31*
%TO.C,R25*%
X157200000Y-96600000D03*
X157200000Y-95600000D03*
%TD*%
D42*
%TO.C,C3*%
X104320000Y-104400000D03*
X105880000Y-104400000D03*
%TD*%
D17*
%TO.C,C15*%
X152180000Y-117100000D03*
X150620000Y-117100000D03*
%TD*%
D37*
%TO.C,H3*%
X82000000Y-134000000D03*
%TD*%
D25*
%TO.C,C10*%
X161500000Y-126280000D03*
X161500000Y-124720000D03*
%TD*%
D24*
%TO.C,R6*%
X95300000Y-127000000D03*
X94300000Y-127000000D03*
%TD*%
D43*
%TO.C,U4*%
X122475000Y-110875000D03*
X122475000Y-111525000D03*
X122475000Y-112175000D03*
X122475000Y-112825000D03*
X122475000Y-113475000D03*
X122475000Y-114125000D03*
X122475000Y-114775000D03*
X122475000Y-115425000D03*
X122475000Y-116075000D03*
X122475000Y-116725000D03*
X128200000Y-116725000D03*
X128200000Y-116075000D03*
X128200000Y-115425000D03*
X128200000Y-114775000D03*
X128200000Y-114125000D03*
X128200000Y-113475000D03*
X128200000Y-112825000D03*
X128200000Y-112175000D03*
X128200000Y-111525000D03*
X128200000Y-110875000D03*
%TD*%
%LPD*%
M02*
