%TF.GenerationSoftware,KiCad,Pcbnew,10.0.1*%
%TF.CreationDate,2026-04-20T20:25:25+02:00*%
%TF.ProjectId,MMS3_hat_HC-SR04-HX711,4d4d5333-5f68-4617-945f-48432d535230,R0*%
%TF.SameCoordinates,Original*%
%TF.FileFunction,Legend,Bot*%
%TF.FilePolarity,Positive*%
%FSLAX46Y46*%
G04 Gerber Fmt 4.6, Leading zero omitted, Abs format (unit mm)*
G04 Created by KiCad (PCBNEW 10.0.1) date 2026-04-20 20:25:25*
%MOMM*%
%LPD*%
G01*
G04 APERTURE LIST*
G04 Aperture macros list*
%AMRoundRect*
0 Rectangle with rounded corners*
0 $1 Rounding radius*
0 $2 $3 $4 $5 $6 $7 $8 $9 X,Y pos of 4 corners*
0 Add a 4 corners polygon primitive as box body*
4,1,4,$2,$3,$4,$5,$6,$7,$8,$9,$2,$3,0*
0 Add four circle primitives for the rounded corners*
1,1,$1+$1,$2,$3*
1,1,$1+$1,$4,$5*
1,1,$1+$1,$6,$7*
1,1,$1+$1,$8,$9*
0 Add four rect primitives between the rounded corners*
20,1,$1+$1,$2,$3,$4,$5,0*
20,1,$1+$1,$4,$5,$6,$7,0*
20,1,$1+$1,$6,$7,$8,$9,0*
20,1,$1+$1,$8,$9,$2,$3,0*%
G04 Aperture macros list end*
%ADD10C,0.100000*%
%ADD11C,0.200000*%
%ADD12C,0.220000*%
%ADD13C,0.300000*%
%ADD14C,0.150000*%
%ADD15C,0.400000*%
%ADD16C,0.120000*%
%ADD17C,0.000000*%
%ADD18RoundRect,0.250000X-0.600000X-0.725000X0.600000X-0.725000X0.600000X0.725000X-0.600000X0.725000X0*%
%ADD19O,1.700000X1.950000*%
%ADD20C,3.100000*%
%ADD21R,1.700000X1.700000*%
%ADD22C,1.296000*%
%ADD23C,1.700000*%
%ADD24C,2.700000*%
%ADD25R,1.000000X3.150000*%
G04 APERTURE END LIST*
D10*
X96700000Y-117200000D02*
X100800000Y-117200000D01*
D11*
X96794951Y-116520139D02*
X96807503Y-113309913D01*
X97700162Y-112954510D02*
G75*
G02*
X98803863Y-112921440I578338J-867490D01*
G01*
X97710684Y-112954323D02*
G75*
G02*
X96807503Y-113309907I-879984J910323D01*
G01*
X97730085Y-116164142D02*
G75*
G02*
X98833769Y-116131101I578315J-867758D01*
G01*
X97741646Y-116165030D02*
G75*
G02*
X96794953Y-116519515I-880846J911030D01*
G01*
X98818643Y-116130292D02*
X98835533Y-112942265D01*
X98818643Y-116130292D02*
G75*
G02*
X99922350Y-116163372I525357J-900608D01*
G01*
X98835533Y-112942265D02*
G75*
G02*
X99911834Y-112968767I516667J-885735D01*
G01*
X100799843Y-116511291D02*
G75*
G02*
X99917157Y-116157672I-8043J1258391D01*
G01*
X100799843Y-116511291D02*
X100810469Y-113327828D01*
D10*
X100800000Y-117200000D02*
X100350000Y-117650000D01*
D11*
X100810469Y-113327828D02*
G75*
G02*
X99911837Y-112968761I-10469J1277828D01*
G01*
D10*
X121300000Y-106700000D02*
G75*
G02*
X111300000Y-106700000I-5000000J0D01*
G01*
X111300000Y-106700000D02*
G75*
G02*
X121300000Y-106700000I5000000J0D01*
G01*
X120500000Y-120350000D02*
X144000000Y-120350000D01*
X129950000Y-92150000D02*
X139150000Y-92150000D01*
X129950000Y-92375000D02*
X129950000Y-91925000D01*
X139150000Y-92375000D02*
X139150000Y-91925000D01*
X139850000Y-92150000D02*
X149050000Y-92150000D01*
X139850000Y-92375000D02*
X139850000Y-91925000D01*
X144900000Y-115800000D02*
X160500000Y-115800000D01*
X160500000Y-122800000D01*
X144900000Y-122800000D01*
X144900000Y-115800000D01*
X144950000Y-113350000D02*
X146050000Y-113350000D01*
X144950000Y-114800000D02*
X146050000Y-114800000D01*
X144950000Y-115300000D02*
X144950000Y-112700000D01*
X146097214Y-114100000D02*
G75*
G02*
X145202786Y-114100000I-447214J0D01*
G01*
X145202786Y-114100000D02*
G75*
G02*
X146097214Y-114100000I447214J0D01*
G01*
X146050000Y-113350000D02*
X146350000Y-113650000D01*
X146050000Y-114800000D02*
X146350000Y-114500000D01*
X146350000Y-113700000D02*
X146350000Y-115300000D01*
X146350000Y-115300000D02*
X144950000Y-115300000D01*
X146350000Y-115300000D02*
X176400000Y-115300000D01*
X146750000Y-112700000D02*
X144950000Y-112700000D01*
X146750000Y-112700000D02*
X146750000Y-113700000D01*
X146750000Y-113700000D02*
X146350000Y-113700000D01*
X149050000Y-92375000D02*
X149050000Y-91925000D01*
X160900000Y-115800000D02*
X176400000Y-122800000D01*
X160900000Y-115800000D02*
X176400000Y-115800000D01*
X176400000Y-122800000D01*
X160900000Y-122800000D01*
X160900000Y-115800000D01*
X174600000Y-112700000D02*
X146750000Y-112700000D01*
X174600000Y-112700000D02*
X174600000Y-113700000D01*
X174600000Y-112700000D02*
X176400000Y-112700000D01*
X174600000Y-113700000D02*
X175000000Y-113700000D01*
X175000000Y-113700000D02*
X175000000Y-115300000D01*
X175300000Y-113350000D02*
X175000000Y-113650000D01*
X176147214Y-114100000D02*
G75*
G02*
X175252786Y-114100000I-447214J0D01*
G01*
X175252786Y-114100000D02*
G75*
G02*
X176147214Y-114100000I447214J0D01*
G01*
X176400000Y-113350000D02*
X175300000Y-113350000D01*
X176400000Y-115300000D02*
X176400000Y-112700000D01*
X159877068Y-116407507D02*
X159534211Y-116407507D01*
X159705639Y-117007507D02*
X159705639Y-116407507D01*
X159334210Y-117007507D02*
X159334210Y-116407507D01*
X159077068Y-117007507D02*
X159077068Y-116693221D01*
X159077068Y-116693221D02*
X159105639Y-116636078D01*
X159105639Y-116636078D02*
X159162782Y-116607507D01*
X159162782Y-116607507D02*
X159248496Y-116607507D01*
X159248496Y-116607507D02*
X159305639Y-116636078D01*
X159305639Y-116636078D02*
X159334210Y-116664650D01*
X158791353Y-117007507D02*
X158791353Y-116607507D01*
X158791353Y-116407507D02*
X158819925Y-116436078D01*
X158819925Y-116436078D02*
X158791353Y-116464650D01*
X158791353Y-116464650D02*
X158762782Y-116436078D01*
X158762782Y-116436078D02*
X158791353Y-116407507D01*
X158791353Y-116407507D02*
X158791353Y-116464650D01*
X158534211Y-116978936D02*
X158477068Y-117007507D01*
X158477068Y-117007507D02*
X158362782Y-117007507D01*
X158362782Y-117007507D02*
X158305639Y-116978936D01*
X158305639Y-116978936D02*
X158277068Y-116921793D01*
X158277068Y-116921793D02*
X158277068Y-116893221D01*
X158277068Y-116893221D02*
X158305639Y-116836078D01*
X158305639Y-116836078D02*
X158362782Y-116807507D01*
X158362782Y-116807507D02*
X158448497Y-116807507D01*
X158448497Y-116807507D02*
X158505639Y-116778936D01*
X158505639Y-116778936D02*
X158534211Y-116721793D01*
X158534211Y-116721793D02*
X158534211Y-116693221D01*
X158534211Y-116693221D02*
X158505639Y-116636078D01*
X158505639Y-116636078D02*
X158448497Y-116607507D01*
X158448497Y-116607507D02*
X158362782Y-116607507D01*
X158362782Y-116607507D02*
X158305639Y-116636078D01*
X157562782Y-117007507D02*
X157562782Y-116607507D01*
X157562782Y-116407507D02*
X157591354Y-116436078D01*
X157591354Y-116436078D02*
X157562782Y-116464650D01*
X157562782Y-116464650D02*
X157534211Y-116436078D01*
X157534211Y-116436078D02*
X157562782Y-116407507D01*
X157562782Y-116407507D02*
X157562782Y-116464650D01*
X157305640Y-116978936D02*
X157248497Y-117007507D01*
X157248497Y-117007507D02*
X157134211Y-117007507D01*
X157134211Y-117007507D02*
X157077068Y-116978936D01*
X157077068Y-116978936D02*
X157048497Y-116921793D01*
X157048497Y-116921793D02*
X157048497Y-116893221D01*
X157048497Y-116893221D02*
X157077068Y-116836078D01*
X157077068Y-116836078D02*
X157134211Y-116807507D01*
X157134211Y-116807507D02*
X157219926Y-116807507D01*
X157219926Y-116807507D02*
X157277068Y-116778936D01*
X157277068Y-116778936D02*
X157305640Y-116721793D01*
X157305640Y-116721793D02*
X157305640Y-116693221D01*
X157305640Y-116693221D02*
X157277068Y-116636078D01*
X157277068Y-116636078D02*
X157219926Y-116607507D01*
X157219926Y-116607507D02*
X157134211Y-116607507D01*
X157134211Y-116607507D02*
X157077068Y-116636078D01*
X156334211Y-116607507D02*
X156334211Y-117207507D01*
X156334211Y-116636078D02*
X156277069Y-116607507D01*
X156277069Y-116607507D02*
X156162783Y-116607507D01*
X156162783Y-116607507D02*
X156105640Y-116636078D01*
X156105640Y-116636078D02*
X156077069Y-116664650D01*
X156077069Y-116664650D02*
X156048497Y-116721793D01*
X156048497Y-116721793D02*
X156048497Y-116893221D01*
X156048497Y-116893221D02*
X156077069Y-116950364D01*
X156077069Y-116950364D02*
X156105640Y-116978936D01*
X156105640Y-116978936D02*
X156162783Y-117007507D01*
X156162783Y-117007507D02*
X156277069Y-117007507D01*
X156277069Y-117007507D02*
X156334211Y-116978936D01*
X155791354Y-117007507D02*
X155791354Y-116607507D01*
X155791354Y-116721793D02*
X155762783Y-116664650D01*
X155762783Y-116664650D02*
X155734212Y-116636078D01*
X155734212Y-116636078D02*
X155677069Y-116607507D01*
X155677069Y-116607507D02*
X155619926Y-116607507D01*
X155334211Y-117007507D02*
X155391354Y-116978936D01*
X155391354Y-116978936D02*
X155419925Y-116950364D01*
X155419925Y-116950364D02*
X155448497Y-116893221D01*
X155448497Y-116893221D02*
X155448497Y-116721793D01*
X155448497Y-116721793D02*
X155419925Y-116664650D01*
X155419925Y-116664650D02*
X155391354Y-116636078D01*
X155391354Y-116636078D02*
X155334211Y-116607507D01*
X155334211Y-116607507D02*
X155248497Y-116607507D01*
X155248497Y-116607507D02*
X155191354Y-116636078D01*
X155191354Y-116636078D02*
X155162783Y-116664650D01*
X155162783Y-116664650D02*
X155134211Y-116721793D01*
X155134211Y-116721793D02*
X155134211Y-116893221D01*
X155134211Y-116893221D02*
X155162783Y-116950364D01*
X155162783Y-116950364D02*
X155191354Y-116978936D01*
X155191354Y-116978936D02*
X155248497Y-117007507D01*
X155248497Y-117007507D02*
X155334211Y-117007507D01*
X154962783Y-116607507D02*
X154734211Y-116607507D01*
X154877068Y-116407507D02*
X154877068Y-116921793D01*
X154877068Y-116921793D02*
X154848497Y-116978936D01*
X154848497Y-116978936D02*
X154791354Y-117007507D01*
X154791354Y-117007507D02*
X154734211Y-117007507D01*
X154448497Y-117007507D02*
X154505640Y-116978936D01*
X154505640Y-116978936D02*
X154534211Y-116950364D01*
X154534211Y-116950364D02*
X154562783Y-116893221D01*
X154562783Y-116893221D02*
X154562783Y-116721793D01*
X154562783Y-116721793D02*
X154534211Y-116664650D01*
X154534211Y-116664650D02*
X154505640Y-116636078D01*
X154505640Y-116636078D02*
X154448497Y-116607507D01*
X154448497Y-116607507D02*
X154362783Y-116607507D01*
X154362783Y-116607507D02*
X154305640Y-116636078D01*
X154305640Y-116636078D02*
X154277069Y-116664650D01*
X154277069Y-116664650D02*
X154248497Y-116721793D01*
X154248497Y-116721793D02*
X154248497Y-116893221D01*
X154248497Y-116893221D02*
X154277069Y-116950364D01*
X154277069Y-116950364D02*
X154305640Y-116978936D01*
X154305640Y-116978936D02*
X154362783Y-117007507D01*
X154362783Y-117007507D02*
X154448497Y-117007507D01*
X154077069Y-116607507D02*
X153848497Y-116607507D01*
X153991354Y-116407507D02*
X153991354Y-116921793D01*
X153991354Y-116921793D02*
X153962783Y-116978936D01*
X153962783Y-116978936D02*
X153905640Y-117007507D01*
X153905640Y-117007507D02*
X153848497Y-117007507D01*
X153705640Y-116607507D02*
X153562783Y-117007507D01*
X153419926Y-116607507D02*
X153562783Y-117007507D01*
X153562783Y-117007507D02*
X153619926Y-117150364D01*
X153619926Y-117150364D02*
X153648497Y-117178936D01*
X153648497Y-117178936D02*
X153705640Y-117207507D01*
X153191354Y-116607507D02*
X153191354Y-117207507D01*
X153191354Y-116636078D02*
X153134212Y-116607507D01*
X153134212Y-116607507D02*
X153019926Y-116607507D01*
X153019926Y-116607507D02*
X152962783Y-116636078D01*
X152962783Y-116636078D02*
X152934212Y-116664650D01*
X152934212Y-116664650D02*
X152905640Y-116721793D01*
X152905640Y-116721793D02*
X152905640Y-116893221D01*
X152905640Y-116893221D02*
X152934212Y-116950364D01*
X152934212Y-116950364D02*
X152962783Y-116978936D01*
X152962783Y-116978936D02*
X153019926Y-117007507D01*
X153019926Y-117007507D02*
X153134212Y-117007507D01*
X153134212Y-117007507D02*
X153191354Y-116978936D01*
X152419926Y-116978936D02*
X152477069Y-117007507D01*
X152477069Y-117007507D02*
X152591355Y-117007507D01*
X152591355Y-117007507D02*
X152648497Y-116978936D01*
X152648497Y-116978936D02*
X152677069Y-116921793D01*
X152677069Y-116921793D02*
X152677069Y-116693221D01*
X152677069Y-116693221D02*
X152648497Y-116636078D01*
X152648497Y-116636078D02*
X152591355Y-116607507D01*
X152591355Y-116607507D02*
X152477069Y-116607507D01*
X152477069Y-116607507D02*
X152419926Y-116636078D01*
X152419926Y-116636078D02*
X152391355Y-116693221D01*
X152391355Y-116693221D02*
X152391355Y-116750364D01*
X152391355Y-116750364D02*
X152677069Y-116807507D01*
X151419926Y-117007507D02*
X151419926Y-116407507D01*
X151419926Y-116978936D02*
X151477068Y-117007507D01*
X151477068Y-117007507D02*
X151591354Y-117007507D01*
X151591354Y-117007507D02*
X151648497Y-116978936D01*
X151648497Y-116978936D02*
X151677068Y-116950364D01*
X151677068Y-116950364D02*
X151705640Y-116893221D01*
X151705640Y-116893221D02*
X151705640Y-116721793D01*
X151705640Y-116721793D02*
X151677068Y-116664650D01*
X151677068Y-116664650D02*
X151648497Y-116636078D01*
X151648497Y-116636078D02*
X151591354Y-116607507D01*
X151591354Y-116607507D02*
X151477068Y-116607507D01*
X151477068Y-116607507D02*
X151419926Y-116636078D01*
X150905640Y-116978936D02*
X150962783Y-117007507D01*
X150962783Y-117007507D02*
X151077069Y-117007507D01*
X151077069Y-117007507D02*
X151134211Y-116978936D01*
X151134211Y-116978936D02*
X151162783Y-116921793D01*
X151162783Y-116921793D02*
X151162783Y-116693221D01*
X151162783Y-116693221D02*
X151134211Y-116636078D01*
X151134211Y-116636078D02*
X151077069Y-116607507D01*
X151077069Y-116607507D02*
X150962783Y-116607507D01*
X150962783Y-116607507D02*
X150905640Y-116636078D01*
X150905640Y-116636078D02*
X150877069Y-116693221D01*
X150877069Y-116693221D02*
X150877069Y-116750364D01*
X150877069Y-116750364D02*
X151162783Y-116807507D01*
X150677068Y-116607507D02*
X150534211Y-117007507D01*
X150534211Y-117007507D02*
X150391354Y-116607507D01*
X150162782Y-117007507D02*
X150162782Y-116607507D01*
X150162782Y-116407507D02*
X150191354Y-116436078D01*
X150191354Y-116436078D02*
X150162782Y-116464650D01*
X150162782Y-116464650D02*
X150134211Y-116436078D01*
X150134211Y-116436078D02*
X150162782Y-116407507D01*
X150162782Y-116407507D02*
X150162782Y-116464650D01*
X149619926Y-116978936D02*
X149677068Y-117007507D01*
X149677068Y-117007507D02*
X149791354Y-117007507D01*
X149791354Y-117007507D02*
X149848497Y-116978936D01*
X149848497Y-116978936D02*
X149877068Y-116950364D01*
X149877068Y-116950364D02*
X149905640Y-116893221D01*
X149905640Y-116893221D02*
X149905640Y-116721793D01*
X149905640Y-116721793D02*
X149877068Y-116664650D01*
X149877068Y-116664650D02*
X149848497Y-116636078D01*
X149848497Y-116636078D02*
X149791354Y-116607507D01*
X149791354Y-116607507D02*
X149677068Y-116607507D01*
X149677068Y-116607507D02*
X149619926Y-116636078D01*
X149134211Y-116978936D02*
X149191354Y-117007507D01*
X149191354Y-117007507D02*
X149305640Y-117007507D01*
X149305640Y-117007507D02*
X149362782Y-116978936D01*
X149362782Y-116978936D02*
X149391354Y-116921793D01*
X149391354Y-116921793D02*
X149391354Y-116693221D01*
X149391354Y-116693221D02*
X149362782Y-116636078D01*
X149362782Y-116636078D02*
X149305640Y-116607507D01*
X149305640Y-116607507D02*
X149191354Y-116607507D01*
X149191354Y-116607507D02*
X149134211Y-116636078D01*
X149134211Y-116636078D02*
X149105640Y-116693221D01*
X149105640Y-116693221D02*
X149105640Y-116750364D01*
X149105640Y-116750364D02*
X149391354Y-116807507D01*
X159791353Y-117973473D02*
X159791353Y-117373473D01*
X159591354Y-117573473D02*
X159362782Y-117573473D01*
X159505639Y-117373473D02*
X159505639Y-117887759D01*
X159505639Y-117887759D02*
X159477068Y-117944902D01*
X159477068Y-117944902D02*
X159419925Y-117973473D01*
X159419925Y-117973473D02*
X159362782Y-117973473D01*
X158705639Y-117973473D02*
X158705639Y-117573473D01*
X158705639Y-117373473D02*
X158734211Y-117402044D01*
X158734211Y-117402044D02*
X158705639Y-117430616D01*
X158705639Y-117430616D02*
X158677068Y-117402044D01*
X158677068Y-117402044D02*
X158705639Y-117373473D01*
X158705639Y-117373473D02*
X158705639Y-117430616D01*
X158448497Y-117944902D02*
X158391354Y-117973473D01*
X158391354Y-117973473D02*
X158277068Y-117973473D01*
X158277068Y-117973473D02*
X158219925Y-117944902D01*
X158219925Y-117944902D02*
X158191354Y-117887759D01*
X158191354Y-117887759D02*
X158191354Y-117859187D01*
X158191354Y-117859187D02*
X158219925Y-117802044D01*
X158219925Y-117802044D02*
X158277068Y-117773473D01*
X158277068Y-117773473D02*
X158362783Y-117773473D01*
X158362783Y-117773473D02*
X158419925Y-117744902D01*
X158419925Y-117744902D02*
X158448497Y-117687759D01*
X158448497Y-117687759D02*
X158448497Y-117659187D01*
X158448497Y-117659187D02*
X158419925Y-117602044D01*
X158419925Y-117602044D02*
X158362783Y-117573473D01*
X158362783Y-117573473D02*
X158277068Y-117573473D01*
X158277068Y-117573473D02*
X158219925Y-117602044D01*
X157477068Y-117573473D02*
X157477068Y-117973473D01*
X157477068Y-117630616D02*
X157448497Y-117602044D01*
X157448497Y-117602044D02*
X157391354Y-117573473D01*
X157391354Y-117573473D02*
X157305640Y-117573473D01*
X157305640Y-117573473D02*
X157248497Y-117602044D01*
X157248497Y-117602044D02*
X157219926Y-117659187D01*
X157219926Y-117659187D02*
X157219926Y-117973473D01*
X156848497Y-117973473D02*
X156905640Y-117944902D01*
X156905640Y-117944902D02*
X156934211Y-117916330D01*
X156934211Y-117916330D02*
X156962783Y-117859187D01*
X156962783Y-117859187D02*
X156962783Y-117687759D01*
X156962783Y-117687759D02*
X156934211Y-117630616D01*
X156934211Y-117630616D02*
X156905640Y-117602044D01*
X156905640Y-117602044D02*
X156848497Y-117573473D01*
X156848497Y-117573473D02*
X156762783Y-117573473D01*
X156762783Y-117573473D02*
X156705640Y-117602044D01*
X156705640Y-117602044D02*
X156677069Y-117630616D01*
X156677069Y-117630616D02*
X156648497Y-117687759D01*
X156648497Y-117687759D02*
X156648497Y-117859187D01*
X156648497Y-117859187D02*
X156677069Y-117916330D01*
X156677069Y-117916330D02*
X156705640Y-117944902D01*
X156705640Y-117944902D02*
X156762783Y-117973473D01*
X156762783Y-117973473D02*
X156848497Y-117973473D01*
X156477069Y-117573473D02*
X156248497Y-117573473D01*
X156391354Y-117373473D02*
X156391354Y-117887759D01*
X156391354Y-117887759D02*
X156362783Y-117944902D01*
X156362783Y-117944902D02*
X156305640Y-117973473D01*
X156305640Y-117973473D02*
X156248497Y-117973473D01*
X155334212Y-117944902D02*
X155391354Y-117973473D01*
X155391354Y-117973473D02*
X155505640Y-117973473D01*
X155505640Y-117973473D02*
X155562783Y-117944902D01*
X155562783Y-117944902D02*
X155591354Y-117916330D01*
X155591354Y-117916330D02*
X155619926Y-117859187D01*
X155619926Y-117859187D02*
X155619926Y-117687759D01*
X155619926Y-117687759D02*
X155591354Y-117630616D01*
X155591354Y-117630616D02*
X155562783Y-117602044D01*
X155562783Y-117602044D02*
X155505640Y-117573473D01*
X155505640Y-117573473D02*
X155391354Y-117573473D01*
X155391354Y-117573473D02*
X155334212Y-117602044D01*
X154848497Y-117944902D02*
X154905640Y-117973473D01*
X154905640Y-117973473D02*
X155019926Y-117973473D01*
X155019926Y-117973473D02*
X155077068Y-117944902D01*
X155077068Y-117944902D02*
X155105640Y-117887759D01*
X155105640Y-117887759D02*
X155105640Y-117659187D01*
X155105640Y-117659187D02*
X155077068Y-117602044D01*
X155077068Y-117602044D02*
X155019926Y-117573473D01*
X155019926Y-117573473D02*
X154905640Y-117573473D01*
X154905640Y-117573473D02*
X154848497Y-117602044D01*
X154848497Y-117602044D02*
X154819926Y-117659187D01*
X154819926Y-117659187D02*
X154819926Y-117716330D01*
X154819926Y-117716330D02*
X155105640Y-117773473D01*
X154562782Y-117973473D02*
X154562782Y-117573473D01*
X154562782Y-117687759D02*
X154534211Y-117630616D01*
X154534211Y-117630616D02*
X154505640Y-117602044D01*
X154505640Y-117602044D02*
X154448497Y-117573473D01*
X154448497Y-117573473D02*
X154391354Y-117573473D01*
X154277068Y-117573473D02*
X154048496Y-117573473D01*
X154191353Y-117373473D02*
X154191353Y-117887759D01*
X154191353Y-117887759D02*
X154162782Y-117944902D01*
X154162782Y-117944902D02*
X154105639Y-117973473D01*
X154105639Y-117973473D02*
X154048496Y-117973473D01*
X153848496Y-117973473D02*
X153848496Y-117573473D01*
X153848496Y-117373473D02*
X153877068Y-117402044D01*
X153877068Y-117402044D02*
X153848496Y-117430616D01*
X153848496Y-117430616D02*
X153819925Y-117402044D01*
X153819925Y-117402044D02*
X153848496Y-117373473D01*
X153848496Y-117373473D02*
X153848496Y-117430616D01*
X153648497Y-117573473D02*
X153419925Y-117573473D01*
X153562782Y-117973473D02*
X153562782Y-117459187D01*
X153562782Y-117459187D02*
X153534211Y-117402044D01*
X153534211Y-117402044D02*
X153477068Y-117373473D01*
X153477068Y-117373473D02*
X153419925Y-117373473D01*
X153219925Y-117973473D02*
X153219925Y-117573473D01*
X153219925Y-117373473D02*
X153248497Y-117402044D01*
X153248497Y-117402044D02*
X153219925Y-117430616D01*
X153219925Y-117430616D02*
X153191354Y-117402044D01*
X153191354Y-117402044D02*
X153219925Y-117373473D01*
X153219925Y-117373473D02*
X153219925Y-117430616D01*
X152705640Y-117944902D02*
X152762783Y-117973473D01*
X152762783Y-117973473D02*
X152877069Y-117973473D01*
X152877069Y-117973473D02*
X152934211Y-117944902D01*
X152934211Y-117944902D02*
X152962783Y-117887759D01*
X152962783Y-117887759D02*
X152962783Y-117659187D01*
X152962783Y-117659187D02*
X152934211Y-117602044D01*
X152934211Y-117602044D02*
X152877069Y-117573473D01*
X152877069Y-117573473D02*
X152762783Y-117573473D01*
X152762783Y-117573473D02*
X152705640Y-117602044D01*
X152705640Y-117602044D02*
X152677069Y-117659187D01*
X152677069Y-117659187D02*
X152677069Y-117716330D01*
X152677069Y-117716330D02*
X152962783Y-117773473D01*
X152162783Y-117973473D02*
X152162783Y-117373473D01*
X152162783Y-117944902D02*
X152219925Y-117973473D01*
X152219925Y-117973473D02*
X152334211Y-117973473D01*
X152334211Y-117973473D02*
X152391354Y-117944902D01*
X152391354Y-117944902D02*
X152419925Y-117916330D01*
X152419925Y-117916330D02*
X152448497Y-117859187D01*
X152448497Y-117859187D02*
X152448497Y-117687759D01*
X152448497Y-117687759D02*
X152419925Y-117630616D01*
X152419925Y-117630616D02*
X152391354Y-117602044D01*
X152391354Y-117602044D02*
X152334211Y-117573473D01*
X152334211Y-117573473D02*
X152219925Y-117573473D01*
X152219925Y-117573473D02*
X152162783Y-117602044D01*
X151162783Y-117973473D02*
X151162783Y-117659187D01*
X151162783Y-117659187D02*
X151191354Y-117602044D01*
X151191354Y-117602044D02*
X151248497Y-117573473D01*
X151248497Y-117573473D02*
X151362783Y-117573473D01*
X151362783Y-117573473D02*
X151419925Y-117602044D01*
X151162783Y-117944902D02*
X151219925Y-117973473D01*
X151219925Y-117973473D02*
X151362783Y-117973473D01*
X151362783Y-117973473D02*
X151419925Y-117944902D01*
X151419925Y-117944902D02*
X151448497Y-117887759D01*
X151448497Y-117887759D02*
X151448497Y-117830616D01*
X151448497Y-117830616D02*
X151419925Y-117773473D01*
X151419925Y-117773473D02*
X151362783Y-117744902D01*
X151362783Y-117744902D02*
X151219925Y-117744902D01*
X151219925Y-117744902D02*
X151162783Y-117716330D01*
X150619926Y-117944902D02*
X150677068Y-117973473D01*
X150677068Y-117973473D02*
X150791354Y-117973473D01*
X150791354Y-117973473D02*
X150848497Y-117944902D01*
X150848497Y-117944902D02*
X150877068Y-117916330D01*
X150877068Y-117916330D02*
X150905640Y-117859187D01*
X150905640Y-117859187D02*
X150905640Y-117687759D01*
X150905640Y-117687759D02*
X150877068Y-117630616D01*
X150877068Y-117630616D02*
X150848497Y-117602044D01*
X150848497Y-117602044D02*
X150791354Y-117573473D01*
X150791354Y-117573473D02*
X150677068Y-117573473D01*
X150677068Y-117573473D02*
X150619926Y-117602044D01*
X150105640Y-117944902D02*
X150162782Y-117973473D01*
X150162782Y-117973473D02*
X150277068Y-117973473D01*
X150277068Y-117973473D02*
X150334211Y-117944902D01*
X150334211Y-117944902D02*
X150362782Y-117916330D01*
X150362782Y-117916330D02*
X150391354Y-117859187D01*
X150391354Y-117859187D02*
X150391354Y-117687759D01*
X150391354Y-117687759D02*
X150362782Y-117630616D01*
X150362782Y-117630616D02*
X150334211Y-117602044D01*
X150334211Y-117602044D02*
X150277068Y-117573473D01*
X150277068Y-117573473D02*
X150162782Y-117573473D01*
X150162782Y-117573473D02*
X150105640Y-117602044D01*
X149762782Y-117973473D02*
X149819925Y-117944902D01*
X149819925Y-117944902D02*
X149848496Y-117916330D01*
X149848496Y-117916330D02*
X149877068Y-117859187D01*
X149877068Y-117859187D02*
X149877068Y-117687759D01*
X149877068Y-117687759D02*
X149848496Y-117630616D01*
X149848496Y-117630616D02*
X149819925Y-117602044D01*
X149819925Y-117602044D02*
X149762782Y-117573473D01*
X149762782Y-117573473D02*
X149677068Y-117573473D01*
X149677068Y-117573473D02*
X149619925Y-117602044D01*
X149619925Y-117602044D02*
X149591354Y-117630616D01*
X149591354Y-117630616D02*
X149562782Y-117687759D01*
X149562782Y-117687759D02*
X149562782Y-117859187D01*
X149562782Y-117859187D02*
X149591354Y-117916330D01*
X149591354Y-117916330D02*
X149619925Y-117944902D01*
X149619925Y-117944902D02*
X149677068Y-117973473D01*
X149677068Y-117973473D02*
X149762782Y-117973473D01*
X149305639Y-117973473D02*
X149305639Y-117573473D01*
X149305639Y-117687759D02*
X149277068Y-117630616D01*
X149277068Y-117630616D02*
X149248497Y-117602044D01*
X149248497Y-117602044D02*
X149191354Y-117573473D01*
X149191354Y-117573473D02*
X149134211Y-117573473D01*
X148677068Y-117973473D02*
X148677068Y-117373473D01*
X148677068Y-117944902D02*
X148734210Y-117973473D01*
X148734210Y-117973473D02*
X148848496Y-117973473D01*
X148848496Y-117973473D02*
X148905639Y-117944902D01*
X148905639Y-117944902D02*
X148934210Y-117916330D01*
X148934210Y-117916330D02*
X148962782Y-117859187D01*
X148962782Y-117859187D02*
X148962782Y-117687759D01*
X148962782Y-117687759D02*
X148934210Y-117630616D01*
X148934210Y-117630616D02*
X148905639Y-117602044D01*
X148905639Y-117602044D02*
X148848496Y-117573473D01*
X148848496Y-117573473D02*
X148734210Y-117573473D01*
X148734210Y-117573473D02*
X148677068Y-117602044D01*
X148391353Y-117973473D02*
X148391353Y-117573473D01*
X148391353Y-117373473D02*
X148419925Y-117402044D01*
X148419925Y-117402044D02*
X148391353Y-117430616D01*
X148391353Y-117430616D02*
X148362782Y-117402044D01*
X148362782Y-117402044D02*
X148391353Y-117373473D01*
X148391353Y-117373473D02*
X148391353Y-117430616D01*
X148105639Y-117573473D02*
X148105639Y-117973473D01*
X148105639Y-117630616D02*
X148077068Y-117602044D01*
X148077068Y-117602044D02*
X148019925Y-117573473D01*
X148019925Y-117573473D02*
X147934211Y-117573473D01*
X147934211Y-117573473D02*
X147877068Y-117602044D01*
X147877068Y-117602044D02*
X147848497Y-117659187D01*
X147848497Y-117659187D02*
X147848497Y-117973473D01*
X147305640Y-117573473D02*
X147305640Y-118059187D01*
X147305640Y-118059187D02*
X147334211Y-118116330D01*
X147334211Y-118116330D02*
X147362782Y-118144902D01*
X147362782Y-118144902D02*
X147419925Y-118173473D01*
X147419925Y-118173473D02*
X147505640Y-118173473D01*
X147505640Y-118173473D02*
X147562782Y-118144902D01*
X147305640Y-117944902D02*
X147362782Y-117973473D01*
X147362782Y-117973473D02*
X147477068Y-117973473D01*
X147477068Y-117973473D02*
X147534211Y-117944902D01*
X147534211Y-117944902D02*
X147562782Y-117916330D01*
X147562782Y-117916330D02*
X147591354Y-117859187D01*
X147591354Y-117859187D02*
X147591354Y-117687759D01*
X147591354Y-117687759D02*
X147562782Y-117630616D01*
X147562782Y-117630616D02*
X147534211Y-117602044D01*
X147534211Y-117602044D02*
X147477068Y-117573473D01*
X147477068Y-117573473D02*
X147362782Y-117573473D01*
X147362782Y-117573473D02*
X147305640Y-117602044D01*
X159877068Y-118539439D02*
X159648496Y-118539439D01*
X159791353Y-118339439D02*
X159791353Y-118853725D01*
X159791353Y-118853725D02*
X159762782Y-118910868D01*
X159762782Y-118910868D02*
X159705639Y-118939439D01*
X159705639Y-118939439D02*
X159648496Y-118939439D01*
X159362782Y-118939439D02*
X159419925Y-118910868D01*
X159419925Y-118910868D02*
X159448496Y-118882296D01*
X159448496Y-118882296D02*
X159477068Y-118825153D01*
X159477068Y-118825153D02*
X159477068Y-118653725D01*
X159477068Y-118653725D02*
X159448496Y-118596582D01*
X159448496Y-118596582D02*
X159419925Y-118568010D01*
X159419925Y-118568010D02*
X159362782Y-118539439D01*
X159362782Y-118539439D02*
X159277068Y-118539439D01*
X159277068Y-118539439D02*
X159219925Y-118568010D01*
X159219925Y-118568010D02*
X159191354Y-118596582D01*
X159191354Y-118596582D02*
X159162782Y-118653725D01*
X159162782Y-118653725D02*
X159162782Y-118825153D01*
X159162782Y-118825153D02*
X159191354Y-118882296D01*
X159191354Y-118882296D02*
X159219925Y-118910868D01*
X159219925Y-118910868D02*
X159277068Y-118939439D01*
X159277068Y-118939439D02*
X159362782Y-118939439D01*
X158191354Y-118910868D02*
X158248496Y-118939439D01*
X158248496Y-118939439D02*
X158362782Y-118939439D01*
X158362782Y-118939439D02*
X158419925Y-118910868D01*
X158419925Y-118910868D02*
X158448496Y-118882296D01*
X158448496Y-118882296D02*
X158477068Y-118825153D01*
X158477068Y-118825153D02*
X158477068Y-118653725D01*
X158477068Y-118653725D02*
X158448496Y-118596582D01*
X158448496Y-118596582D02*
X158419925Y-118568010D01*
X158419925Y-118568010D02*
X158362782Y-118539439D01*
X158362782Y-118539439D02*
X158248496Y-118539439D01*
X158248496Y-118539439D02*
X158191354Y-118568010D01*
X157677068Y-118539439D02*
X157677068Y-118939439D01*
X157934210Y-118539439D02*
X157934210Y-118853725D01*
X157934210Y-118853725D02*
X157905639Y-118910868D01*
X157905639Y-118910868D02*
X157848496Y-118939439D01*
X157848496Y-118939439D02*
X157762782Y-118939439D01*
X157762782Y-118939439D02*
X157705639Y-118910868D01*
X157705639Y-118910868D02*
X157677068Y-118882296D01*
X157391353Y-118939439D02*
X157391353Y-118539439D01*
X157391353Y-118653725D02*
X157362782Y-118596582D01*
X157362782Y-118596582D02*
X157334211Y-118568010D01*
X157334211Y-118568010D02*
X157277068Y-118539439D01*
X157277068Y-118539439D02*
X157219925Y-118539439D01*
X157019924Y-118939439D02*
X157019924Y-118539439D01*
X157019924Y-118653725D02*
X156991353Y-118596582D01*
X156991353Y-118596582D02*
X156962782Y-118568010D01*
X156962782Y-118568010D02*
X156905639Y-118539439D01*
X156905639Y-118539439D02*
X156848496Y-118539439D01*
X156419924Y-118910868D02*
X156477067Y-118939439D01*
X156477067Y-118939439D02*
X156591353Y-118939439D01*
X156591353Y-118939439D02*
X156648495Y-118910868D01*
X156648495Y-118910868D02*
X156677067Y-118853725D01*
X156677067Y-118853725D02*
X156677067Y-118625153D01*
X156677067Y-118625153D02*
X156648495Y-118568010D01*
X156648495Y-118568010D02*
X156591353Y-118539439D01*
X156591353Y-118539439D02*
X156477067Y-118539439D01*
X156477067Y-118539439D02*
X156419924Y-118568010D01*
X156419924Y-118568010D02*
X156391353Y-118625153D01*
X156391353Y-118625153D02*
X156391353Y-118682296D01*
X156391353Y-118682296D02*
X156677067Y-118739439D01*
X156134209Y-118539439D02*
X156134209Y-118939439D01*
X156134209Y-118596582D02*
X156105638Y-118568010D01*
X156105638Y-118568010D02*
X156048495Y-118539439D01*
X156048495Y-118539439D02*
X155962781Y-118539439D01*
X155962781Y-118539439D02*
X155905638Y-118568010D01*
X155905638Y-118568010D02*
X155877067Y-118625153D01*
X155877067Y-118625153D02*
X155877067Y-118939439D01*
X155677067Y-118539439D02*
X155448495Y-118539439D01*
X155591352Y-118339439D02*
X155591352Y-118853725D01*
X155591352Y-118853725D02*
X155562781Y-118910868D01*
X155562781Y-118910868D02*
X155505638Y-118939439D01*
X155505638Y-118939439D02*
X155448495Y-118939439D01*
X154791352Y-118625153D02*
X154591352Y-118625153D01*
X154505638Y-118939439D02*
X154791352Y-118939439D01*
X154791352Y-118939439D02*
X154791352Y-118339439D01*
X154791352Y-118339439D02*
X154505638Y-118339439D01*
X154248495Y-118339439D02*
X154248495Y-118825153D01*
X154248495Y-118825153D02*
X154219924Y-118882296D01*
X154219924Y-118882296D02*
X154191353Y-118910868D01*
X154191353Y-118910868D02*
X154134210Y-118939439D01*
X154134210Y-118939439D02*
X154019924Y-118939439D01*
X154019924Y-118939439D02*
X153962781Y-118910868D01*
X153962781Y-118910868D02*
X153934210Y-118882296D01*
X153934210Y-118882296D02*
X153905638Y-118825153D01*
X153905638Y-118825153D02*
X153905638Y-118339439D01*
X153077067Y-118939439D02*
X153134210Y-118910868D01*
X153134210Y-118910868D02*
X153162781Y-118853725D01*
X153162781Y-118853725D02*
X153162781Y-118339439D01*
X152591353Y-118939439D02*
X152591353Y-118625153D01*
X152591353Y-118625153D02*
X152619924Y-118568010D01*
X152619924Y-118568010D02*
X152677067Y-118539439D01*
X152677067Y-118539439D02*
X152791353Y-118539439D01*
X152791353Y-118539439D02*
X152848495Y-118568010D01*
X152591353Y-118910868D02*
X152648495Y-118939439D01*
X152648495Y-118939439D02*
X152791353Y-118939439D01*
X152791353Y-118939439D02*
X152848495Y-118910868D01*
X152848495Y-118910868D02*
X152877067Y-118853725D01*
X152877067Y-118853725D02*
X152877067Y-118796582D01*
X152877067Y-118796582D02*
X152848495Y-118739439D01*
X152848495Y-118739439D02*
X152791353Y-118710868D01*
X152791353Y-118710868D02*
X152648495Y-118710868D01*
X152648495Y-118710868D02*
X152591353Y-118682296D01*
X152362781Y-118539439D02*
X152248496Y-118939439D01*
X152248496Y-118939439D02*
X152134210Y-118653725D01*
X152134210Y-118653725D02*
X152019924Y-118939439D01*
X152019924Y-118939439D02*
X151905638Y-118539439D01*
X151705639Y-118910868D02*
X151648496Y-118939439D01*
X151648496Y-118939439D02*
X151534210Y-118939439D01*
X151534210Y-118939439D02*
X151477067Y-118910868D01*
X151477067Y-118910868D02*
X151448496Y-118853725D01*
X151448496Y-118853725D02*
X151448496Y-118825153D01*
X151448496Y-118825153D02*
X151477067Y-118768010D01*
X151477067Y-118768010D02*
X151534210Y-118739439D01*
X151534210Y-118739439D02*
X151619925Y-118739439D01*
X151619925Y-118739439D02*
X151677067Y-118710868D01*
X151677067Y-118710868D02*
X151705639Y-118653725D01*
X151705639Y-118653725D02*
X151705639Y-118625153D01*
X151705639Y-118625153D02*
X151677067Y-118568010D01*
X151677067Y-118568010D02*
X151619925Y-118539439D01*
X151619925Y-118539439D02*
X151534210Y-118539439D01*
X151534210Y-118539439D02*
X151477067Y-118568010D01*
X151191353Y-118882296D02*
X151162782Y-118910868D01*
X151162782Y-118910868D02*
X151191353Y-118939439D01*
X151191353Y-118939439D02*
X151219925Y-118910868D01*
X151219925Y-118910868D02*
X151191353Y-118882296D01*
X151191353Y-118882296D02*
X151191353Y-118939439D01*
X159791353Y-119905405D02*
X159791353Y-119305405D01*
X159791353Y-119305405D02*
X159648496Y-119305405D01*
X159648496Y-119305405D02*
X159562782Y-119333976D01*
X159562782Y-119333976D02*
X159505639Y-119391119D01*
X159505639Y-119391119D02*
X159477068Y-119448262D01*
X159477068Y-119448262D02*
X159448496Y-119562548D01*
X159448496Y-119562548D02*
X159448496Y-119648262D01*
X159448496Y-119648262D02*
X159477068Y-119762548D01*
X159477068Y-119762548D02*
X159505639Y-119819691D01*
X159505639Y-119819691D02*
X159562782Y-119876834D01*
X159562782Y-119876834D02*
X159648496Y-119905405D01*
X159648496Y-119905405D02*
X159791353Y-119905405D01*
X159105639Y-119905405D02*
X159162782Y-119876834D01*
X159162782Y-119876834D02*
X159191353Y-119848262D01*
X159191353Y-119848262D02*
X159219925Y-119791119D01*
X159219925Y-119791119D02*
X159219925Y-119619691D01*
X159219925Y-119619691D02*
X159191353Y-119562548D01*
X159191353Y-119562548D02*
X159162782Y-119533976D01*
X159162782Y-119533976D02*
X159105639Y-119505405D01*
X159105639Y-119505405D02*
X159019925Y-119505405D01*
X159019925Y-119505405D02*
X158962782Y-119533976D01*
X158962782Y-119533976D02*
X158934211Y-119562548D01*
X158934211Y-119562548D02*
X158905639Y-119619691D01*
X158905639Y-119619691D02*
X158905639Y-119791119D01*
X158905639Y-119791119D02*
X158934211Y-119848262D01*
X158934211Y-119848262D02*
X158962782Y-119876834D01*
X158962782Y-119876834D02*
X159019925Y-119905405D01*
X159019925Y-119905405D02*
X159105639Y-119905405D01*
X158191353Y-119505405D02*
X158191353Y-119905405D01*
X158191353Y-119562548D02*
X158162782Y-119533976D01*
X158162782Y-119533976D02*
X158105639Y-119505405D01*
X158105639Y-119505405D02*
X158019925Y-119505405D01*
X158019925Y-119505405D02*
X157962782Y-119533976D01*
X157962782Y-119533976D02*
X157934211Y-119591119D01*
X157934211Y-119591119D02*
X157934211Y-119905405D01*
X157562782Y-119905405D02*
X157619925Y-119876834D01*
X157619925Y-119876834D02*
X157648496Y-119848262D01*
X157648496Y-119848262D02*
X157677068Y-119791119D01*
X157677068Y-119791119D02*
X157677068Y-119619691D01*
X157677068Y-119619691D02*
X157648496Y-119562548D01*
X157648496Y-119562548D02*
X157619925Y-119533976D01*
X157619925Y-119533976D02*
X157562782Y-119505405D01*
X157562782Y-119505405D02*
X157477068Y-119505405D01*
X157477068Y-119505405D02*
X157419925Y-119533976D01*
X157419925Y-119533976D02*
X157391354Y-119562548D01*
X157391354Y-119562548D02*
X157362782Y-119619691D01*
X157362782Y-119619691D02*
X157362782Y-119791119D01*
X157362782Y-119791119D02*
X157391354Y-119848262D01*
X157391354Y-119848262D02*
X157419925Y-119876834D01*
X157419925Y-119876834D02*
X157477068Y-119905405D01*
X157477068Y-119905405D02*
X157562782Y-119905405D01*
X157191354Y-119505405D02*
X156962782Y-119505405D01*
X157105639Y-119305405D02*
X157105639Y-119819691D01*
X157105639Y-119819691D02*
X157077068Y-119876834D01*
X157077068Y-119876834D02*
X157019925Y-119905405D01*
X157019925Y-119905405D02*
X156962782Y-119905405D01*
X156334211Y-119876834D02*
X156277068Y-119905405D01*
X156277068Y-119905405D02*
X156162782Y-119905405D01*
X156162782Y-119905405D02*
X156105639Y-119876834D01*
X156105639Y-119876834D02*
X156077068Y-119819691D01*
X156077068Y-119819691D02*
X156077068Y-119791119D01*
X156077068Y-119791119D02*
X156105639Y-119733976D01*
X156105639Y-119733976D02*
X156162782Y-119705405D01*
X156162782Y-119705405D02*
X156248497Y-119705405D01*
X156248497Y-119705405D02*
X156305639Y-119676834D01*
X156305639Y-119676834D02*
X156334211Y-119619691D01*
X156334211Y-119619691D02*
X156334211Y-119591119D01*
X156334211Y-119591119D02*
X156305639Y-119533976D01*
X156305639Y-119533976D02*
X156248497Y-119505405D01*
X156248497Y-119505405D02*
X156162782Y-119505405D01*
X156162782Y-119505405D02*
X156105639Y-119533976D01*
X155591354Y-119876834D02*
X155648497Y-119905405D01*
X155648497Y-119905405D02*
X155762783Y-119905405D01*
X155762783Y-119905405D02*
X155819925Y-119876834D01*
X155819925Y-119876834D02*
X155848497Y-119819691D01*
X155848497Y-119819691D02*
X155848497Y-119591119D01*
X155848497Y-119591119D02*
X155819925Y-119533976D01*
X155819925Y-119533976D02*
X155762783Y-119505405D01*
X155762783Y-119505405D02*
X155648497Y-119505405D01*
X155648497Y-119505405D02*
X155591354Y-119533976D01*
X155591354Y-119533976D02*
X155562783Y-119591119D01*
X155562783Y-119591119D02*
X155562783Y-119648262D01*
X155562783Y-119648262D02*
X155848497Y-119705405D01*
X155219925Y-119905405D02*
X155277068Y-119876834D01*
X155277068Y-119876834D02*
X155305639Y-119819691D01*
X155305639Y-119819691D02*
X155305639Y-119305405D01*
X154905639Y-119905405D02*
X154962782Y-119876834D01*
X154962782Y-119876834D02*
X154991353Y-119819691D01*
X154991353Y-119819691D02*
X154991353Y-119305405D01*
X154134210Y-119905405D02*
X154191353Y-119876834D01*
X154191353Y-119876834D02*
X154219924Y-119848262D01*
X154219924Y-119848262D02*
X154248496Y-119791119D01*
X154248496Y-119791119D02*
X154248496Y-119619691D01*
X154248496Y-119619691D02*
X154219924Y-119562548D01*
X154219924Y-119562548D02*
X154191353Y-119533976D01*
X154191353Y-119533976D02*
X154134210Y-119505405D01*
X154134210Y-119505405D02*
X154048496Y-119505405D01*
X154048496Y-119505405D02*
X153991353Y-119533976D01*
X153991353Y-119533976D02*
X153962782Y-119562548D01*
X153962782Y-119562548D02*
X153934210Y-119619691D01*
X153934210Y-119619691D02*
X153934210Y-119791119D01*
X153934210Y-119791119D02*
X153962782Y-119848262D01*
X153962782Y-119848262D02*
X153991353Y-119876834D01*
X153991353Y-119876834D02*
X154048496Y-119905405D01*
X154048496Y-119905405D02*
X154134210Y-119905405D01*
X153677067Y-119905405D02*
X153677067Y-119505405D01*
X153677067Y-119619691D02*
X153648496Y-119562548D01*
X153648496Y-119562548D02*
X153619925Y-119533976D01*
X153619925Y-119533976D02*
X153562782Y-119505405D01*
X153562782Y-119505405D02*
X153505639Y-119505405D01*
X152591353Y-119505405D02*
X152591353Y-119905405D01*
X152848495Y-119505405D02*
X152848495Y-119819691D01*
X152848495Y-119819691D02*
X152819924Y-119876834D01*
X152819924Y-119876834D02*
X152762781Y-119905405D01*
X152762781Y-119905405D02*
X152677067Y-119905405D01*
X152677067Y-119905405D02*
X152619924Y-119876834D01*
X152619924Y-119876834D02*
X152591353Y-119848262D01*
X152334210Y-119876834D02*
X152277067Y-119905405D01*
X152277067Y-119905405D02*
X152162781Y-119905405D01*
X152162781Y-119905405D02*
X152105638Y-119876834D01*
X152105638Y-119876834D02*
X152077067Y-119819691D01*
X152077067Y-119819691D02*
X152077067Y-119791119D01*
X152077067Y-119791119D02*
X152105638Y-119733976D01*
X152105638Y-119733976D02*
X152162781Y-119705405D01*
X152162781Y-119705405D02*
X152248496Y-119705405D01*
X152248496Y-119705405D02*
X152305638Y-119676834D01*
X152305638Y-119676834D02*
X152334210Y-119619691D01*
X152334210Y-119619691D02*
X152334210Y-119591119D01*
X152334210Y-119591119D02*
X152305638Y-119533976D01*
X152305638Y-119533976D02*
X152248496Y-119505405D01*
X152248496Y-119505405D02*
X152162781Y-119505405D01*
X152162781Y-119505405D02*
X152105638Y-119533976D01*
X151591353Y-119876834D02*
X151648496Y-119905405D01*
X151648496Y-119905405D02*
X151762782Y-119905405D01*
X151762782Y-119905405D02*
X151819924Y-119876834D01*
X151819924Y-119876834D02*
X151848496Y-119819691D01*
X151848496Y-119819691D02*
X151848496Y-119591119D01*
X151848496Y-119591119D02*
X151819924Y-119533976D01*
X151819924Y-119533976D02*
X151762782Y-119505405D01*
X151762782Y-119505405D02*
X151648496Y-119505405D01*
X151648496Y-119505405D02*
X151591353Y-119533976D01*
X151591353Y-119533976D02*
X151562782Y-119591119D01*
X151562782Y-119591119D02*
X151562782Y-119648262D01*
X151562782Y-119648262D02*
X151848496Y-119705405D01*
X150762781Y-119905405D02*
X150819924Y-119876834D01*
X150819924Y-119876834D02*
X150848495Y-119848262D01*
X150848495Y-119848262D02*
X150877067Y-119791119D01*
X150877067Y-119791119D02*
X150877067Y-119619691D01*
X150877067Y-119619691D02*
X150848495Y-119562548D01*
X150848495Y-119562548D02*
X150819924Y-119533976D01*
X150819924Y-119533976D02*
X150762781Y-119505405D01*
X150762781Y-119505405D02*
X150677067Y-119505405D01*
X150677067Y-119505405D02*
X150619924Y-119533976D01*
X150619924Y-119533976D02*
X150591353Y-119562548D01*
X150591353Y-119562548D02*
X150562781Y-119619691D01*
X150562781Y-119619691D02*
X150562781Y-119791119D01*
X150562781Y-119791119D02*
X150591353Y-119848262D01*
X150591353Y-119848262D02*
X150619924Y-119876834D01*
X150619924Y-119876834D02*
X150677067Y-119905405D01*
X150677067Y-119905405D02*
X150762781Y-119905405D01*
X150048496Y-119505405D02*
X150048496Y-119905405D01*
X150305638Y-119505405D02*
X150305638Y-119819691D01*
X150305638Y-119819691D02*
X150277067Y-119876834D01*
X150277067Y-119876834D02*
X150219924Y-119905405D01*
X150219924Y-119905405D02*
X150134210Y-119905405D01*
X150134210Y-119905405D02*
X150077067Y-119876834D01*
X150077067Y-119876834D02*
X150048496Y-119848262D01*
X149848496Y-119505405D02*
X149619924Y-119505405D01*
X149762781Y-119305405D02*
X149762781Y-119819691D01*
X149762781Y-119819691D02*
X149734210Y-119876834D01*
X149734210Y-119876834D02*
X149677067Y-119905405D01*
X149677067Y-119905405D02*
X149619924Y-119905405D01*
X149448496Y-119876834D02*
X149391353Y-119905405D01*
X149391353Y-119905405D02*
X149277067Y-119905405D01*
X149277067Y-119905405D02*
X149219924Y-119876834D01*
X149219924Y-119876834D02*
X149191353Y-119819691D01*
X149191353Y-119819691D02*
X149191353Y-119791119D01*
X149191353Y-119791119D02*
X149219924Y-119733976D01*
X149219924Y-119733976D02*
X149277067Y-119705405D01*
X149277067Y-119705405D02*
X149362782Y-119705405D01*
X149362782Y-119705405D02*
X149419924Y-119676834D01*
X149419924Y-119676834D02*
X149448496Y-119619691D01*
X149448496Y-119619691D02*
X149448496Y-119591119D01*
X149448496Y-119591119D02*
X149419924Y-119533976D01*
X149419924Y-119533976D02*
X149362782Y-119505405D01*
X149362782Y-119505405D02*
X149277067Y-119505405D01*
X149277067Y-119505405D02*
X149219924Y-119533976D01*
X148934210Y-119905405D02*
X148934210Y-119505405D01*
X148934210Y-119305405D02*
X148962782Y-119333976D01*
X148962782Y-119333976D02*
X148934210Y-119362548D01*
X148934210Y-119362548D02*
X148905639Y-119333976D01*
X148905639Y-119333976D02*
X148934210Y-119305405D01*
X148934210Y-119305405D02*
X148934210Y-119362548D01*
X148391354Y-119905405D02*
X148391354Y-119305405D01*
X148391354Y-119876834D02*
X148448496Y-119905405D01*
X148448496Y-119905405D02*
X148562782Y-119905405D01*
X148562782Y-119905405D02*
X148619925Y-119876834D01*
X148619925Y-119876834D02*
X148648496Y-119848262D01*
X148648496Y-119848262D02*
X148677068Y-119791119D01*
X148677068Y-119791119D02*
X148677068Y-119619691D01*
X148677068Y-119619691D02*
X148648496Y-119562548D01*
X148648496Y-119562548D02*
X148619925Y-119533976D01*
X148619925Y-119533976D02*
X148562782Y-119505405D01*
X148562782Y-119505405D02*
X148448496Y-119505405D01*
X148448496Y-119505405D02*
X148391354Y-119533976D01*
X147877068Y-119876834D02*
X147934211Y-119905405D01*
X147934211Y-119905405D02*
X148048497Y-119905405D01*
X148048497Y-119905405D02*
X148105639Y-119876834D01*
X148105639Y-119876834D02*
X148134211Y-119819691D01*
X148134211Y-119819691D02*
X148134211Y-119591119D01*
X148134211Y-119591119D02*
X148105639Y-119533976D01*
X148105639Y-119533976D02*
X148048497Y-119505405D01*
X148048497Y-119505405D02*
X147934211Y-119505405D01*
X147934211Y-119505405D02*
X147877068Y-119533976D01*
X147877068Y-119533976D02*
X147848497Y-119591119D01*
X147848497Y-119591119D02*
X147848497Y-119648262D01*
X147848497Y-119648262D02*
X148134211Y-119705405D01*
X147048496Y-119905405D02*
X147105639Y-119876834D01*
X147105639Y-119876834D02*
X147134210Y-119848262D01*
X147134210Y-119848262D02*
X147162782Y-119791119D01*
X147162782Y-119791119D02*
X147162782Y-119619691D01*
X147162782Y-119619691D02*
X147134210Y-119562548D01*
X147134210Y-119562548D02*
X147105639Y-119533976D01*
X147105639Y-119533976D02*
X147048496Y-119505405D01*
X147048496Y-119505405D02*
X146962782Y-119505405D01*
X146962782Y-119505405D02*
X146905639Y-119533976D01*
X146905639Y-119533976D02*
X146877068Y-119562548D01*
X146877068Y-119562548D02*
X146848496Y-119619691D01*
X146848496Y-119619691D02*
X146848496Y-119791119D01*
X146848496Y-119791119D02*
X146877068Y-119848262D01*
X146877068Y-119848262D02*
X146905639Y-119876834D01*
X146905639Y-119876834D02*
X146962782Y-119905405D01*
X146962782Y-119905405D02*
X147048496Y-119905405D01*
X146677068Y-119505405D02*
X146448496Y-119505405D01*
X146591353Y-119905405D02*
X146591353Y-119391119D01*
X146591353Y-119391119D02*
X146562782Y-119333976D01*
X146562782Y-119333976D02*
X146505639Y-119305405D01*
X146505639Y-119305405D02*
X146448496Y-119305405D01*
X159791353Y-120871371D02*
X159791353Y-120471371D01*
X159791353Y-120585657D02*
X159762782Y-120528514D01*
X159762782Y-120528514D02*
X159734211Y-120499942D01*
X159734211Y-120499942D02*
X159677068Y-120471371D01*
X159677068Y-120471371D02*
X159619925Y-120471371D01*
X159191353Y-120842800D02*
X159248496Y-120871371D01*
X159248496Y-120871371D02*
X159362782Y-120871371D01*
X159362782Y-120871371D02*
X159419924Y-120842800D01*
X159419924Y-120842800D02*
X159448496Y-120785657D01*
X159448496Y-120785657D02*
X159448496Y-120557085D01*
X159448496Y-120557085D02*
X159419924Y-120499942D01*
X159419924Y-120499942D02*
X159362782Y-120471371D01*
X159362782Y-120471371D02*
X159248496Y-120471371D01*
X159248496Y-120471371D02*
X159191353Y-120499942D01*
X159191353Y-120499942D02*
X159162782Y-120557085D01*
X159162782Y-120557085D02*
X159162782Y-120614228D01*
X159162782Y-120614228D02*
X159448496Y-120671371D01*
X158934210Y-120842800D02*
X158877067Y-120871371D01*
X158877067Y-120871371D02*
X158762781Y-120871371D01*
X158762781Y-120871371D02*
X158705638Y-120842800D01*
X158705638Y-120842800D02*
X158677067Y-120785657D01*
X158677067Y-120785657D02*
X158677067Y-120757085D01*
X158677067Y-120757085D02*
X158705638Y-120699942D01*
X158705638Y-120699942D02*
X158762781Y-120671371D01*
X158762781Y-120671371D02*
X158848496Y-120671371D01*
X158848496Y-120671371D02*
X158905638Y-120642800D01*
X158905638Y-120642800D02*
X158934210Y-120585657D01*
X158934210Y-120585657D02*
X158934210Y-120557085D01*
X158934210Y-120557085D02*
X158905638Y-120499942D01*
X158905638Y-120499942D02*
X158848496Y-120471371D01*
X158848496Y-120471371D02*
X158762781Y-120471371D01*
X158762781Y-120471371D02*
X158705638Y-120499942D01*
X158191353Y-120842800D02*
X158248496Y-120871371D01*
X158248496Y-120871371D02*
X158362782Y-120871371D01*
X158362782Y-120871371D02*
X158419924Y-120842800D01*
X158419924Y-120842800D02*
X158448496Y-120785657D01*
X158448496Y-120785657D02*
X158448496Y-120557085D01*
X158448496Y-120557085D02*
X158419924Y-120499942D01*
X158419924Y-120499942D02*
X158362782Y-120471371D01*
X158362782Y-120471371D02*
X158248496Y-120471371D01*
X158248496Y-120471371D02*
X158191353Y-120499942D01*
X158191353Y-120499942D02*
X158162782Y-120557085D01*
X158162782Y-120557085D02*
X158162782Y-120614228D01*
X158162782Y-120614228D02*
X158448496Y-120671371D01*
X157648496Y-120871371D02*
X157648496Y-120557085D01*
X157648496Y-120557085D02*
X157677067Y-120499942D01*
X157677067Y-120499942D02*
X157734210Y-120471371D01*
X157734210Y-120471371D02*
X157848496Y-120471371D01*
X157848496Y-120471371D02*
X157905638Y-120499942D01*
X157648496Y-120842800D02*
X157705638Y-120871371D01*
X157705638Y-120871371D02*
X157848496Y-120871371D01*
X157848496Y-120871371D02*
X157905638Y-120842800D01*
X157905638Y-120842800D02*
X157934210Y-120785657D01*
X157934210Y-120785657D02*
X157934210Y-120728514D01*
X157934210Y-120728514D02*
X157905638Y-120671371D01*
X157905638Y-120671371D02*
X157848496Y-120642800D01*
X157848496Y-120642800D02*
X157705638Y-120642800D01*
X157705638Y-120642800D02*
X157648496Y-120614228D01*
X157362781Y-120871371D02*
X157362781Y-120471371D01*
X157362781Y-120585657D02*
X157334210Y-120528514D01*
X157334210Y-120528514D02*
X157305639Y-120499942D01*
X157305639Y-120499942D02*
X157248496Y-120471371D01*
X157248496Y-120471371D02*
X157191353Y-120471371D01*
X156734210Y-120842800D02*
X156791352Y-120871371D01*
X156791352Y-120871371D02*
X156905638Y-120871371D01*
X156905638Y-120871371D02*
X156962781Y-120842800D01*
X156962781Y-120842800D02*
X156991352Y-120814228D01*
X156991352Y-120814228D02*
X157019924Y-120757085D01*
X157019924Y-120757085D02*
X157019924Y-120585657D01*
X157019924Y-120585657D02*
X156991352Y-120528514D01*
X156991352Y-120528514D02*
X156962781Y-120499942D01*
X156962781Y-120499942D02*
X156905638Y-120471371D01*
X156905638Y-120471371D02*
X156791352Y-120471371D01*
X156791352Y-120471371D02*
X156734210Y-120499942D01*
X156477066Y-120871371D02*
X156477066Y-120271371D01*
X156219924Y-120871371D02*
X156219924Y-120557085D01*
X156219924Y-120557085D02*
X156248495Y-120499942D01*
X156248495Y-120499942D02*
X156305638Y-120471371D01*
X156305638Y-120471371D02*
X156391352Y-120471371D01*
X156391352Y-120471371D02*
X156448495Y-120499942D01*
X156448495Y-120499942D02*
X156477066Y-120528514D01*
X155477066Y-120471371D02*
X155477066Y-121071371D01*
X155477066Y-120499942D02*
X155419924Y-120471371D01*
X155419924Y-120471371D02*
X155305638Y-120471371D01*
X155305638Y-120471371D02*
X155248495Y-120499942D01*
X155248495Y-120499942D02*
X155219924Y-120528514D01*
X155219924Y-120528514D02*
X155191352Y-120585657D01*
X155191352Y-120585657D02*
X155191352Y-120757085D01*
X155191352Y-120757085D02*
X155219924Y-120814228D01*
X155219924Y-120814228D02*
X155248495Y-120842800D01*
X155248495Y-120842800D02*
X155305638Y-120871371D01*
X155305638Y-120871371D02*
X155419924Y-120871371D01*
X155419924Y-120871371D02*
X155477066Y-120842800D01*
X154677067Y-120471371D02*
X154677067Y-120871371D01*
X154934209Y-120471371D02*
X154934209Y-120785657D01*
X154934209Y-120785657D02*
X154905638Y-120842800D01*
X154905638Y-120842800D02*
X154848495Y-120871371D01*
X154848495Y-120871371D02*
X154762781Y-120871371D01*
X154762781Y-120871371D02*
X154705638Y-120842800D01*
X154705638Y-120842800D02*
X154677067Y-120814228D01*
X154391352Y-120871371D02*
X154391352Y-120471371D01*
X154391352Y-120585657D02*
X154362781Y-120528514D01*
X154362781Y-120528514D02*
X154334210Y-120499942D01*
X154334210Y-120499942D02*
X154277067Y-120471371D01*
X154277067Y-120471371D02*
X154219924Y-120471371D01*
X154019923Y-120471371D02*
X154019923Y-121071371D01*
X154019923Y-120499942D02*
X153962781Y-120471371D01*
X153962781Y-120471371D02*
X153848495Y-120471371D01*
X153848495Y-120471371D02*
X153791352Y-120499942D01*
X153791352Y-120499942D02*
X153762781Y-120528514D01*
X153762781Y-120528514D02*
X153734209Y-120585657D01*
X153734209Y-120585657D02*
X153734209Y-120757085D01*
X153734209Y-120757085D02*
X153762781Y-120814228D01*
X153762781Y-120814228D02*
X153791352Y-120842800D01*
X153791352Y-120842800D02*
X153848495Y-120871371D01*
X153848495Y-120871371D02*
X153962781Y-120871371D01*
X153962781Y-120871371D02*
X154019923Y-120842800D01*
X153391352Y-120871371D02*
X153448495Y-120842800D01*
X153448495Y-120842800D02*
X153477066Y-120814228D01*
X153477066Y-120814228D02*
X153505638Y-120757085D01*
X153505638Y-120757085D02*
X153505638Y-120585657D01*
X153505638Y-120585657D02*
X153477066Y-120528514D01*
X153477066Y-120528514D02*
X153448495Y-120499942D01*
X153448495Y-120499942D02*
X153391352Y-120471371D01*
X153391352Y-120471371D02*
X153305638Y-120471371D01*
X153305638Y-120471371D02*
X153248495Y-120499942D01*
X153248495Y-120499942D02*
X153219924Y-120528514D01*
X153219924Y-120528514D02*
X153191352Y-120585657D01*
X153191352Y-120585657D02*
X153191352Y-120757085D01*
X153191352Y-120757085D02*
X153219924Y-120814228D01*
X153219924Y-120814228D02*
X153248495Y-120842800D01*
X153248495Y-120842800D02*
X153305638Y-120871371D01*
X153305638Y-120871371D02*
X153391352Y-120871371D01*
X152962781Y-120842800D02*
X152905638Y-120871371D01*
X152905638Y-120871371D02*
X152791352Y-120871371D01*
X152791352Y-120871371D02*
X152734209Y-120842800D01*
X152734209Y-120842800D02*
X152705638Y-120785657D01*
X152705638Y-120785657D02*
X152705638Y-120757085D01*
X152705638Y-120757085D02*
X152734209Y-120699942D01*
X152734209Y-120699942D02*
X152791352Y-120671371D01*
X152791352Y-120671371D02*
X152877067Y-120671371D01*
X152877067Y-120671371D02*
X152934209Y-120642800D01*
X152934209Y-120642800D02*
X152962781Y-120585657D01*
X152962781Y-120585657D02*
X152962781Y-120557085D01*
X152962781Y-120557085D02*
X152934209Y-120499942D01*
X152934209Y-120499942D02*
X152877067Y-120471371D01*
X152877067Y-120471371D02*
X152791352Y-120471371D01*
X152791352Y-120471371D02*
X152734209Y-120499942D01*
X152219924Y-120842800D02*
X152277067Y-120871371D01*
X152277067Y-120871371D02*
X152391353Y-120871371D01*
X152391353Y-120871371D02*
X152448495Y-120842800D01*
X152448495Y-120842800D02*
X152477067Y-120785657D01*
X152477067Y-120785657D02*
X152477067Y-120557085D01*
X152477067Y-120557085D02*
X152448495Y-120499942D01*
X152448495Y-120499942D02*
X152391353Y-120471371D01*
X152391353Y-120471371D02*
X152277067Y-120471371D01*
X152277067Y-120471371D02*
X152219924Y-120499942D01*
X152219924Y-120499942D02*
X152191353Y-120557085D01*
X152191353Y-120557085D02*
X152191353Y-120614228D01*
X152191353Y-120614228D02*
X152477067Y-120671371D01*
X151962781Y-120842800D02*
X151905638Y-120871371D01*
X151905638Y-120871371D02*
X151791352Y-120871371D01*
X151791352Y-120871371D02*
X151734209Y-120842800D01*
X151734209Y-120842800D02*
X151705638Y-120785657D01*
X151705638Y-120785657D02*
X151705638Y-120757085D01*
X151705638Y-120757085D02*
X151734209Y-120699942D01*
X151734209Y-120699942D02*
X151791352Y-120671371D01*
X151791352Y-120671371D02*
X151877067Y-120671371D01*
X151877067Y-120671371D02*
X151934209Y-120642800D01*
X151934209Y-120642800D02*
X151962781Y-120585657D01*
X151962781Y-120585657D02*
X151962781Y-120557085D01*
X151962781Y-120557085D02*
X151934209Y-120499942D01*
X151934209Y-120499942D02*
X151877067Y-120471371D01*
X151877067Y-120471371D02*
X151791352Y-120471371D01*
X151791352Y-120471371D02*
X151734209Y-120499942D01*
X151448495Y-120814228D02*
X151419924Y-120842800D01*
X151419924Y-120842800D02*
X151448495Y-120871371D01*
X151448495Y-120871371D02*
X151477067Y-120842800D01*
X151477067Y-120842800D02*
X151448495Y-120814228D01*
X151448495Y-120814228D02*
X151448495Y-120871371D01*
D11*
X104780326Y-109307275D02*
X104780326Y-108307275D01*
X104780326Y-108307275D02*
X104542231Y-108307275D01*
X104542231Y-108307275D02*
X104399374Y-108354894D01*
X104399374Y-108354894D02*
X104304136Y-108450132D01*
X104304136Y-108450132D02*
X104256517Y-108545370D01*
X104256517Y-108545370D02*
X104208898Y-108735846D01*
X104208898Y-108735846D02*
X104208898Y-108878703D01*
X104208898Y-108878703D02*
X104256517Y-109069179D01*
X104256517Y-109069179D02*
X104304136Y-109164417D01*
X104304136Y-109164417D02*
X104399374Y-109259656D01*
X104399374Y-109259656D02*
X104542231Y-109307275D01*
X104542231Y-109307275D02*
X104780326Y-109307275D01*
X103780326Y-108783465D02*
X103446993Y-108783465D01*
X103304136Y-109307275D02*
X103780326Y-109307275D01*
X103780326Y-109307275D02*
X103780326Y-108307275D01*
X103780326Y-108307275D02*
X103304136Y-108307275D01*
X103018421Y-108307275D02*
X102685088Y-109307275D01*
X102685088Y-109307275D02*
X102351755Y-108307275D01*
X102018421Y-109307275D02*
X102018421Y-108307275D01*
X100970803Y-109212036D02*
X101018422Y-109259656D01*
X101018422Y-109259656D02*
X101161279Y-109307275D01*
X101161279Y-109307275D02*
X101256517Y-109307275D01*
X101256517Y-109307275D02*
X101399374Y-109259656D01*
X101399374Y-109259656D02*
X101494612Y-109164417D01*
X101494612Y-109164417D02*
X101542231Y-109069179D01*
X101542231Y-109069179D02*
X101589850Y-108878703D01*
X101589850Y-108878703D02*
X101589850Y-108735846D01*
X101589850Y-108735846D02*
X101542231Y-108545370D01*
X101542231Y-108545370D02*
X101494612Y-108450132D01*
X101494612Y-108450132D02*
X101399374Y-108354894D01*
X101399374Y-108354894D02*
X101256517Y-108307275D01*
X101256517Y-108307275D02*
X101161279Y-108307275D01*
X101161279Y-108307275D02*
X101018422Y-108354894D01*
X101018422Y-108354894D02*
X100970803Y-108402513D01*
X100542231Y-108783465D02*
X100208898Y-108783465D01*
X100066041Y-109307275D02*
X100542231Y-109307275D01*
X100542231Y-109307275D02*
X100542231Y-108307275D01*
X100542231Y-108307275D02*
X100066041Y-108307275D01*
X98875564Y-108783465D02*
X98542231Y-108783465D01*
X98399374Y-109307275D02*
X98875564Y-109307275D01*
X98875564Y-109307275D02*
X98875564Y-108307275D01*
X98875564Y-108307275D02*
X98399374Y-108307275D01*
X98018421Y-109259656D02*
X97875564Y-109307275D01*
X97875564Y-109307275D02*
X97637469Y-109307275D01*
X97637469Y-109307275D02*
X97542231Y-109259656D01*
X97542231Y-109259656D02*
X97494612Y-109212036D01*
X97494612Y-109212036D02*
X97446993Y-109116798D01*
X97446993Y-109116798D02*
X97446993Y-109021560D01*
X97446993Y-109021560D02*
X97494612Y-108926322D01*
X97494612Y-108926322D02*
X97542231Y-108878703D01*
X97542231Y-108878703D02*
X97637469Y-108831084D01*
X97637469Y-108831084D02*
X97827945Y-108783465D01*
X97827945Y-108783465D02*
X97923183Y-108735846D01*
X97923183Y-108735846D02*
X97970802Y-108688227D01*
X97970802Y-108688227D02*
X98018421Y-108592989D01*
X98018421Y-108592989D02*
X98018421Y-108497751D01*
X98018421Y-108497751D02*
X97970802Y-108402513D01*
X97970802Y-108402513D02*
X97923183Y-108354894D01*
X97923183Y-108354894D02*
X97827945Y-108307275D01*
X97827945Y-108307275D02*
X97589850Y-108307275D01*
X97589850Y-108307275D02*
X97446993Y-108354894D01*
X97018421Y-109307275D02*
X97018421Y-108307275D01*
X97018421Y-108307275D02*
X96780326Y-108307275D01*
X96780326Y-108307275D02*
X96637469Y-108354894D01*
X96637469Y-108354894D02*
X96542231Y-108450132D01*
X96542231Y-108450132D02*
X96494612Y-108545370D01*
X96494612Y-108545370D02*
X96446993Y-108735846D01*
X96446993Y-108735846D02*
X96446993Y-108878703D01*
X96446993Y-108878703D02*
X96494612Y-109069179D01*
X96494612Y-109069179D02*
X96542231Y-109164417D01*
X96542231Y-109164417D02*
X96637469Y-109259656D01*
X96637469Y-109259656D02*
X96780326Y-109307275D01*
X96780326Y-109307275D02*
X97018421Y-109307275D01*
X104827945Y-110869600D02*
X104685088Y-110917219D01*
X104685088Y-110917219D02*
X104446993Y-110917219D01*
X104446993Y-110917219D02*
X104351755Y-110869600D01*
X104351755Y-110869600D02*
X104304136Y-110821980D01*
X104304136Y-110821980D02*
X104256517Y-110726742D01*
X104256517Y-110726742D02*
X104256517Y-110631504D01*
X104256517Y-110631504D02*
X104304136Y-110536266D01*
X104304136Y-110536266D02*
X104351755Y-110488647D01*
X104351755Y-110488647D02*
X104446993Y-110441028D01*
X104446993Y-110441028D02*
X104637469Y-110393409D01*
X104637469Y-110393409D02*
X104732707Y-110345790D01*
X104732707Y-110345790D02*
X104780326Y-110298171D01*
X104780326Y-110298171D02*
X104827945Y-110202933D01*
X104827945Y-110202933D02*
X104827945Y-110107695D01*
X104827945Y-110107695D02*
X104780326Y-110012457D01*
X104780326Y-110012457D02*
X104732707Y-109964838D01*
X104732707Y-109964838D02*
X104637469Y-109917219D01*
X104637469Y-109917219D02*
X104399374Y-109917219D01*
X104399374Y-109917219D02*
X104256517Y-109964838D01*
X103827945Y-110393409D02*
X103494612Y-110393409D01*
X103351755Y-110917219D02*
X103827945Y-110917219D01*
X103827945Y-110917219D02*
X103827945Y-109917219D01*
X103827945Y-109917219D02*
X103351755Y-109917219D01*
X102923183Y-110917219D02*
X102923183Y-109917219D01*
X102923183Y-109917219D02*
X102351755Y-110917219D01*
X102351755Y-110917219D02*
X102351755Y-109917219D01*
X101923183Y-110869600D02*
X101780326Y-110917219D01*
X101780326Y-110917219D02*
X101542231Y-110917219D01*
X101542231Y-110917219D02*
X101446993Y-110869600D01*
X101446993Y-110869600D02*
X101399374Y-110821980D01*
X101399374Y-110821980D02*
X101351755Y-110726742D01*
X101351755Y-110726742D02*
X101351755Y-110631504D01*
X101351755Y-110631504D02*
X101399374Y-110536266D01*
X101399374Y-110536266D02*
X101446993Y-110488647D01*
X101446993Y-110488647D02*
X101542231Y-110441028D01*
X101542231Y-110441028D02*
X101732707Y-110393409D01*
X101732707Y-110393409D02*
X101827945Y-110345790D01*
X101827945Y-110345790D02*
X101875564Y-110298171D01*
X101875564Y-110298171D02*
X101923183Y-110202933D01*
X101923183Y-110202933D02*
X101923183Y-110107695D01*
X101923183Y-110107695D02*
X101875564Y-110012457D01*
X101875564Y-110012457D02*
X101827945Y-109964838D01*
X101827945Y-109964838D02*
X101732707Y-109917219D01*
X101732707Y-109917219D02*
X101494612Y-109917219D01*
X101494612Y-109917219D02*
X101351755Y-109964838D01*
X100923183Y-110393409D02*
X100589850Y-110393409D01*
X100446993Y-110917219D02*
X100923183Y-110917219D01*
X100923183Y-110917219D02*
X100923183Y-109917219D01*
X100923183Y-109917219D02*
X100446993Y-109917219D01*
X100161278Y-109917219D02*
X99589850Y-109917219D01*
X99875564Y-110917219D02*
X99875564Y-109917219D01*
X99256516Y-110917219D02*
X99256516Y-109917219D01*
X98923183Y-109917219D02*
X98589850Y-110917219D01*
X98589850Y-110917219D02*
X98256517Y-109917219D01*
X97923183Y-110393409D02*
X97589850Y-110393409D01*
X97446993Y-110917219D02*
X97923183Y-110917219D01*
X97923183Y-110917219D02*
X97923183Y-109917219D01*
X97923183Y-109917219D02*
X97446993Y-109917219D01*
X116363660Y-107262457D02*
X116458898Y-107214838D01*
X116458898Y-107214838D02*
X116554136Y-107119600D01*
X116554136Y-107119600D02*
X116696993Y-106976742D01*
X116696993Y-106976742D02*
X116792231Y-106929123D01*
X116792231Y-106929123D02*
X116887469Y-106929123D01*
X116839850Y-107167219D02*
X116935088Y-107119600D01*
X116935088Y-107119600D02*
X117030326Y-107024361D01*
X117030326Y-107024361D02*
X117077945Y-106833885D01*
X117077945Y-106833885D02*
X117077945Y-106500552D01*
X117077945Y-106500552D02*
X117030326Y-106310076D01*
X117030326Y-106310076D02*
X116935088Y-106214838D01*
X116935088Y-106214838D02*
X116839850Y-106167219D01*
X116839850Y-106167219D02*
X116649374Y-106167219D01*
X116649374Y-106167219D02*
X116554136Y-106214838D01*
X116554136Y-106214838D02*
X116458898Y-106310076D01*
X116458898Y-106310076D02*
X116411279Y-106500552D01*
X116411279Y-106500552D02*
X116411279Y-106833885D01*
X116411279Y-106833885D02*
X116458898Y-107024361D01*
X116458898Y-107024361D02*
X116554136Y-107119600D01*
X116554136Y-107119600D02*
X116649374Y-107167219D01*
X116649374Y-107167219D02*
X116839850Y-107167219D01*
X115411279Y-107071980D02*
X115458898Y-107119600D01*
X115458898Y-107119600D02*
X115601755Y-107167219D01*
X115601755Y-107167219D02*
X115696993Y-107167219D01*
X115696993Y-107167219D02*
X115839850Y-107119600D01*
X115839850Y-107119600D02*
X115935088Y-107024361D01*
X115935088Y-107024361D02*
X115982707Y-106929123D01*
X115982707Y-106929123D02*
X116030326Y-106738647D01*
X116030326Y-106738647D02*
X116030326Y-106595790D01*
X116030326Y-106595790D02*
X115982707Y-106405314D01*
X115982707Y-106405314D02*
X115935088Y-106310076D01*
X115935088Y-106310076D02*
X115839850Y-106214838D01*
X115839850Y-106214838D02*
X115696993Y-106167219D01*
X115696993Y-106167219D02*
X115601755Y-106167219D01*
X115601755Y-106167219D02*
X115458898Y-106214838D01*
X115458898Y-106214838D02*
X115411279Y-106262457D01*
X147077945Y-117219600D02*
X146935088Y-117267219D01*
X146935088Y-117267219D02*
X146696993Y-117267219D01*
X146696993Y-117267219D02*
X146601755Y-117219600D01*
X146601755Y-117219600D02*
X146554136Y-117171980D01*
X146554136Y-117171980D02*
X146506517Y-117076742D01*
X146506517Y-117076742D02*
X146506517Y-116981504D01*
X146506517Y-116981504D02*
X146554136Y-116886266D01*
X146554136Y-116886266D02*
X146601755Y-116838647D01*
X146601755Y-116838647D02*
X146696993Y-116791028D01*
X146696993Y-116791028D02*
X146887469Y-116743409D01*
X146887469Y-116743409D02*
X146982707Y-116695790D01*
X146982707Y-116695790D02*
X147030326Y-116648171D01*
X147030326Y-116648171D02*
X147077945Y-116552933D01*
X147077945Y-116552933D02*
X147077945Y-116457695D01*
X147077945Y-116457695D02*
X147030326Y-116362457D01*
X147030326Y-116362457D02*
X146982707Y-116314838D01*
X146982707Y-116314838D02*
X146887469Y-116267219D01*
X146887469Y-116267219D02*
X146649374Y-116267219D01*
X146649374Y-116267219D02*
X146506517Y-116314838D01*
X146077945Y-117267219D02*
X146077945Y-116267219D01*
X146077945Y-116267219D02*
X145506517Y-117267219D01*
X145506517Y-117267219D02*
X145506517Y-116267219D01*
D12*
X143845740Y-122179464D02*
X143845740Y-120879464D01*
X143845740Y-120879464D02*
X143412406Y-121808036D01*
X143412406Y-121808036D02*
X142979073Y-120879464D01*
X142979073Y-120879464D02*
X142979073Y-122179464D01*
X142360026Y-122179464D02*
X142360026Y-120879464D01*
X141740978Y-122179464D02*
X141740978Y-120879464D01*
X141740978Y-120879464D02*
X140998121Y-122179464D01*
X140998121Y-122179464D02*
X140998121Y-120879464D01*
X140379073Y-122179464D02*
X140379073Y-120879464D01*
X138769549Y-122179464D02*
X138769549Y-120879464D01*
X138769549Y-120879464D02*
X138336215Y-121808036D01*
X138336215Y-121808036D02*
X137902882Y-120879464D01*
X137902882Y-120879464D02*
X137902882Y-122179464D01*
X137036216Y-120879464D02*
X136788597Y-120879464D01*
X136788597Y-120879464D02*
X136664787Y-120941369D01*
X136664787Y-120941369D02*
X136540978Y-121065179D01*
X136540978Y-121065179D02*
X136479073Y-121312798D01*
X136479073Y-121312798D02*
X136479073Y-121746131D01*
X136479073Y-121746131D02*
X136540978Y-121993750D01*
X136540978Y-121993750D02*
X136664787Y-122117560D01*
X136664787Y-122117560D02*
X136788597Y-122179464D01*
X136788597Y-122179464D02*
X137036216Y-122179464D01*
X137036216Y-122179464D02*
X137160025Y-122117560D01*
X137160025Y-122117560D02*
X137283835Y-121993750D01*
X137283835Y-121993750D02*
X137345739Y-121746131D01*
X137345739Y-121746131D02*
X137345739Y-121312798D01*
X137345739Y-121312798D02*
X137283835Y-121065179D01*
X137283835Y-121065179D02*
X137160025Y-120941369D01*
X137160025Y-120941369D02*
X137036216Y-120879464D01*
X135921930Y-122179464D02*
X135921930Y-120879464D01*
X135921930Y-120879464D02*
X135612406Y-120879464D01*
X135612406Y-120879464D02*
X135426692Y-120941369D01*
X135426692Y-120941369D02*
X135302882Y-121065179D01*
X135302882Y-121065179D02*
X135240977Y-121188988D01*
X135240977Y-121188988D02*
X135179073Y-121436607D01*
X135179073Y-121436607D02*
X135179073Y-121622321D01*
X135179073Y-121622321D02*
X135240977Y-121869940D01*
X135240977Y-121869940D02*
X135302882Y-121993750D01*
X135302882Y-121993750D02*
X135426692Y-122117560D01*
X135426692Y-122117560D02*
X135612406Y-122179464D01*
X135612406Y-122179464D02*
X135921930Y-122179464D01*
X134621930Y-120879464D02*
X134621930Y-121931845D01*
X134621930Y-121931845D02*
X134560025Y-122055655D01*
X134560025Y-122055655D02*
X134498120Y-122117560D01*
X134498120Y-122117560D02*
X134374311Y-122179464D01*
X134374311Y-122179464D02*
X134126692Y-122179464D01*
X134126692Y-122179464D02*
X134002882Y-122117560D01*
X134002882Y-122117560D02*
X133940977Y-122055655D01*
X133940977Y-122055655D02*
X133879073Y-121931845D01*
X133879073Y-121931845D02*
X133879073Y-120879464D01*
X132517168Y-122055655D02*
X132579072Y-122117560D01*
X132579072Y-122117560D02*
X132764787Y-122179464D01*
X132764787Y-122179464D02*
X132888596Y-122179464D01*
X132888596Y-122179464D02*
X133074310Y-122117560D01*
X133074310Y-122117560D02*
X133198120Y-121993750D01*
X133198120Y-121993750D02*
X133260025Y-121869940D01*
X133260025Y-121869940D02*
X133321929Y-121622321D01*
X133321929Y-121622321D02*
X133321929Y-121436607D01*
X133321929Y-121436607D02*
X133260025Y-121188988D01*
X133260025Y-121188988D02*
X133198120Y-121065179D01*
X133198120Y-121065179D02*
X133074310Y-120941369D01*
X133074310Y-120941369D02*
X132888596Y-120879464D01*
X132888596Y-120879464D02*
X132764787Y-120879464D01*
X132764787Y-120879464D02*
X132579072Y-120941369D01*
X132579072Y-120941369D02*
X132517168Y-121003274D01*
X132021929Y-121808036D02*
X131402882Y-121808036D01*
X132145739Y-122179464D02*
X131712406Y-120879464D01*
X131712406Y-120879464D02*
X131279072Y-122179464D01*
X130102882Y-122179464D02*
X130536215Y-121560417D01*
X130845739Y-122179464D02*
X130845739Y-120879464D01*
X130845739Y-120879464D02*
X130350501Y-120879464D01*
X130350501Y-120879464D02*
X130226691Y-120941369D01*
X130226691Y-120941369D02*
X130164786Y-121003274D01*
X130164786Y-121003274D02*
X130102882Y-121127083D01*
X130102882Y-121127083D02*
X130102882Y-121312798D01*
X130102882Y-121312798D02*
X130164786Y-121436607D01*
X130164786Y-121436607D02*
X130226691Y-121498512D01*
X130226691Y-121498512D02*
X130350501Y-121560417D01*
X130350501Y-121560417D02*
X130845739Y-121560417D01*
X129545739Y-122179464D02*
X129545739Y-120879464D01*
X129545739Y-120879464D02*
X129236215Y-120879464D01*
X129236215Y-120879464D02*
X129050501Y-120941369D01*
X129050501Y-120941369D02*
X128926691Y-121065179D01*
X128926691Y-121065179D02*
X128864786Y-121188988D01*
X128864786Y-121188988D02*
X128802882Y-121436607D01*
X128802882Y-121436607D02*
X128802882Y-121622321D01*
X128802882Y-121622321D02*
X128864786Y-121869940D01*
X128864786Y-121869940D02*
X128926691Y-121993750D01*
X128926691Y-121993750D02*
X129050501Y-122117560D01*
X129050501Y-122117560D02*
X129236215Y-122179464D01*
X129236215Y-122179464D02*
X129545739Y-122179464D01*
X127317167Y-122117560D02*
X127131453Y-122179464D01*
X127131453Y-122179464D02*
X126821929Y-122179464D01*
X126821929Y-122179464D02*
X126698120Y-122117560D01*
X126698120Y-122117560D02*
X126636215Y-122055655D01*
X126636215Y-122055655D02*
X126574310Y-121931845D01*
X126574310Y-121931845D02*
X126574310Y-121808036D01*
X126574310Y-121808036D02*
X126636215Y-121684226D01*
X126636215Y-121684226D02*
X126698120Y-121622321D01*
X126698120Y-121622321D02*
X126821929Y-121560417D01*
X126821929Y-121560417D02*
X127069548Y-121498512D01*
X127069548Y-121498512D02*
X127193358Y-121436607D01*
X127193358Y-121436607D02*
X127255263Y-121374702D01*
X127255263Y-121374702D02*
X127317167Y-121250893D01*
X127317167Y-121250893D02*
X127317167Y-121127083D01*
X127317167Y-121127083D02*
X127255263Y-121003274D01*
X127255263Y-121003274D02*
X127193358Y-120941369D01*
X127193358Y-120941369D02*
X127069548Y-120879464D01*
X127069548Y-120879464D02*
X126760025Y-120879464D01*
X126760025Y-120879464D02*
X126574310Y-120941369D01*
X125769549Y-121560417D02*
X125769549Y-122179464D01*
X126202882Y-120879464D02*
X125769549Y-121560417D01*
X125769549Y-121560417D02*
X125336215Y-120879464D01*
X124964786Y-122117560D02*
X124779072Y-122179464D01*
X124779072Y-122179464D02*
X124469548Y-122179464D01*
X124469548Y-122179464D02*
X124345739Y-122117560D01*
X124345739Y-122117560D02*
X124283834Y-122055655D01*
X124283834Y-122055655D02*
X124221929Y-121931845D01*
X124221929Y-121931845D02*
X124221929Y-121808036D01*
X124221929Y-121808036D02*
X124283834Y-121684226D01*
X124283834Y-121684226D02*
X124345739Y-121622321D01*
X124345739Y-121622321D02*
X124469548Y-121560417D01*
X124469548Y-121560417D02*
X124717167Y-121498512D01*
X124717167Y-121498512D02*
X124840977Y-121436607D01*
X124840977Y-121436607D02*
X124902882Y-121374702D01*
X124902882Y-121374702D02*
X124964786Y-121250893D01*
X124964786Y-121250893D02*
X124964786Y-121127083D01*
X124964786Y-121127083D02*
X124902882Y-121003274D01*
X124902882Y-121003274D02*
X124840977Y-120941369D01*
X124840977Y-120941369D02*
X124717167Y-120879464D01*
X124717167Y-120879464D02*
X124407644Y-120879464D01*
X124407644Y-120879464D02*
X124221929Y-120941369D01*
X123850501Y-120879464D02*
X123107644Y-120879464D01*
X123479072Y-122179464D02*
X123479072Y-120879464D01*
X122674311Y-121498512D02*
X122240977Y-121498512D01*
X122055263Y-122179464D02*
X122674311Y-122179464D01*
X122674311Y-122179464D02*
X122674311Y-120879464D01*
X122674311Y-120879464D02*
X122055263Y-120879464D01*
X121498121Y-122179464D02*
X121498121Y-120879464D01*
X121498121Y-120879464D02*
X121064787Y-121808036D01*
X121064787Y-121808036D02*
X120631454Y-120879464D01*
X120631454Y-120879464D02*
X120631454Y-122179464D01*
D13*
G36*
X143981716Y-112757070D02*
G01*
X141131646Y-112757070D01*
X140031882Y-117015077D01*
X138936819Y-112757070D01*
X136096580Y-112757070D01*
X136096580Y-119760001D01*
X137865692Y-119760001D01*
X137865692Y-114413769D01*
X139238154Y-119760001D01*
X140840143Y-119760001D01*
X142207475Y-114413769D01*
X142207475Y-119760001D01*
X143981716Y-119760001D01*
X143981716Y-112757070D01*
G37*
G36*
X134735659Y-112757070D02*
G01*
X131885589Y-112757070D01*
X130785825Y-117015077D01*
X129690762Y-112757070D01*
X126850523Y-112757070D01*
X126850523Y-119760001D01*
X128619635Y-119760001D01*
X128619635Y-114413769D01*
X129992096Y-119760001D01*
X131594085Y-119760001D01*
X132961418Y-114413769D01*
X132961418Y-119760001D01*
X134735659Y-119760001D01*
X134735659Y-112757070D01*
G37*
G36*
X125843510Y-117427542D02*
G01*
X123782466Y-117298033D01*
X123716505Y-117628401D01*
X123623877Y-117878815D01*
X123509769Y-118065260D01*
X123327283Y-118249877D01*
X123112012Y-118381615D01*
X122857410Y-118463391D01*
X122553620Y-118492258D01*
X122251546Y-118465074D01*
X122018416Y-118390898D01*
X121838965Y-118275981D01*
X121695633Y-118118805D01*
X121614490Y-117953631D01*
X121587639Y-117774611D01*
X121612991Y-117604101D01*
X121690024Y-117444190D01*
X121826570Y-117289484D01*
X122006085Y-117173640D01*
X122349657Y-117038680D01*
X122936165Y-116885567D01*
X123671777Y-116690213D01*
X124236064Y-116480596D01*
X124659334Y-116262194D01*
X124968143Y-116038411D01*
X125238044Y-115753128D01*
X125426698Y-115438230D01*
X125540875Y-115087334D01*
X125580216Y-114690740D01*
X125545896Y-114341040D01*
X125442803Y-114004031D01*
X125266913Y-113673896D01*
X125030583Y-113385030D01*
X124720672Y-113134479D01*
X124324869Y-112921628D01*
X123895900Y-112779481D01*
X123331826Y-112683450D01*
X122601064Y-112647649D01*
X121914391Y-112685070D01*
X121358150Y-112787880D01*
X120910409Y-112944739D01*
X120552416Y-113148591D01*
X120245558Y-113424381D01*
X120003217Y-113772410D01*
X119823808Y-114205706D01*
X119712953Y-114742886D01*
X121754762Y-114863420D01*
X121835245Y-114557022D01*
X121950565Y-114331609D01*
X122096702Y-114169709D01*
X122282177Y-114053984D01*
X122517588Y-113979913D01*
X122816486Y-113953005D01*
X123163280Y-113997374D01*
X123385816Y-114112434D01*
X123530178Y-114290926D01*
X123576875Y-114499681D01*
X123539668Y-114653330D01*
X123419155Y-114798879D01*
X123208329Y-114914590D01*
X122692105Y-115055761D01*
X121739000Y-115285422D01*
X121084107Y-115490868D01*
X120657562Y-115672108D01*
X120270228Y-115907291D01*
X119977008Y-116165014D01*
X119763389Y-116445747D01*
X119608657Y-116763749D01*
X119515273Y-117106038D01*
X119483426Y-117478833D01*
X119524997Y-117915422D01*
X119648470Y-118325675D01*
X119856568Y-118717084D01*
X120135113Y-119061518D01*
X120479687Y-119347046D01*
X120899057Y-119576635D01*
X121354847Y-119731897D01*
X121911071Y-119832903D01*
X122586959Y-119869421D01*
X123347388Y-119833365D01*
X123949809Y-119735476D01*
X124421531Y-119588671D01*
X124786362Y-119402004D01*
X125063886Y-119179985D01*
X125368244Y-118815668D01*
X125598568Y-118407247D01*
X125757636Y-117947717D01*
X125843510Y-117427542D01*
G37*
G36*
X117343503Y-115356746D02*
G01*
X117548568Y-115209188D01*
X117669713Y-115064729D01*
X117736631Y-114880088D01*
X117764773Y-114551819D01*
X117711810Y-114243905D01*
X117547380Y-113948609D01*
X117246392Y-113654569D01*
X116882588Y-113422376D01*
X116405272Y-113212156D01*
X115790411Y-113029503D01*
X114823027Y-112863449D01*
X113695687Y-112804506D01*
X112877910Y-112863874D01*
X112271900Y-113021683D01*
X111829378Y-113256551D01*
X111485105Y-113599343D01*
X111276466Y-114033572D01*
X111202260Y-114588749D01*
X111263053Y-115086454D01*
X111438883Y-115511987D01*
X111735357Y-115882102D01*
X112215087Y-116249210D01*
X112688103Y-116450087D01*
X113867284Y-116779253D01*
X116235617Y-117290759D01*
X115239453Y-117397950D01*
X114476678Y-117555420D01*
X113810547Y-117813452D01*
X113323656Y-118164073D01*
X113088990Y-118464508D01*
X112944662Y-118830620D01*
X112893496Y-119281533D01*
X112960706Y-119768918D01*
X113171318Y-120270107D01*
X113552072Y-120799747D01*
X114027301Y-121255186D01*
X114631314Y-121668504D01*
X115385554Y-122037570D01*
X116182087Y-122302172D01*
X117048382Y-122465027D01*
X117995240Y-122521073D01*
X118678907Y-122479050D01*
X119203151Y-122366177D01*
X119600307Y-122197598D01*
X119934535Y-121946302D01*
X120115687Y-121674173D01*
X120174766Y-121368735D01*
X120131161Y-121079758D01*
X119988750Y-120755295D01*
X119783258Y-120452210D01*
X119546280Y-120197933D01*
X119288430Y-120011825D01*
X119104494Y-119962678D01*
X119005249Y-119989368D01*
X118975924Y-120060473D01*
X119056622Y-120277946D01*
X119129113Y-120433871D01*
X119061024Y-120575862D01*
X118782386Y-120730675D01*
X118407290Y-120822585D01*
X117881032Y-120857877D01*
X117126956Y-120814441D01*
X116401800Y-120685539D01*
X115709237Y-120482083D01*
X115116789Y-120234178D01*
X114589315Y-119933587D01*
X114221591Y-119643990D01*
X113962852Y-119325397D01*
X113893328Y-119081157D01*
X113961447Y-118785724D01*
X114167830Y-118555144D01*
X114560795Y-118377444D01*
X115315758Y-118243991D01*
X116595338Y-118188009D01*
X117493272Y-118257765D01*
X117911123Y-118326837D01*
X118008383Y-118296758D01*
X118047899Y-118135351D01*
X118011729Y-117816248D01*
X117881716Y-117360515D01*
X117683773Y-116944000D01*
X117487117Y-116738868D01*
X117249588Y-116653310D01*
X116414110Y-116483780D01*
X114814515Y-116180822D01*
X114118909Y-116001619D01*
X113221074Y-115702789D01*
X112693499Y-115453996D01*
X112358702Y-115198770D01*
X112133507Y-114907195D01*
X112072840Y-114685860D01*
X112134494Y-114475947D01*
X112335652Y-114305413D01*
X112755805Y-114173869D01*
X113527452Y-114117556D01*
X114239837Y-114139695D01*
X114924619Y-114205092D01*
X115564643Y-114309032D01*
X115981898Y-114416411D01*
X116298470Y-114555132D01*
X116359399Y-114638672D01*
X116284856Y-114785023D01*
X116130983Y-114871875D01*
X115869057Y-114962147D01*
X115767159Y-115033955D01*
X115716552Y-115159105D01*
X115793188Y-115248833D01*
X116190753Y-115334269D01*
X117343503Y-115356746D01*
G37*
G36*
X156184612Y-114495729D02*
G01*
X156186688Y-114553248D01*
X156192916Y-114593792D01*
X156203785Y-114622857D01*
X156225645Y-114650701D01*
X156283653Y-114691123D01*
X156388799Y-114738506D01*
X156530949Y-114776120D01*
X156612606Y-114787346D01*
X156703750Y-114791263D01*
X156823884Y-114784707D01*
X156932712Y-114765762D01*
X157031646Y-114735209D01*
X157124889Y-114691244D01*
X157207399Y-114635499D01*
X157280286Y-114567536D01*
X157341968Y-114488951D01*
X157394440Y-114396712D01*
X157437456Y-114288977D01*
X157466829Y-114176323D01*
X157485472Y-114047457D01*
X157492044Y-113900143D01*
X157484897Y-113750333D01*
X157464465Y-113617274D01*
X157431960Y-113498974D01*
X157385253Y-113385767D01*
X157329162Y-113288256D01*
X157263921Y-113204661D01*
X157187216Y-113131707D01*
X157101247Y-113071687D01*
X157005024Y-113024043D01*
X156902655Y-112990229D01*
X156792154Y-112969487D01*
X156672243Y-112962372D01*
X156530216Y-112974951D01*
X156403820Y-113007801D01*
X156299284Y-113054452D01*
X156234438Y-113099881D01*
X156209159Y-113131022D01*
X156198290Y-113162651D01*
X156192062Y-113207958D01*
X156189986Y-113272438D01*
X156192794Y-113342536D01*
X156202320Y-113389187D01*
X156218684Y-113415321D01*
X156240544Y-113423503D01*
X156261502Y-113418480D01*
X156292445Y-113399323D01*
X156373778Y-113345345D01*
X156492602Y-113291367D01*
X156565398Y-113273661D01*
X156657222Y-113267187D01*
X156758254Y-113278291D01*
X156845167Y-113310296D01*
X156921194Y-113362087D01*
X156985973Y-113433272D01*
X157036036Y-113519545D01*
X157074023Y-113626713D01*
X157096180Y-113744196D01*
X157104064Y-113882313D01*
X157095449Y-114032550D01*
X157071946Y-114152323D01*
X157031716Y-114259001D01*
X156980478Y-114340268D01*
X156914562Y-114404891D01*
X156836985Y-114450300D01*
X156749301Y-114477093D01*
X156647697Y-114486448D01*
X156555683Y-114480526D01*
X156482466Y-114464344D01*
X156362909Y-114415495D01*
X156280966Y-114367257D01*
X156249876Y-114350083D01*
X156231018Y-114345764D01*
X156209159Y-114351259D01*
X156195603Y-114372875D01*
X156187421Y-114418060D01*
X156184612Y-114495729D01*
G37*
G36*
X154782780Y-114713105D02*
G01*
X154790963Y-114737041D01*
X154818318Y-114754138D01*
X154870952Y-114764396D01*
X154953506Y-114767815D01*
X155037648Y-114764396D01*
X155090282Y-114754138D01*
X155117515Y-114737041D01*
X155125697Y-114712983D01*
X155125697Y-114015547D01*
X155129433Y-113931210D01*
X155138764Y-113875718D01*
X155155030Y-113827670D01*
X155176256Y-113788768D01*
X155204423Y-113756512D01*
X155239759Y-113732592D01*
X155280981Y-113717878D01*
X155330617Y-113712686D01*
X155394603Y-113723996D01*
X155463119Y-113760680D01*
X155528174Y-113816313D01*
X155602459Y-113900387D01*
X155602459Y-114712983D01*
X155610642Y-114737041D01*
X155638729Y-114754138D01*
X155691364Y-114764396D01*
X155774528Y-114767815D01*
X155857937Y-114764396D01*
X155910572Y-114754138D01*
X155938538Y-114737163D01*
X155946720Y-114713227D01*
X155946720Y-112919385D01*
X155938538Y-112894961D01*
X155910572Y-112876521D01*
X155857937Y-112864919D01*
X155774528Y-112860767D01*
X155691364Y-112864919D01*
X155638729Y-112876399D01*
X155610642Y-112894717D01*
X155602459Y-112919263D01*
X155602459Y-113589344D01*
X155510481Y-113511245D01*
X155421475Y-113458796D01*
X155327148Y-113426412D01*
X155229501Y-113415687D01*
X155111269Y-113426674D01*
X155019818Y-113456720D01*
X154942057Y-113505736D01*
X154881821Y-113568827D01*
X154837014Y-113644861D01*
X154805983Y-113734912D01*
X154789091Y-113835064D01*
X154782780Y-113965233D01*
X154782780Y-114713105D01*
G37*
G36*
X154100610Y-113428998D02*
G01*
X154240561Y-113463192D01*
X154352669Y-113508499D01*
X154419591Y-113552463D01*
X154445481Y-113596304D01*
X154452320Y-113662372D01*
X154448290Y-113719036D01*
X154436688Y-113762267D01*
X154417515Y-113789256D01*
X154390893Y-113798660D01*
X154368046Y-113794552D01*
X154334228Y-113779242D01*
X154247400Y-113736133D01*
X154127843Y-113693147D01*
X154057571Y-113678745D01*
X153974214Y-113673607D01*
X153911435Y-113677377D01*
X153864183Y-113687407D01*
X153823439Y-113705446D01*
X153793108Y-113730150D01*
X153770562Y-113762120D01*
X153754884Y-113802568D01*
X153743283Y-113903928D01*
X153743283Y-113978422D01*
X153862107Y-113978422D01*
X154019753Y-113985021D01*
X154147749Y-114003091D01*
X154263992Y-114035599D01*
X154353401Y-114079050D01*
X154426505Y-114137899D01*
X154477721Y-114208988D01*
X154508473Y-114292544D01*
X154519364Y-114394368D01*
X154510768Y-114488907D01*
X154486636Y-114566803D01*
X154446926Y-114635017D01*
X154394434Y-114690635D01*
X154330291Y-114733989D01*
X154253628Y-114765861D01*
X154169816Y-114784707D01*
X154075331Y-114791263D01*
X153961833Y-114779690D01*
X153861496Y-114746078D01*
X153770814Y-114692302D01*
X153690038Y-114620293D01*
X153690038Y-114717257D01*
X153678436Y-114747421D01*
X153638869Y-114763053D01*
X153549354Y-114767815D01*
X153462648Y-114763053D01*
X153419539Y-114747421D01*
X153405861Y-114717257D01*
X153405861Y-114404504D01*
X153743283Y-114404504D01*
X153807979Y-114468858D01*
X153866992Y-114512215D01*
X153930553Y-114539741D01*
X154000226Y-114548974D01*
X154079346Y-114537270D01*
X154134804Y-114505376D01*
X154170654Y-114454816D01*
X154183286Y-114385331D01*
X154178851Y-114342211D01*
X154166189Y-114305708D01*
X154144593Y-114273961D01*
X154112212Y-114246357D01*
X154071744Y-114225624D01*
X154016591Y-114209598D01*
X153954764Y-114200622D01*
X153874441Y-114197264D01*
X153743283Y-114197264D01*
X153743283Y-114404504D01*
X153405861Y-114404504D01*
X153405861Y-113896967D01*
X153413901Y-113775978D01*
X153435903Y-113679591D01*
X153475395Y-113595483D01*
X153531524Y-113529870D01*
X153604213Y-113480295D01*
X153698953Y-113443775D01*
X153806163Y-113423290D01*
X153944173Y-113415687D01*
X154100610Y-113428998D01*
G37*
G36*
X152718440Y-114713105D02*
G01*
X152726622Y-114737041D01*
X152754710Y-114754138D01*
X152807344Y-114764396D01*
X152890509Y-114767815D01*
X152973918Y-114764396D01*
X153026552Y-114754138D01*
X153054518Y-114737041D01*
X153062700Y-114713105D01*
X153062700Y-113496531D01*
X153054518Y-113472595D01*
X153026552Y-113454888D01*
X152973918Y-113443286D01*
X152890509Y-113439134D01*
X152807344Y-113443286D01*
X152754710Y-113454888D01*
X152726622Y-113472595D01*
X152718440Y-113496531D01*
X152718440Y-114713105D01*
G37*
G36*
X152692550Y-113084738D02*
G01*
X152698363Y-113152594D01*
X152713271Y-113198167D01*
X152734926Y-113227742D01*
X152788261Y-113255415D01*
X152891974Y-113267187D01*
X152996805Y-113255656D01*
X153048412Y-113229085D01*
X153076974Y-113180993D01*
X153088712Y-113091454D01*
X153076597Y-112998276D01*
X153047069Y-112947840D01*
X153016222Y-112927723D01*
X152966293Y-112913377D01*
X152889288Y-112907662D01*
X152785632Y-112919332D01*
X152733583Y-112946496D01*
X152704440Y-112995267D01*
X152692550Y-113084738D01*
G37*
G36*
X151212927Y-114713105D02*
G01*
X151221109Y-114737041D01*
X151248464Y-114754138D01*
X151301099Y-114764396D01*
X151383653Y-114767815D01*
X151467794Y-114764396D01*
X151520429Y-114754138D01*
X151547662Y-114737041D01*
X151555844Y-114712983D01*
X151555844Y-114015547D01*
X151559580Y-113931210D01*
X151568911Y-113875718D01*
X151585177Y-113827670D01*
X151606402Y-113788768D01*
X151634569Y-113756512D01*
X151669905Y-113732592D01*
X151711128Y-113717878D01*
X151760764Y-113712686D01*
X151824750Y-113723996D01*
X151893265Y-113760680D01*
X151958320Y-113816313D01*
X152032606Y-113900387D01*
X152032606Y-114712983D01*
X152040788Y-114737041D01*
X152068876Y-114754138D01*
X152121510Y-114764396D01*
X152204675Y-114767815D01*
X152288084Y-114764396D01*
X152340718Y-114754138D01*
X152368684Y-114737041D01*
X152376866Y-114713105D01*
X152376866Y-113493845D01*
X152370027Y-113469909D01*
X152345481Y-113452812D01*
X152299685Y-113442554D01*
X152229344Y-113439134D01*
X152156926Y-113442554D01*
X152112595Y-113452812D01*
X152090003Y-113469909D01*
X152083164Y-113493845D01*
X152083164Y-113634651D01*
X151978124Y-113536352D01*
X151877634Y-113470397D01*
X151770345Y-113429233D01*
X151659647Y-113415687D01*
X151541416Y-113426674D01*
X151449965Y-113456720D01*
X151372156Y-113505619D01*
X151311967Y-113568217D01*
X151267163Y-113643551D01*
X151236130Y-113732958D01*
X151219217Y-113832154D01*
X151212927Y-113959860D01*
X151212927Y-114713105D01*
G37*
G36*
X150789367Y-113000470D02*
G01*
X150823237Y-113020258D01*
X150845398Y-113052984D01*
X150853890Y-113106964D01*
X150853890Y-114646671D01*
X150845398Y-114700650D01*
X150823237Y-114733377D01*
X150789367Y-114753165D01*
X150747278Y-114760000D01*
X150277355Y-114760000D01*
X150173221Y-114756594D01*
X150084036Y-114747055D01*
X149999015Y-114730343D01*
X149920760Y-114706877D01*
X149846914Y-114675527D01*
X149780687Y-114637267D01*
X149721440Y-114590673D01*
X149671388Y-114536273D01*
X149630914Y-114473785D01*
X149599703Y-114401207D01*
X149580446Y-114321967D01*
X149574720Y-114244525D01*
X149946650Y-114244525D01*
X149952162Y-114300659D01*
X149967899Y-114348450D01*
X149993271Y-114390436D01*
X150026639Y-114424654D01*
X150067017Y-114451166D01*
X150115422Y-114470816D01*
X150169756Y-114482181D01*
X150241695Y-114486448D01*
X150501325Y-114486448D01*
X150501325Y-113986238D01*
X150288224Y-113986238D01*
X150194508Y-113991185D01*
X150128367Y-114003946D01*
X150070903Y-114026024D01*
X150027250Y-114054260D01*
X149992527Y-114090665D01*
X149967166Y-114135104D01*
X149951978Y-114185526D01*
X149946650Y-114244525D01*
X149574720Y-114244525D01*
X149573691Y-114230603D01*
X149580792Y-114143490D01*
X149601046Y-114068304D01*
X149633602Y-114000031D01*
X149675418Y-113942152D01*
X149726631Y-113893189D01*
X149786182Y-113854103D01*
X149852103Y-113825296D01*
X149924790Y-113806353D01*
X149868789Y-113780801D01*
X149820254Y-113748956D01*
X149777903Y-113710533D01*
X149743073Y-113667013D01*
X149715592Y-113618362D01*
X149695324Y-113563942D01*
X149683045Y-113506010D01*
X149681604Y-113484441D01*
X150038241Y-113484441D01*
X150053262Y-113575666D01*
X150072290Y-113616292D01*
X150099057Y-113651259D01*
X150133114Y-113679707D01*
X150176238Y-113702062D01*
X150226880Y-113715332D01*
X150300558Y-113720502D01*
X150501325Y-113720502D01*
X150501325Y-113259371D01*
X150319609Y-113259371D01*
X150240586Y-113263642D01*
X150186496Y-113274515D01*
X150139878Y-113293346D01*
X150103820Y-113317745D01*
X150075257Y-113349229D01*
X150054605Y-113388454D01*
X150042498Y-113432736D01*
X150038241Y-113484441D01*
X149681604Y-113484441D01*
X149678838Y-113443042D01*
X149689618Y-113333289D01*
X149719870Y-113243618D01*
X149769806Y-113166310D01*
X149838084Y-113103545D01*
X149921757Y-113056292D01*
X150027983Y-113020990D01*
X150147029Y-113001099D01*
X150303244Y-112993635D01*
X150747278Y-112993635D01*
X150789367Y-113000470D01*
G37*
G36*
X148149511Y-114713105D02*
G01*
X148156350Y-114737041D01*
X148180286Y-114754138D01*
X148225348Y-114764396D01*
X148295690Y-114767815D01*
X148368841Y-114764396D01*
X148413171Y-114754138D01*
X148436374Y-114737041D01*
X148443213Y-114713105D01*
X148443213Y-114572299D01*
X148548257Y-114670514D01*
X148648866Y-114736552D01*
X148755870Y-114777753D01*
X148865387Y-114791263D01*
X148984803Y-114780244D01*
X149076413Y-114750230D01*
X149154174Y-114701214D01*
X149214410Y-114638122D01*
X149259139Y-114562262D01*
X149289637Y-114473381D01*
X149305926Y-114373944D01*
X149312107Y-114240251D01*
X149312107Y-113493845D01*
X149304658Y-113469909D01*
X149277302Y-113452812D01*
X149224057Y-113442554D01*
X149141381Y-113439134D01*
X149058094Y-113442554D01*
X149005460Y-113452812D01*
X148977372Y-113470031D01*
X148969190Y-113493967D01*
X148969190Y-114184563D01*
X148965640Y-114274896D01*
X148956978Y-114331231D01*
X148941023Y-114379226D01*
X148919364Y-114418304D01*
X148890625Y-114450519D01*
X148855129Y-114474480D01*
X148813913Y-114489102D01*
X148764270Y-114494263D01*
X148700426Y-114482827D01*
X148632501Y-114445781D01*
X148567481Y-114389593D01*
X148491085Y-114304364D01*
X148491085Y-113493845D01*
X148483635Y-113469909D01*
X148456280Y-113452812D01*
X148403646Y-113442554D01*
X148320237Y-113439134D01*
X148237072Y-113442554D01*
X148185048Y-113452812D01*
X148157693Y-113469909D01*
X148149511Y-113493845D01*
X148149511Y-114713105D01*
G37*
G36*
X146944783Y-114368722D02*
G01*
X146954919Y-114468357D01*
X146983740Y-114552027D01*
X147030683Y-114624759D01*
X147093771Y-114684651D01*
X147169946Y-114730614D01*
X147261810Y-114764518D01*
X147361311Y-114784377D01*
X147472103Y-114791263D01*
X147602529Y-114781371D01*
X147713904Y-114756336D01*
X147795969Y-114725439D01*
X147843719Y-114695764D01*
X147866922Y-114650823D01*
X147875104Y-114558866D01*
X147872418Y-114494630D01*
X147864235Y-114455917D01*
X147850558Y-114436622D01*
X147830041Y-114431737D01*
X147785711Y-114448712D01*
X147712561Y-114485837D01*
X147610833Y-114523572D01*
X147550429Y-114536541D01*
X147478942Y-114541158D01*
X147396388Y-114531632D01*
X147333496Y-114504277D01*
X147309994Y-114483937D01*
X147293196Y-114459092D01*
X147279518Y-114396078D01*
X147285932Y-114357715D01*
X147304797Y-114325736D01*
X147333357Y-114298821D01*
X147371720Y-114274445D01*
X147465997Y-114233412D01*
X147573953Y-114191036D01*
X147681908Y-114137669D01*
X147731714Y-114104199D01*
X147776064Y-114063907D01*
X147813223Y-114016256D01*
X147842986Y-113958517D01*
X147861520Y-113893269D01*
X147868265Y-113810872D01*
X147859576Y-113726110D01*
X147834193Y-113650160D01*
X147792624Y-113582493D01*
X147735764Y-113525108D01*
X147666049Y-113479699D01*
X147579326Y-113444385D01*
X147483735Y-113423178D01*
X147372330Y-113415687D01*
X147261078Y-113424235D01*
X147163381Y-113445607D01*
X147089619Y-113473206D01*
X147046510Y-113498852D01*
X147028070Y-113519734D01*
X147019888Y-113544159D01*
X147015125Y-113579574D01*
X147013049Y-113631964D01*
X147015125Y-113691926D01*
X147021964Y-113728684D01*
X147034909Y-113747002D01*
X147054082Y-113751765D01*
X147092306Y-113736866D01*
X147157152Y-113704870D01*
X147247400Y-113672875D01*
X147300617Y-113661902D01*
X147364148Y-113657976D01*
X147444870Y-113667623D01*
X147500802Y-113695223D01*
X147533653Y-113737355D01*
X147544521Y-113789012D01*
X147537896Y-113828387D01*
X147518632Y-113860087D01*
X147489434Y-113886432D01*
X147450244Y-113910767D01*
X147354012Y-113951800D01*
X147244713Y-113993443D01*
X147135415Y-114046078D01*
X147084262Y-114079627D01*
X147039061Y-114119961D01*
X147001149Y-114167431D01*
X146970795Y-114224497D01*
X146951676Y-114288836D01*
X146944783Y-114368722D01*
G37*
D14*
G36*
X174331069Y-114174453D02*
G01*
X174397052Y-114182849D01*
X174492077Y-114202193D01*
X174492077Y-114349862D01*
X174475179Y-114349862D01*
X174400899Y-114323337D01*
X174349622Y-114310218D01*
X174303537Y-114306093D01*
X174252789Y-114308738D01*
X174215504Y-114315677D01*
X174188774Y-114325682D01*
X174167287Y-114342102D01*
X174154466Y-114364987D01*
X174149847Y-114396561D01*
X174149847Y-114399883D01*
X174230572Y-114406261D01*
X174307155Y-114415270D01*
X174379398Y-114430008D01*
X174434192Y-114450441D01*
X174466852Y-114469485D01*
X174493238Y-114491996D01*
X174514151Y-114518047D01*
X174529290Y-114547995D01*
X174538883Y-114584308D01*
X174542315Y-114628494D01*
X174538711Y-114669717D01*
X174528295Y-114706028D01*
X174511209Y-114738404D01*
X174486994Y-114767517D01*
X174457905Y-114791168D01*
X174425762Y-114808030D01*
X174389962Y-114818361D01*
X174349699Y-114821934D01*
X174315650Y-114820069D01*
X174285677Y-114814754D01*
X174256980Y-114805951D01*
X174229303Y-114793895D01*
X174187812Y-114767126D01*
X174150901Y-114738159D01*
X174150901Y-114803177D01*
X173967993Y-114803177D01*
X173967993Y-114643686D01*
X174150901Y-114643686D01*
X174173924Y-114661357D01*
X174200864Y-114675486D01*
X174229415Y-114684572D01*
X174256917Y-114687503D01*
X174289459Y-114685961D01*
X174308163Y-114682325D01*
X174323559Y-114675578D01*
X174336327Y-114666156D01*
X174346642Y-114654466D01*
X174351714Y-114643149D01*
X174354782Y-114611934D01*
X174350935Y-114585111D01*
X174340174Y-114565137D01*
X174323022Y-114549911D01*
X174297904Y-114538026D01*
X174272660Y-114531358D01*
X174231867Y-114524593D01*
X174150901Y-114515556D01*
X174150901Y-114643686D01*
X173967993Y-114643686D01*
X173967993Y-114385424D01*
X173972855Y-114331270D01*
X173986419Y-114287533D01*
X174007970Y-114252031D01*
X174037923Y-114223344D01*
X174073070Y-114203037D01*
X174120486Y-114186797D01*
X174183295Y-114175780D01*
X174265115Y-114171662D01*
X174331069Y-114174453D01*
G37*
G36*
X173380986Y-114381125D02*
G01*
X173397381Y-114381125D01*
X173435300Y-114374091D01*
X173478851Y-114371746D01*
X173517179Y-114373194D01*
X173548552Y-114377168D01*
X173579138Y-114384259D01*
X173613628Y-114395584D01*
X173613628Y-114803177D01*
X173798046Y-114803177D01*
X173798046Y-114190420D01*
X173613628Y-114190420D01*
X173613628Y-114280595D01*
X173571300Y-114245101D01*
X173536363Y-114221638D01*
X173507565Y-114207664D01*
X173463009Y-114194476D01*
X173424538Y-114190420D01*
X173402510Y-114191006D01*
X173380986Y-114192618D01*
X173380986Y-114381125D01*
G37*
G36*
X172908468Y-114798096D02*
G01*
X172971483Y-114810992D01*
X173052953Y-114815682D01*
X173107883Y-114812190D01*
X173151571Y-114802657D01*
X173186060Y-114788181D01*
X173213054Y-114769373D01*
X173234548Y-114744418D01*
X173250860Y-114711194D01*
X173261608Y-114667598D01*
X173265582Y-114610860D01*
X173265582Y-114324851D01*
X173341419Y-114324851D01*
X173341419Y-114190420D01*
X173265582Y-114190420D01*
X173265582Y-114015347D01*
X173081163Y-114015347D01*
X173081163Y-114190420D01*
X172908468Y-114190420D01*
X172908468Y-114324851D01*
X173081163Y-114324851D01*
X173081163Y-114541104D01*
X173080659Y-114597036D01*
X173078285Y-114620090D01*
X173072462Y-114639973D01*
X173062664Y-114656843D01*
X173047091Y-114670113D01*
X173026515Y-114678077D01*
X172994060Y-114681250D01*
X172956370Y-114674656D01*
X172923855Y-114662493D01*
X172908468Y-114662493D01*
X172908468Y-114798096D01*
G37*
G36*
X172220711Y-114803177D02*
G01*
X172406137Y-114803177D01*
X172406137Y-114498508D01*
X172409755Y-114424356D01*
X172415128Y-114390060D01*
X172422028Y-114369939D01*
X172434655Y-114352452D01*
X172452024Y-114340434D01*
X172473837Y-114333753D01*
X172507070Y-114331104D01*
X172532158Y-114333249D01*
X172558086Y-114339848D01*
X172584093Y-114350720D01*
X172614186Y-114367740D01*
X172614186Y-114803177D01*
X172798604Y-114803177D01*
X172798604Y-113952821D01*
X172614186Y-113952821D01*
X172614186Y-114256463D01*
X172564562Y-114219289D01*
X172519664Y-114193546D01*
X172472486Y-114177277D01*
X172419005Y-114171662D01*
X172372788Y-114175671D01*
X172333922Y-114186980D01*
X172301071Y-114204976D01*
X172273238Y-114229694D01*
X172251474Y-114260081D01*
X172235121Y-114297961D01*
X172224543Y-114344965D01*
X172220711Y-114403156D01*
X172220711Y-114803177D01*
G37*
G36*
X171838354Y-114175578D02*
G01*
X171890579Y-114186699D01*
X171935976Y-114204342D01*
X171975519Y-114228192D01*
X172009960Y-114258320D01*
X172039152Y-114294440D01*
X172062088Y-114335542D01*
X172078941Y-114382343D01*
X172089508Y-114435805D01*
X172093216Y-114497091D01*
X172089543Y-114557866D01*
X172079064Y-114611017D01*
X172062332Y-114657671D01*
X172039539Y-114698761D01*
X172010509Y-114734984D01*
X171976268Y-114765167D01*
X171936800Y-114789087D01*
X171891327Y-114806805D01*
X171838841Y-114817990D01*
X171778143Y-114821934D01*
X171717443Y-114817990D01*
X171664961Y-114806803D01*
X171619499Y-114789085D01*
X171580045Y-114765165D01*
X171545822Y-114734984D01*
X171516774Y-114698758D01*
X171493969Y-114657667D01*
X171477228Y-114611013D01*
X171466744Y-114557864D01*
X171463134Y-114498166D01*
X171654174Y-114498166D01*
X171656740Y-114553071D01*
X171663150Y-114589122D01*
X171674567Y-114620013D01*
X171690032Y-114645298D01*
X171707757Y-114663491D01*
X171728729Y-114675437D01*
X171752014Y-114682124D01*
X171776631Y-114684377D01*
X171804809Y-114681827D01*
X171828655Y-114674607D01*
X171849706Y-114662073D01*
X171867810Y-114643637D01*
X171882234Y-114618853D01*
X171893456Y-114584775D01*
X171899820Y-114546358D01*
X171902157Y-114498166D01*
X171899407Y-114444688D01*
X171892173Y-114405305D01*
X171879880Y-114371106D01*
X171865246Y-114347224D01*
X171845204Y-114327713D01*
X171825587Y-114316840D01*
X171803908Y-114311219D01*
X171778143Y-114309220D01*
X171752192Y-114311572D01*
X171728500Y-114318452D01*
X171707273Y-114330800D01*
X171689024Y-114349959D01*
X171674932Y-114374191D01*
X171663425Y-114408040D01*
X171656710Y-114446625D01*
X171654174Y-114498166D01*
X171463134Y-114498166D01*
X171463069Y-114497091D01*
X171466723Y-114436276D01*
X171477149Y-114383070D01*
X171493794Y-114336353D01*
X171516462Y-114295198D01*
X171545318Y-114258906D01*
X171579342Y-114228668D01*
X171618718Y-114204678D01*
X171664249Y-114186884D01*
X171716977Y-114175635D01*
X171778143Y-114171662D01*
X171838354Y-114175578D01*
G37*
G36*
X170913889Y-114381125D02*
G01*
X170930284Y-114381125D01*
X170968203Y-114374091D01*
X171011754Y-114371746D01*
X171050082Y-114373194D01*
X171081455Y-114377168D01*
X171112041Y-114384259D01*
X171146531Y-114395584D01*
X171146531Y-114803177D01*
X171330949Y-114803177D01*
X171330949Y-114190420D01*
X171146531Y-114190420D01*
X171146531Y-114280595D01*
X171104203Y-114245101D01*
X171069266Y-114221638D01*
X171040468Y-114207664D01*
X170995912Y-114194476D01*
X170957441Y-114190420D01*
X170935413Y-114191006D01*
X170913889Y-114192618D01*
X170913889Y-114381125D01*
G37*
G36*
X170231353Y-114803177D02*
G01*
X170416779Y-114803177D01*
X170416779Y-114498508D01*
X170420397Y-114424356D01*
X170425770Y-114390060D01*
X170432670Y-114369939D01*
X170445297Y-114352452D01*
X170462666Y-114340434D01*
X170484479Y-114333753D01*
X170517712Y-114331104D01*
X170542800Y-114333249D01*
X170568728Y-114339848D01*
X170594735Y-114350720D01*
X170624828Y-114367740D01*
X170624828Y-114803177D01*
X170809246Y-114803177D01*
X170809246Y-113952821D01*
X170624828Y-113952821D01*
X170624828Y-114256463D01*
X170575204Y-114219289D01*
X170530306Y-114193546D01*
X170483128Y-114177277D01*
X170429647Y-114171662D01*
X170383430Y-114175671D01*
X170344564Y-114186980D01*
X170311713Y-114204976D01*
X170283880Y-114229694D01*
X170262116Y-114260081D01*
X170245763Y-114297961D01*
X170235185Y-114344965D01*
X170231353Y-114403156D01*
X170231353Y-114803177D01*
G37*
G36*
X169863614Y-114803177D02*
G01*
X170055223Y-114803177D01*
X170055223Y-114587461D01*
X169863614Y-114587461D01*
X169863614Y-114803177D01*
G37*
G36*
X169514213Y-114176959D02*
G01*
X169564432Y-114193009D01*
X169610379Y-114218834D01*
X169647689Y-114252555D01*
X169679802Y-114296855D01*
X169704063Y-114348787D01*
X169714783Y-114386181D01*
X169721610Y-114429601D01*
X169724030Y-114479994D01*
X169719147Y-114560497D01*
X169705769Y-114624797D01*
X169685310Y-114675881D01*
X169658450Y-114716177D01*
X169623391Y-114749259D01*
X169581615Y-114773302D01*
X169531765Y-114788424D01*
X169471971Y-114793798D01*
X169423841Y-114789419D01*
X169381800Y-114776847D01*
X169343060Y-114756859D01*
X169308023Y-114730929D01*
X169308023Y-114742360D01*
X169309964Y-114778927D01*
X169315213Y-114807524D01*
X169324762Y-114832699D01*
X169338248Y-114852123D01*
X169357918Y-114867886D01*
X169387204Y-114880650D01*
X169421674Y-114887903D01*
X169470460Y-114890713D01*
X169509946Y-114887981D01*
X169557563Y-114878989D01*
X169604197Y-114866170D01*
X169640041Y-114853197D01*
X169662572Y-114853197D01*
X169662572Y-115008047D01*
X169618017Y-115017904D01*
X169561914Y-115026805D01*
X169503466Y-115032583D01*
X169443807Y-115034523D01*
X169372083Y-115030563D01*
X169311366Y-115019478D01*
X169273238Y-115007021D01*
X169240038Y-114990691D01*
X169211166Y-114970629D01*
X169186053Y-114946157D01*
X169164560Y-114915694D01*
X169146640Y-114878354D01*
X169134340Y-114838291D01*
X169126405Y-114790349D01*
X169123559Y-114733128D01*
X169123559Y-114330811D01*
X169308023Y-114330811D01*
X169308023Y-114609736D01*
X169331020Y-114623514D01*
X169356704Y-114634454D01*
X169383653Y-114641422D01*
X169411017Y-114643735D01*
X169450319Y-114639364D01*
X169480233Y-114627418D01*
X169502975Y-114608661D01*
X169518728Y-114582923D01*
X169529693Y-114543407D01*
X169533978Y-114484830D01*
X169529461Y-114432819D01*
X169517040Y-114392083D01*
X169497617Y-114360169D01*
X169470617Y-114336153D01*
X169435132Y-114320997D01*
X169388486Y-114315472D01*
X169346995Y-114319576D01*
X169308023Y-114330811D01*
X169123559Y-114330811D01*
X169123559Y-114190420D01*
X169302390Y-114190420D01*
X169309031Y-114215968D01*
X169341681Y-114197581D01*
X169378457Y-114183435D01*
X169417866Y-114174726D01*
X169463224Y-114171662D01*
X169514213Y-114176959D01*
G37*
G36*
X168764430Y-114803177D02*
G01*
X168948849Y-114803177D01*
X168948849Y-114190420D01*
X168764430Y-114190420D01*
X168764430Y-114803177D01*
G37*
G36*
X168759301Y-114102883D02*
G01*
X168953978Y-114102883D01*
X168953978Y-113952821D01*
X168759301Y-113952821D01*
X168759301Y-114102883D01*
G37*
G36*
X168222669Y-114798096D02*
G01*
X168285684Y-114810992D01*
X168367154Y-114815682D01*
X168422084Y-114812190D01*
X168465772Y-114802657D01*
X168500261Y-114788181D01*
X168527255Y-114769373D01*
X168548749Y-114744418D01*
X168565061Y-114711194D01*
X168575809Y-114667598D01*
X168579782Y-114610860D01*
X168579782Y-114324851D01*
X168655620Y-114324851D01*
X168655620Y-114190420D01*
X168579782Y-114190420D01*
X168579782Y-114015347D01*
X168395364Y-114015347D01*
X168395364Y-114190420D01*
X168222669Y-114190420D01*
X168222669Y-114324851D01*
X168395364Y-114324851D01*
X168395364Y-114541104D01*
X168394860Y-114597036D01*
X168392486Y-114620090D01*
X168386663Y-114639973D01*
X168376865Y-114656843D01*
X168361292Y-114670113D01*
X168340716Y-114678077D01*
X168308261Y-114681250D01*
X168270571Y-114674656D01*
X168238056Y-114662493D01*
X168222669Y-114662493D01*
X168222669Y-114798096D01*
G37*
G36*
X167534912Y-114803177D02*
G01*
X167720338Y-114803177D01*
X167720338Y-114498508D01*
X167723956Y-114424356D01*
X167729329Y-114390060D01*
X167736229Y-114369939D01*
X167748856Y-114352452D01*
X167766225Y-114340434D01*
X167788038Y-114333753D01*
X167821271Y-114331104D01*
X167846358Y-114333249D01*
X167872287Y-114339848D01*
X167898294Y-114350720D01*
X167928387Y-114367740D01*
X167928387Y-114803177D01*
X168112805Y-114803177D01*
X168112805Y-113952821D01*
X167928387Y-113952821D01*
X167928387Y-114256463D01*
X167878763Y-114219289D01*
X167833865Y-114193546D01*
X167786687Y-114177277D01*
X167733206Y-114171662D01*
X167686989Y-114175671D01*
X167648123Y-114186980D01*
X167615272Y-114204976D01*
X167587439Y-114229694D01*
X167565675Y-114260081D01*
X167549322Y-114297961D01*
X167538744Y-114344965D01*
X167534912Y-114403156D01*
X167534912Y-114803177D01*
G37*
G36*
X166792108Y-114803177D02*
G01*
X166976572Y-114803177D01*
X166976572Y-114737133D01*
X167027574Y-114775017D01*
X167070362Y-114800343D01*
X167099368Y-114811990D01*
X167132899Y-114819341D01*
X167171753Y-114821934D01*
X167219060Y-114817848D01*
X167258377Y-114806382D01*
X167291182Y-114788233D01*
X167318573Y-114763414D01*
X167339916Y-114732816D01*
X167355947Y-114694900D01*
X167366302Y-114648097D01*
X167370048Y-114590441D01*
X167370048Y-114190420D01*
X167184576Y-114190420D01*
X167184576Y-114495089D01*
X167181782Y-114572514D01*
X167176829Y-114601756D01*
X167168685Y-114623658D01*
X167156494Y-114641133D01*
X167139238Y-114653211D01*
X167117388Y-114659858D01*
X167084146Y-114662493D01*
X167060140Y-114660315D01*
X167031939Y-114653211D01*
X167003908Y-114641790D01*
X166976572Y-114625856D01*
X166976572Y-114190420D01*
X166792108Y-114190420D01*
X166792108Y-114803177D01*
G37*
G36*
X166618039Y-114803177D02*
G01*
X166441314Y-114803177D01*
X166433621Y-114772548D01*
X166399903Y-114790956D01*
X166364469Y-114804495D01*
X166326438Y-114812708D01*
X166279885Y-114815682D01*
X166225671Y-114809869D01*
X166177160Y-114792913D01*
X166133089Y-114764740D01*
X166092627Y-114724237D01*
X166060519Y-114676512D01*
X166037199Y-114622062D01*
X166022664Y-114559645D01*
X166017969Y-114493330D01*
X166207665Y-114493330D01*
X166212320Y-114553896D01*
X166224760Y-114598881D01*
X166243523Y-114631913D01*
X166262892Y-114651434D01*
X166286820Y-114665741D01*
X166316287Y-114674848D01*
X166352654Y-114678124D01*
X166395702Y-114675389D01*
X166433621Y-114664935D01*
X166433621Y-114354747D01*
X166407836Y-114340619D01*
X166380864Y-114330273D01*
X166353229Y-114323810D01*
X166327054Y-114321725D01*
X166293788Y-114324974D01*
X166268206Y-114333833D01*
X166248595Y-114347564D01*
X166233815Y-114366275D01*
X166220190Y-114397311D01*
X166211070Y-114438731D01*
X166207665Y-114493330D01*
X166017969Y-114493330D01*
X166017568Y-114487664D01*
X166021813Y-114412892D01*
X166033650Y-114350596D01*
X166052059Y-114298769D01*
X166076507Y-114255731D01*
X166108855Y-114219162D01*
X166146799Y-114193265D01*
X166191446Y-114177285D01*
X166244531Y-114171662D01*
X166282689Y-114174303D01*
X166316568Y-114181886D01*
X166346792Y-114194084D01*
X166390086Y-114219502D01*
X166433621Y-114252507D01*
X166433621Y-113952821D01*
X166618039Y-113952821D01*
X166618039Y-114803177D01*
G37*
G36*
X165685596Y-114803177D02*
G01*
X165877205Y-114803177D01*
X165877205Y-114587461D01*
X165685596Y-114587461D01*
X165685596Y-114803177D01*
G37*
G36*
X165320606Y-114803177D02*
G01*
X165505025Y-114803177D01*
X165505025Y-114190420D01*
X165320606Y-114190420D01*
X165320606Y-114803177D01*
G37*
G36*
X165315477Y-114102883D02*
G01*
X165510154Y-114102883D01*
X165510154Y-113952821D01*
X165315477Y-113952821D01*
X165315477Y-114102883D01*
G37*
G36*
X164933853Y-114175578D02*
G01*
X164986078Y-114186699D01*
X165031475Y-114204342D01*
X165071018Y-114228192D01*
X165105459Y-114258320D01*
X165134651Y-114294440D01*
X165157587Y-114335542D01*
X165174440Y-114382343D01*
X165185007Y-114435805D01*
X165188715Y-114497091D01*
X165185042Y-114557866D01*
X165174563Y-114611017D01*
X165157831Y-114657671D01*
X165135038Y-114698761D01*
X165106008Y-114734984D01*
X165071767Y-114765167D01*
X165032299Y-114789087D01*
X164986826Y-114806805D01*
X164934340Y-114817990D01*
X164873642Y-114821934D01*
X164812942Y-114817990D01*
X164760460Y-114806803D01*
X164714998Y-114789085D01*
X164675544Y-114765165D01*
X164641321Y-114734984D01*
X164612273Y-114698758D01*
X164589468Y-114657667D01*
X164572727Y-114611013D01*
X164562243Y-114557864D01*
X164558633Y-114498166D01*
X164749673Y-114498166D01*
X164752239Y-114553071D01*
X164758649Y-114589122D01*
X164770066Y-114620013D01*
X164785531Y-114645298D01*
X164803256Y-114663491D01*
X164824228Y-114675437D01*
X164847513Y-114682124D01*
X164872130Y-114684377D01*
X164900308Y-114681827D01*
X164924154Y-114674607D01*
X164945205Y-114662073D01*
X164963309Y-114643637D01*
X164977733Y-114618853D01*
X164988955Y-114584775D01*
X164995319Y-114546358D01*
X164997656Y-114498166D01*
X164994906Y-114444688D01*
X164987672Y-114405305D01*
X164975379Y-114371106D01*
X164960745Y-114347224D01*
X164940702Y-114327713D01*
X164921086Y-114316840D01*
X164899407Y-114311219D01*
X164873642Y-114309220D01*
X164847691Y-114311572D01*
X164823999Y-114318452D01*
X164802771Y-114330800D01*
X164784523Y-114349959D01*
X164770431Y-114374191D01*
X164758924Y-114408040D01*
X164752209Y-114446625D01*
X164749673Y-114498166D01*
X164558633Y-114498166D01*
X164558568Y-114497091D01*
X164562222Y-114436276D01*
X164572648Y-114383070D01*
X164589293Y-114336353D01*
X164611960Y-114295198D01*
X164640817Y-114258906D01*
X164674841Y-114228668D01*
X164714217Y-114204678D01*
X164759747Y-114186884D01*
X164812475Y-114175635D01*
X164873642Y-114171662D01*
X164933853Y-114175578D01*
G37*
G36*
X163886977Y-113952821D02*
G01*
X164293275Y-114981376D01*
X164450537Y-114981376D01*
X164045796Y-113952821D01*
X163886977Y-113952821D01*
G37*
G36*
X163347460Y-114818808D02*
G01*
X163403724Y-114815725D01*
X163455908Y-114806731D01*
X163504492Y-114792088D01*
X163550745Y-114771061D01*
X163591810Y-114744534D01*
X163628232Y-114712416D01*
X163659702Y-114674825D01*
X163686423Y-114631065D01*
X163708420Y-114580378D01*
X163723803Y-114526796D01*
X163733472Y-114466209D01*
X163736859Y-114397587D01*
X163733690Y-114333710D01*
X163724517Y-114275567D01*
X163709702Y-114222465D01*
X163688592Y-114172004D01*
X163662321Y-114127258D01*
X163630797Y-114087643D01*
X163595596Y-114054810D01*
X163554762Y-114026989D01*
X163507607Y-114004160D01*
X163457885Y-113988002D01*
X163404512Y-113978097D01*
X163346956Y-113974705D01*
X163299952Y-113976227D01*
X163260127Y-113980469D01*
X163188641Y-113995514D01*
X163126405Y-114018815D01*
X163077449Y-114042653D01*
X163077449Y-114240441D01*
X163099980Y-114240441D01*
X163136159Y-114208934D01*
X163185572Y-114173030D01*
X163214669Y-114156836D01*
X163246526Y-114143183D01*
X163280153Y-114134117D01*
X163316731Y-114131020D01*
X163357422Y-114134539D01*
X163395636Y-114144942D01*
X163431203Y-114163158D01*
X163464788Y-114191104D01*
X163491496Y-114226211D01*
X163513743Y-114273609D01*
X163527406Y-114328120D01*
X163532428Y-114398124D01*
X163529918Y-114448858D01*
X163522946Y-114491029D01*
X163512186Y-114525961D01*
X163488561Y-114573028D01*
X163461216Y-114606756D01*
X163427963Y-114632615D01*
X163391515Y-114649645D01*
X163353006Y-114659338D01*
X163315677Y-114662493D01*
X163280119Y-114659591D01*
X163244740Y-114650818D01*
X163210825Y-114636981D01*
X163179939Y-114619164D01*
X163133320Y-114584726D01*
X163097965Y-114553072D01*
X163077449Y-114553072D01*
X163077449Y-114748515D01*
X163132312Y-114774356D01*
X163187084Y-114795214D01*
X163257288Y-114812751D01*
X163293151Y-114817078D01*
X163347460Y-114818808D01*
G37*
G36*
X162365512Y-114803177D02*
G01*
X162550938Y-114803177D01*
X162550938Y-114498508D01*
X162554556Y-114424356D01*
X162559929Y-114390060D01*
X162566829Y-114369939D01*
X162579456Y-114352452D01*
X162596825Y-114340434D01*
X162618639Y-114333753D01*
X162651871Y-114331104D01*
X162676959Y-114333249D01*
X162702887Y-114339848D01*
X162728894Y-114350720D01*
X162758987Y-114367740D01*
X162758987Y-114803177D01*
X162943406Y-114803177D01*
X162943406Y-113952821D01*
X162758987Y-113952821D01*
X162758987Y-114256463D01*
X162709363Y-114219289D01*
X162664465Y-114193546D01*
X162617287Y-114177277D01*
X162563806Y-114171662D01*
X162517589Y-114175671D01*
X162478723Y-114186980D01*
X162445872Y-114204976D01*
X162418039Y-114229694D01*
X162396275Y-114260081D01*
X162379922Y-114297961D01*
X162369344Y-114344965D01*
X162365512Y-114403156D01*
X162365512Y-114803177D01*
G37*
G36*
X162027825Y-114174453D02*
G01*
X162093807Y-114182849D01*
X162188833Y-114202193D01*
X162188833Y-114349862D01*
X162171934Y-114349862D01*
X162097654Y-114323337D01*
X162046377Y-114310218D01*
X162000292Y-114306093D01*
X161949544Y-114308738D01*
X161912259Y-114315677D01*
X161885529Y-114325682D01*
X161864042Y-114342102D01*
X161851221Y-114364987D01*
X161846603Y-114396561D01*
X161846603Y-114399883D01*
X161927327Y-114406261D01*
X162003910Y-114415270D01*
X162076153Y-114430008D01*
X162130947Y-114450441D01*
X162163607Y-114469485D01*
X162189993Y-114491996D01*
X162210906Y-114518047D01*
X162226045Y-114547995D01*
X162235638Y-114584308D01*
X162239070Y-114628494D01*
X162235466Y-114669717D01*
X162225050Y-114706028D01*
X162207964Y-114738404D01*
X162183749Y-114767517D01*
X162154660Y-114791168D01*
X162122517Y-114808030D01*
X162086717Y-114818361D01*
X162046454Y-114821934D01*
X162012405Y-114820069D01*
X161982432Y-114814754D01*
X161953735Y-114805951D01*
X161926058Y-114793895D01*
X161884567Y-114767126D01*
X161847656Y-114738159D01*
X161847656Y-114803177D01*
X161664748Y-114803177D01*
X161664748Y-114643686D01*
X161847656Y-114643686D01*
X161870679Y-114661357D01*
X161897619Y-114675486D01*
X161926170Y-114684572D01*
X161953672Y-114687503D01*
X161986214Y-114685961D01*
X162004918Y-114682325D01*
X162020314Y-114675578D01*
X162033082Y-114666156D01*
X162043397Y-114654466D01*
X162048469Y-114643149D01*
X162051538Y-114611934D01*
X162047690Y-114585111D01*
X162036929Y-114565137D01*
X162019777Y-114549911D01*
X161994659Y-114538026D01*
X161969415Y-114531358D01*
X161928622Y-114524593D01*
X161847656Y-114515556D01*
X161847656Y-114643686D01*
X161664748Y-114643686D01*
X161664748Y-114385424D01*
X161669610Y-114331270D01*
X161683174Y-114287533D01*
X161704725Y-114252031D01*
X161734678Y-114223344D01*
X161769825Y-114203037D01*
X161817241Y-114186797D01*
X161880050Y-114175780D01*
X161961870Y-114171662D01*
X162027825Y-114174453D01*
G37*
G36*
X161310383Y-114803177D02*
G01*
X161494801Y-114803177D01*
X161494801Y-114190420D01*
X161310383Y-114190420D01*
X161310383Y-114803177D01*
G37*
G36*
X161305254Y-114102883D02*
G01*
X161499930Y-114102883D01*
X161499930Y-113952821D01*
X161305254Y-113952821D01*
X161305254Y-114102883D01*
G37*
G36*
X160558603Y-114803177D02*
G01*
X160744029Y-114803177D01*
X160744029Y-114498508D01*
X160747647Y-114424356D01*
X160753020Y-114390060D01*
X160759920Y-114369939D01*
X160772547Y-114352452D01*
X160789916Y-114340434D01*
X160811730Y-114333753D01*
X160844963Y-114331104D01*
X160870050Y-114333249D01*
X160895979Y-114339848D01*
X160921985Y-114350720D01*
X160952078Y-114367740D01*
X160952078Y-114803177D01*
X161136497Y-114803177D01*
X161136497Y-114190420D01*
X160952078Y-114190420D01*
X160952078Y-114256463D01*
X160902455Y-114219289D01*
X160857556Y-114193546D01*
X160810378Y-114177277D01*
X160756898Y-114171662D01*
X160710680Y-114175671D01*
X160671815Y-114186980D01*
X160638963Y-114204976D01*
X160611131Y-114229694D01*
X160589366Y-114260081D01*
X160573013Y-114297961D01*
X160562436Y-114344965D01*
X160558603Y-114403156D01*
X160558603Y-114803177D01*
G37*
G36*
X160378856Y-114803177D02*
G01*
X160045831Y-114803177D01*
X159966521Y-114798957D01*
X159908810Y-114787936D01*
X159857017Y-114767535D01*
X159809663Y-114736742D01*
X159774902Y-114702357D01*
X159748434Y-114660001D01*
X159736222Y-114628347D01*
X159728720Y-114593523D01*
X159726132Y-114554928D01*
X159726352Y-114552730D01*
X159930059Y-114552730D01*
X159933041Y-114581017D01*
X159941600Y-114605047D01*
X159957040Y-114624738D01*
X159983869Y-114641439D01*
X160015148Y-114651791D01*
X160049952Y-114655703D01*
X160168837Y-114656240D01*
X160183171Y-114656240D01*
X160183171Y-114453030D01*
X160140124Y-114453030D01*
X160055585Y-114453567D01*
X160017306Y-114456024D01*
X159992067Y-114461237D01*
X159962010Y-114475093D01*
X159944164Y-114492744D01*
X159933972Y-114516703D01*
X159930059Y-114552730D01*
X159726352Y-114552730D01*
X159731353Y-114502682D01*
X159746095Y-114459804D01*
X159769958Y-114424258D01*
X159801645Y-114395637D01*
X159840692Y-114373783D01*
X159888569Y-114358899D01*
X159888569Y-114354502D01*
X159854998Y-114334978D01*
X159827770Y-114311569D01*
X159806091Y-114284160D01*
X159789978Y-114252788D01*
X159780578Y-114219534D01*
X159978236Y-114219534D01*
X159980383Y-114245169D01*
X159986434Y-114266526D01*
X159998464Y-114284165D01*
X160021284Y-114299548D01*
X160042170Y-114306731D01*
X160073033Y-114310685D01*
X160152443Y-114312346D01*
X160183171Y-114312346D01*
X160183171Y-114137273D01*
X160164716Y-114137273D01*
X160074819Y-114138103D01*
X160044284Y-114141161D01*
X160021284Y-114147824D01*
X160000449Y-114160843D01*
X159987716Y-114178403D01*
X159980543Y-114199243D01*
X159978236Y-114219534D01*
X159780578Y-114219534D01*
X159780223Y-114218278D01*
X159776873Y-114179820D01*
X159782341Y-114131082D01*
X159798168Y-114089206D01*
X159814456Y-114064949D01*
X159835799Y-114043918D01*
X159862923Y-114025947D01*
X159905584Y-114007309D01*
X159947737Y-113996931D01*
X159996730Y-113992304D01*
X160082742Y-113990336D01*
X160378856Y-113990336D01*
X160378856Y-114803177D01*
G37*
G36*
X159016393Y-114803177D02*
G01*
X159200857Y-114803177D01*
X159200857Y-114737133D01*
X159251859Y-114775017D01*
X159294646Y-114800343D01*
X159323653Y-114811990D01*
X159357184Y-114819341D01*
X159396038Y-114821934D01*
X159443345Y-114817848D01*
X159482662Y-114806382D01*
X159515467Y-114788233D01*
X159542858Y-114763414D01*
X159564201Y-114732816D01*
X159580232Y-114694900D01*
X159590587Y-114648097D01*
X159594332Y-114590441D01*
X159594332Y-114190420D01*
X159408860Y-114190420D01*
X159408860Y-114495089D01*
X159406067Y-114572514D01*
X159401114Y-114601756D01*
X159392969Y-114623658D01*
X159380778Y-114641133D01*
X159363523Y-114653211D01*
X159341673Y-114659858D01*
X159308431Y-114662493D01*
X159284425Y-114660315D01*
X159256224Y-114653211D01*
X159228193Y-114641790D01*
X159200857Y-114625856D01*
X159200857Y-114190420D01*
X159016393Y-114190420D01*
X159016393Y-114803177D01*
G37*
G36*
X158342282Y-114609590D02*
G01*
X158347270Y-114654971D01*
X158361834Y-114694967D01*
X158386305Y-114730908D01*
X158422196Y-114763511D01*
X158462813Y-114787650D01*
X158511735Y-114805923D01*
X158570512Y-114817705D01*
X158640961Y-114821934D01*
X158715851Y-114817957D01*
X158780317Y-114806742D01*
X158839481Y-114789784D01*
X158880746Y-114773086D01*
X158880746Y-114612472D01*
X158863848Y-114612472D01*
X158831837Y-114633819D01*
X158780317Y-114658731D01*
X158715287Y-114679052D01*
X158678130Y-114685333D01*
X158637389Y-114687503D01*
X158586747Y-114683907D01*
X158556972Y-114675291D01*
X158541766Y-114665211D01*
X158533543Y-114653386D01*
X158530823Y-114639192D01*
X158534835Y-114619429D01*
X158546210Y-114606561D01*
X158565249Y-114597718D01*
X158604599Y-114587070D01*
X158660195Y-114576373D01*
X158723988Y-114562353D01*
X158774411Y-114543757D01*
X158812373Y-114520836D01*
X158840263Y-114494063D01*
X158861077Y-114461138D01*
X158873760Y-114423095D01*
X158878182Y-114378536D01*
X158873401Y-114336511D01*
X158859272Y-114298540D01*
X158835221Y-114263467D01*
X158799551Y-114230671D01*
X158759490Y-114206235D01*
X158711366Y-114187788D01*
X158653672Y-114175918D01*
X158584632Y-114171662D01*
X158520936Y-114175221D01*
X158460893Y-114185682D01*
X158405200Y-114201158D01*
X158368432Y-114215626D01*
X158368432Y-114371746D01*
X158384323Y-114371746D01*
X158427530Y-114345681D01*
X158477837Y-114324363D01*
X158530815Y-114310633D01*
X158584129Y-114306093D01*
X158626690Y-114309465D01*
X158659188Y-114318550D01*
X158677366Y-114329033D01*
X158686690Y-114340641D01*
X158689642Y-114353867D01*
X158686037Y-114373551D01*
X158675811Y-114387329D01*
X158656986Y-114397248D01*
X158610736Y-114410385D01*
X158550057Y-114422207D01*
X158484707Y-114436715D01*
X158437944Y-114454022D01*
X158402835Y-114475481D01*
X158377133Y-114500657D01*
X158358045Y-114531554D01*
X158346365Y-114567422D01*
X158342282Y-114609590D01*
G37*
G36*
X173787376Y-113782757D02*
G01*
X173865628Y-113777774D01*
X173934117Y-113763560D01*
X173977084Y-113748142D01*
X174015443Y-113728352D01*
X174049692Y-113704209D01*
X174079505Y-113675372D01*
X174104590Y-113641856D01*
X174125115Y-113603141D01*
X174139590Y-113561676D01*
X174148689Y-113514398D01*
X174151884Y-113460357D01*
X174148438Y-113403427D01*
X174138673Y-113354206D01*
X174123210Y-113311564D01*
X174101322Y-113271847D01*
X174074701Y-113237399D01*
X174043147Y-113207712D01*
X174008636Y-113184241D01*
X173970531Y-113165210D01*
X173928401Y-113150608D01*
X173862398Y-113137054D01*
X173793384Y-113132485D01*
X173732015Y-113135999D01*
X173677564Y-113146065D01*
X173625885Y-113161845D01*
X173578646Y-113181383D01*
X173578646Y-113348200D01*
X173606538Y-113348200D01*
X173634138Y-113326658D01*
X173673754Y-113302478D01*
X173722944Y-113283769D01*
X173750906Y-113278285D01*
X173785226Y-113276295D01*
X173824004Y-113279702D01*
X173856339Y-113289304D01*
X173883470Y-113304626D01*
X173906273Y-113325828D01*
X173929023Y-113361116D01*
X173943431Y-113405158D01*
X173948625Y-113460308D01*
X173943163Y-113517190D01*
X173928295Y-113560537D01*
X173905198Y-113593469D01*
X173873481Y-113618017D01*
X173833241Y-113633401D01*
X173781953Y-113638947D01*
X173745836Y-113636822D01*
X173715031Y-113630838D01*
X173686737Y-113621560D01*
X173665547Y-113611641D01*
X173632770Y-113589610D01*
X173606538Y-113567042D01*
X173578646Y-113567042D01*
X173578646Y-113735130D01*
X173626036Y-113754722D01*
X173675659Y-113769861D01*
X173727705Y-113779401D01*
X173787376Y-113782757D01*
G37*
G36*
X173221162Y-113136401D02*
G01*
X173276868Y-113147522D01*
X173325291Y-113165165D01*
X173367471Y-113189015D01*
X173404207Y-113219143D01*
X173435346Y-113255263D01*
X173459811Y-113296365D01*
X173477788Y-113343166D01*
X173489059Y-113396628D01*
X173493014Y-113457914D01*
X173489096Y-113518689D01*
X173477919Y-113571840D01*
X173460071Y-113618494D01*
X173435759Y-113659584D01*
X173404794Y-113695807D01*
X173368270Y-113725990D01*
X173326170Y-113749910D01*
X173277666Y-113767628D01*
X173221681Y-113778813D01*
X173156936Y-113782757D01*
X173092190Y-113778813D01*
X173036209Y-113767626D01*
X172987716Y-113749908D01*
X172945631Y-113725988D01*
X172909127Y-113695807D01*
X172878143Y-113659581D01*
X172853817Y-113618490D01*
X172835960Y-113571836D01*
X172824777Y-113518687D01*
X172820927Y-113458989D01*
X173024703Y-113458989D01*
X173027440Y-113513894D01*
X173034277Y-113549945D01*
X173046455Y-113580836D01*
X173062951Y-113606121D01*
X173081859Y-113624314D01*
X173104228Y-113636260D01*
X173129066Y-113642947D01*
X173155324Y-113645200D01*
X173185380Y-113642650D01*
X173210816Y-113635430D01*
X173233271Y-113622896D01*
X173252581Y-113604460D01*
X173267967Y-113579676D01*
X173279937Y-113545598D01*
X173286725Y-113507181D01*
X173289218Y-113458989D01*
X173286284Y-113405511D01*
X173278569Y-113366128D01*
X173265456Y-113331929D01*
X173249846Y-113308047D01*
X173228468Y-113288536D01*
X173207543Y-113277663D01*
X173184419Y-113272042D01*
X173156936Y-113270043D01*
X173129256Y-113272395D01*
X173103984Y-113279275D01*
X173081341Y-113291623D01*
X173061877Y-113310782D01*
X173046844Y-113335014D01*
X173034570Y-113368863D01*
X173027408Y-113407448D01*
X173024703Y-113458989D01*
X172820927Y-113458989D01*
X172820858Y-113457914D01*
X172824755Y-113397099D01*
X172835876Y-113343893D01*
X172853631Y-113297176D01*
X172877810Y-113256021D01*
X172908590Y-113219729D01*
X172944882Y-113189491D01*
X172986883Y-113165501D01*
X173035449Y-113147707D01*
X173091692Y-113136458D01*
X173156936Y-113132485D01*
X173221162Y-113136401D01*
G37*
G36*
X172063510Y-113764000D02*
G01*
X172261297Y-113764000D01*
X172261297Y-113459331D01*
X172265157Y-113385179D01*
X172270888Y-113350883D01*
X172278248Y-113330762D01*
X172291717Y-113313275D01*
X172310244Y-113301257D01*
X172333512Y-113294576D01*
X172368960Y-113291927D01*
X172395720Y-113294072D01*
X172423377Y-113300671D01*
X172451117Y-113311543D01*
X172483217Y-113328563D01*
X172483217Y-113764000D01*
X172679930Y-113764000D01*
X172679930Y-113151243D01*
X172483217Y-113151243D01*
X172483217Y-113217286D01*
X172430284Y-113180112D01*
X172382393Y-113154369D01*
X172332070Y-113138100D01*
X172275024Y-113132485D01*
X172225725Y-113136494D01*
X172184269Y-113147803D01*
X172149227Y-113165799D01*
X172119539Y-113190517D01*
X172096323Y-113220904D01*
X172078880Y-113258784D01*
X172067598Y-113305788D01*
X172063510Y-113363979D01*
X172063510Y-113764000D01*
G37*
G36*
X171266301Y-113764000D02*
G01*
X171464089Y-113764000D01*
X171464089Y-113459331D01*
X171467948Y-113385179D01*
X171473679Y-113350883D01*
X171481039Y-113330762D01*
X171494508Y-113313275D01*
X171513035Y-113301257D01*
X171536303Y-113294576D01*
X171571751Y-113291927D01*
X171598511Y-113294072D01*
X171626168Y-113300671D01*
X171653909Y-113311543D01*
X171686008Y-113328563D01*
X171686008Y-113764000D01*
X171882721Y-113764000D01*
X171882721Y-113151243D01*
X171686008Y-113151243D01*
X171686008Y-113217286D01*
X171633076Y-113180112D01*
X171585184Y-113154369D01*
X171534861Y-113138100D01*
X171477815Y-113132485D01*
X171428516Y-113136494D01*
X171387060Y-113147803D01*
X171352018Y-113165799D01*
X171322330Y-113190517D01*
X171299115Y-113220904D01*
X171281672Y-113258784D01*
X171270389Y-113305788D01*
X171266301Y-113363979D01*
X171266301Y-113764000D01*
G37*
G36*
X170847346Y-113136479D02*
G01*
X170904628Y-113147850D01*
X170954720Y-113165935D01*
X170998634Y-113190437D01*
X171037152Y-113221438D01*
X171070056Y-113258690D01*
X171095747Y-113300642D01*
X171114512Y-113347961D01*
X171126216Y-113401560D01*
X171130307Y-113462555D01*
X171125949Y-113524189D01*
X171113550Y-113577518D01*
X171093753Y-113623871D01*
X171066691Y-113664308D01*
X171031974Y-113699568D01*
X170992149Y-113727780D01*
X170945176Y-113750608D01*
X170889924Y-113767821D01*
X170825021Y-113778837D01*
X170748897Y-113782757D01*
X170678972Y-113779604D01*
X170618276Y-113770692D01*
X170558802Y-113755374D01*
X170492588Y-113731759D01*
X170492588Y-113573295D01*
X170514424Y-113573295D01*
X170552142Y-113597402D01*
X170606796Y-113622339D01*
X170666279Y-113639496D01*
X170727550Y-113645200D01*
X170792239Y-113640189D01*
X170840658Y-113626782D01*
X170876489Y-113606609D01*
X170904662Y-113577614D01*
X170922950Y-113541155D01*
X170931395Y-113495137D01*
X170481109Y-113495137D01*
X170481109Y-113426212D01*
X170484632Y-113379464D01*
X170676748Y-113379464D01*
X170931933Y-113379464D01*
X170924781Y-113337428D01*
X170910901Y-113306536D01*
X170890997Y-113284160D01*
X170865116Y-113267997D01*
X170834364Y-113257960D01*
X170797501Y-113254411D01*
X170757931Y-113258411D01*
X170728741Y-113269181D01*
X170707376Y-113285821D01*
X170691917Y-113308504D01*
X170681414Y-113338956D01*
X170676748Y-113379464D01*
X170484632Y-113379464D01*
X170486464Y-113355152D01*
X170501406Y-113296558D01*
X170524843Y-113248171D01*
X170556531Y-113208249D01*
X170596258Y-113176715D01*
X170645547Y-113153152D01*
X170706468Y-113137973D01*
X170781674Y-113132485D01*
X170847346Y-113136479D01*
G37*
G36*
X170022519Y-113782757D02*
G01*
X170100771Y-113777774D01*
X170169260Y-113763560D01*
X170212227Y-113748142D01*
X170250586Y-113728352D01*
X170284836Y-113704209D01*
X170314649Y-113675372D01*
X170339733Y-113641856D01*
X170360258Y-113603141D01*
X170374733Y-113561676D01*
X170383832Y-113514398D01*
X170387027Y-113460357D01*
X170383582Y-113403427D01*
X170373816Y-113354206D01*
X170358353Y-113311564D01*
X170336465Y-113271847D01*
X170309844Y-113237399D01*
X170278290Y-113207712D01*
X170243780Y-113184241D01*
X170205674Y-113165210D01*
X170163545Y-113150608D01*
X170097541Y-113137054D01*
X170028527Y-113132485D01*
X169967158Y-113135999D01*
X169912707Y-113146065D01*
X169861028Y-113161845D01*
X169813789Y-113181383D01*
X169813789Y-113348200D01*
X169841681Y-113348200D01*
X169869281Y-113326658D01*
X169908897Y-113302478D01*
X169958087Y-113283769D01*
X169986049Y-113278285D01*
X170020369Y-113276295D01*
X170059147Y-113279702D01*
X170091482Y-113289304D01*
X170118613Y-113304626D01*
X170141416Y-113325828D01*
X170164166Y-113361116D01*
X170178575Y-113405158D01*
X170183768Y-113460308D01*
X170178306Y-113517190D01*
X170163438Y-113560537D01*
X170140341Y-113593469D01*
X170108624Y-113618017D01*
X170068384Y-113633401D01*
X170017096Y-113638947D01*
X169980979Y-113636822D01*
X169950174Y-113630838D01*
X169921880Y-113621560D01*
X169900690Y-113611641D01*
X169867913Y-113589610D01*
X169841681Y-113567042D01*
X169813789Y-113567042D01*
X169813789Y-113735130D01*
X169861179Y-113754722D01*
X169910802Y-113769861D01*
X169962848Y-113779401D01*
X170022519Y-113782757D01*
G37*
G36*
X169290963Y-113758919D02*
G01*
X169358178Y-113771815D01*
X169445080Y-113776505D01*
X169503672Y-113773013D01*
X169550272Y-113763480D01*
X169587061Y-113749004D01*
X169615854Y-113730196D01*
X169638781Y-113705241D01*
X169656181Y-113672017D01*
X169667645Y-113628421D01*
X169671884Y-113571683D01*
X169671884Y-113285674D01*
X169752777Y-113285674D01*
X169752777Y-113151243D01*
X169671884Y-113151243D01*
X169671884Y-112976170D01*
X169475170Y-112976170D01*
X169475170Y-113151243D01*
X169290963Y-113151243D01*
X169290963Y-113285674D01*
X169475170Y-113285674D01*
X169475170Y-113501927D01*
X169474633Y-113557859D01*
X169472101Y-113580913D01*
X169465889Y-113600796D01*
X169455438Y-113617666D01*
X169438827Y-113630936D01*
X169416880Y-113638900D01*
X169382260Y-113642073D01*
X169342058Y-113635479D01*
X169307376Y-113623316D01*
X169290963Y-113623316D01*
X169290963Y-113758919D01*
G37*
G36*
X168946716Y-113136401D02*
G01*
X169002423Y-113147522D01*
X169050846Y-113165165D01*
X169093026Y-113189015D01*
X169129762Y-113219143D01*
X169160901Y-113255263D01*
X169185366Y-113296365D01*
X169203343Y-113343166D01*
X169214614Y-113396628D01*
X169218569Y-113457914D01*
X169214651Y-113518689D01*
X169203474Y-113571840D01*
X169185626Y-113618494D01*
X169161314Y-113659584D01*
X169130348Y-113695807D01*
X169093825Y-113725990D01*
X169051725Y-113749910D01*
X169003221Y-113767628D01*
X168947235Y-113778813D01*
X168882491Y-113782757D01*
X168817744Y-113778813D01*
X168761764Y-113767626D01*
X168713271Y-113749908D01*
X168671186Y-113725988D01*
X168634682Y-113695807D01*
X168603698Y-113659581D01*
X168579372Y-113618490D01*
X168561515Y-113571836D01*
X168550332Y-113518687D01*
X168546482Y-113458989D01*
X168750258Y-113458989D01*
X168752995Y-113513894D01*
X168759832Y-113549945D01*
X168772010Y-113580836D01*
X168788506Y-113606121D01*
X168807413Y-113624314D01*
X168829783Y-113636260D01*
X168854621Y-113642947D01*
X168880879Y-113645200D01*
X168910935Y-113642650D01*
X168936371Y-113635430D01*
X168958825Y-113622896D01*
X168978136Y-113604460D01*
X168993522Y-113579676D01*
X169005491Y-113545598D01*
X169012280Y-113507181D01*
X169014773Y-113458989D01*
X169011839Y-113405511D01*
X169004124Y-113366128D01*
X168991011Y-113331929D01*
X168975401Y-113308047D01*
X168954022Y-113288536D01*
X168933098Y-113277663D01*
X168909974Y-113272042D01*
X168882491Y-113270043D01*
X168854810Y-113272395D01*
X168829539Y-113279275D01*
X168806896Y-113291623D01*
X168787431Y-113310782D01*
X168772399Y-113335014D01*
X168760125Y-113368863D01*
X168752963Y-113407448D01*
X168750258Y-113458989D01*
X168546482Y-113458989D01*
X168546413Y-113457914D01*
X168550310Y-113397099D01*
X168561431Y-113343893D01*
X168579186Y-113297176D01*
X168603364Y-113256021D01*
X168634145Y-113219729D01*
X168670437Y-113189491D01*
X168712438Y-113165501D01*
X168761004Y-113147707D01*
X168817247Y-113136458D01*
X168882491Y-113132485D01*
X168946716Y-113136401D01*
G37*
G36*
X167960621Y-113341948D02*
G01*
X167978108Y-113341948D01*
X168018555Y-113334914D01*
X168065010Y-113332569D01*
X168105893Y-113334017D01*
X168139357Y-113337991D01*
X168171982Y-113345082D01*
X168208771Y-113356407D01*
X168208771Y-113764000D01*
X168405484Y-113764000D01*
X168405484Y-113151243D01*
X168208771Y-113151243D01*
X168208771Y-113241418D01*
X168163621Y-113205924D01*
X168126356Y-113182461D01*
X168095638Y-113168487D01*
X168048111Y-113155299D01*
X168007076Y-113151243D01*
X167983579Y-113151829D01*
X167960621Y-113153441D01*
X167960621Y-113341948D01*
G37*
G36*
X167109058Y-113135229D02*
G01*
X167145190Y-113143117D01*
X167177480Y-113155835D01*
X167223705Y-113181972D01*
X167270097Y-113215186D01*
X167270097Y-113151243D01*
X167466810Y-113151243D01*
X167466810Y-113989094D01*
X167270097Y-113989094D01*
X167270097Y-113733860D01*
X167231681Y-113752068D01*
X167195261Y-113765270D01*
X167156500Y-113773458D01*
X167106113Y-113776505D01*
X167050783Y-113770974D01*
X166999574Y-113754621D01*
X166952796Y-113727758D01*
X166910474Y-113689994D01*
X166877099Y-113645171D01*
X166849560Y-113587021D01*
X166836858Y-113544810D01*
X166829013Y-113498808D01*
X166826466Y-113451418D01*
X167029078Y-113451418D01*
X167034040Y-113510969D01*
X167047302Y-113555131D01*
X167067327Y-113587510D01*
X167087917Y-113606547D01*
X167113411Y-113620546D01*
X167144865Y-113629478D01*
X167183733Y-113632695D01*
X167228039Y-113630545D01*
X167270097Y-113620775D01*
X167270097Y-113315032D01*
X167242602Y-113301129D01*
X167213824Y-113290950D01*
X167184351Y-113284598D01*
X167156427Y-113282548D01*
X167114243Y-113287518D01*
X167082907Y-113301077D01*
X167059706Y-113322604D01*
X167044035Y-113351150D01*
X167033233Y-113392641D01*
X167029078Y-113451418D01*
X166826466Y-113451418D01*
X166826308Y-113448487D01*
X166830879Y-113374077D01*
X166843642Y-113311926D01*
X166863531Y-113260064D01*
X166890006Y-113216847D01*
X166924926Y-113180020D01*
X166965453Y-113154041D01*
X167012695Y-113138079D01*
X167068401Y-113132485D01*
X167109058Y-113135229D01*
G37*
G36*
X166456612Y-113136401D02*
G01*
X166512318Y-113147522D01*
X166560741Y-113165165D01*
X166602921Y-113189015D01*
X166639658Y-113219143D01*
X166670796Y-113255263D01*
X166695261Y-113296365D01*
X166713238Y-113343166D01*
X166724509Y-113396628D01*
X166728464Y-113457914D01*
X166724547Y-113518689D01*
X166713369Y-113571840D01*
X166695521Y-113618494D01*
X166671209Y-113659584D01*
X166640244Y-113695807D01*
X166603720Y-113725990D01*
X166561621Y-113749910D01*
X166513116Y-113767628D01*
X166457131Y-113778813D01*
X166392386Y-113782757D01*
X166327640Y-113778813D01*
X166271660Y-113767626D01*
X166223166Y-113749908D01*
X166181082Y-113725988D01*
X166144577Y-113695807D01*
X166113593Y-113659581D01*
X166089267Y-113618490D01*
X166071411Y-113571836D01*
X166060227Y-113518687D01*
X166056377Y-113458989D01*
X166260153Y-113458989D01*
X166262890Y-113513894D01*
X166269727Y-113549945D01*
X166281906Y-113580836D01*
X166298401Y-113606121D01*
X166317309Y-113624314D01*
X166339678Y-113636260D01*
X166364516Y-113642947D01*
X166390774Y-113645200D01*
X166420830Y-113642650D01*
X166446266Y-113635430D01*
X166468721Y-113622896D01*
X166488032Y-113604460D01*
X166503417Y-113579676D01*
X166515387Y-113545598D01*
X166522175Y-113507181D01*
X166524668Y-113458989D01*
X166521734Y-113405511D01*
X166514019Y-113366128D01*
X166500907Y-113331929D01*
X166485296Y-113308047D01*
X166463918Y-113288536D01*
X166442993Y-113277663D01*
X166419870Y-113272042D01*
X166392386Y-113270043D01*
X166364706Y-113272395D01*
X166339434Y-113279275D01*
X166316791Y-113291623D01*
X166297327Y-113310782D01*
X166282294Y-113335014D01*
X166270020Y-113368863D01*
X166262858Y-113407448D01*
X166260153Y-113458989D01*
X166056377Y-113458989D01*
X166056308Y-113457914D01*
X166060205Y-113397099D01*
X166071326Y-113343893D01*
X166089081Y-113297176D01*
X166113260Y-113256021D01*
X166144040Y-113219729D01*
X166180332Y-113189491D01*
X166222334Y-113165501D01*
X166270899Y-113147707D01*
X166327142Y-113136458D01*
X166392386Y-113132485D01*
X166456612Y-113136401D01*
G37*
G36*
X164936601Y-113151243D02*
G01*
X165126769Y-113764000D01*
X165335547Y-113764000D01*
X165460697Y-113350936D01*
X165583649Y-113764000D01*
X165795163Y-113764000D01*
X165983719Y-113151243D01*
X165777138Y-113151243D01*
X165672212Y-113573588D01*
X165541053Y-113151243D01*
X165366713Y-113151243D01*
X165242100Y-113573588D01*
X165138834Y-113151243D01*
X164936601Y-113151243D01*
G37*
G36*
X164580660Y-113136479D02*
G01*
X164637942Y-113147850D01*
X164688035Y-113165935D01*
X164731949Y-113190437D01*
X164770467Y-113221438D01*
X164803370Y-113258690D01*
X164829062Y-113300642D01*
X164847827Y-113347961D01*
X164859531Y-113401560D01*
X164863621Y-113462555D01*
X164859264Y-113524189D01*
X164846864Y-113577518D01*
X164827068Y-113623871D01*
X164800006Y-113664308D01*
X164765289Y-113699568D01*
X164725463Y-113727780D01*
X164678491Y-113750608D01*
X164623238Y-113767821D01*
X164558335Y-113778837D01*
X164482212Y-113782757D01*
X164412287Y-113779604D01*
X164351591Y-113770692D01*
X164292116Y-113755374D01*
X164225903Y-113731759D01*
X164225903Y-113573295D01*
X164247739Y-113573295D01*
X164285457Y-113597402D01*
X164340111Y-113622339D01*
X164399594Y-113639496D01*
X164460865Y-113645200D01*
X164525554Y-113640189D01*
X164573973Y-113626782D01*
X164609804Y-113606609D01*
X164637977Y-113577614D01*
X164656265Y-113541155D01*
X164664710Y-113495137D01*
X164214424Y-113495137D01*
X164214424Y-113426212D01*
X164217946Y-113379464D01*
X164410062Y-113379464D01*
X164665247Y-113379464D01*
X164658096Y-113337428D01*
X164644216Y-113306536D01*
X164624312Y-113284160D01*
X164598430Y-113267997D01*
X164567678Y-113257960D01*
X164530816Y-113254411D01*
X164491246Y-113258411D01*
X164462056Y-113269181D01*
X164440690Y-113285821D01*
X164425232Y-113308504D01*
X164414729Y-113338956D01*
X164410062Y-113379464D01*
X164217946Y-113379464D01*
X164219778Y-113355152D01*
X164234720Y-113296558D01*
X164258158Y-113248171D01*
X164289846Y-113208249D01*
X164329572Y-113176715D01*
X164378862Y-113153152D01*
X164439783Y-113137973D01*
X164514989Y-113132485D01*
X164580660Y-113136479D01*
G37*
G36*
X163630683Y-113341948D02*
G01*
X163648171Y-113341948D01*
X163688618Y-113334914D01*
X163735073Y-113332569D01*
X163775956Y-113334017D01*
X163809420Y-113337991D01*
X163842045Y-113345082D01*
X163878834Y-113356407D01*
X163878834Y-113764000D01*
X164075547Y-113764000D01*
X164075547Y-113151243D01*
X163878834Y-113151243D01*
X163878834Y-113241418D01*
X163833684Y-113205924D01*
X163796419Y-113182461D01*
X163765701Y-113168487D01*
X163718174Y-113155299D01*
X163677138Y-113151243D01*
X163653642Y-113151829D01*
X163630683Y-113153441D01*
X163630683Y-113341948D01*
G37*
G36*
X163280898Y-113136479D02*
G01*
X163338180Y-113147850D01*
X163388272Y-113165935D01*
X163432186Y-113190437D01*
X163470704Y-113221438D01*
X163503608Y-113258690D01*
X163529299Y-113300642D01*
X163548064Y-113347961D01*
X163559768Y-113401560D01*
X163563859Y-113462555D01*
X163559501Y-113524189D01*
X163547102Y-113577518D01*
X163527305Y-113623871D01*
X163500243Y-113664308D01*
X163465526Y-113699568D01*
X163425701Y-113727780D01*
X163378728Y-113750608D01*
X163323476Y-113767821D01*
X163258573Y-113778837D01*
X163182449Y-113782757D01*
X163112524Y-113779604D01*
X163051828Y-113770692D01*
X162992354Y-113755374D01*
X162926140Y-113731759D01*
X162926140Y-113573295D01*
X162947976Y-113573295D01*
X162985694Y-113597402D01*
X163040348Y-113622339D01*
X163099831Y-113639496D01*
X163161102Y-113645200D01*
X163225791Y-113640189D01*
X163274210Y-113626782D01*
X163310041Y-113606609D01*
X163338214Y-113577614D01*
X163356502Y-113541155D01*
X163364947Y-113495137D01*
X162914661Y-113495137D01*
X162914661Y-113426212D01*
X162918184Y-113379464D01*
X163110300Y-113379464D01*
X163365484Y-113379464D01*
X163358333Y-113337428D01*
X163344453Y-113306536D01*
X163324549Y-113284160D01*
X163298668Y-113267997D01*
X163267916Y-113257960D01*
X163231053Y-113254411D01*
X163191483Y-113258411D01*
X163162293Y-113269181D01*
X163140928Y-113285821D01*
X163125469Y-113308504D01*
X163114966Y-113338956D01*
X163110300Y-113379464D01*
X162918184Y-113379464D01*
X162920016Y-113355152D01*
X162934958Y-113296558D01*
X162958395Y-113248171D01*
X162990083Y-113208249D01*
X163029810Y-113176715D01*
X163079099Y-113153152D01*
X163140020Y-113137973D01*
X163215226Y-113132485D01*
X163280898Y-113136479D01*
G37*
G36*
X162375764Y-113174006D02*
G01*
X162448206Y-113144258D01*
X162486059Y-113135746D01*
X162538625Y-113132485D01*
X162591077Y-113138059D01*
X162644626Y-113155249D01*
X162693884Y-113182768D01*
X162734801Y-113219191D01*
X162769584Y-113266207D01*
X162796838Y-113323190D01*
X162809114Y-113364205D01*
X162816813Y-113410319D01*
X162819504Y-113462262D01*
X162814750Y-113536224D01*
X162801398Y-113598672D01*
X162780433Y-113651443D01*
X162752288Y-113696051D01*
X162715521Y-113734283D01*
X162674121Y-113760961D01*
X162627143Y-113777148D01*
X162573063Y-113782757D01*
X162517453Y-113777393D01*
X162470872Y-113762192D01*
X162426791Y-113737553D01*
X162375764Y-113700057D01*
X162375764Y-113764000D01*
X162179002Y-113764000D01*
X162179002Y-113292806D01*
X162375764Y-113292806D01*
X162375764Y-113595863D01*
X162400120Y-113610567D01*
X162428813Y-113622534D01*
X162458642Y-113630262D01*
X162485624Y-113632695D01*
X162529600Y-113627575D01*
X162561969Y-113613672D01*
X162585666Y-113591711D01*
X162601582Y-113562524D01*
X162612559Y-113520102D01*
X162616782Y-113460015D01*
X162611928Y-113403629D01*
X162598627Y-113359491D01*
X162577997Y-113324997D01*
X162556896Y-113304250D01*
X162531174Y-113289194D01*
X162499867Y-113279693D01*
X162461591Y-113276295D01*
X162419483Y-113280154D01*
X162375764Y-113292806D01*
X162179002Y-113292806D01*
X162179002Y-112913644D01*
X162375764Y-112913644D01*
X162375764Y-113174006D01*
G37*
G36*
X161610453Y-113764000D02*
G01*
X161421946Y-113764000D01*
X161413740Y-113733371D01*
X161377774Y-113751779D01*
X161339979Y-113765318D01*
X161299412Y-113773531D01*
X161249755Y-113776505D01*
X161191927Y-113770692D01*
X161140182Y-113753736D01*
X161093173Y-113725563D01*
X161050013Y-113685060D01*
X161015765Y-113637335D01*
X160990890Y-113582885D01*
X160975386Y-113520468D01*
X160970379Y-113454153D01*
X161172721Y-113454153D01*
X161177685Y-113514719D01*
X161190955Y-113559704D01*
X161210969Y-113592736D01*
X161231629Y-113612257D01*
X161257153Y-113626564D01*
X161288585Y-113635671D01*
X161327376Y-113638947D01*
X161373293Y-113636212D01*
X161413740Y-113625758D01*
X161413740Y-113315570D01*
X161386236Y-113301442D01*
X161357466Y-113291096D01*
X161327989Y-113284633D01*
X161300069Y-113282548D01*
X161264585Y-113285797D01*
X161237297Y-113294656D01*
X161216379Y-113308387D01*
X161200614Y-113327098D01*
X161186080Y-113358134D01*
X161176353Y-113399554D01*
X161172721Y-113454153D01*
X160970379Y-113454153D01*
X160969951Y-113448487D01*
X160974479Y-113373715D01*
X160987104Y-113311419D01*
X161006741Y-113259592D01*
X161032819Y-113216554D01*
X161067323Y-113179985D01*
X161107797Y-113154088D01*
X161155420Y-113138108D01*
X161212044Y-113132485D01*
X161252746Y-113135126D01*
X161288883Y-113142709D01*
X161321123Y-113154907D01*
X161367303Y-113180325D01*
X161413740Y-113213330D01*
X161413740Y-112913644D01*
X161610453Y-112913644D01*
X161610453Y-113764000D01*
G37*
G36*
X160550244Y-113548187D02*
G01*
X160410341Y-113151243D01*
X160208157Y-113151243D01*
X160549169Y-113989094D01*
X160762295Y-113989094D01*
X160664989Y-113760873D01*
X160903810Y-113151243D01*
X160697229Y-113151243D01*
X160550244Y-113548187D01*
G37*
D15*
G36*
X97892636Y-113977712D02*
G01*
X97892636Y-114991258D01*
X97882744Y-115127363D01*
X97868647Y-115169511D01*
X97850504Y-115194407D01*
X97793718Y-115217488D01*
X97702127Y-115220419D01*
X97702127Y-115279038D01*
X98324580Y-115279038D01*
X98324580Y-115220419D01*
X98219433Y-115211626D01*
X98163379Y-115177555D01*
X98139016Y-115107213D01*
X98133887Y-114990526D01*
X98133887Y-114506742D01*
X98138100Y-114318797D01*
X98152022Y-114217314D01*
X98179316Y-114176647D01*
X98226394Y-114168221D01*
X98267244Y-114173350D01*
X98321649Y-114190203D01*
X98346928Y-114132867D01*
X97961146Y-113977712D01*
X97892636Y-113977712D01*
G37*
G36*
X98013353Y-113321187D02*
G01*
X97956221Y-113331842D01*
X97909855Y-113363319D01*
X97878677Y-113410035D01*
X97868090Y-113467733D01*
X97878498Y-113523772D01*
X97909672Y-113571230D01*
X97956136Y-113603413D01*
X98013353Y-113614278D01*
X98070413Y-113603422D01*
X98116851Y-113571230D01*
X98148025Y-113523772D01*
X98158433Y-113467733D01*
X98147887Y-113410020D01*
X98116851Y-113363319D01*
X98070360Y-113331828D01*
X98013353Y-113321187D01*
G37*
%TO.C,J1*%
D16*
X107560000Y-92888272D02*
X107560000Y-98188272D01*
X107560000Y-92888272D02*
X108130000Y-92888272D01*
X107560000Y-98188272D02*
X108130000Y-98188272D01*
X108130000Y-91498272D02*
X108130000Y-92888272D01*
X109750000Y-92888272D02*
X110670000Y-92888272D01*
X109750000Y-98188272D02*
X110670000Y-98188272D01*
X112290000Y-92888272D02*
X113210000Y-92888272D01*
X112290000Y-98188272D02*
X113210000Y-98188272D01*
X114830000Y-92888272D02*
X115750000Y-92888272D01*
X114830000Y-98188272D02*
X115750000Y-98188272D01*
X117370000Y-92888272D02*
X118290000Y-92888272D01*
X117370000Y-98188272D02*
X118290000Y-98188272D01*
X119910000Y-92888272D02*
X120830000Y-92888272D01*
X119910000Y-98188272D02*
X120830000Y-98188272D01*
X122450000Y-92888272D02*
X123370000Y-92888272D01*
X122450000Y-98188272D02*
X123370000Y-98188272D01*
X124990000Y-92888272D02*
X125910000Y-92888272D01*
X124990000Y-98188272D02*
X125910000Y-98188272D01*
X127530000Y-92888272D02*
X128450000Y-92888272D01*
X127530000Y-98188272D02*
X128450000Y-98188272D01*
X130070000Y-92888272D02*
X130990000Y-92888272D01*
X130070000Y-98188272D02*
X130990000Y-98188272D01*
X132610000Y-92888272D02*
X133530000Y-92888272D01*
X132610000Y-98188272D02*
X133530000Y-98188272D01*
X135150000Y-92888272D02*
X136070000Y-92888272D01*
X135150000Y-98188272D02*
X136070000Y-98188272D01*
X137690000Y-92888272D02*
X138610000Y-92888272D01*
X137690000Y-98188272D02*
X138610000Y-98188272D01*
X140230000Y-92888272D02*
X141150000Y-92888272D01*
X140230000Y-98188272D02*
X141150000Y-98188272D01*
X142770000Y-92888272D02*
X143690000Y-92888272D01*
X142770000Y-98188272D02*
X143690000Y-98188272D01*
X145310000Y-92888272D02*
X146230000Y-92888272D01*
X145310000Y-98188272D02*
X146230000Y-98188272D01*
X147850000Y-92888272D02*
X148420000Y-92888272D01*
X147850000Y-98188272D02*
X148420000Y-98188272D01*
X148420000Y-92888272D02*
X148420000Y-98188272D01*
D17*
%TO.C,G\u002A\u002A\u002A*%
G36*
X103370675Y-114216043D02*
G01*
X103370675Y-114670674D01*
X102916045Y-114670674D01*
X102461414Y-114670674D01*
X102461414Y-114216043D01*
X102461414Y-113761413D01*
X102916045Y-113761413D01*
X103370675Y-113761413D01*
X103370675Y-114216043D01*
G37*
G36*
X103673762Y-118459260D02*
G01*
X103673762Y-118610804D01*
X103522219Y-118610804D01*
X103370675Y-118610804D01*
X103370675Y-118459260D01*
X103370675Y-118307717D01*
X103522219Y-118307717D01*
X103673762Y-118307717D01*
X103673762Y-118459260D01*
G37*
G36*
X103976849Y-119974695D02*
G01*
X103976849Y-120126238D01*
X103825305Y-120126238D01*
X103673762Y-120126238D01*
X103673762Y-119974695D01*
X103673762Y-119823151D01*
X103825305Y-119823151D01*
X103976849Y-119823151D01*
X103976849Y-119974695D01*
G37*
G36*
X104279936Y-116943826D02*
G01*
X104279936Y-117095369D01*
X104128392Y-117095369D01*
X103976849Y-117095369D01*
X103976849Y-116943826D01*
X103976849Y-116792282D01*
X104128392Y-116792282D01*
X104279936Y-116792282D01*
X104279936Y-116943826D01*
G37*
G36*
X104583023Y-113306783D02*
G01*
X104583023Y-113458326D01*
X104431479Y-113458326D01*
X104279936Y-113458326D01*
X104279936Y-113306783D01*
X104279936Y-113155239D01*
X104431479Y-113155239D01*
X104583023Y-113155239D01*
X104583023Y-113306783D01*
G37*
G36*
X105492283Y-114216043D02*
G01*
X105492283Y-114367587D01*
X105340740Y-114367587D01*
X105189196Y-114367587D01*
X105189196Y-114216043D01*
X105189196Y-114064500D01*
X105340740Y-114064500D01*
X105492283Y-114064500D01*
X105492283Y-114216043D01*
G37*
G36*
X106098457Y-113912957D02*
G01*
X106098457Y-114064500D01*
X105946914Y-114064500D01*
X105795370Y-114064500D01*
X105795370Y-113912957D01*
X105795370Y-113761413D01*
X105946914Y-113761413D01*
X106098457Y-113761413D01*
X106098457Y-113912957D01*
G37*
G36*
X106098457Y-117246912D02*
G01*
X106098457Y-117398456D01*
X105946914Y-117398456D01*
X105795370Y-117398456D01*
X105795370Y-117246912D01*
X105795370Y-117095369D01*
X105946914Y-117095369D01*
X106098457Y-117095369D01*
X106098457Y-117246912D01*
G37*
G36*
X107310805Y-117549999D02*
G01*
X107310805Y-117701543D01*
X107159261Y-117701543D01*
X107007718Y-117701543D01*
X107007718Y-117549999D01*
X107007718Y-117398456D01*
X107159261Y-117398456D01*
X107310805Y-117398456D01*
X107310805Y-117549999D01*
G37*
G36*
X108220065Y-115125304D02*
G01*
X108220065Y-115276848D01*
X108068522Y-115276848D01*
X107916979Y-115276848D01*
X107916979Y-115125304D01*
X107916979Y-114973761D01*
X108068522Y-114973761D01*
X108220065Y-114973761D01*
X108220065Y-115125304D01*
G37*
G36*
X108523152Y-117246912D02*
G01*
X108523152Y-117398456D01*
X108371609Y-117398456D01*
X108220065Y-117398456D01*
X108220065Y-117246912D01*
X108220065Y-117095369D01*
X108371609Y-117095369D01*
X108523152Y-117095369D01*
X108523152Y-117246912D01*
G37*
G36*
X108826239Y-116943826D02*
G01*
X108826239Y-117095369D01*
X108674696Y-117095369D01*
X108523152Y-117095369D01*
X108523152Y-116943826D01*
X108523152Y-116792282D01*
X108674696Y-116792282D01*
X108826239Y-116792282D01*
X108826239Y-116943826D01*
G37*
G36*
X110038587Y-114216043D02*
G01*
X110038587Y-114670674D01*
X109583957Y-114670674D01*
X109129326Y-114670674D01*
X109129326Y-114216043D01*
X109129326Y-113761413D01*
X109583957Y-113761413D01*
X110038587Y-113761413D01*
X110038587Y-114216043D01*
G37*
G36*
X110038587Y-120883955D02*
G01*
X110038587Y-121338586D01*
X109583957Y-121338586D01*
X109129326Y-121338586D01*
X109129326Y-120883955D01*
X109129326Y-120429325D01*
X109583957Y-120429325D01*
X110038587Y-120429325D01*
X110038587Y-120883955D01*
G37*
G36*
X109735500Y-119216977D02*
G01*
X109735500Y-119520064D01*
X109583957Y-119520064D01*
X109432413Y-119520064D01*
X109432413Y-119216977D01*
X109432413Y-118913890D01*
X109583957Y-118913890D01*
X109735500Y-118913890D01*
X109735500Y-119216977D01*
G37*
G36*
X110341674Y-119368521D02*
G01*
X110341674Y-119520064D01*
X110190130Y-119520064D01*
X110038587Y-119520064D01*
X110038587Y-119368521D01*
X110038587Y-119216977D01*
X110190130Y-119216977D01*
X110341674Y-119216977D01*
X110341674Y-119368521D01*
G37*
G36*
X105189196Y-113306783D02*
G01*
X105189196Y-113458326D01*
X105340740Y-113458326D01*
X105492283Y-113458326D01*
X105492283Y-113609870D01*
X105492283Y-113761413D01*
X105189196Y-113761413D01*
X104886110Y-113761413D01*
X104886110Y-113458326D01*
X104886110Y-113155239D01*
X105037653Y-113155239D01*
X105189196Y-113155239D01*
X105189196Y-113306783D01*
G37*
G36*
X102309871Y-121338586D02*
G01*
X102461414Y-121338586D01*
X102461414Y-121641673D01*
X102461414Y-121944759D01*
X102309871Y-121944759D01*
X102158327Y-121944759D01*
X102158327Y-121641673D01*
X102158327Y-121338586D01*
X102309871Y-121338586D01*
G37*
G36*
X102158327Y-121187042D02*
G01*
X102158327Y-121338586D01*
X102006784Y-121338586D01*
X101855241Y-121338586D01*
X101855241Y-121187042D01*
X101855241Y-121035499D01*
X102006784Y-121035499D01*
X102158327Y-121035499D01*
X102158327Y-121187042D01*
G37*
G36*
X106401544Y-121187042D02*
G01*
X106401544Y-121338586D01*
X106553088Y-121338586D01*
X106704631Y-121338586D01*
X106704631Y-121641673D01*
X106704631Y-121944759D01*
X106553088Y-121944759D01*
X106401544Y-121944759D01*
X106401544Y-121793216D01*
X106401544Y-121641673D01*
X106250001Y-121641673D01*
X106098457Y-121641673D01*
X106098457Y-121338586D01*
X106098457Y-121035499D01*
X106250001Y-121035499D01*
X106401544Y-121035499D01*
X106401544Y-121187042D01*
G37*
G36*
X103976849Y-115276848D02*
G01*
X102916045Y-115276848D01*
X101855241Y-115276848D01*
X101855241Y-114216043D01*
X101855241Y-113458326D01*
X102158327Y-113458326D01*
X102158327Y-114216043D01*
X102158327Y-114973761D01*
X102916045Y-114973761D01*
X103673762Y-114973761D01*
X103673762Y-114216043D01*
X103673762Y-113458326D01*
X102916045Y-113458326D01*
X102158327Y-113458326D01*
X101855241Y-113458326D01*
X101855241Y-113155239D01*
X102916045Y-113155239D01*
X103976849Y-113155239D01*
X103976849Y-114216043D01*
X103976849Y-115276848D01*
G37*
G36*
X110644761Y-115276848D02*
G01*
X109583957Y-115276848D01*
X108523152Y-115276848D01*
X108523152Y-114216043D01*
X108523152Y-113458326D01*
X108826239Y-113458326D01*
X108826239Y-114216043D01*
X108826239Y-114973761D01*
X109583957Y-114973761D01*
X110341674Y-114973761D01*
X110341674Y-114216043D01*
X110341674Y-113458326D01*
X109583957Y-113458326D01*
X108826239Y-113458326D01*
X108523152Y-113458326D01*
X108523152Y-113155239D01*
X109583957Y-113155239D01*
X110644761Y-113155239D01*
X110644761Y-114216043D01*
X110644761Y-115276848D01*
G37*
G36*
X110644761Y-121944759D02*
G01*
X109583957Y-121944759D01*
X108523152Y-121944759D01*
X108523152Y-120883955D01*
X108523152Y-120126238D01*
X108826239Y-120126238D01*
X108826239Y-120883955D01*
X108826239Y-121641673D01*
X109583957Y-121641673D01*
X110341674Y-121641673D01*
X110341674Y-120883955D01*
X110341674Y-120126238D01*
X109583957Y-120126238D01*
X108826239Y-120126238D01*
X108523152Y-120126238D01*
X108523152Y-119823151D01*
X109583957Y-119823151D01*
X110644761Y-119823151D01*
X110644761Y-120883955D01*
X110644761Y-121944759D01*
G37*
G36*
X109735500Y-118156173D02*
G01*
X109735500Y-118307717D01*
X109887043Y-118307717D01*
X110038587Y-118307717D01*
X110038587Y-118156173D01*
X110038587Y-118004630D01*
X110341674Y-118004630D01*
X110644761Y-118004630D01*
X110644761Y-118156173D01*
X110644761Y-118307717D01*
X110493217Y-118307717D01*
X110341674Y-118307717D01*
X110341674Y-118459260D01*
X110341674Y-118610804D01*
X110190130Y-118610804D01*
X110038587Y-118610804D01*
X110038587Y-118762347D01*
X110038587Y-118913890D01*
X109887043Y-118913890D01*
X109735500Y-118913890D01*
X109735500Y-118762347D01*
X109735500Y-118610804D01*
X109583957Y-118610804D01*
X109432413Y-118610804D01*
X109432413Y-118307717D01*
X109432413Y-118004630D01*
X109583957Y-118004630D01*
X109735500Y-118004630D01*
X109735500Y-118156173D01*
G37*
G36*
X110493217Y-118610804D02*
G01*
X110644761Y-118610804D01*
X110644761Y-118762347D01*
X110644761Y-118913890D01*
X110493217Y-118913890D01*
X110341674Y-118913890D01*
X110341674Y-118762347D01*
X110341674Y-118610804D01*
X110493217Y-118610804D01*
G37*
G36*
X109129326Y-115883021D02*
G01*
X109129326Y-116186108D01*
X109432413Y-116186108D01*
X109735500Y-116186108D01*
X109735500Y-116034565D01*
X109735500Y-115883021D01*
X109583957Y-115883021D01*
X109432413Y-115883021D01*
X109432413Y-115731478D01*
X109432413Y-115579935D01*
X109887043Y-115579935D01*
X110341674Y-115579935D01*
X110341674Y-116034565D01*
X110341674Y-116489195D01*
X110038587Y-116489195D01*
X109735500Y-116489195D01*
X109735500Y-116640739D01*
X109735500Y-116792282D01*
X109583957Y-116792282D01*
X109432413Y-116792282D01*
X109432413Y-116640739D01*
X109432413Y-116489195D01*
X109280870Y-116489195D01*
X109129326Y-116489195D01*
X109129326Y-116337652D01*
X109129326Y-116186108D01*
X108977783Y-116186108D01*
X108826239Y-116186108D01*
X108826239Y-116034565D01*
X108826239Y-115883021D01*
X108674696Y-115883021D01*
X108523152Y-115883021D01*
X108523152Y-115731478D01*
X108523152Y-115579935D01*
X108826239Y-115579935D01*
X109129326Y-115579935D01*
X109129326Y-115883021D01*
G37*
G36*
X110493217Y-116489195D02*
G01*
X110644761Y-116489195D01*
X110644761Y-116640739D01*
X110644761Y-116792282D01*
X110493217Y-116792282D01*
X110341674Y-116792282D01*
X110341674Y-116640739D01*
X110341674Y-116489195D01*
X110493217Y-116489195D01*
G37*
G36*
X105492283Y-118307717D02*
G01*
X105340740Y-118307717D01*
X105189196Y-118307717D01*
X105189196Y-118459260D01*
X105189196Y-118610804D01*
X104734566Y-118610804D01*
X104279936Y-118610804D01*
X104279936Y-118459260D01*
X104279936Y-118307717D01*
X104128392Y-118307717D01*
X103976849Y-118307717D01*
X103976849Y-118004630D01*
X104583023Y-118004630D01*
X104583023Y-118156173D01*
X104583023Y-118307717D01*
X104734566Y-118307717D01*
X104886110Y-118307717D01*
X104886110Y-118156173D01*
X104886110Y-118004630D01*
X104734566Y-118004630D01*
X104583023Y-118004630D01*
X103976849Y-118004630D01*
X103976849Y-117701543D01*
X104128392Y-117701543D01*
X104279936Y-117701543D01*
X104279936Y-117549999D01*
X104279936Y-117398456D01*
X104431479Y-117398456D01*
X104583023Y-117398456D01*
X104583023Y-116943826D01*
X104583023Y-116489195D01*
X104734566Y-116489195D01*
X104886110Y-116489195D01*
X104886110Y-116792282D01*
X104886110Y-117095369D01*
X105037653Y-117095369D01*
X105189196Y-117095369D01*
X105189196Y-116943826D01*
X105189196Y-116792282D01*
X105340740Y-116792282D01*
X105492283Y-116792282D01*
X105492283Y-116943826D01*
X105492283Y-117095369D01*
X105340740Y-117095369D01*
X105189196Y-117095369D01*
X105189196Y-117398456D01*
X105189196Y-117701543D01*
X105037653Y-117701543D01*
X104886110Y-117701543D01*
X104886110Y-117853086D01*
X104886110Y-118004630D01*
X105189196Y-118004630D01*
X105492283Y-118004630D01*
X105492283Y-117701543D01*
X105492283Y-117398456D01*
X105643827Y-117398456D01*
X105795370Y-117398456D01*
X105795370Y-117701543D01*
X105795370Y-118004630D01*
X105946914Y-118004630D01*
X106098457Y-118004630D01*
X106098457Y-117853086D01*
X106098457Y-117701543D01*
X106250001Y-117701543D01*
X106401544Y-117701543D01*
X106401544Y-117853086D01*
X106401544Y-118004630D01*
X106250001Y-118004630D01*
X106098457Y-118004630D01*
X106098457Y-118156173D01*
X106098457Y-118307717D01*
X105946914Y-118307717D01*
X105795370Y-118307717D01*
X105795370Y-118156173D01*
X105795370Y-118004630D01*
X105643827Y-118004630D01*
X105492283Y-118004630D01*
X105492283Y-118156173D01*
X105492283Y-118307717D01*
G37*
G36*
X105189196Y-119823151D02*
G01*
X105037653Y-119823151D01*
X104886110Y-119823151D01*
X104886110Y-119974695D01*
X104886110Y-120126238D01*
X104734566Y-120126238D01*
X104583023Y-120126238D01*
X104583023Y-120429325D01*
X104583023Y-120732412D01*
X104734566Y-120732412D01*
X104886110Y-120732412D01*
X104886110Y-120429325D01*
X104886110Y-120126238D01*
X105037653Y-120126238D01*
X105189196Y-120126238D01*
X105189196Y-120277781D01*
X105189196Y-120429325D01*
X105340740Y-120429325D01*
X105492283Y-120429325D01*
X105492283Y-120883955D01*
X105492283Y-121035499D01*
X105492283Y-121338586D01*
X105340740Y-121338586D01*
X105189196Y-121338586D01*
X105189196Y-121490129D01*
X105189196Y-121641673D01*
X105037653Y-121641673D01*
X104886110Y-121641673D01*
X104886110Y-121793216D01*
X104886110Y-121944759D01*
X104128392Y-121944759D01*
X103370675Y-121944759D01*
X103370675Y-121793216D01*
X103370675Y-121641673D01*
X103219132Y-121641673D01*
X103067588Y-121641673D01*
X103067588Y-121793216D01*
X103067588Y-121944759D01*
X102916045Y-121944759D01*
X102764501Y-121944759D01*
X102764501Y-121641673D01*
X102764501Y-121338586D01*
X103067588Y-121338586D01*
X103370675Y-121338586D01*
X103370675Y-121490129D01*
X103370675Y-121641673D01*
X103522219Y-121641673D01*
X103673762Y-121641673D01*
X103673762Y-121490129D01*
X103673762Y-121338586D01*
X103825305Y-121338586D01*
X103976849Y-121338586D01*
X103976849Y-121490129D01*
X103976849Y-121641673D01*
X104128392Y-121641673D01*
X104279936Y-121641673D01*
X104279936Y-121338586D01*
X104279936Y-121035499D01*
X104431479Y-121035499D01*
X104583023Y-121035499D01*
X104583023Y-121187042D01*
X104583023Y-121338586D01*
X104886110Y-121338586D01*
X105189196Y-121338586D01*
X105189196Y-121187042D01*
X105189196Y-121035499D01*
X104886110Y-121035499D01*
X104583023Y-121035499D01*
X104583023Y-120883955D01*
X104583023Y-120732412D01*
X103976849Y-120732412D01*
X103370675Y-120732412D01*
X103370675Y-120883955D01*
X103370675Y-121035499D01*
X103219132Y-121035499D01*
X103067588Y-121035499D01*
X103067588Y-120883955D01*
X103067588Y-120732412D01*
X102916045Y-120732412D01*
X102764501Y-120732412D01*
X102764501Y-120883955D01*
X102764501Y-121035499D01*
X102461414Y-121035499D01*
X102158327Y-121035499D01*
X102158327Y-120429325D01*
X102158327Y-119823151D01*
X102006784Y-119823151D01*
X101855241Y-119823151D01*
X101855241Y-119671608D01*
X101855241Y-119520064D01*
X102006784Y-119520064D01*
X102158327Y-119520064D01*
X102158327Y-119368521D01*
X102158327Y-119216977D01*
X102461414Y-119216977D01*
X102461414Y-119520064D01*
X102461414Y-119823151D01*
X102612958Y-119823151D01*
X102764501Y-119823151D01*
X102764501Y-119974695D01*
X102764501Y-120126238D01*
X102612958Y-120126238D01*
X102461414Y-120126238D01*
X102461414Y-120277781D01*
X102461414Y-120429325D01*
X102764501Y-120429325D01*
X103067588Y-120429325D01*
X103067588Y-120126238D01*
X103067588Y-119974695D01*
X103370675Y-119974695D01*
X103370675Y-120429325D01*
X103825305Y-120429325D01*
X104279936Y-120429325D01*
X104279936Y-119974695D01*
X104279936Y-119520064D01*
X104583023Y-119520064D01*
X104583023Y-119671608D01*
X104583023Y-119823151D01*
X104734566Y-119823151D01*
X104886110Y-119823151D01*
X104886110Y-119671608D01*
X104886110Y-119520064D01*
X104734566Y-119520064D01*
X104583023Y-119520064D01*
X104279936Y-119520064D01*
X103825305Y-119520064D01*
X103370675Y-119520064D01*
X103370675Y-119823151D01*
X103370675Y-119974695D01*
X103067588Y-119974695D01*
X103067588Y-119823151D01*
X102916045Y-119823151D01*
X102764501Y-119823151D01*
X102764501Y-119520064D01*
X102764501Y-119216977D01*
X102612958Y-119216977D01*
X102461414Y-119216977D01*
X102158327Y-119216977D01*
X102006784Y-119216977D01*
X101855241Y-119216977D01*
X101855241Y-119065434D01*
X101855241Y-118913890D01*
X102158327Y-118913890D01*
X102461414Y-118913890D01*
X102461414Y-118610804D01*
X102461414Y-118307717D01*
X102612958Y-118307717D01*
X102764501Y-118307717D01*
X102764501Y-118459260D01*
X102764501Y-118610804D01*
X102916045Y-118610804D01*
X103067588Y-118610804D01*
X103067588Y-118913890D01*
X103067588Y-119216977D01*
X103219132Y-119216977D01*
X103370675Y-119216977D01*
X103370675Y-119065434D01*
X103370675Y-118913890D01*
X103522219Y-118913890D01*
X103673762Y-118913890D01*
X103673762Y-118762347D01*
X103673762Y-118610804D01*
X103825305Y-118610804D01*
X103976849Y-118610804D01*
X103976849Y-118762347D01*
X103976849Y-118913890D01*
X105037653Y-118913890D01*
X106098457Y-118913890D01*
X106098457Y-118762347D01*
X106098457Y-118610804D01*
X106250001Y-118610804D01*
X106401544Y-118610804D01*
X106401544Y-118913890D01*
X106401544Y-119216977D01*
X106250001Y-119216977D01*
X106098457Y-119216977D01*
X106098457Y-119368521D01*
X106098457Y-119520064D01*
X106250001Y-119520064D01*
X106401544Y-119520064D01*
X106401544Y-119368521D01*
X106401544Y-119216977D01*
X106553088Y-119216977D01*
X106704631Y-119216977D01*
X106704631Y-119368521D01*
X106704631Y-119520064D01*
X107007718Y-119520064D01*
X107310805Y-119520064D01*
X107310805Y-119368521D01*
X107310805Y-119216977D01*
X107159261Y-119216977D01*
X107007718Y-119216977D01*
X107007718Y-119065434D01*
X107007718Y-118913890D01*
X106856174Y-118913890D01*
X106704631Y-118913890D01*
X106704631Y-118762347D01*
X106704631Y-118610804D01*
X106553088Y-118610804D01*
X106401544Y-118610804D01*
X106401544Y-118459260D01*
X106401544Y-118307717D01*
X106704631Y-118307717D01*
X107007718Y-118307717D01*
X107007718Y-118156173D01*
X107007718Y-118004630D01*
X107159261Y-118004630D01*
X107310805Y-118004630D01*
X107310805Y-117853086D01*
X107310805Y-117701543D01*
X107462348Y-117701543D01*
X107613892Y-117701543D01*
X107613892Y-117853086D01*
X107613892Y-118004630D01*
X107765435Y-118004630D01*
X107916979Y-118004630D01*
X107916979Y-118459260D01*
X107916979Y-118913890D01*
X107765435Y-118913890D01*
X107613892Y-118913890D01*
X107613892Y-118610804D01*
X107613892Y-118307717D01*
X107462348Y-118307717D01*
X107310805Y-118307717D01*
X107310805Y-118610804D01*
X107310805Y-118913890D01*
X107462348Y-118913890D01*
X107613892Y-118913890D01*
X107613892Y-119216977D01*
X107613892Y-119520064D01*
X107765435Y-119520064D01*
X107916979Y-119520064D01*
X107916979Y-119368521D01*
X107916979Y-119216977D01*
X108068522Y-119216977D01*
X108220065Y-119216977D01*
X108220065Y-119065434D01*
X108220065Y-118913890D01*
X108371609Y-118913890D01*
X108523152Y-118913890D01*
X108523152Y-119065434D01*
X108523152Y-119216977D01*
X108674696Y-119216977D01*
X108826239Y-119216977D01*
X108826239Y-119065434D01*
X108826239Y-118913890D01*
X108674696Y-118913890D01*
X108523152Y-118913890D01*
X108523152Y-118762347D01*
X108523152Y-118610804D01*
X108674696Y-118610804D01*
X108826239Y-118610804D01*
X108826239Y-118459260D01*
X108826239Y-118307717D01*
X108674696Y-118307717D01*
X108523152Y-118307717D01*
X108523152Y-118156173D01*
X108523152Y-118004630D01*
X108674696Y-118004630D01*
X108826239Y-118004630D01*
X108826239Y-117853086D01*
X108826239Y-117701543D01*
X108674696Y-117701543D01*
X108523152Y-117701543D01*
X108523152Y-117549999D01*
X108523152Y-117398456D01*
X108674696Y-117398456D01*
X108826239Y-117398456D01*
X108826239Y-117246912D01*
X108826239Y-117095369D01*
X108977783Y-117095369D01*
X109129326Y-117095369D01*
X109129326Y-116943826D01*
X109129326Y-116792282D01*
X109280870Y-116792282D01*
X109432413Y-116792282D01*
X109432413Y-117095369D01*
X109432413Y-117398456D01*
X109735500Y-117398456D01*
X110038587Y-117398456D01*
X110038587Y-117095369D01*
X110038587Y-116792282D01*
X110190130Y-116792282D01*
X110341674Y-116792282D01*
X110341674Y-116943826D01*
X110341674Y-117095369D01*
X110493217Y-117095369D01*
X110644761Y-117095369D01*
X110644761Y-117398456D01*
X110644761Y-117701543D01*
X110493217Y-117701543D01*
X110341674Y-117701543D01*
X110341674Y-117549999D01*
X110341674Y-117398456D01*
X110190130Y-117398456D01*
X110038587Y-117398456D01*
X110038587Y-117549999D01*
X110038587Y-117701543D01*
X109735500Y-117701543D01*
X109432413Y-117701543D01*
X109432413Y-117549999D01*
X109432413Y-117398456D01*
X109280870Y-117398456D01*
X109129326Y-117398456D01*
X109129326Y-118307717D01*
X109129326Y-119216977D01*
X108977783Y-119216977D01*
X108826239Y-119216977D01*
X108826239Y-119368521D01*
X108826239Y-119520064D01*
X108523152Y-119520064D01*
X108220065Y-119520064D01*
X108220065Y-119671608D01*
X108220065Y-119823151D01*
X107765435Y-119823151D01*
X107310805Y-119823151D01*
X107310805Y-119974695D01*
X107310805Y-120126238D01*
X107765435Y-120126238D01*
X108220065Y-120126238D01*
X108220065Y-120277781D01*
X108220065Y-120429325D01*
X108068522Y-120429325D01*
X107916979Y-120429325D01*
X107916979Y-120580868D01*
X107916979Y-120732412D01*
X108068522Y-120732412D01*
X108220065Y-120732412D01*
X108220065Y-121187042D01*
X108220065Y-121641673D01*
X108068522Y-121641673D01*
X107916979Y-121641673D01*
X107916979Y-121793216D01*
X107916979Y-121944759D01*
X107765435Y-121944759D01*
X107613892Y-121944759D01*
X107613892Y-121793216D01*
X107613892Y-121641673D01*
X107462348Y-121641673D01*
X107310805Y-121641673D01*
X107310805Y-121035499D01*
X107310805Y-120429325D01*
X107007718Y-120429325D01*
X106704631Y-120429325D01*
X106704631Y-120580868D01*
X106704631Y-120732412D01*
X106856174Y-120732412D01*
X107007718Y-120732412D01*
X107007718Y-120883955D01*
X107007718Y-121035499D01*
X106704631Y-121035499D01*
X106401544Y-121035499D01*
X106401544Y-120883955D01*
X106401544Y-120732412D01*
X106250001Y-120732412D01*
X106098457Y-120732412D01*
X106098457Y-120580868D01*
X106098457Y-120429325D01*
X105946914Y-120429325D01*
X105795370Y-120429325D01*
X105795370Y-120277781D01*
X105795370Y-120126238D01*
X105946914Y-120126238D01*
X106098457Y-120126238D01*
X106098457Y-119823151D01*
X106098457Y-119520064D01*
X105946914Y-119520064D01*
X105795370Y-119520064D01*
X105795370Y-119671608D01*
X105795370Y-119823151D01*
X105643827Y-119823151D01*
X105492283Y-119823151D01*
X105492283Y-119671608D01*
X105492283Y-119520064D01*
X105340740Y-119520064D01*
X105189196Y-119520064D01*
X105189196Y-119671608D01*
X105189196Y-119823151D01*
G37*
G36*
X103522219Y-121035499D02*
G01*
X103673762Y-121035499D01*
X103673762Y-121187042D01*
X103673762Y-121338586D01*
X103522219Y-121338586D01*
X103370675Y-121338586D01*
X103370675Y-121187042D01*
X103370675Y-121035499D01*
X103522219Y-121035499D01*
G37*
G36*
X107613892Y-116186108D02*
G01*
X107462348Y-116186108D01*
X107310805Y-116186108D01*
X107310805Y-116337652D01*
X107310805Y-116489195D01*
X107462348Y-116489195D01*
X107613892Y-116489195D01*
X107613892Y-116640739D01*
X107613892Y-116792282D01*
X107765435Y-116792282D01*
X107916979Y-116792282D01*
X107916979Y-116489195D01*
X107916979Y-116186108D01*
X108371609Y-116186108D01*
X108826239Y-116186108D01*
X108826239Y-116337652D01*
X108826239Y-116489195D01*
X108523152Y-116489195D01*
X108220065Y-116489195D01*
X108220065Y-116792282D01*
X108220065Y-117095369D01*
X108068522Y-117095369D01*
X107916979Y-117095369D01*
X107916979Y-117398456D01*
X107916979Y-117701543D01*
X107765435Y-117701543D01*
X107613892Y-117701543D01*
X107613892Y-117246912D01*
X107613892Y-116792282D01*
X107310805Y-116792282D01*
X107007718Y-116792282D01*
X107007718Y-117095369D01*
X107007718Y-117398456D01*
X106704631Y-117398456D01*
X106401544Y-117398456D01*
X106401544Y-117095369D01*
X106401544Y-116792282D01*
X105946914Y-116792282D01*
X105492283Y-116792282D01*
X105492283Y-116640739D01*
X106704631Y-116640739D01*
X106704631Y-116792282D01*
X106856174Y-116792282D01*
X107007718Y-116792282D01*
X107007718Y-116640739D01*
X107007718Y-116489195D01*
X106856174Y-116489195D01*
X106704631Y-116489195D01*
X106704631Y-116640739D01*
X105492283Y-116640739D01*
X105492283Y-116489195D01*
X105340740Y-116489195D01*
X105189196Y-116489195D01*
X105189196Y-116337652D01*
X106401544Y-116337652D01*
X106401544Y-116489195D01*
X106553088Y-116489195D01*
X106704631Y-116489195D01*
X106704631Y-116337652D01*
X106704631Y-116186108D01*
X106553088Y-116186108D01*
X106401544Y-116186108D01*
X106401544Y-116337652D01*
X105189196Y-116337652D01*
X105189196Y-116186108D01*
X104886110Y-116186108D01*
X104583023Y-116186108D01*
X104583023Y-116337652D01*
X104583023Y-116489195D01*
X104431479Y-116489195D01*
X104279936Y-116489195D01*
X104279936Y-116337652D01*
X104279936Y-116186108D01*
X104128392Y-116186108D01*
X103976849Y-116186108D01*
X103976849Y-116337652D01*
X103976849Y-116489195D01*
X103825305Y-116489195D01*
X103673762Y-116489195D01*
X103673762Y-116792282D01*
X103673762Y-117095369D01*
X103825305Y-117095369D01*
X103976849Y-117095369D01*
X103976849Y-117246912D01*
X103976849Y-117398456D01*
X103825305Y-117398456D01*
X103673762Y-117398456D01*
X103673762Y-117549999D01*
X103673762Y-117701543D01*
X103522219Y-117701543D01*
X103370675Y-117701543D01*
X103370675Y-118004630D01*
X103370675Y-118307717D01*
X103067588Y-118307717D01*
X102764501Y-118307717D01*
X102764501Y-117853086D01*
X102764501Y-117398456D01*
X102612958Y-117398456D01*
X102461414Y-117398456D01*
X102461414Y-117549999D01*
X102461414Y-117701543D01*
X102309871Y-117701543D01*
X102158327Y-117701543D01*
X102158327Y-117853086D01*
X102158327Y-118004630D01*
X102309871Y-118004630D01*
X102461414Y-118004630D01*
X102461414Y-118156173D01*
X102461414Y-118307717D01*
X102158327Y-118307717D01*
X101855241Y-118307717D01*
X101855241Y-117398456D01*
X101855241Y-117246912D01*
X102158327Y-117246912D01*
X102158327Y-117398456D01*
X102309871Y-117398456D01*
X102461414Y-117398456D01*
X102461414Y-117246912D01*
X102461414Y-117095369D01*
X102309871Y-117095369D01*
X102158327Y-117095369D01*
X102158327Y-117246912D01*
X101855241Y-117246912D01*
X101855241Y-116489195D01*
X102006784Y-116489195D01*
X102158327Y-116489195D01*
X102158327Y-116640739D01*
X102158327Y-116792282D01*
X102461414Y-116792282D01*
X102764501Y-116792282D01*
X102764501Y-116943826D01*
X102764501Y-117095369D01*
X102916045Y-117095369D01*
X103067588Y-117095369D01*
X103067588Y-117246912D01*
X103067588Y-117398456D01*
X103219132Y-117398456D01*
X103370675Y-117398456D01*
X103370675Y-116792282D01*
X103370675Y-116186108D01*
X103219132Y-116186108D01*
X103067588Y-116186108D01*
X103067588Y-116489195D01*
X103067588Y-116792282D01*
X102916045Y-116792282D01*
X102764501Y-116792282D01*
X102764501Y-116640739D01*
X102764501Y-116489195D01*
X102461414Y-116489195D01*
X102158327Y-116489195D01*
X102158327Y-116337652D01*
X102158327Y-116186108D01*
X102006784Y-116186108D01*
X101855241Y-116186108D01*
X101855241Y-116034565D01*
X101855241Y-115883021D01*
X102006784Y-115883021D01*
X102158327Y-115883021D01*
X102158327Y-116034565D01*
X102158327Y-116186108D01*
X102309871Y-116186108D01*
X102461414Y-116186108D01*
X102461414Y-116034565D01*
X102461414Y-115883021D01*
X102309871Y-115883021D01*
X102158327Y-115883021D01*
X102158327Y-115731478D01*
X102158327Y-115579935D01*
X102461414Y-115579935D01*
X102764501Y-115579935D01*
X102764501Y-115731478D01*
X102764501Y-115883021D01*
X103522219Y-115883021D01*
X104279936Y-115883021D01*
X104279936Y-116034565D01*
X104279936Y-116186108D01*
X104431479Y-116186108D01*
X104583023Y-116186108D01*
X104583023Y-116034565D01*
X104583023Y-115883021D01*
X104734566Y-115883021D01*
X104886110Y-115883021D01*
X104886110Y-115428391D01*
X104886110Y-114973761D01*
X104734566Y-114973761D01*
X104583023Y-114973761D01*
X104583023Y-115276848D01*
X104583023Y-115579935D01*
X104431479Y-115579935D01*
X104279936Y-115579935D01*
X104279936Y-115125304D01*
X104279936Y-114670674D01*
X104431479Y-114670674D01*
X104583023Y-114670674D01*
X104583023Y-114519130D01*
X104583023Y-114367587D01*
X104431479Y-114367587D01*
X104279936Y-114367587D01*
X104279936Y-114064500D01*
X104279936Y-113761413D01*
X104431479Y-113761413D01*
X104583023Y-113761413D01*
X104583023Y-113912957D01*
X104583023Y-114064500D01*
X104734566Y-114064500D01*
X104886110Y-114064500D01*
X104886110Y-114367587D01*
X104886110Y-114670674D01*
X105037653Y-114670674D01*
X105189196Y-114670674D01*
X105189196Y-114973761D01*
X105189196Y-115276848D01*
X105340740Y-115276848D01*
X105492283Y-115276848D01*
X105492283Y-114973761D01*
X105492283Y-114670674D01*
X105795370Y-114670674D01*
X106098457Y-114670674D01*
X106098457Y-114519130D01*
X106098457Y-114367587D01*
X106250001Y-114367587D01*
X106401544Y-114367587D01*
X106401544Y-114519130D01*
X106401544Y-114670674D01*
X106553088Y-114670674D01*
X106704631Y-114670674D01*
X106704631Y-114519130D01*
X106704631Y-114367587D01*
X106553088Y-114367587D01*
X106401544Y-114367587D01*
X106401544Y-113912957D01*
X106401544Y-113458326D01*
X106098457Y-113458326D01*
X105795370Y-113458326D01*
X105795370Y-113306783D01*
X105795370Y-113155239D01*
X106098457Y-113155239D01*
X106401544Y-113155239D01*
X106401544Y-113306783D01*
X106401544Y-113458326D01*
X106553088Y-113458326D01*
X106704631Y-113458326D01*
X106704631Y-113306783D01*
X106704631Y-113155239D01*
X106856174Y-113155239D01*
X107007718Y-113155239D01*
X107007718Y-113306783D01*
X107007718Y-113458326D01*
X106856174Y-113458326D01*
X106704631Y-113458326D01*
X106704631Y-113912957D01*
X106704631Y-114367587D01*
X107007718Y-114367587D01*
X107310805Y-114367587D01*
X107310805Y-114216043D01*
X107310805Y-114064500D01*
X107159261Y-114064500D01*
X107007718Y-114064500D01*
X107007718Y-113761413D01*
X107007718Y-113458326D01*
X107310805Y-113458326D01*
X107613892Y-113458326D01*
X107613892Y-113609870D01*
X107613892Y-113761413D01*
X107765435Y-113761413D01*
X107916979Y-113761413D01*
X107916979Y-113609870D01*
X107916979Y-113458326D01*
X108068522Y-113458326D01*
X108220065Y-113458326D01*
X108220065Y-113761413D01*
X108220065Y-114064500D01*
X108068522Y-114064500D01*
X107916979Y-114064500D01*
X107916979Y-114216043D01*
X107916979Y-114367587D01*
X107765435Y-114367587D01*
X107613892Y-114367587D01*
X107613892Y-114519130D01*
X107613892Y-114670674D01*
X107159261Y-114670674D01*
X106704631Y-114670674D01*
X106704631Y-114822217D01*
X106704631Y-114973761D01*
X106553088Y-114973761D01*
X106401544Y-114973761D01*
X106401544Y-115125304D01*
X106401544Y-115276848D01*
X106250001Y-115276848D01*
X106098457Y-115276848D01*
X106098457Y-115125304D01*
X106098457Y-114973761D01*
X105946914Y-114973761D01*
X105795370Y-114973761D01*
X105795370Y-115276848D01*
X105795370Y-115579935D01*
X105492283Y-115579935D01*
X105189196Y-115579935D01*
X105189196Y-115731478D01*
X105189196Y-115883021D01*
X105340740Y-115883021D01*
X105492283Y-115883021D01*
X105492283Y-116034565D01*
X105492283Y-116186108D01*
X105643827Y-116186108D01*
X105795370Y-116186108D01*
X105795370Y-116034565D01*
X106098457Y-116034565D01*
X106098457Y-116186108D01*
X106250001Y-116186108D01*
X106401544Y-116186108D01*
X106401544Y-116034565D01*
X106401544Y-115883021D01*
X106250001Y-115883021D01*
X106098457Y-115883021D01*
X106098457Y-116034565D01*
X105795370Y-116034565D01*
X105795370Y-115883021D01*
X105795370Y-115579935D01*
X106098457Y-115579935D01*
X106401544Y-115579935D01*
X106401544Y-115731478D01*
X106401544Y-115883021D01*
X106553088Y-115883021D01*
X106704631Y-115883021D01*
X107007718Y-115883021D01*
X107007718Y-116034565D01*
X107007718Y-116186108D01*
X107159261Y-116186108D01*
X107310805Y-116186108D01*
X107310805Y-116034565D01*
X107310805Y-115883021D01*
X107159261Y-115883021D01*
X107007718Y-115883021D01*
X106704631Y-115883021D01*
X106704631Y-115731478D01*
X106704631Y-115579935D01*
X106856174Y-115579935D01*
X107007718Y-115579935D01*
X107007718Y-115428391D01*
X107007718Y-115276848D01*
X107159261Y-115276848D01*
X107310805Y-115276848D01*
X107310805Y-115125304D01*
X107310805Y-114973761D01*
X107462348Y-114973761D01*
X107613892Y-114973761D01*
X107613892Y-115125304D01*
X107613892Y-115276848D01*
X107462348Y-115276848D01*
X107310805Y-115276848D01*
X107310805Y-115579935D01*
X107310805Y-115883021D01*
X107462348Y-115883021D01*
X107613892Y-115883021D01*
X107613892Y-115731478D01*
X107613892Y-115579935D01*
X107765435Y-115579935D01*
X107916979Y-115579935D01*
X107916979Y-115731478D01*
X107916979Y-115883021D01*
X107765435Y-115883021D01*
X107613892Y-115883021D01*
X107613892Y-116034565D01*
X107613892Y-116186108D01*
G37*
G36*
X106856174Y-114973761D02*
G01*
X107007718Y-114973761D01*
X107007718Y-115125304D01*
X107007718Y-115276848D01*
X106856174Y-115276848D01*
X106704631Y-115276848D01*
X106704631Y-115125304D01*
X106704631Y-114973761D01*
X106856174Y-114973761D01*
G37*
%TD*%
%LPC*%
D18*
%TO.C,J8*%
X145250000Y-132555000D03*
D19*
X147750000Y-132555000D03*
X150250000Y-132555000D03*
X152750000Y-132555000D03*
%TD*%
D20*
%TO.C,H1*%
X82000000Y-92000000D03*
%TD*%
D21*
%TO.C,J4*%
X129700000Y-123600000D03*
%TD*%
D22*
%TO.C,H8*%
X169700000Y-90300000D03*
%TD*%
D21*
%TO.C,J3*%
X151170000Y-100000000D03*
D23*
X153710000Y-100000000D03*
X156250000Y-100000000D03*
X158790000Y-100000000D03*
%TD*%
D22*
%TO.C,H7*%
X79000000Y-137000000D03*
%TD*%
D18*
%TO.C,J11*%
X117425000Y-131912500D03*
D19*
X119925000Y-131912500D03*
X122425000Y-131912500D03*
X124925000Y-131912500D03*
%TD*%
D24*
%TO.C,H6*%
X153000000Y-94000000D03*
%TD*%
D18*
%TO.C,J10*%
X131075000Y-132242500D03*
D19*
X133575000Y-132242500D03*
X136075000Y-132242500D03*
X138575000Y-132242500D03*
%TD*%
D18*
%TO.C,J9*%
X159250000Y-132555000D03*
D19*
X161750000Y-132555000D03*
X164250000Y-132555000D03*
X166750000Y-132555000D03*
%TD*%
D21*
%TO.C,J7*%
X136180000Y-107525000D03*
D23*
X133640000Y-107525000D03*
X131100000Y-107525000D03*
%TD*%
D24*
%TO.C,H5*%
X103000000Y-94000000D03*
%TD*%
D18*
%TO.C,J5*%
X89250000Y-132455000D03*
D19*
X91750000Y-132455000D03*
X94250000Y-132455000D03*
X96750000Y-132455000D03*
%TD*%
D24*
%TO.C,H2*%
X174000000Y-134000000D03*
%TD*%
%TO.C,H4*%
X174000000Y-92000000D03*
%TD*%
D18*
%TO.C,J6*%
X103250000Y-132292500D03*
D19*
X105750000Y-132292500D03*
X108250000Y-132292500D03*
X110750000Y-132292500D03*
%TD*%
D22*
%TO.C,H9*%
X86000000Y-91000000D03*
%TD*%
D24*
%TO.C,H3*%
X82000000Y-134000000D03*
%TD*%
D25*
%TO.C,J1*%
X108940000Y-93013272D03*
X108940000Y-98063272D03*
X111480000Y-93013272D03*
X111480000Y-98063272D03*
X114020000Y-93013272D03*
X114020000Y-98063272D03*
X116560000Y-93013272D03*
X116560000Y-98063272D03*
X119100000Y-93013272D03*
X119100000Y-98063272D03*
X121640000Y-93013272D03*
X121640000Y-98063272D03*
X124180000Y-93013272D03*
X124180000Y-98063272D03*
X126720000Y-93013272D03*
X126720000Y-98063272D03*
X129260000Y-93013272D03*
X129260000Y-98063272D03*
X131800000Y-93013272D03*
X131800000Y-98063272D03*
X134340000Y-93013272D03*
X134340000Y-98063272D03*
X136880000Y-93013272D03*
X136880000Y-98063272D03*
X139420000Y-93013272D03*
X139420000Y-98063272D03*
X141960000Y-93013272D03*
X141960000Y-98063272D03*
X144500000Y-93013272D03*
X144500000Y-98063272D03*
X147040000Y-93013272D03*
X147040000Y-98063272D03*
%TD*%
%LPD*%
M02*
