%TF.GenerationSoftware,KiCad,Pcbnew,10.0.1*%
%TF.CreationDate,2026-04-16T23:36:03+02:00*%
%TF.ProjectId,MMS3_hat_HC-SR04-HX711,4d4d5333-5f68-4617-945f-48432d535230,R0*%
%TF.SameCoordinates,Original*%
%TF.FileFunction,Soldermask,Top*%
%TF.FilePolarity,Negative*%
%FSLAX46Y46*%
G04 Gerber Fmt 4.6, Leading zero omitted, Abs format (unit mm)*
G04 Created by KiCad (PCBNEW 10.0.1) date 2026-04-16 23:36:03*
%MOMM*%
%LPD*%
G01*
G04 APERTURE LIST*
G04 Aperture macros list*
%AMRoundRect*
0 Rectangle with rounded corners*
0 $1 Rounding radius*
0 $2 $3 $4 $5 $6 $7 $8 $9 X,Y pos of 4 corners*
0 Add a 4 corners polygon primitive as box body*
4,1,4,$2,$3,$4,$5,$6,$7,$8,$9,$2,$3,0*
0 Add four circle primitives for the rounded corners*
1,1,$1+$1,$2,$3*
1,1,$1+$1,$4,$5*
1,1,$1+$1,$6,$7*
1,1,$1+$1,$8,$9*
0 Add four rect primitives between the rounded corners*
20,1,$1+$1,$2,$3,$4,$5,0*
20,1,$1+$1,$4,$5,$6,$7,0*
20,1,$1+$1,$6,$7,$8,$9,0*
20,1,$1+$1,$8,$9,$2,$3,0*%
G04 Aperture macros list end*
%ADD10RoundRect,0.050000X0.375000X0.050000X-0.375000X0.050000X-0.375000X-0.050000X0.375000X-0.050000X0*%
%ADD11RoundRect,0.050000X0.050000X0.375000X-0.050000X0.375000X-0.050000X-0.375000X0.050000X-0.375000X0*%
%ADD12C,0.500000*%
%ADD13RoundRect,0.250000X0.575000X0.575000X-0.575000X0.575000X-0.575000X-0.575000X0.575000X-0.575000X0*%
%ADD14R,1.700000X1.700000*%
%ADD15RoundRect,0.159000X0.189000X-0.159000X0.189000X0.159000X-0.189000X0.159000X-0.189000X-0.159000X0*%
%ADD16RoundRect,0.159000X-0.189000X0.159000X-0.189000X-0.159000X0.189000X-0.159000X0.189000X0.159000X0*%
%ADD17RoundRect,0.239000X0.239000X0.274000X-0.239000X0.274000X-0.239000X-0.274000X0.239000X-0.274000X0*%
%ADD18RoundRect,0.244000X-0.244000X-0.269000X0.244000X-0.269000X0.244000X0.269000X-0.244000X0.269000X0*%
%ADD19O,1.745000X0.560000*%
%ADD20RoundRect,0.150000X-0.150000X0.590000X-0.150000X-0.590000X0.150000X-0.590000X0.150000X0.590000X0*%
%ADD21RoundRect,0.239000X0.274000X-0.239000X0.274000X0.239000X-0.274000X0.239000X-0.274000X-0.239000X0*%
%ADD22RoundRect,0.244000X0.244000X0.269000X-0.244000X0.269000X-0.244000X-0.269000X0.244000X-0.269000X0*%
%ADD23RoundRect,0.159000X-0.159000X-0.189000X0.159000X-0.189000X0.159000X0.189000X-0.159000X0.189000X0*%
%ADD24RoundRect,0.250000X-0.600000X-0.725000X0.600000X-0.725000X0.600000X0.725000X-0.600000X0.725000X0*%
%ADD25O,1.700000X1.950000*%
%ADD26C,3.100000*%
%ADD27C,4.700000*%
%ADD28RoundRect,0.159000X0.159000X0.189000X-0.159000X0.189000X-0.159000X-0.189000X0.159000X-0.189000X0*%
%ADD29RoundRect,0.244000X0.269000X-0.244000X0.269000X0.244000X-0.269000X0.244000X-0.269000X-0.244000X0*%
%ADD30RoundRect,0.244000X-0.269000X0.244000X-0.269000X-0.244000X0.269000X-0.244000X0.269000X0.244000X0*%
%ADD31RoundRect,0.250000X-1.000000X-0.300000X1.000000X-0.300000X1.000000X0.300000X-1.000000X0.300000X0*%
%ADD32RoundRect,0.250000X-0.920000X-1.550000X0.920000X-1.550000X0.920000X1.550000X-0.920000X1.550000X0*%
%ADD33R,1.000000X3.000000*%
%ADD34C,1.296000*%
%ADD35C,1.700000*%
%ADD36O,1.950000X0.570000*%
%ADD37O,0.364000X1.742000*%
G04 APERTURE END LIST*
D10*
%TO.C,U5*%
X128200000Y-118200000D03*
X128200000Y-117800000D03*
X128200000Y-117400000D03*
X128200000Y-117000000D03*
X128200000Y-116600000D03*
D11*
X127550000Y-115950000D03*
X127150000Y-115950000D03*
X126750000Y-115950000D03*
X126350000Y-115950000D03*
X125950000Y-115950000D03*
D10*
X125300000Y-116600000D03*
X125300000Y-117000000D03*
X125300000Y-117400000D03*
X125300000Y-117800000D03*
X125300000Y-118200000D03*
D11*
X125950000Y-118850000D03*
X126350000Y-118850000D03*
X126750000Y-118850000D03*
X127150000Y-118850000D03*
X127550000Y-118850000D03*
D12*
X126750000Y-117400000D03*
D13*
X126750000Y-117400000D03*
%TD*%
D14*
%TO.C,J4*%
X129700000Y-123600000D03*
%TD*%
D15*
%TO.C,R11*%
X129325000Y-119500000D03*
X129325000Y-118500000D03*
%TD*%
D16*
%TO.C,R12*%
X128100000Y-120000000D03*
X128100000Y-121000000D03*
%TD*%
D17*
%TO.C,D4*%
X130900000Y-120900000D03*
X129320000Y-120900000D03*
%TD*%
D18*
%TO.C,C6*%
X127920000Y-114600000D03*
X129480000Y-114600000D03*
%TD*%
D19*
%TO.C,U6*%
X154030000Y-117112500D03*
X154030000Y-118392500D03*
X154030000Y-119662500D03*
X154030000Y-120932500D03*
X154030000Y-122192500D03*
X154030000Y-123462500D03*
X154030000Y-124732500D03*
X154030000Y-126012500D03*
X159770000Y-117112500D03*
X159770000Y-118392500D03*
X159770000Y-119662500D03*
X159770000Y-120932500D03*
X159770000Y-122192500D03*
X159770000Y-123462500D03*
X159770000Y-124732500D03*
X159770000Y-126012500D03*
%TD*%
D16*
%TO.C,R24*%
X151400000Y-121900000D03*
X151400000Y-122900000D03*
%TD*%
%TO.C,R23*%
X151700000Y-119800000D03*
X151700000Y-120800000D03*
%TD*%
D20*
%TO.C,Q3*%
X146150000Y-117320000D03*
X144250000Y-117320000D03*
X145200000Y-119200000D03*
%TD*%
D21*
%TO.C,D3*%
X175300000Y-102290000D03*
X175300000Y-100710000D03*
%TD*%
D22*
%TO.C,C13*%
X151480000Y-124400000D03*
X149920000Y-124400000D03*
%TD*%
D23*
%TO.C,R16*%
X162900000Y-124600000D03*
X163900000Y-124600000D03*
%TD*%
%TO.C,R15*%
X162700000Y-126400000D03*
X163700000Y-126400000D03*
%TD*%
D24*
%TO.C,J8*%
X145250000Y-132555000D03*
D25*
X147750000Y-132555000D03*
X150250000Y-132555000D03*
X152750000Y-132555000D03*
%TD*%
D26*
%TO.C,H1*%
X82000000Y-92000000D03*
D27*
X82000000Y-92000000D03*
%TD*%
D28*
%TO.C,R14*%
X150100000Y-125820000D03*
X149100000Y-125820000D03*
%TD*%
D29*
%TO.C,C16*%
X159900000Y-115880000D03*
X159900000Y-114320000D03*
%TD*%
D30*
%TO.C,C12*%
X149900000Y-119920000D03*
X149900000Y-121480000D03*
%TD*%
%TO.C,C4*%
X107300000Y-108220000D03*
X107300000Y-109780000D03*
%TD*%
D31*
%TO.C,U3*%
X102970000Y-110300000D03*
X102970000Y-108000000D03*
X102970000Y-105700000D03*
D12*
X97000000Y-107000000D03*
X97000000Y-108000000D03*
D32*
X97000000Y-108000000D03*
D12*
X97000000Y-109000000D03*
%TD*%
D28*
%TO.C,R8*%
X109300000Y-126837500D03*
X108300000Y-126837500D03*
%TD*%
D15*
%TO.C,R27*%
X173700000Y-101700000D03*
X173700000Y-100700000D03*
%TD*%
D33*
%TO.C,J2*%
X108950000Y-93038272D03*
X108950000Y-98078272D03*
X111490000Y-93038272D03*
X111490000Y-98078272D03*
X114030000Y-93038272D03*
X114030000Y-98078272D03*
X116570000Y-93038272D03*
X116570000Y-98078272D03*
X119110000Y-93038272D03*
X119110000Y-98078272D03*
X121650000Y-93038272D03*
X121650000Y-98078272D03*
X124190000Y-93038272D03*
X124190000Y-98078272D03*
X126730000Y-93038272D03*
X126730000Y-98078272D03*
X129270000Y-93038272D03*
X129270000Y-98078272D03*
X131810000Y-93038272D03*
X131810000Y-98078272D03*
X134350000Y-93038272D03*
X134350000Y-98078272D03*
X136890000Y-93038272D03*
X136890000Y-98078272D03*
X139430000Y-93038272D03*
X139430000Y-98078272D03*
X141970000Y-93038272D03*
X141970000Y-98078272D03*
X144510000Y-93038272D03*
X144510000Y-98078272D03*
X147050000Y-93038272D03*
X147050000Y-98078272D03*
%TD*%
D34*
%TO.C,H8*%
X169700000Y-90300000D03*
%TD*%
D14*
%TO.C,J3*%
X151170000Y-100000000D03*
D35*
X153710000Y-100000000D03*
X156250000Y-100000000D03*
X158790000Y-100000000D03*
%TD*%
D28*
%TO.C,R20*%
X137125000Y-126787500D03*
X136125000Y-126787500D03*
%TD*%
D34*
%TO.C,H7*%
X79000000Y-137000000D03*
%TD*%
D29*
%TO.C,C1*%
X147900000Y-108380000D03*
X147900000Y-106820000D03*
%TD*%
D36*
%TO.C,U2*%
X168710000Y-102660000D03*
X168710000Y-101390000D03*
X168710000Y-100110000D03*
X168710000Y-98840000D03*
X163290000Y-98840000D03*
X163290000Y-100110000D03*
X163290000Y-101390000D03*
X163290000Y-102660000D03*
%TD*%
D22*
%TO.C,C14*%
X152180000Y-115500000D03*
X150620000Y-115500000D03*
%TD*%
D24*
%TO.C,J11*%
X117425000Y-131912500D03*
D25*
X119925000Y-131912500D03*
X122425000Y-131912500D03*
X124925000Y-131912500D03*
%TD*%
D24*
%TO.C,J10*%
X131075000Y-132242500D03*
D25*
X133575000Y-132242500D03*
X136075000Y-132242500D03*
X138575000Y-132242500D03*
%TD*%
D24*
%TO.C,J9*%
X159250000Y-132555000D03*
D25*
X161750000Y-132555000D03*
X164250000Y-132555000D03*
X166750000Y-132555000D03*
%TD*%
D30*
%TO.C,C5*%
X105800000Y-108220000D03*
X105800000Y-109780000D03*
%TD*%
%TO.C,C2*%
X161450000Y-102670000D03*
X161450000Y-104230000D03*
%TD*%
D23*
%TO.C,R1*%
X153100000Y-103000000D03*
X154100000Y-103000000D03*
%TD*%
D14*
%TO.C,J7*%
X136180000Y-107525000D03*
D35*
X133640000Y-107525000D03*
X131100000Y-107525000D03*
%TD*%
D24*
%TO.C,J5*%
X89250000Y-132455000D03*
D25*
X91750000Y-132455000D03*
X94250000Y-132455000D03*
X96750000Y-132455000D03*
%TD*%
D16*
%TO.C,R5*%
X94300000Y-128000000D03*
X94300000Y-129000000D03*
%TD*%
D30*
%TO.C,C11*%
X148200000Y-119920000D03*
X148200000Y-121480000D03*
%TD*%
D37*
%TO.C,U1*%
X146860000Y-102700000D03*
X146210000Y-102700000D03*
X145560000Y-102700000D03*
X144910000Y-102700000D03*
X144250000Y-102700000D03*
X143600000Y-102700000D03*
X142950000Y-102700000D03*
X142300000Y-102700000D03*
X141650000Y-102700000D03*
X141000000Y-102700000D03*
X146860000Y-108440000D03*
X146210000Y-108440000D03*
X145560000Y-108440000D03*
X144910000Y-108440000D03*
X144250000Y-108440000D03*
X143600000Y-108440000D03*
X142950000Y-108440000D03*
X142300000Y-108440000D03*
X141650000Y-108440000D03*
X141000000Y-108440000D03*
%TD*%
D29*
%TO.C,C9*%
X151600000Y-127380000D03*
X151600000Y-125820000D03*
%TD*%
D28*
%TO.C,R13*%
X150100000Y-127420000D03*
X149100000Y-127420000D03*
%TD*%
D16*
%TO.C,R7*%
X108300000Y-127837500D03*
X108300000Y-128837500D03*
%TD*%
D28*
%TO.C,R9*%
X157200000Y-97500000D03*
X156200000Y-97500000D03*
%TD*%
D24*
%TO.C,J6*%
X103250000Y-132292500D03*
D25*
X105750000Y-132292500D03*
X108250000Y-132292500D03*
X110750000Y-132292500D03*
%TD*%
D16*
%TO.C,R19*%
X136125000Y-127787500D03*
X136125000Y-128787500D03*
%TD*%
%TO.C,R21*%
X122475000Y-127457500D03*
X122475000Y-128457500D03*
%TD*%
D34*
%TO.C,H9*%
X86000000Y-91000000D03*
%TD*%
D28*
%TO.C,R22*%
X123475000Y-126457500D03*
X122475000Y-126457500D03*
%TD*%
D15*
%TO.C,R25*%
X157200000Y-96600000D03*
X157200000Y-95600000D03*
%TD*%
D18*
%TO.C,C3*%
X104320000Y-104400000D03*
X105880000Y-104400000D03*
%TD*%
D22*
%TO.C,C15*%
X152180000Y-117100000D03*
X150620000Y-117100000D03*
%TD*%
D29*
%TO.C,C10*%
X161500000Y-126280000D03*
X161500000Y-124720000D03*
%TD*%
D28*
%TO.C,R6*%
X95300000Y-127000000D03*
X94300000Y-127000000D03*
%TD*%
M02*
